<svg version="1.1" viewBox="0 0 1676.7 1881.2" xmlns="http://www.w3.org/2000/svg" xmlns:xlink="http://www.w3.org/1999/xlink">
 <path d="m934.33 1550.9c0-50.272-8.3849-105.87-22.147-154.16-5.0803-17.825-16.28-33.94-21.093-52.177-8.1406-30.848-13.215-66.706-16.874-98.803-4.0843-35.828 29.618-62.95 27.42-98.803-2.7496-44.86-19.721-88.337-28.475-132.11-6.6589-33.296-3.8242-69.532-7.3826-103.24-5.2132-49.388-18.906-93.912-31.489-141.59-8.8931-33.7-2.7859-90.292-4.2187-126.49-1.1592-29.287-6.4222-58.388-7.3823-87.701-2.2952-70.067-1.9701-139.78 1.0545-209.82 1.966-45.522 12.918-88.384 17.929-133.22 4.1104-36.776 18.427-161.06 13.022-176.9-2.119-6.2128-18.215-25.757-22.569-30.67-1.2554 37.937 4.3025 74.175 2.3545 112.1-1.4492 28.219-8.3285 50.38-12.656 77.71-6.8095 43.009-14.541 87.311-17.929 131-1.9081 24.605 0.8902 15.552 3.1639 39.965 3.2342 34.726 5.595 70.656 7.3823 105.46 1.5924 31.011-3.1639 61.231-3.1639 92.142 0 52.614 7.5529 96.515 1.0546 149.87-5.5394 45.48-13.779 90.1-21.092 135.44-5.0789 31.483-5.8427 10.353-8.4371 41.075-3.0792 36.463-2.6425 73.398-4.2187 109.9-1.8472 42.781-3.4517 58.074-2.242 100.94 0.37106 13.15-0.87641 44.807 0.54879 62.519 2.1905 27.223-18.642 103.1-23.618 136.27-7.9424 52.95-8.532 107.66-11.601 160.97-1.3117 22.784-8.2497 45.156-10.546 67.718-2.926 28.748-5.4976 57.862-9.4916 86.591-5.7491 41.353-21.102 81.232-23.202 123.23-1.4917 29.829 3.517 60.332 6.3278 89.922 1.5557 16.378 0.1142 36.916 5.0863 52.621" style="fill:none;stroke-width:3.5;stroke:#000"/>
 <path d="m1225.1 604.82c-6.911-6.3874-60.555-23.048-61.42-23.344-24.488-8.3651-42.62-22.07-59.888-32.858-6.7317-4.2052-9.8878-13.296-15.593-18.634-19.08-17.853-36.629-37.057-51.677-58.837-5.3782-7.7843-7.0678-18.675-14.487-27.46-25.027-29.637-24.186-63.889-46.898-97.093-17.776-25.988-49.155-46.192-61.265-74.003-14.399-33.07-31.496-68.396-37.403-104.17-5.8982-35.72-23.991-61.631-29.869-97.519-1.7511-10.691-2.6673-15.438-3.3751-26.249-0.7887-12.048-12.369-28.987-11.46-41.027-0.8485 16.167 10.611 16.85 20.63 37.592 10.068 20.844 11.834 31.821 12.656 34.414 10.977 34.663 13.809 76.988 32.694 108.79 13.819 23.275 33.326 40.472 48.513 62.168 8.765 12.521 15.68 28.448 27.42 38.855 18.483 16.384 41.65 27.879 61.041 43.188 22.012 17.378 43.565 36.194 65.028 54.073" style="fill:none;stroke-width:3;stroke:#000"/>
 <path d="m821.18 429.42c10.367 10.507 23.897 70.716 34.535 80.948 11.918 11.463 27.54 20.224 38.74 32.332 20.408 22.061 42.797 44.961 69.752 59.148" style="fill:none;stroke:#000"/>
 <path d="m842.57 309.69c7.5366 19.063 14.024 38.574 22.61 57.188 7.2939 15.814 70.431 45.288 89.644 51.066 23.483 7.0623 39.88 3.3053 55.142 25.906" style="fill:none;stroke:#000"/>
 <path d="m834.36 104.19c-23.009 19.708-23.563 69.024-41.359 92.642-2.7644 3.6689-6.328 6.6609-9.4919 9.9913-8.4371 11.101-17.562 21.712-25.311 33.304-43.326 64.809-58.077 148.58-119.66 200.44" style="fill:none;stroke:#000"/>
 <path d="m831.78 3.6612c-7.7069 20.921-18.653 40.92-23.121 62.763-7.3924 36.143 12.932 75.437 4.2184 112.12-8.5451 35.98-28.763 67.527-39.021 103.24-9.2265 32.124-13.69 63.943-28.475 94.362-14.427 29.682-38.264 60.882-46.404 93.252-16.687 66.357-15.392 138.67-44.294 202.05-24.375 53.452-93.863 154.88-93.863 208.71" style="fill:none;stroke-width:3;stroke:#000"/>
 <path d="m841.72 216.77c-6.2267 87.986 10.702 88.686-12.263 175.31-12.109 45.676-28.514 90.11-37.967 136.55-7.5894 37.282-10.24 74.894-17.929 112.12-4.6862 22.691-13.926 43.98-18.984 66.608-11.502 51.456-11.831 104.42-26.366 155.42-18.461 64.774-35.642 129.42-49.568 195.38-3.9693 18.803-11.601 36.173-11.601 55.507" style="fill:none;stroke-width:2;stroke:#000"/>
 <path d="m846.77 170.84c4.9216 25.533 6.8752 60.363 11.952 85.866 4.7607 23.918 12.75 53.398 13.614 78.864 0.5315 15.663-3.5106 31.579-1.0548 47.736 5.5105 36.254 13.475 72.229 17.929 108.79 1.5711 12.899 0.6696 26.102 3.1639 38.855 4.8456 24.775 14.452 45.974 21.093 69.939 5.1009 18.409 5.7288 38.074 11.601 56.617" style="fill:none;stroke-width:3;stroke:#000"/>
 <path d="m833.65 63.869c19.593 93.015 18.695 74.831 22.872 93.882 11.981 54.65 25.14 69.158 51.017 119.45 8.1499 15.838 16.715 24.768 27.42 38.855 17.585 23.138 21.574 70.055 35.768 95.455 18.338 32.815 31.284 61.713 48.884 94.648 9.1022 17.033 10.504 16.533 22.025 38.266 16.108 30.385 18.21 57.324 19.348 58.821" style="fill:none;stroke-width:4;stroke:#000"/>
 <path d="m834.34 100.93c2.4068-0.37325 13.62 20.931 18.829 32.231 8.176 17.733 8.1285 38.11 19.276 55.319 14.816 22.873 98.421 99.004 140.16 84.358" style="fill:none;stroke:#000"/>
 <path d="m832.87 42.42c-1.4229 8.497 38.456 84.15 39.461 92.707 2.4147 20.554 37.992 65.005 51.155 71.118 18.247 8.4737 35.962 20.87 55.896 25.533 41.865 9.7933 86.039 17.81 129.3 15.413 22.409-1.2414 46.318-5.6724 68.551-4.4406 27.49 1.5231 77.705 19.916 100.72 13.382" style="fill:none;stroke-width:3;stroke:#000"/>
 <path d="m835.13 5.7512c-4.4123 37.797-21.727 182.47-42.768 211.43-21.652 29.804-40.83 60.005-65.387 87.701-8.9343 10.076-20.377 17.009-29.53 26.643-20.723 21.814-39.424 42.804-64.333 59.948-39.092 26.906-51.308 76.157-93.129 98.166" style="fill:none;stroke:#000"/>
 <path d="m831.78 3.6612c-48.107 61.443-18.512 150.47-64.808 211.01-20.313 53.455-118.22 146.36-166.63 179.84-22.451 15.53-20.169 14.351-44.273 27.037-12.76 6.7156-19.764 8.752-39.511 22.263-3.5009 2.3954-25.772 18.523-21.853 16.9 2.5673-1.0629-17.187 10.995-14.599 9.9829" style="fill:none;stroke-width:3;stroke:#000"/>
 <path d="m831.78 3.6612c-8.2951 29.443-10.048 52.111-16.179 82.08-2.2252 10.876-7.9135 53.144-8.4922 64.23-1.1802 22.61-4.2938 20.433-5.4871 43.043-3.0494 57.776 1.8297 113.01-10.546 169.85-8.7092 40.004-48.672 80.004-61.169 123.23-8.3386 28.84-11.569 58.713-18.983 87.701-8.3402 32.609-25.304 63.167-34.803 95.472-10.441 35.507-21.362 71.313-28.475 107.68-4.5821 23.427-5.4267 47.025-9.4917 70.472" style="fill:none;stroke:#000"/>
 <path d="m812.24 437.52c-47.999 74.2-71.631 159.24-122.34 232.02-5.2464 7.5306-5.1094 15.37-10.285 20.818" style="fill:none;stroke-width:1.6;stroke:#000"/>
 <path d="m736.94 823.47c15.904 73.941 7.6404 16.402 7.6404 86.404 0 50.597 5.9151 101.4 3.1639 152.09-1.6541 30.473-8.4301 65.52 1.0548 95.472" style="fill:none;stroke:#000"/>
 <path d="m830.54 628.82c4.1429 7.4498 42.814 76.525 47.459 86.591 8.9256 19.343 13 41.801 22.147 61.058 11.075 23.316 28.843 43.68 41.131 66.609 11.44 21.347 15.795 42.068 36.378 55.067" style="fill:none;stroke:#000"/>
 <path d="m908.61 256.88c-7.8296 21.678-17.198 42.861-23.489 65.035-7.6697 27.036 2.1091 76.259 2.1091 105.46 0 32.693-4.2611 64.597-6.3277 97.227-2.4488 38.662 1.0548 78.688 1.0548 117.54" style="fill:none;stroke:#000"/>
 <path d="m851.01 202.7c2.4851 7.0062 17.074 53.991 19.893 59.811 8.9262 18.431 7.3298 17.245 14.984 36.485 4.6113 11.59 15.152 21.468 18.412 36.098 2.0259 9.0929 6.5127 17.528 8.4369 26.643 2.8034 13.28 12.497 79.526 14.67 93.25" style="fill:none;stroke-width:1.3795;stroke:#000"/>
 <path d="m775.18 270.47c-86.564 95.1-101.76 196.55-129.69 266.17-10.071 25.107-18.12 50.736-35.478 71.759" style="fill:none;stroke:#000"/>
 <path d="m753.7 1302.3c-0.0528 1.838-0.26911 3.6785-0.15847 5.5139 0.26038 4.3194 0.93116 8.5987 1.1364 12.919 0.21959 4.6233-0.77248 9.7942 0.22732 14.355 0.49121 2.2406 1.3713 4.1521 1.804 6.4296 0.46282 2.4359 0.39316 5.2978 1.1364 7.6558 1.2391 3.931 4.1576 7.0592 4.6119 11.362 0.61895 5.8629 0.9014 12.875 3.1157 18.405 1.2872 3.2146 3.5648 6.2658 4.5456 9.5698 0.95318 3.2106 0.61711 6.6423 1.8116 9.7949" style="fill:none;stroke-width:1px;stroke:#000"/>
 <path d="m772.53 1200.9c-4.3128 5.3995-8.4128 10.951-12.191 16.736-5.9685 9.1383-11.599 18.435-17.273 27.752-2.4799 4.0723-5.4786 7.9761-7.273 12.441-5.413 13.468-2.5471 29.612-17.81 36.262" style="fill:none;stroke-width:1px;stroke:#000"/>
 <path d="m902.39 1142.3c-0.4047 12.2 3.8265 23.464 7.3097 34.831 2.9828 9.7335 5.6506 19.04 9.5458 28.47 2.2844 5.5306 5.3415 11.545 6.5912 17.465 1.4019 6.6404 2.2112 13.508 5.1947 19.788" style="fill:none;stroke-width:1px;stroke:#000"/>
 <path d="m876.51 1291.1c-0.017 24.725-5.5975 49.105-9.5458 73.448-0.8902 5.4885-0.2159 18.002-1.9794 22.529" style="fill:none;stroke-width:1px;stroke:#000"/>
 <path d="m781.78 1003.7c2.6508 9.2083 3.2736 19.173 5.5182 28.574 0.70023 2.9329 2.1924 5.6096 2.7274 8.6128 1.128 6.3327 1.168 13.488 3.1774 19.566 2.3282 7.0421 4.7811 13.91 7.0064 20.953" style="fill:none;stroke-width:1px;stroke:#000"/>
 <path d="m862.84 901.47c-5.5347 13.099-4.3963 28.091-9.8471 41.206-4.0166 9.6641-9.2964 18.586-12.273 28.709-3.4058 11.582-4.5456 27.883-4.5456 39.954 0 2.6744 0.9091 5.192 0.9091 7.8551" style="fill:none;stroke-width:1px;stroke:#000"/>
 <path d="m880.8 1036.3c1.4573 3.4129 3.1138 6.7474 4.3719 10.238 0.8106 2.2492 1.2122 4.6254 1.8183 6.9381 0.9091 2.9507 1.6372 5.9634 2.7274 8.852 3.9795 10.544 12.643 22.643 20.228 30.862 4.0643 4.4041 8.7006 7.5388 12.728 11.962 2.4672 2.71 5.5453 6.057 7.273 9.3305 0.8843 1.6755 0.6238 2.6249 1.591 4.0671 1.455 2.1698 3.0766 3.7345 3.8638 6.2204" style="fill:none;stroke-width:1px;stroke:#000"/>
 <path d="m917.84 1429.3c-0.246 7.4226 0.9713 14.835 0.6818 22.25-0.5145 13.18-2.959 26.423-8.1821 38.518-3.968 9.1892-10.682 16.16-10.682 26.69" style="fill:none;stroke-width:1px;stroke:#000"/>
 <path d="m732.86 1520.3c0.53031 2.0385 0.78856 4.1679 1.591 6.1154 2.6616 6.4601 6.651 12.111 10 18.182 3.4885 6.3243 6.0824 13.163 9.7731 19.379 1.817 3.0603 4.2978 5.5512 5.7979 8.6792" style="fill:none;stroke-width:1px;stroke:#000"/>
 <path d="m1095.3 251.61c2.2419 1.5018 4.4805 3.0085 6.7257 4.5053 4.7378 3.1586 9.8553 6.1597 14.369 9.6542 6.8764 5.324 12.574 12.274 20.706 16.019 3.2211 1.4834 6.1091 1.0772 9.4772 1.609 4.4028 0.69519 8.6412 1.6892 12.998 2.4998" style="fill:none;stroke-width:1px;stroke:#000"/>
 <path d="m1165.5 241.42c16.881-1.8312 2.04 0.26978 24.477-5.1806 14.335-3.4822 28.873-5.3128 43.106-9.3324 2.1241-0.59989 10.694-3.592 11.312-3.8617 4.9043-2.1405 17.42-9.861 22.951-8.6888 1.9364 0.41035 3.7113 1.0553 5.6049 1.5783" style="fill:none;stroke-width:1px;stroke:#000"/>
 <path d="m1042.3 333.6c6.0362 4.4586 2.3398 1.9958 8.2913 5.4413 8.1209 4.7016 9.2201 5.3416 18.656 7.3194 3.0487 0.63905 7.5002 0.43309 10.135 1.8804 9.51 5.2236 8.2312 10.236 21.509 10.236" style="fill:none;stroke-width:1px;stroke:#000"/>
 <path d="m1005.5 308.79c0.02 3.1891 2.9013 5.1525 3.5019 8.1074 2.0264 9.9698 3.6 26.57 9.4772 35.077 2.8729 4.1581 6.1249 8.1933 9.04 12.254" style="fill:none;stroke-width:1px;stroke:#000"/>
 <path d="m1027.2 243c3.6686 2.6817 7.2538 5.4814 11.006 8.0452 7.03 4.8035 14.624 9.0942 19.872 16.09 4.0114 5.3486 6.5558 11.589 10.394 17.056 2.616 3.7255 5.0013 5.7494 8.2543 9.0106 8.0339 8.054 15.535 15.577 26.494 19.224" style="fill:none;stroke-width:1px;stroke:#000"/>
 <path d="m931.34 409.12c4.1424 10.964 5.8273 16.018 10.924 26.889 4.3973 9.3794 10.34 17.593 14.98 26.71 7.7346 15.198 14.543 31.534 23.54 46.018 2.665 4.2904 5.6452 8.478 8.2543 12.872 3.5432 5.9674 5.9369 12.724 10.089 18.343 1.9018 2.5738 4.2336 4.8125 6.1144 7.4015 0.9487 1.3058 1.8346 3.2122 3.0192 4.4591" style="fill:none;stroke-width:1px;stroke:#000"/>
 <path d="m1084.7 525.52c17.769 5.8715 5.3013 2.7089 25.523 5.0739 31.495 3.6836 5.7071 0.13856 32.154 3.6184 13.607 1.7904 9.8309-0.17836 23.487 0.56514 3.063 0.1668 10.792 2.2768 13.146 2.8963 4.0574 1.0677 7.7474 3.2603 11.617 4.8271 7.0641 2.86 16.388 6.1143 24.152 6.1143" style="fill:none;stroke-width:1px;stroke:#000"/>
 <path d="m652.26 352.44c-5.4135 9.0146-7.9856 19.402-12.849 28.68-6.0805 11.601-13.78 22.723-20.789 33.79-3.9734 6.2737-8.4032 12.42-11.311 19.308-2.8486 6.7468-4.4348 14.21-6.42 21.239-3.381 11.971-8.1841 23.384-14.98 33.79" style="fill:none;stroke-width:1px;stroke:#000"/>
 <path d="m693.3 501.12c-12.367 9.9461-23.917 21.309-33.84 33.755-4.8952 6.1395-9.5854 14.469-16.509 18.665-6.2784 3.8051-13.326 7.3191-20.177 9.976-6.0877 2.3609-13.005 3.9463-18.896 6.758-6.4732 3.0899-7.4039 4.135-14.99 6.0151" style="fill:none;stroke-width:1px;stroke:#000"/>
 <text x="161.30817" y="-277.12881" style="fill:#000000;font-family:sans-serif;font-size:40px;line-height:1.25;shape-inside:url(#rect2179);white-space:pre" xml:space="preserve"/>
 <text x="161.30817" y="-277.12881" style="fill:#000000;font-family:sans-serif;font-size:40px;line-height:1.25;shape-inside:url(#rect2415);white-space:pre" xml:space="preserve"/>
 <path d="m613.99 748.57-0.78498 46.792" style="fill:none;stroke-width:1px;stroke:#000"/>
 <path d="m719.94 620.51-1.7454 30.962" style="fill:none;stroke-width:1px;stroke:#000"/>
 <path d="m768.29 662.92 4.1764 27.374" style="fill:none;stroke-width:1px;stroke:#000"/>
 <path d="m913.75 368.36-9.9202 40.052" style="fill:none;stroke-width:1px;stroke:#000"/>
 <path d="m705.57 1691.6 4.4318 59" style="fill:none;stroke-width:1px;stroke:#000"/>
 <path d="m723.46 1611.4c-5.371 7.535-10.609 15.134-15.334 23.091-1.0317 1.7376-2.4358 3.3392-3.3616 5.1113-2.4706 4.7285-4.6321 9.872-7.8438 14.154-3.5175 4.69-7.5785 8.3793-11.76 12.487-4.389 4.312-8.8137 8.7638-13.394 12.717-3.038 2.6222-4.9202 6.1621-7.657 9.043-2.5958 2.7324-6.0065 4.5534-8.5909 7.2737-1.3958 1.4692-2.2804 3.5113-3.7598 4.8571" style="fill:none;stroke-width:1px;stroke:#000"/>
 <path d="m703.11 1806.8c3.572 8.146 4.963 17.106 8.0141 25.403 1.0497 2.8545 2.7199 5.4001 3.7352 8.2301 0.4873 1.3584 2.0622 2.2421 2.8359 3.3474 0.90952 1.2993 1.089 2.1222 1.9964 3.281" style="fill:none;stroke-width:1px;stroke:#000"/>
 <path d="m746.52 1381.2c-1.8953 9.123-6.5958 17.347-9.5 26.081-0.10338 0.3109 0.12575 0.6804 0 0.983-0.32327 0.7778-1.0323 1.3663-1.3073 2.1624-0.23624 0.6839-0.0196 1.4586-0.18676 2.1625-0.36544 1.5387-1.2369 3.0027-1.6808 4.5215-2.3876 8.1679 0.91995-1.7276-1.6808 6.0942-4.01 12.06-16 26.649-27.35 31.578" style="fill:none;stroke-width:1px;stroke:#000"/>
 <path d="m873.88 1235.8c2.3996 6.3256 4.7909 12.685 6.5128 19.238 0.7217 2.7466 0.9651 5.9581 1.8676 8.6498 2.5861 7.7131 9.1402 19.451 14.754 25.36 4.8732 5.1296 11.57 6.7785 16.995 11.009 3.5323 2.7542 3.7171 7.7664 5.7895 11.402" style="fill:none;stroke-width:1px;stroke:#000"/>
 <path d="m899.41 775.47c4.2607 5.8873 4.4008 13.526 6.3297 20.125 0.3831 1.3105 1.3884 2.4015 1.6808 3.7352 0.2696 1.2297 0.3175 2.4998 0.5603 3.7351 0.4775 2.4293 1.2804 3.0721 1.8676 5.8976 0.16 0.7699-0.1625 1.5896 0 2.359 0.3407 1.6141 1.083 3.1205 1.4941 4.7181 0.3994 1.5527 0.5138 3.1709 0.9338 4.7181 0.2056 0.7578 0.6225 1.4417 0.9338 2.1625 0.3735 1.0484 0.829 2.0712 1.1206 3.1454 0.9202 3.3902-1.5834 8.416-0.9299 11.085 0.8629 3.5233 3.7223 7.898 3.7223 11.323" style="fill:none;stroke-width:1px;stroke:#000"/>
 <path d="m915.76 602.61c4.2683 10.853 8.7496 21.5 13.984 31.909 1.6351 3.2512 3.431 7.1502 5.9762 9.8294 4.2372 4.4602 9.4195 7.1628 14.437 10.511" style="fill:none;stroke-width:1px;stroke:#000"/>
 <path d="m971.97 495.8c0.5109 8.5776 2.1148 16.989 2.4278 25.556 0.1336 3.6559 0.6869 7.859-0.1594 11.497" style="fill:none;stroke-width:1px;stroke:#000"/>
 <path d="m743.92 454.62c0.24246 1.6976 0.58005 3.3844 0.72738 5.0929 0.21695 2.5158-0.33956 5.1649 0 7.6669 0.56626 4.1724 0.71244 8.4071 1.3073 12.582 0.68922 4.8366 3.5241 10.018 4.1087 14.941 0.48979 4.1246 1.0852 6.2065 2.5054 10.442" style="fill:none;stroke-width:1px;stroke:#000"/>
 <path d="m741.81 384.88c-1.3015 4.537-1.5638 9.2369-2.7969 13.78-0.16709 0.61558-1.225 3.788-1.3073 4.9147-0.21882 2.9943 3e-3 6.0446-0.18676 9.043-0.2037 3.2163-1.592 6.7059-2.2411 9.8293-0.81662 3.9296-1.3944 8.0556-2.0543 11.992-0.47194 2.8151 0.24518 10.459-0.74304 12.539" style="fill:none;stroke-width:1px;stroke:#000"/>
 <path d="m846.08 162.56c-3.9888 5.0868-6.7831 10.995-9.8018 16.681-0.3537 0.66622-0.8857 1.2491-1.1206 1.9659-0.3953 1.2066-0.4251 2.5069-0.747 3.7351-0.7156 2.7304-1.866 5.4015-2.8014 8.0601-0.6512 1.8508-0.6555 3.8651-1.1205 5.701-0.4316 1.7034-1.0517 2.2188-1.4941 3.7234-0.7299 2.4824-0.8265 4.9575-1.2961 7.4291-0.5489 2.8891-2.1156 5.6443-3.0812 8.4056-1.6986 4.8571-2.5551 10.038-4.4476 14.819-0.7703 1.9459-2.4297 3.616-3.2218 5.5336-0.8074 1.9548-1.3431 3.2647-2.0289 4.9429-1.7175 4.2033-0.891 9.3143-2.5907 13.489-0.6709 1.6479-2.5049 3.3769-3.5484 4.9147-2.1802 3.2129-4.4124 6.2173-7.0968 9.043-2.1535 2.2668-4.0123 3.7288-5.416 6.684-1.7542 3.6931-2.606 8.2278-4.6689 11.795-1.5262 2.6392-3.4402 5.8584-5.0425 8.4532-0.79911 1.2941-4.9076 5.546-5.309 6.5586-0.63492 1.6015-0.70454 3.1481-1.4939 4.7177-1.3003 2.5854-4.2964 5.0494-6.3926 6.8802" style="fill:none;stroke-width:1px;stroke:#000"/>
 <path d="m763.91 322.36c2.317 5.9658 3.892 12.136 5.5092 18.307 0.9143 3.4888 2.63 6.2033 4.1087 9.4362 1.3358 2.9203 3.2076 7.9929 4.1052 10.922 1.3986 4.5638 0.80389 9.5387 1.6808 14.154 0.53315 2.8061 1.3899 4.7067 1.6808 7.6669 0.29896 3.0421 0.0534 6.5656 1.1206 9.4362 1.1432 3.0753 2.7165 5.9978 3.9219 9.043 0.60064 1.5174 0.75194 3.1835 1.3073 4.7181 0.79968 2.2097 2.6146 4.189 2.6146 6.6826" style="fill:none;stroke-width:1px;stroke:#000"/>
 <path d="m915.6 290.64c5.2904 9.5771 7.5416 20.223 11.019 30.471 1.4836 4.3728 3.2085 8.0048 4.2954 12.582 1.5054 6.3383 1.8194 12.978 3.5484 19.266 1.6097 5.8534 2.9029 11.897 4.6689 17.693 1.7036 5.5907 3.8483 11.213 5.2292 16.906 1.9312 7.9621 1.8753 16.45 2.8014 24.573 0.2899 2.5433 0.2417 5.1516 0.5603 7.6669 0.2099 1.6575 1.7617 3.6681 2.2335 5.2517 0.2766 0.92825 1.8281 9.6158 1.4977 10.536" style="fill:none;stroke-width:1px;stroke:#000"/>
 <path d="m822.12 537.25c2.0169 4.007 6.6435 6.0221 8.9232 9.793 2.3725 3.9245 4.6737 8.7152 5.9762 13.171 0.4467 1.5283 0.2384 3.2092 0.747 4.7181 1.0284 3.0506 3.9125 6.3508 5.416 8.8464 2.4683 4.0971 3.5614 9.3339 5.2292 13.761 1.5811 4.1969 3.5318 8.2248 5.6027 12.188 3.2065 6.1368 11.044 8.1237 13.954 13.462" style="fill:none;stroke-width:1px;stroke:#000"/>
 <path d="m811.19 585.51c-0.4158 1.6114-0.9513 3.1967-1.2474 4.8343-0.2459 1.3597-0.181 2.7601-0.3735 4.1283-0.4704 3.3421-1.5983 6.666-2.0543 10.026-0.2664 1.9628-0.3676 3.9605-0.9338 5.8976-1.0834 3.7066-2.8149 7.1223-3.9219 10.812-1.4409 4.8032-2.3627 9.7317-3.7352 14.547-1.436 5.0385-3.3796 9.7075-4.2954 14.941-0.75008 4.2862-0.92894 8.7009-1.6808 12.975-0.55605 3.1607-1.6343 6.3336-2.4278 9.4362-0.56282 2.2005-0.25701 7.0954-2.0092 8.4235" style="fill:none;stroke-width:1px;stroke:#000"/>
 <path d="m1009.7 484.03c-0.2654 6.2595 2.1145 12.296 1.0504 18.697-0.4163 2.5039-1.5779 4.5177-1.4941 7.0771 0.1823 5.5647 2.0316 10.651 2.8013 16.12 0.9308 6.6141-0.462 14.827-0.747 21.428-0.034 0.78808 0.1245 1.5727 0.1868 2.3591 0 1.7038 0.079 3.4093 0 5.1112-0.3928 8.4745-3.9219 16.426-3.9219 24.862" style="fill:none;stroke-width:1px;stroke:#000"/>
 <path d="m1043.6 545.04c7.3584 12.103-1.9146-2.9413 6.91 10.616 6.353 9.7599 9.9258 13.974 20.17 19.855 5.7914 3.3252 11.332 5.0996 15.874 10.222 1.4889 1.6792 3.4088 3.4972 4.1003 5.6739" style="fill:none;stroke-width:1px;stroke:#000"/>
 <path d="m999.85 399.51c1.1504 1.1396 2.301 2.2793 3.4514 3.419 1.6186 1.245 3.3804 2.3233 4.8557 3.7352 1.0074 0.96401 5.2728 6.6965 6.3498 7.8635 3.8858 4.2106 8.8244 8.805 13.82 11.599 9.6053 5.3714 19.244 6.9776 29.694 9.6328 3.5054 0.89065 7.2452 2.4952 10.651 3.671" style="fill:none;stroke-width:1px;stroke:#000"/>
 <path d="m992.46 235.03c6.871-0.42512 14.178-2.249 20.496-5.1308 4.3276-1.974 8.3872-4.9088 12.886-6.4874 3.1625-1.1096 5.7888-0.97393 8.9644-2.1625 8.0584-3.016 16.197-6.684 24.963-6.684" style="fill:none;stroke-width:1px;stroke:#000"/>
 <path d="m1127.6 244.32c8.5957-3.1814 12.694-7.9059 19.196-13.817 0.9756-0.88689 2.1637-1.513 3.1749-2.359 5.3599-4.4847 10.186-9.6274 15.314-14.351 1.8716-1.7238 3.995-3.2003 6.163-4.5215 0.6839-0.41677 1.4453-0.55313 2.0018-1.1389" style="fill:none;stroke-width:1px;stroke:#000"/>
 <path d="m1247.8 257.23 27.029 26.603" style="fill:none;stroke-width:1px;stroke:#000"/>
 <path d="m823.66 355.14c2.3806 2.8296 4.01 6.4008 4.9054 9.9821 1.2072 4.8286 1.3052 9.6268 2.9881 14.351 2.5026 7.0248 5.9789 14.316 9.8982 20.642 1.884 3.0409 4.1906 5.8474 6.163 8.8464 3.8741 5.8904 6.0416 12.21 8.4041 18.676 0.5833 1.5964 1.6896 3.0065 2.4279 4.4813" style="fill:none;stroke-width:1px;stroke:#000"/>
 <path d="m524.97 438.69c-0.83188 2.9167-1.6802 5.8288-2.4956 8.7502-1.4213 5.0917-2.1432 8.4117-3.9219 13.368-0.64359 1.7933-1.432 2.4362-1.5325 4.1114-0.21366 3.5627 4e-3 7.04-0.37351 10.616-0.38457 3.6433-1.5037 7.1898-2.0543 10.812-0.28721 1.8896-0.39558 8.2778-1.6218 9.2396" style="fill:none;stroke-width:1px;stroke:#000"/>
 <path d="m584.36 444.79c1.6574 8.1326-0.18351 16.039-1.0349 24.106-0.34228 3.2426-0.0156 6.564-0.37352 9.8293-0.52035 4.747-2.5599 9.4524-3.3616 14.154-0.80408 4.7157-1.0815 9.7708-1.494 14.547-0.16127 1.8673 0.11886 3.8393-0.49103 5.593" style="fill:none;stroke-width:1px;stroke:#000"/>
 <path d="m613 422.75c3.773 9.8672 0.70497 20.306 1.8676 30.341 0.15352 1.3252 0.58972 2.607 0.74703 3.9317 0.35116 2.9571-0.0302 6.4012 1.2927 9.1864" style="fill:none;stroke-width:1px;stroke:#000"/>
 <path d="m680.97 389.9c-3.2227 0.53867-6.0872 2.0194-8.5341 4.1659-5.3082 4.6562-8.3854 11.848-14.194 15.924-4.4167 3.0994-10.455 4.0671-15.314 6.2908-2.1148 0.96788-4.0302 2.4253-6.1298 3.342" style="fill:none;stroke-width:1px;stroke:#000"/>
 <path d="m678.18 439.45c-0.51655 7.1645-1.9078 14.219-2.7522 21.329-0.41215 3.4707-1.2206 4.2092-0.18676 8.0601 0.41384 1.5414 1.4669 2.8409 2.0543 4.3249 0.40928 1.034 1.3795 5.4766 1.4941 6.2908 0.0822 0.58401-0.15161 1.1994 0 1.7693 0.29187 1.0973 0.97878 2.0585 1.3073 3.1454 0.66523 2.2008 0.56027 4.9126 0.56027 7.237" style="fill:none;stroke-width:1px;stroke:#000"/>
 <path d="m665.04 529.71c-2.6548 10.269-3.4366 21.56-7.9171 31.307-1.7595 3.8278-3.3803 6.743-4.6689 10.812-2.26 7.137-3.2618 13.158-6.5326 20.044" style="fill:none;stroke-width:1px;stroke:#000"/>
 <path d="m656.65 505.93c-12.134 2.6905-20.116 13.489-30.848 19.137-2.7986 1.4729-6.698 1.2203-9.7114 1.5727-5.1235 0.59924-9.9878 2.4784-15.127 2.9488-2.0468 0.18734-4.11 0.0984-6.163 0.19659" style="fill:none;stroke-width:1px;stroke:#000"/>
 <path d="m719.68 533.18c1.996 10.865 2.4933 21.985 4.1253 32.865 0.16758 1.1171-0.23475 1.6454 0 2.8319 0.2816 1.4233 1.3696 2.5689 1.8676 3.9317 0.85617 2.3432 0.66229 5.255 1.1206 7.6669 0.38781 2.0411 1.0137 4.0716 1.4941 6.0942" style="fill:none;stroke-width:1px;stroke:#000"/>
 <path d="m705.82 592.36c-1.6379 2.1416-3.3858 4.2033-4.9136 6.4248-0.98656 1.4345-1.645 3.0755-2.6146 4.5215-0.9987 1.4893-5.8832 6.2034-6.163 6.4874-4.2459 4.3098-8.3362 8.7812-12.7 12.975-2.4464 2.3512-5.2485 4.2894-7.6571 6.6839-3.1372 3.1188-5.7103 6.8975-9.5246 9.2396-2.3946 1.4704-5.2939 1.5294-7.8438 2.5556-1.4608 0.58793-2.8308 1.3877-4.2954 1.9659-4.0428 1.5958-8.5071 2.2387-12.7 3.342" style="fill:none;stroke-width:1px;stroke:#000"/>
 <path d="m853.83 32.623c19.752 4.2953 37.968 24.544 56.221 31.622 11.08 4.2971 22.779 8.5623 34.141 11.979 22.898 6.8865 45.382-4.8893 68.282-1.9966 16.412 2.0731 33.92 4.2372 49.947 7.9863 2.417 0.56537 4.5313 2.125 6.9547 2.662 4.8579 1.0765 10.804 0.22681 15.806 0.6656 19.829 1.7396 39.305-5.8264 58.799-7.9863 15.71-1.7407 31.366-2.934 47.224-3.9931 7.2208-0.48224 14.327 0.53348 21.541-0.66551 11.608-1.9293-1.512-0.53358 7.5869-2.662 9.1728-2.1457 19.125-2.4892 28.446-3.3068 10.661-0.93513 21.455-3.5893 31.883-5.2272 22.982-3.6096 46.154 0.62308 68.992 2.6264 10.204 0.89513 22.491 0.47257 32.144-1.9965 4.2626-1.0903 7.8178-2.9224 11.614-3.5951" style="fill:none;stroke-width:2;stroke:#000"/>
 <path d="m830.79 21.399c-18.739 8.2719-40.155 19.317-60.33 23.362-9.9102 1.987-19.917 2.3145-29.715 4.6586-9.2674 2.2171-22.227 9.6785-30.98 10.648-20.626 2.2854-42.274 1.3083-62.592 6.6552-16.642 4.3796-32.921 14.503-49.947 17.304-12.216 2.0093-24.423 0.70742-36.67 1.9965-18.343 1.9308-36.766 3.4298-55.005 5.9896-25.129 3.5267-35.915-7.7205-58.166-10.648-7.6478-1.0063-17.619-0.43549-25.29 0.66551-21.976 3.1544-40.303 17.713-61.368 23.233-23.468 6.1495-46.344-1.5194-70.179 2.662" style="fill:none;stroke-width:1.5;stroke:#000"/>
 <path d="m791.92 38.978c-18.635 7.2981-33.162 20.822-50.341 30.559-15.925 9.0264-33.468 14.86-49.315 23.959-14.096 8.0934-27.148 17.563-41.016 25.905-11.401 6.8578-23.488 12.065-35.406 17.969-7.6547 3.7918-14.306 9.3765-21.877 13.361" style="fill:none;stroke-width:2;stroke:#000"/>
 <path d="m806.92 32.984c-6.679 2.8407-28.821 10.764-35.034 14.516-24.684 14.907-46.094 52.609-60.695 77.2-5.3726 9.0485-10.793 22.476-18.335 29.948-18.546 18.374-41.2 30.814-63.09 43.924" style="fill:none;stroke-width:2;stroke:#000"/>
 <path d="m805.31 65.61c-14.654 15.485-15.807 17.536-31.028 30.731-15.399 13.349-35.307 23.598-47.418 40.597-3.2114 4.5073-2.3578 11.462-5.6902 15.972-2.5154 3.4043-7.6943 7.2779-10.116 11.314-8.6608 14.435-17.476 27.274-30.98 37.935-4.0961 3.2338-9.5635 4.5806-13.737 7.8516" style="fill:none;stroke-width:1px;stroke:#000"/>
 <path d="m830.34 5.2087c-11.601 6.1512-15.119 8.5231-20.584 9.7866-7.0114 1.6208-14.343 1.2122-21.496 1.9966-12.54 1.375-24.979 4.9073-37.302 7.3207-15.471 3.0299-2.8385-0.5557-26.554 3.3276-13.929 2.2807-27.549 6.9135-41.096 10.648-13.091 3.6089-26.766 4.0356-39.831 6.6552-13.443 2.6953-25.591 10.523-39.199 12.645-15.916 2.482-32.122 2.2634-48.05 4.6586-8.2605 1.2422-16.261 4.5876-24.657 5.3241-47.101 4.1316-94.541-3.3276-141.29-3.3276" style="fill:none;stroke-width:3;stroke:#000"/>
 <path d="m651.59 44.651c-4.7301 0.44367-9.4973 0.59246-14.19 1.331-2.3825 0.37494-4.6364 1.331-6.9546 1.9966-5.4794 0.88736-10.921 2.0508-16.438 2.6621-18.57 2.0576-38.153-0.01457-56.902 1.331-17.376 1.2471-33.598 6.9656-51.212 5.9897-7.859-0.43542-15.689-2.9469-23.574-3.9445-10.584-1.3391-21.646 1.2395-32.244 0-4.9616-0.58029-8.4832-1.331-13.277-1.331" style="fill:none;stroke-width:1px;stroke:#000"/>
 <path d="m644.76 69.93c-18.503 1.0554-34.442 13.711-50.103 22.077-15.993 8.5429-32.182 16.085-47.418 25.955-6.6209 4.2889-6.3417 6.5625-13.909 11.979-6.2007 4.4384-25.766 15.451-33.509 17.303-16.753 4.0079-33.622 7.8299-50.579 10.648-12.029 1.9994-23.375-0.22797-35.19 3.9175" style="fill:none;stroke-width:1px;stroke:#000"/>
 <path d="m833.83 52.298c-10.219 6.2312-18.596 20.561-27.728 28.297-3.4926 2.9584-10.754 17.978-14.542 23.959-10.866 17.156-18.005 35.399-27.186 53.241-4.1425 8.0501-10.864 14.689-15.174 22.628-5.0194 9.2463-8.2262 16.397-15.174 24.624-12.869 15.24-43.359 33.717-61.96 41.928-11.784 5.2018-24.422 9.773-35.406 16.638-6.7439 4.2149-13.681 8.136-20.232 12.645-6.956 4.7876-14.373 12.163-22.128 15.972-14.445 7.0957-30.863 10.581-44.889 18.634-11.831 6.7931-27.168 19.61-40.464 23.293-8.2031 2.2723-14.618 1.2173-22.761 1.9965-11.306 1.0819-22.249 2.7233-33.509 3.9931-4.0111 0.45238-8.2858-0.59238-12.281 0-9.1101 1.3508-17.767 5.7334-26.87 7.1028-3.2296 0.48585-6.688-0.49643-9.9162 0-6.1144 0.94026-12.38 3.2657-18.335 4.6586-2.5561 0.59792-5.2204-0.10883-7.8564 0.55074" style="fill:none;stroke-width:1.7;stroke:#000"/>
 <path d="m849.69 26.574c-1e-3 -0.51224 7.3788 7.7629 7.8453 7.9754 14.074 6.4163 28.941 17.458 44.257 21.297 1.8398 0.46112 3.8039-0.19856 5.6902 0 10.935 1.1511 21.872 4.8786 32.877 5.3241 4.0009 0.16198 8.0336-0.44875 12.013 0 1.9974 0.22527 3.7041 1.6868 5.6902 1.9965 13.279 2.0708 30.264 2.6189 43.625 0.66551 15.023-2.1964 29.882-7.9436 44.889-9.3172 15.946-1.4595 32.081-2.9425 48.05-3.9931 7.9387-0.52227 16.913 0.06636 24.658-1.3311 22.506-4.0613 44.296-23.45 68.148-27.881 16.994-3.1567 43.848-5.4085 61.328-3.9931 7.2358 0.58592 13.41 3.3276 20.929 3.3276" style="fill:none;stroke-width:1px;stroke:#000"/>
 <path d="m833.83 52.298c8.8098 9.2735 38.963 47.536 38.965 47.538 15.514 14.49 36.202 23.981 54.373 34.607 21.311 12.463 41.398 23.996 65.121 31.279 7.625 2.341 16.069 5.8937 24.025 6.6552 17.54 1.6785 35.52-1.1571 53.108 0 25.204 1.6581 52.006 3.5981 77.134 1.331 34.916-3.1502-0.5971-0.24135 19.6-3.9931 11.171-2.0752 23.442-0.66836 34.773-1.331 9.5432-0.55807 18.95-2.037 28.451-2.662 7.1363-0.46948 14.352 0.35814 21.496 0 16.577-0.83104 32.561-4.0445 48.683-6.6552 5.2724-0.8538 9.9876-3.6221 15.266-4.6124" style="fill:none;stroke-width:3;stroke:#000"/>
 <path d="m805.31 65.61c-6.4809 3.996-12.764 8.3329-19.443 11.988-5.7466 3.1449-16.317 4.7506-21.67 6.5217-10.374 3.4317-19.516 8.6998-28.729 14.432-13.3 8.2756-26.427 19.606-38.233 29.971-2.4255 2.1296-3.828 5.2719-6.2814 7.3692-4.1462 3.5444-47.791 16.713-55.565 18.31-20.091 4.126-35.614-6.3811-53.678-3.7478-14.688 2.1412-27.062 13.833-41.952 15.421" style="fill:none;stroke-width:1px;stroke:#000"/>
 <path d="m858.6 54.519c1.1782 2.4705 4.3026 10.154 6.5736 11.682 21.255 14.299 49.974 21.189 73.34 31.279 38.542 16.644 78.306 33.928 120.13 39.931 12.762 1.8319 33.737 2.8113 46.343-0.53633 7.8589-2.087 17.715 2.8569 25.389 3.2607 12.876 0.67764 25.233-2.6621 37.85-2.6621" style="fill:none;stroke-width:2;stroke:#000"/>
 <path d="m839.22 14.595c31.12 7.848 71.754 24.741 103.45 30.629 7.5386 1.4004 15.281 1.6404 22.761 3.3276 9.6551 2.1778 19.451 5.6205 29.083 7.9862 14.212 3.4908 27.926 4.649 42.36 5.9896 7.8474 0.72888 15.512 3.5322 23.393 3.9931 16.328 0.95484 32.633-0.86163 48.385-3.9705 6.5083-1.2845 14.085 0.43626 20.716 0 7.3412-0.48297 14.217-2.9628 21.496-3.3276 8.6483-0.4335 17.264-0.23151 25.922-0.66551 6.8687-0.34429 13.558-2.7159 20.232-3.9931 9.6396-1.8449 19.199-1.9981 28.84-3.3128 13.6-1.8545 27.379-6.6112 41.165-6.6112" style="fill:none;stroke-width:1px;stroke:#000"/>
 <path d="m832.12 5.2158c18.712 14.838 45.624 16.302 68.262 20.77 10.296 2.0321 20.333 4.2202 30.348 7.3207 10.1 3.1269 18.781 8.0179 29.52 9.2738 6.3886 0.74709 13.061-0.45403 19.473 0 12.281 0.86956 25.016 1.5574 37.302 0.6655 10.838-0.7868 19.42-3.1413 30.348-2.6621 8.0145 0.35151 16.08 1.3992 24.025 1.9966 12.348 0.92842 25.005-0.61188 37.302-1.3311 14.751-0.86269 29.519-0.46914 44.257-1.331 16.1-0.94147 32.006-3.5327 48.05-4.6586 11.098-0.7788 22.537 1.9487 33.509 0.66551 22.017-2.575 43.704-5.3024 65.753-7.3207 11.125-1.0183 19.53-5.3241 31.901-5.3241" style="fill:none;stroke-width:3;stroke:#000"/>
 <path d="m833.54 10.084c2.6632 7.1176 21.347 22.369 25.362 28.821 5.1109 8.2124 13.062 14.301 18.967 21.962 8.9721 11.641 16.013 27.405 22.761 40.597 5.9482 11.628 11.177 35.267 22.028 43.152 9.6129 6.9858 21.804 10.343 33.142 12.449 4.8964 0.90958 11.079 0.44268 15.697 2.8547 5.0218 2.623 9.6205 7.329 14.376 10.538 7.6043 5.1316 15.464 9.9802 23.067 15.12 11.913 8.0523 24.006 10.923 36.628 16.436 8.5738 3.7451 18.415 11.121 27.602 12.879 6.0339 1.1548 12.899 0.66551 19.128 0.66551" style="fill:none;stroke-width:1px;stroke:#000"/>
 <path d="m1128.4 169.57c21.853 1.8874 41.384-7.0432 61.588-14.132 3.3049-1.1596 6.8206-4.0547 10.116-5.3241 5.3072-2.0444 12.179-4.0938 17.506-6.5861 5.0274-2.352 10.27-7.0225 15.978-8.4255 5.0513-1.2416 7.9478-3.2 13.058-5.2171 8.8023-3.4746 17.971-5.3107 26.769-8.8724 3.9969-1.6181 6.9711-4.6672 10.748-6.6552" style="fill:none;stroke-width:1px;stroke:#000"/>
 <path d="m1185.6 38.706c15.38 5.816 12.689 5.2674 32.072 9.8014 26.282 6.1478 54.218 5.9905 80.295 12.645 20.668 5.2741 40.316 13.844 60.695 19.3 4.2382 1.1346 10.177 0.99952 14.724 1.9573 5.6505 1.19 10.947-1.8477 16.511-1.8477" style="fill:none;stroke-width:1px;stroke:#000"/>
 <path d="m703.18 33.454c-2.7805 3.1486-5.1061 6.7668-8.3414 9.4459-10.092 8.3568-21.913 14.014-32.244 21.962-13.288 10.222-24.367 22.052-36.67 33.276-6.0301 5.5012-14.117 8.2758-20.142 13.913-11.365 10.634-17.034 24.805-30.272 33.862-12.031 8.2319-24.528 15.508-37.302 21.962-6.9963 3.5349-14.827 5.4742-21.755 9.1206" style="fill:none;stroke-width:1px;stroke:#000"/>
 <path d="m465 88.014c-4.7056 2.3143-9.8532 3.89-14.117 6.9429-2.8539 2.0434-21.444 21.966-23.393 23.959-26.12 26.709-53.692 61.092-90.511 73.672" style="fill:none;stroke-width:1px;stroke:#000"/>
 <path d="m554.01 311.05c-25.744 26.308-34.327 63.574-58.16 91.169-10.938 12.665-24.835 23.6-37.935 33.941" style="fill:none;stroke-width:1px;stroke:#000"/>
 <path d="m695.36 237.27c-10.712 3.8961-21.148 8.6545-32.136 11.688-17.135 4.7313-35.733 4.7722-53.108 8.6518-9.3054 2.0777-18.598 4.2286-27.819 6.6552-11.609 3.0549-23.343 10.963-35.406 11.979-12.626 1.0632-25.802 0-38.453 0" style="fill:none;stroke-width:1px;stroke:#000"/>
 <path d="m805.31 65.61c-2.7321 9.0185-4.9242 18.219-8.1964 27.056-2.989 8.0722-24.214 34.402-30.348 41.262-7.766 8.6857-17.36 15.612-25.054 24.446-7.1995 8.2672-13.144 17.56-20.22 25.94-6.0143 7.1221-13.119 11.49-20.159 17.258-2.9855 2.4458-5.4201 5.997-8.1906 8.6217-5.7022 5.4021-14.637 9.8903-21.496 13.31-6.7665 3.3739-15.535 2.9473-22.761 5.3241-19.089 6.2793-38.18 14.027-58.419 15.211-14.583 0.8528-27.983-5.6748-42.36-3.9931-13.994 1.6369-22.999 11.842-35.182 17.917-7.7191 3.8489-22.703 4.6119-31.748 4.6119" style="fill:none;stroke-width:3;stroke:#000"/>
 <path d="m633.71 238c-5.3916-0.22183-10.785-0.39266-16.175-0.6655-7.9119-0.40056-27.739-1.2479-36.167-4.6369-5.9023-2.3733-11.986-8.9352-18.297-9.5428-9.5599-0.92035-19.067 1.1447-28.474-1.331" style="fill:none;stroke-width:1px;stroke:#000"/>
 <path d="m678.5 100.23c-1.464 1.8402-13.75 17.68-17.771 21.711-11.503 11.532-36.492 28.762-44.701 41.726-2.9732 4.6948-3.7093 7.6406-5.6901 12.645-3.1921 8.0641-12.84 15.67-20.318 19.606" style="fill:none;stroke-width:1px;stroke:#000"/>
 <path d="m523.32 134.66c-6.1741 12.888-18.637 20.839-25.583 33.197-8.6398 15.372-8.7961 22.545-26.64 31.937" style="fill:none;stroke-width:1px;stroke:#000"/>
 <path d="m637.58 264.62c-2.5177 8.5785-5.3186 16.88-7.2689 25.472-2.1462 9.455 6.7867 18.019 1.2691 27.132-3.7593 6.2091-9.9347 10.175-14.63 15.117" style="fill:none;stroke-width:1px;stroke:#000"/>
 <path d="m1007.1 122.05c4.7518 6.8529 9.7622 13.534 14.255 20.559 8.1173 12.692 7.4989 17.268 24.032 22.18" style="fill:none;stroke-width:1px;stroke:#000"/>
 <path d="m1106.1 136.5c4.8266-2.8414 28.028-20.811 37.506-20.811" style="fill:none;stroke-width:1px;stroke:#000"/>
 <path d="m1138.6 78.447c2.3936 1.9361 4.6894 3.9998 7.1808 5.8082 2.6418 1.9175 5.9708 2.9575 8.2191 5.3241 3.8698 4.0735 13.801 20.754 17.958 22.928 7.1716 3.7506 16.94 1.3199 24.881 1.3199" style="fill:none;stroke-width:1px;stroke:#000"/>
 <path d="m1265.4 64.767c3.1479 5.3058 6.3228 10.596 9.4436 15.917 3.2909 5.6117 6.386 10.06 10.492 14.995 2.2514 2.7057 6.7811 5.7116 8.5458 8.6886 2.746 4.6324 2.0449 5.5028 6.0919 8.6686" style="fill:none;stroke-width:1px;stroke:#000"/>
 <path d="m1271.2 163.08c1.659 9.4074 12.144 11.185 16.626 18.037 7.8666 12.028 11.478 18.869 26.167 24.816 5.5736 2.2565 2.584 1.9965 6.3225 1.9965" style="fill:none;stroke-width:1px;stroke:#000"/>
 <path d="m1018.7 192.8c7.715 12.77 12.668 29.074 23.141 40.098" style="fill:none;stroke-width:1px;stroke:#000"/>
 <path d="m985.9 292.52c5.6035-0.32059 11.203-0.72207 16.81-0.96176 10.248-0.43803 19.94 3.6029 29.55 6.6047 3.951 1.2341 7.4049 3.7695 11.587 3.7695" style="fill:none;stroke-width:1px;stroke:#000"/>
 <path d="m983.74 362.24c21.534 14.139 44.331 28.238 68.76 34.59 5.5133 1.4336 9.9195 5.1336 15.974 5.1336" style="fill:none;stroke-width:1px;stroke:#000"/>
 <path d="m454.11 339.93c-0.17632 8.8752-8.0948 15.164-8.7282 23.831-0.14552 1.9912 0.46135 4.0471 0 5.9896-0.63375 2.6684-9.978 14.87-12.013 21.297-0.71499 2.2583-13.756 13.815-16.213 16.4" style="fill:none;stroke-width:1px;stroke:#000"/>
 <path d="m531.66 242.51c-14.36 0.68129-13.975 1.3903-29.437-1.3799-15.083-2.7024-29.249-9.0172-44.257-11.979-17.51-3.4559-37.104-5.8363-55.005-4.6586-5.1552 0.33916-10.316 1.331-15.468 1.331" style="fill:none;stroke-width:1px;stroke:#000"/>
 <path d="m584.52 400.21c-15.323-2.9956-30.856-4.3006-46.034-8.1046-21.603-5.4143-34.048-11.085-54.192-1.6611" style="fill:none;stroke-width:1px;stroke:#000"/>
 <path d="m783.51 206.82c-9.2627 1.1744-18.867 0.7684-27.788 3.5232-3.9488 1.2194-6.3855 5.251-9.4837 7.9862-3.8272 3.3788-29.054 26.483-31.583 32.498-0.4109 0.97746 0.33435 2.1747 0 3.181-0.8198 2.4672-7.9222 10.73-9.039 12.14-8.6977 10.987-23.381 16.805-34.542 24.638" style="fill:none;stroke-width:1px;stroke:#000"/>
 <path d="m690.88 320.2c-17.964 0.59755-37.894-3.4495-55.793 0.13932-3.0209 0.60569-5.8253 2.0829-8.8514 2.662-12.714 2.4333-26.188 0.0345-38.902 0.0345" style="fill:none;stroke-width:1px;stroke:#000"/>
 <path d="m384.41 158.12c-1.1987 2.7223-2.9772 5.2574-3.596 8.1669-1.9144 15.618-1.6044 17.574-4.4257 29.948-2.2644 9.9317-8.2191 18.652-8.2191 29.104" style="fill:none;stroke-width:1px;stroke:#000"/>
 <path d="m367.43 100.31c-8.174 11.693-15.718 22.861-25.114 33.527" style="fill:none;stroke-width:1px;stroke:#000"/>
 <path d="m459.45 66.956c-7.7547-10.897-16.95-9.929-27.262-12.11-7.1981-1.5223-13.172-5.0869-20.254-7.0539-2.4848-0.69014-2.3155 0.14397-4.2482-1.1594" style="fill:none;stroke-width:1px;stroke:#000"/>
 <path d="m544.83 62.89c-12.019-6.5062-23.837-16.424-37.132-19.78" style="fill:none;stroke-width:1px;stroke:#000"/>
 <path d="m630.45 47.979c-10.826-6.9002-21.03-17.884-33.53-22.269" style="fill:none;stroke-width:1px;stroke:#000"/>
 <path d="m1045.4 37.155c13.194-2.9413 24.238-22.728 38.599-22.728" style="fill:none;stroke-width:1px;stroke:#000"/>
 <path d="m1099.9 84.097c8.5805 5.5136 20.018 18.849 31.403 18.849" style="fill:none;stroke-width:1px;stroke:#000"/>
 <path d="m746.89 153.34c-27.812-0.61509-54.267 21.895-81.84 21.895" style="fill:none;stroke-width:1px;stroke:#000"/>
 <path d="m738.83 81.096c5.2511 24.704-5.1919 40.393 7.8742 58.592" style="fill:none;stroke-width:1px;stroke:#000"/>
 <path d="m644.76 69.93c0.96822 8.8158 2.8148 17.579 2.9047 26.447 0.0412 4.0637-2.9969 8.5871-2.529 13.014 0.78739 7.4496 5.4098 38.309 2.6077 44.208" style="fill:none;stroke-width:1px;stroke:#000"/>
 <path d="m931.52 206.01c9.4782-4.1614 35.475 8.4077 46.826 3.5986 5.8916-2.4961 11.189-6.353 16.842-9.3078" style="fill:none;stroke-width:1px;stroke:#000"/>
 <path d="m1045.4 164.79c8.0075 5.13 15.885 10.469 24.022 15.39 9.4648 5.7233 47.761 12.473 59.563 12.473" style="fill:none;stroke-width:1px;stroke:#000"/>
 <path d="m982.63 116.36c22.971-3.5914 49.715-7.0286 66.227-24.38" style="fill:none;stroke-width:1px;stroke:#000"/>
 <path d="m1083.8 140.6c6.7553 12.284 19.465 15.791 31.434 20.803 1.5107 0.63265 3.9925 0.20452 5.1838 1.2041 2.693 2.2595 5.2836 4.6384 7.9254 6.9576" style="fill:none;stroke-width:1px;stroke:#000"/>
 <path d="m474.58 229.73c-11.432 12.893-20.63 29.591-39.956 29.591" style="fill:none;stroke-opacity:0"/>
 <path d="m482.26 148.26c-12.97 9.9924-27.347 17.274-39.902 27.186" style="fill:none;stroke-width:1px;stroke:#000"/>
 <path d="m524.93 356.45c6.7719 12.304 6.4604 25.259 6.4604 38.836" style="fill:none;stroke-width:1px;stroke:#000"/>
 <path d="m442.57 100.76c0.73529 10.068-0.33321 21.409 1.7315 31.589" style="fill:none;stroke-width:1px;stroke:#000"/>
 <path d="m410.02 84.4c-11.492 16.04-11.132 15.763-13.909 30.094" style="fill:none;stroke-width:1px;stroke:#000"/>
 <path d="m679.62 690.36c-2.7034 7.8076-6.2703 15.368-8.1102 23.423-0.67076 2.9365 4.0827 25.091 4.9809 31.445 0.53857 3.8098 2.4745 6.9513 2.4745 10.806" style="fill:none;stroke-width:1px;stroke:#000"/>
 <path d="m712.97 903.25c1.619 18.891-14.799 30.091-26.055 42.729-8.385 9.4147-10.722 18.565-21.529 26.725" style="fill:none;stroke-width:1px;stroke:#000"/>
 <path d="m756.21 737.31c0.23798 22.643 12.215 42.115 16.371 63.749" style="fill:none;stroke-width:1px;stroke:#000"/>
 <path d="m691.07 1029.8c-12.624 24.9-1.136 47.441 12.041 68.78 9.1034 14.742 2.5936 1.5026 6.2662 9.2344" style="fill:none;stroke-width:1px;stroke:#000"/>
 <text transform="translate(1436.9 529.19)" style="fill:#000000;font-family:sans-serif;font-size:40px;line-height:1.25;shape-inside:url(#rect1293);white-space:pre" xml:space="preserve"><tspan x="-98.890625" y="-357.63352"><tspan style="font-family:'Advent Pro'">Indecisioni</tspan></tspan></text>
 <text style="fill:black;font-family:sans-serif;font-size:40px;line-height:1.25;shape-inside:url(#rect1299);white-space:pre" xml:space="preserve"/>
 <text style="fill:black;font-family:sans-serif;font-size:40px;line-height:1.25;shape-inside:url(#rect1305);white-space:pre" xml:space="preserve"/>
 <a>
  <text transform="translate(1193.2 788.86)" style="fill:#000000;font-family:sans-serif;font-size:40px;line-height:1.25;shape-inside:url(#rect1293-0);white-space:pre" xml:space="preserve"><tspan x="-98.890625" y="-357.63352"><tspan style="font-family:'Advent Pro'">Al Terzo Luogo</tspan></tspan></text>
 </a>
 <text transform="translate(397.75 1015.8)" style="fill:#000000;font-family:sans-serif;font-size:40px;line-height:1.25;shape-inside:url(#rect1293-0-0);white-space:pre" xml:space="preserve"><tspan x="-98.890625" y="-357.63352"><tspan style="font-family:'Advent Pro'">Dal Terzo Paesaggio</tspan></tspan></text>
 <a xlink:href="file:///home/boro/Http/S3L/01.Pages/01.Radice/02.radicefoot/prima-la-pratica">
  <text transform="translate(994.66 1073.7)" style="fill:#000000;font-family:sans-serif;font-size:40px;line-height:1.25;shape-inside:url(#rect1293-0-1);white-space:pre" xml:space="preserve"><tspan x="-98.890625" y="-357.63352"><tspan style="font-family:'Advent Pro'">Prima la pratica, poi la teoria</tspan></tspan></text>
 </a>
 <text transform="translate(1026.3 1524.5)" style="fill:#000000;font-family:sans-serif;font-size:40px;line-height:1.25;shape-inside:url(#rect1293-0-1-9);white-space:pre" xml:space="preserve"><tspan x="-98.890625" y="-357.63352"><tspan style="font-family:'Advent Pro'">La banda del Terzo Luogo</tspan></tspan></text>
 <text transform="translate(1001.4 1295.3)" style="fill:#000000;font-family:sans-serif;font-size:40px;line-height:1.25;shape-inside:url(#rect1293-0-1-9-6);white-space:pre" xml:space="preserve"><tspan x="-98.890625" y="-357.63352"><tspan style="font-family:'Advent Pro'">Spazi di indecisione</tspan></tspan></text>
 <a xlink:href="file:///home/boro/Http/S3L/01.Pages/01.Radice/02.radicefoot/incontri/improvvisazione">
  <text transform="translate(1395.3 638.54)" style="fill:#000000;font-family:sans-serif;font-size:40px;line-height:1.25;shape-inside:url(#rect1293-0-1-9-6-1);white-space:pre" xml:space="preserve"><tspan x="-98.890625" y="-357.63352"><tspan style="font-family:'Advent Pro'">Improvvisazione</tspan></tspan></text>
 </a>
 <text transform="translate(204.65 506.35)" style="fill:#000000;font-family:sans-serif;font-size:40px;line-height:1.25;shape-inside:url(#rect1293-0-1-9-6-1-5);white-space:pre" xml:space="preserve"><tspan x="-98.890625" y="-357.63352"><tspan style="font-family:'Advent Pro'">Ri-Creazione</tspan></tspan></text>
 <text transform="translate(552.11 1304)" style="fill:#000000;font-family:sans-serif;font-size:40px;line-height:1.25;shape-inside:url(#rect1293-0-1-9-9);white-space:pre" xml:space="preserve"><tspan x="-98.890625" y="-357.63352"><tspan style="font-family:'Advent Pro'">Spaesamenti</tspan></tspan></text>
 <text style="fill:black;font-family:sans-serif;font-size:40px;line-height:1.25;shape-inside:url(#rect1602);white-space:pre" xml:space="preserve"/>
 <text transform="translate(342.61 641.79)" style="fill:#000000;font-family:sans-serif;font-size:40px;line-height:1.25;shape-inside:url(#rect1293-0-1-9-9-8);white-space:pre" xml:space="preserve"><tspan x="-98.890625" y="-357.63352"><tspan style="font-family:'Advent Pro'">Equilibrismi</tspan></tspan></text>
 <text transform="translate(366.93 810.63)" style="fill:#000000;font-family:sans-serif;font-size:40px;line-height:1.25;shape-inside:url(#rect1293-0-1-9-9-8-7);white-space:pre" xml:space="preserve"><tspan x="-98.890625" y="-357.63352"><tspan style="font-family:'Advent Pro'">Affidamenti</tspan></tspan></text>
 <text transform="translate(693.87 1519.5)" style="fill:#000000;font-family:sans-serif;font-size:40px;line-height:1.25;shape-inside:url(#rect1293-0-1-9-9-8-7-5);white-space:pre" xml:space="preserve"><tspan x="-98.890625" y="-357.63352"><tspan style="font-family:'Advent Pro'">Approdi</tspan></tspan></text>
 <a style="stroke-opacity:.021489;stroke:#000" xlink:href="file:///home/boro/Http/S3L/01.Pages/01.Radice/02.radicefoot/incontri/ri-creazione">
  <rect x="76.432" y="98.982" width="239.47" height="76.552" style="fill:none;paint-order:stroke fill markers;stroke-opacity:.021489;stroke-width:1.6;stroke:#000"/>
 </a>
 <a style="stroke-opacity:0" xlink:href="file:///home/boro/Http/S3L/01.Pages/01.Radice/02.radicefoot/incontri/equilibrismi">
  <rect transform="scale(1,-1)" x="231.97" y="-313.95" width="207.43" height="79.603" style="fill-opacity:0;paint-order:stroke fill markers;stroke-opacity:0"/>
 </a>
 <a style="opacity:0" xlink:href="file:///home/boro/Http/S3L/01.Pages/01.Radice/02.radicefoot/incontri/affidamenti">
  <rect x="255.31" y="411.04" width="224.8" height="59.658" style="fill-opacity:0;paint-order:stroke fill markers;stroke-width:1.6;stroke:#000"/>
 </a>
 <a style="fill:none;stroke-opacity:0" xlink:href="file:///home/boro/Http/S3L/01.Pages/01.Radice/02.radicefoot/incontri/dal-terzo-paesaggio">
  <rect x="285.18" y="616.51" width="342.42" height="69.904" style="fill:none;paint-order:stroke fill markers;stroke-opacity:0"/>
 </a>
 <a style="fill:none;stroke-opacity:0" xlink:href="file:///home/boro/Http/S3L/01.Pages/01.Radice/02.radicefoot/incontri/spaesamenti">
  <rect x="428.08" y="902.89" width="237.3" height="69.814" style="fill:none;paint-order:stroke fill markers;stroke-opacity:0"/>
 </a>
 <a style="fill:none;stroke-opacity:0" xlink:href="file:///home/boro/Http/S3L/01.Pages/01.Radice/02.radicefoot/incontri/approdi">
  <rect x="574.27" y="1116.6" width="155.29" height="72.825" style="fill:none;paint-order:stroke fill markers;stroke-opacity:0"/>
 </a>
 <a style="fill:none;stroke-opacity:0" xlink:href="file:///home/boro/Http/S3L/01.Pages/01.Radice/02.radicefoot/incontri/indecisioni">
  <rect x="1323.2" y="125.23" width="207.27" height="63.719" style="fill:none;paint-order:stroke fill markers;stroke-opacity:0"/>
 </a>
 <rect x="1279.3" y="236.18" width="287.41" height="62.135" ry="0" style="fill:none;paint-order:stroke fill markers;stroke-opacity:0"/>
 <a style="fill:none;stroke-opacity:0" xlink:href="file:///home/boro/Http/S3L/01.Pages/01.Radice/02.radicefoot/al-terzo-luogo">
  <rect x="1084.3" y="384.73" width="246.24" height="64.492" style="fill:none;paint-order:stroke fill markers;stroke-opacity:0"/>
 </a>
 <rect x="884.33" y="673.7" width="481.54" height="69.214" style="fill:none;paint-order:stroke fill markers;stroke-opacity:0"/>
 <a style="fill:none;stroke-opacity:0" xlink:href="file:///home/boro/Http/S3L/01.Pages/01.Radice/02.radicefoot/incontri/spazi-di-indecisione">
  <rect x="883.91" y="888.05" width="342.04" height="74.67" style="fill:none;paint-order:stroke fill markers;stroke-opacity:0"/>
 </a>
 <a style="fill:none;stroke-opacity:0">
  <rect x="910.15" y="1123.4" width="429.72" height="62.378" style="fill:none;paint-order:stroke fill markers;stroke-opacity:0"/>
 </a>
 <a transform="matrix(.92507 0 0 .83848 690.47 -1416.2)" style="mix-blend-mode:multiply" xlink:href="file:///home/boro/Http/S3L/01.Pages/01.Radice/indecisioni">
  <rect x="689.63" y="1838.4" width="204.07" height="81.678" style="fill:#fff;mix-blend-mode:multiply;paint-order:stroke fill markers"/>
 </a>
 <a transform="matrix(1.2794 0 0 .83848 410.8 -1305.1)" style="mix-blend-mode:multiply" xlink:href="file:///home/boro/Http/S3L/01.Pages/01.Radice/improvvisazione">
  <rect x="689.63" y="1838.4" width="204.07" height="81.678" style="fill:#fff;mix-blend-mode:multiply;paint-order:stroke fill markers"/>
 </a>
 <a transform="matrix(1.1658 0 0 .83848 286.22 -1156)" style="mix-blend-mode:multiply" xlink:href="file:///home/boro/Http/S3L/01.Pages/01.Radice/al-terzo-luogo">
  <rect x="689.63" y="1838.4" width="204.07" height="81.678" style="fill:#fff;mix-blend-mode:multiply;paint-order:stroke fill markers"/>
 </a>
 <a transform="matrix(2.2869 0 0 .83848 -692.8 -871.76)" style="mix-blend-mode:multiply" xlink:href="file:///home/boro/Http/S3L/01.Pages/01.Radice/prima-la-pratica">
  <rect x="689.63" y="1838.4" width="204.07" height="81.678" style="fill:#fff;mix-blend-mode:multiply;paint-order:stroke fill markers"/>
 </a>
 <a transform="matrix(1.5628 0 0 .83848 -179.07 -647.98)" style="mix-blend-mode:multiply" xlink:href="file:///home/boro/Http/S3L/01.Pages/01.Radice/spazi-di-indecisione">
  <rect x="689.63" y="1838.4" width="204.07" height="81.678" style="fill:#fff;mix-blend-mode:multiply;paint-order:stroke fill markers"/>
 </a>
 <a transform="matrix(2.0297 0 0 .83848 -481.56 -420.16)" style="mix-blend-mode:multiply" xlink:href="file:///home/boro/Http/S3L/01.Pages/01.Radice/la-banda-del-terzo-luogo">
  <rect x="689.63" y="1838.4" width="204.07" height="81.678" style="fill:#fff;mix-blend-mode:multiply;paint-order:stroke fill markers"/>
 </a>
 <a transform="matrix(1.1124 0 0 .83848 -328.75 -637.24)" style="mix-blend-mode:multiply" xlink:href="file:///home/boro/Http/S3L/01.Pages/01.Radice/spaesamenti">
  <rect x="689.63" y="1838.4" width="204.07" height="81.678" style="fill:#fff;mix-blend-mode:multiply;paint-order:stroke fill markers"/>
 </a>
 <a transform="matrix(1.5731 0 0 .83848 -798.7 -929.78)" style="mix-blend-mode:multiply" xlink:href="file:///home/boro/Http/S3L/01.Pages/01.Radice/dal-terzo-paesaggio">
  <rect x="689.63" y="1838.4" width="204.07" height="81.678" style="fill:#fff;mix-blend-mode:multiply;paint-order:stroke fill markers"/>
 </a>
 <a transform="matrix(.93009 0 0 .83848 -382.6 -1129.9)" style="mix-blend-mode:multiply" xlink:href="file:///home/boro/Http/S3L/01.Pages/01.Radice/affidamenti">
  <rect x="689.63" y="1838.4" width="204.07" height="81.678" style="fill:#fff;mix-blend-mode:multiply;paint-order:stroke fill markers"/>
 </a>
 <a transform="matrix(.93009 0 0 .83848 -403.45 -1300)" style="mix-blend-mode:multiply" xlink:href="file:///home/boro/Http/S3L/01.Pages/01.Radice/equilibrismi">
  <rect x="689.63" y="1838.4" width="204.07" height="81.678" style="fill:#fff;mix-blend-mode:multiply;paint-order:stroke fill markers"/>
 </a>
 <a transform="matrix(1.0084 0 0 .83848 -594.68 -1437.5)" style="mix-blend-mode:multiply" xlink:href="file:///home/boro/Http/S3L/01.Pages/01.Radice/ri-creazione">
  <rect x="689.63" y="1838.4" width="204.07" height="81.678" style="fill:#fff;mix-blend-mode:multiply;paint-order:stroke fill markers"/>
 </a>
 <a transform="matrix(.73905 0 0 .83848 69.066 -424.87)" style="mix-blend-mode:multiply" xlink:href="file:///home/boro/Http/S3L/01.Pages/01.Radice/approdi">
  <rect x="689.63" y="1838.4" width="204.07" height="81.678" style="fill:#fff;mix-blend-mode:multiply;paint-order:stroke fill markers"/>
 </a>
</svg>
