<svg xmlns="http://www.w3.org/2000/svg" style="isolation:isolate" viewBox="0 0 750 300">
  <defs>
    <clipPath id="a">
      <path d="M0 0h750v300H0z"/>
    </clipPath>
  </defs>
  <g clip-path="url(#a)">
    <path fill="none" d="M0 0h750v300H0z"/>
    <path fill="none" d="M0 0h750v300H0z"/>
    <path fill="none" d="M0 0h750v300H0V0z"/>
    <path
      fill="#FFF"
      stroke="#171717"
      stroke-width="1.5"
      d="M42.048 199.65q-3.474-.318-5.697-3.672l-1.53 1.677q2.781 4.152 7.018 4.632l.209-2.637zm2.154 2.637q3.961-.48 6.15-4.152 2.188-3.675 2.188-9.903v-48.783h-2.014v48.783q-.07 10.461-6.533 11.418l.209 2.637zm86.826.078q11.534 0 19.666-9.342 4.028-4.551 6.08-9.819 2.049-5.271 2.049-11.979 0-13.332-8.129-22.515-8.132-9.102-20.084-9.183-7.366.081-13.827 4.233-6.324 4.23-10.077 11.736l2.017 1.278q3.405-6.945 9.241-10.779 5.767-3.831 12.646-3.912 11.119.081 18.485 8.544 7.366 8.304 7.435 20.598 0 6.15-1.877 10.98-1.875 4.83-5.489 9.063-7.435 8.544-18.136 8.544-6.67 0-12.091-3.276l-1.042 2.316q5.906 3.513 13.133 3.513zm84.324-24.114v-38.802h-2.363v62.916h2.363v-24.114zm.972 2.556h20.29v21.558h2.363v-46.389h-2.363v22.275h-20.29v2.556zm101.071-40.002v46.152q0 2.154.069 4.788l.07 2.715q-.139-.24-1.01-2.595-.868-2.355-1.701-4.191l-.972-2.157h-2.502l7.642 16.848h.627v-61.56h-2.223zm-19.527 13.413l.972 2.157h2.502l-7.714-16.926h-.485v61.719h2.153v-46.311q0-1.995-.069-4.671l-.07-2.754q.07.24.972 2.634.906 2.397 1.739 4.152zm169.969 48.147v-62.916h-2.293l-13.481 28.824-8.966-19.164-2.014 1.278 10.98 23.394 13.548-29.064v57.648h2.226zm-29.325 0v-57.489l.557 1.2 2.014-1.2-2.571-5.427h-2.224v62.916h2.224zm83.491-62.916v62.916h1.805v-62.916h-1.805zm78.693 62.757l.14-2.556q-10.214-.798-16.259-9.741-5.77-8.304-5.77-20.04 0-6.147 1.739-10.659 1.735-4.512 5.212-8.742 6.948-8.385 17.371-8.385 6.324 0 11.397 3.114 5.07 3.114 8.269 8.703l1.666-1.518q-3.474-6.066-9.032-9.501-5.283-3.273-11.952-3.195-5.628 0-10.562 2.196-4.934 2.196-8.686 6.747-3.753 4.632-5.663 9.582-1.912 4.95-1.912 11.658.069 12.696 6.324 21.717 6.669 9.663 17.718 10.62zm4.241.081q5.697-.399 10.422-3.114 5.419-3.195 9.102-9.024l-1.597-1.596q-3.335 5.268-8.408 8.304-4.379 2.553-9.589 2.874l.07 2.556zm91.551-55.254q0 .48 2.464 9.141 2.467 8.664 5.386 18.966 2.92 10.299 7.851 27.225h2.99l-18.416-62.916h-.554l-18.276 62.916h2.85l15.705-55.332z"
      vector-effect="non-scaling-stroke"/>
    <path fill="#FFF" stroke="#171717" stroke-width="1.5" d="M695.237 184.479h-2.502l4.168 17.886h2.501l-4.167-17.886z" vector-effect="non-scaling-stroke"/>
    <path
      fill="#F5F5F5"
      stroke="#171717"
      stroke-width="1.5"
      d="M247.72 265.362h1.888l-3.453 18.618h-1.154l-2.258-12.06-2.242 12.054h-1.155l-3.471-18.612h1.907l2.148 13.002 1.894-11.457.239-1.545h1.36l.255 1.545 1.893 11.457 2.149-13.002zm11.751 7.878v10.734h-1.894v-10.362c0-3.768-.565-5.421-2.13-5.421-1.762 0-2.477 2.523-2.477 5.802v9.981h-1.891v-28.257h1.891v12.657c.257-1.656 1.395-3.162 2.477-3.315 2.465-.375 4.024 2.07 4.024 8.181zm10.944 1.47v1.392h-7.144c0 3.429 1.597 5.082 2.773 5.082.865 0 1.816-.936 2.333-2.445l1.302 2.412c-.606 1.692-1.597 3.198-3.635 3.198-2.936 0-4.736-4.101-4.736-9.639 0-5.541 1.744-9.684 4.551-9.684 2.81 0 4.095 3.198 4.481 7.872.056.603.073 1.203.073 1.812h.002z"
      vector-effect="non-scaling-stroke"/>
    <path fill="none" stroke="#171717" stroke-width="1.5" d="M263.306 272.898h5.124c0-3.015-1.176-4.671-2.571-4.671-1.396 0-2.553 1.92-2.553 4.671z" vector-effect="non-scaling-stroke"/>
    <path
      fill="#F5F5F5"
      stroke="#171717"
      stroke-width="1.5"
      d="M277.706 265.587l-.404 3.054c-.257-.249-.557-.393-.865-.414-1.559 0-2.296 3.057-2.296 6.819v8.928h-1.891v-18.612h1.891v2.637c.222-1.728 1.195-2.973 2.277-2.973.495 0 1.028.261 1.288.561zm9.656 9.123v1.392h-7.143c0 3.429 1.599 5.082 2.772 5.082.865 0 1.819-.936 2.333-2.445l1.305 2.412c-.606 1.692-1.6 3.198-3.633 3.198-2.941 0-4.741-4.101-4.741-9.639 0-5.541 1.744-9.684 4.554-9.684 2.81 0 4.095 3.198 4.481 7.872.054.603.072 1.203.072 1.812z"
      vector-effect="non-scaling-stroke"/>
    <path fill="none" stroke="#171717" stroke-width="1.5" d="M280.259 272.898h5.121c0-3.015-1.176-4.671-2.571-4.671-1.396 0-2.55 1.92-2.55 4.671z" vector-effect="non-scaling-stroke"/>
    <path
      fill="#F5F5F5"
      stroke="#171717"
      stroke-width="1.5"
      d="M302.588 265.362s-2.296 11.154-3.823 18.612c-1.286 6.252-2.293 10.026-4.002 10.026-.533 0-1.21-.528-1.709-1.131l.571-3.393c.193.324.431.582.699.756 1.412.828 2.293-5.235 2.898-8.214l-3.434-16.656h1.913l2.499 12.207 2.478-12.207h1.91z"
      vector-effect="non-scaling-stroke"/>
    <path fill="none" stroke="#171717" stroke-width="1.5" d="M308.408 268.227c-1.562 0-2.829 2.67-2.829 6.483 0 3.762 1.265 6.474 2.829 6.474 1.559 0 2.826-2.712 2.826-6.474 0-3.807-1.267-6.483-2.826-6.483z" vector-effect="non-scaling-stroke"/>
    <path fill="none" stroke="#171717" stroke-width="1.5" d="M308.408 265.026c2.606 0 4.717 4.143 4.717 9.684 0 5.538-2.111 9.639-4.717 9.639-2.609 0-4.722-4.101-4.722-9.639 0-5.541 2.113-9.684 4.722-9.684z" vector-effect="non-scaling-stroke"/>
    <path
      fill="#F5F5F5"
      stroke="#171717"
      stroke-width="1.5"
      d="M315.016 276.102v-10.74h1.894v10.365c0 3.768.57 5.424 2.129 5.424 1.763 0 2.478-2.526 2.478-5.805v-9.984h1.894v18.618h-1.894v-3.018c-.254 1.659-1.396 3.165-2.478 3.318-2.459.375-4.018-2.073-4.018-8.178h-.005zm16.417-10.512l-.404 3.051c-.258-.252-.555-.393-.863-.414-1.559 0-2.295 3.057-2.295 6.819v8.928h-1.892v-18.612h1.892v2.637c.222-1.728 1.194-2.973 2.279-2.973.455-.006.903.189 1.283.561v.003zm8.778-.228v18.612h-1.889v-18.612h1.889zm.091-6.822c0 1.206-.456 2.151-1.045 2.151-.276 0-.541-.228-.734-.63-.203-.45-.308-.981-.294-1.521 0-1.164.455-2.106 1.028-2.106.587 0 1.045.942 1.045 2.106zm2.204 16.17c0-5.541 1.929-9.684 4.535-9.684.9 0 2.004.792 2.609 1.806v-11.115h1.91v28.257h-1.91v-1.392c-.715 1.092-1.709 1.767-2.609 1.767-2.606 0-4.535-4.101-4.535-9.639z"
      vector-effect="non-scaling-stroke"/>
    <path
      fill="#F5F5F5"
      stroke="#171717"
      stroke-width="1.5"
      d="M344.419 274.71c0 3.762 1.264 6.474 2.807 6.474 1.028 0 1.947-.972 2.424-2.973.538-2.283.538-4.764 0-7.047-.477-1.995-1.396-2.937-2.424-2.937-1.543 0-2.807 2.67-2.807 6.483zm18.27 0v1.392h-7.143c0 3.429 1.596 5.082 2.772 5.082.86 0 1.816-.936 2.333-2.445l1.304 2.412c-.608 1.692-1.599 3.198-3.637 3.198-2.939 0-4.736-4.101-4.736-9.639 0-5.541 1.744-9.684 4.551-9.684 2.81 0 4.096 3.198 4.481 7.872.057.603.073 1.203.073 1.812h.002z"
      vector-effect="non-scaling-stroke"/>
    <path
      fill="#F5F5F5"
      stroke="#171717"
      stroke-width="1.5"
      d="M355.58 272.898h5.122c0-3.015-1.171-4.671-2.569-4.671-1.393 0-2.553 1.92-2.553 4.671zm12.82-7.911c2.606 0 3.654 3.24 3.654 5.988v12.999h-1.891v-2.034c-.491 1.431-1.482 2.346-2.572 2.376-2.073 0-3.434-2.484-3.434-5.805 0-4.632 1.688-6.291 3.434-6.291h2.572v-1.245c0-1.164-.223-2.79-1.763-2.79-.865 0-1.653.945-2.167 2.415l-1.304-2.409c.884-2.034 2.145-3.198 3.471-3.204z"
      vector-effect="non-scaling-stroke"/>
    <path
      fill="#F5F5F5"
      stroke="#171717"
      stroke-width="1.5"
      d="M370.163 278.172v-2.787h-2.315c-1.122 0-1.91 1.167-1.781 3.276.11 1.773.809 2.49 1.781 2.49 1.747 0 2.315-1.695 2.315-2.979zm10.537-1.428c.04.222.351 2.07-.035 3.957-.479 2.22-1.746 3.648-3.321 3.648h-.022c-1.267 0-2.421-1.092-3.286-2.823l1.229-2.523c.514 1.356 1.248 2.034 2.057 2.034.9 0 1.656-.675 1.854-1.656.131-.675.021-1.392.021-1.47-.219-1.131-1.028-1.359-1.947-1.773-1.232-.564-2.462-1.206-2.938-3.843-.231-1.413-.175-2.892.163-4.257.437-1.77 1.567-2.967 2.847-3.012 1.267 0 2.465.978 3.308 2.751l-1.232 2.523c-.514-1.359-1.267-1.962-2.076-1.962-.018 0-1.103.036-1.414 1.281-.129.492-.155 1.032-.072 1.545.182 1.056 1.01 1.398 1.891 1.812 1.192.564 2.499 1.131 2.978 3.768h-.005zm12.324-11.718c2.606 0 4.535 4.143 4.535 9.684 0 5.538-1.929 9.639-4.535 9.639-.937-.033-1.845-.651-2.609-1.767v1.392h-1.891v-28.257h1.891v11.115c.608-1.017 1.728-1.806 2.609-1.806z"
      vector-effect="non-scaling-stroke"/>
    <path
      fill="#F5F5F5"
      stroke="#171717"
      stroke-width="1.5"
      d="M392.839 281.184c1.562 0 2.829-2.712 2.829-6.474 0-3.807-1.267-6.483-2.829-6.483-1.028 0-1.926.942-2.424 2.937-.538 2.283-.538 4.764 0 7.047.498 1.995 1.396 2.973 2.424 2.973zm15.115-6.474v1.392h-7.143c0 3.429 1.596 5.082 2.772 5.082.86 0 1.813-.936 2.333-2.445l1.299 2.412c-.605 1.692-1.594 3.198-3.632 3.198-2.938 0-4.738-4.101-4.738-9.639 0-5.541 1.743-9.684 4.553-9.684 2.807 0 4.096 3.198 4.481 7.872.054.603.075 1.203.075 1.812z"
      vector-effect="non-scaling-stroke"/>
    <path
      fill="#F5F5F5"
      stroke="#171717"
      stroke-width="1.5"
      d="M400.846 272.898h5.121c0-3.015-1.171-4.671-2.569-4.671-1.395 0-2.552 1.92-2.552 4.671zm15.278 6.219l1.302 2.406c-.729 1.788-2.052 2.865-3.472 2.826-2.603 0-4.717-4.101-4.717-9.639 0-5.541 2.114-9.684 4.717-9.684 1.38 0 2.612.864 3.472 2.823l-1.302 2.412c-.536-1.467-1.304-2.034-2.17-2.034-1.558 0-2.823 2.67-2.823 6.483 0 3.762 1.265 6.474 2.823 6.474.866 0 1.634-.558 2.17-2.067zm7.492-10.893c-1.562 0-2.829 2.679-2.829 6.486 0 3.762 1.267 6.474 2.829 6.474 1.559 0 2.829-2.712 2.829-6.474 0-3.807-1.27-6.483-2.829-6.483v-.003z"
      vector-effect="non-scaling-stroke"/>
    <path
      fill="#F5F5F5"
      stroke="#171717"
      stroke-width="1.5"
      d="M423.616 265.026c2.609 0 4.717 4.143 4.717 9.684 0 5.538-2.108 9.639-4.717 9.639-2.606 0-4.72-4.101-4.72-9.639 0-5.541 2.114-9.684 4.72-9.684zm14.893 8.214v10.734h-1.913l.022-.147v-10.212c0-3.771-.48-5.424-2.039-5.424-1.765 0-2.389 2.523-2.389 5.802v9.981h-1.888v-18.612h1.888v3.012c.26-1.656 1.305-3.162 2.389-3.315 1.779-.261 3.046.945 3.617 3.957.388-2.559 1.615-3.804 2.678-3.951 2.462-.381 3.932 2.064 3.932 8.175v10.734h-1.891v-10.362c0-3.768-.477-5.421-2.041-5.421-1.575 0-2.239 2.034-2.365 5.049zm16.947 1.47v1.392h-7.144c0 3.429 1.6 5.082 2.773 5.082.865 0 1.819-.936 2.333-2.445l1.304 2.412c-.608 1.692-1.599 3.198-3.637 3.198-2.936 0-4.736-4.101-4.736-9.639 0-5.541 1.744-9.684 4.556-9.684 2.808 0 4.093 3.198 4.479 7.872.053.603.072 1.203.072 1.812z"
      vector-effect="non-scaling-stroke"/>
    <path
      fill="#F5F5F5"
      stroke="#171717"
      stroke-width="1.5"
      d="M448.353 272.898h5.121c0-3.015-1.176-4.671-2.569-4.671-1.398 0-2.552 1.92-2.552 4.671zm19.904-7.311l-.404 3.054c-.257-.249-.557-.393-.866-.414-1.558 0-2.292 3.057-2.292 6.819v8.928h-1.894v-18.612h1.894v2.637c.219-1.728 1.194-2.973 2.274-2.973.498 0 1.028.261 1.288.561zm9.656 9.123v1.392h-7.143c0 3.429 1.599 5.082 2.775 5.082.862 0 1.816-.936 2.33-2.445l1.304 2.412c-.605 1.692-1.596 3.198-3.634 3.198-2.939 0-4.739-4.101-4.739-9.639 0-5.541 1.744-9.684 4.554-9.684 2.81 0 4.095 3.198 4.481 7.872.054.603.072 1.203.072 1.812z"
      vector-effect="non-scaling-stroke"/>
    <path
      fill="#F5F5F5"
      stroke="#171717"
      stroke-width="1.5"
      d="M470.807 272.898h5.124c0-3.015-1.173-4.671-2.571-4.671-1.396 0-2.553 1.92-2.553 4.671zm12.817-7.911c2.609 0 3.654 3.24 3.654 5.988v12.999h-1.889v-2.034c-.49 1.431-1.478 2.346-2.568 2.376-2.079 0-3.437-2.484-3.437-5.805 0-4.632 1.687-6.291 3.437-6.291h2.568v-1.245c0-1.164-.219-2.79-1.765-2.79-.862 0-1.653.945-2.167 2.415l-1.299-2.409c.879-2.034 2.14-3.198 3.466-3.204z"
      vector-effect="non-scaling-stroke"/>
    <path
      fill="#F5F5F5"
      stroke="#171717"
      stroke-width="1.5"
      d="M485.389 278.172v-2.787h-2.314c-1.122 0-1.912 1.167-1.781 3.276.11 1.773.809 2.49 1.781 2.49 1.744 0 2.314-1.695 2.314-2.979zm6.26-23.172v28.98h-1.91V255h1.91zm4.921 10.362v18.618h-1.889v-18.618h1.889zm.093-6.822c0 1.206-.458 2.151-1.047 2.151-.276 0-.541-.228-.734-.63-.203-.45-.308-.981-.295-1.521 0-1.164.459-2.106 1.029-2.106.589 0 1.047.942 1.047 2.106zm6.059 22.347c.587.489 1.048.15 1.324-.114v3.015c-.303.378-.689.576-1.085.561-1.08 0-2.036-.711-2.625-2.67-.549-1.887-.549-2.904-.549-5.844v-7.308h-1.104v-3.165h1.104v-5.877h1.888v5.877h2.371v3.165h-2.371v7.308c0 3.09.147 4.218 1.047 5.052zm11.403-15.525s-2.293 11.154-3.82 18.612c-1.285 6.252-2.292 10.026-4.001 10.026-.531 0-1.211-.528-1.709-1.131l.57-3.393c.193.324.431.582.697.756 1.414.828 2.295-5.235 2.903-8.214l-3.434-16.656h1.91l2.499 12.207 2.478-12.207h1.907zM389.271 37.131c.686 0 1.141-.504 1.141-1.263v-3.789c0-.756-.455-1.26-1.141-1.26-.685 0-1.143.504-1.143 1.263v3.786c0 .759.458 1.263 1.143 1.263zm20.449 16.416h-3.429c-.683 0-1.141.507-1.141 1.263 0 .759.458 1.263 1.141 1.263h3.429c.685 0 1.143-.504 1.143-1.263.006-.687-.503-1.251-1.143-1.263zm-37.586 0h-3.426c-.686 0-1.141.507-1.141 1.263 0 .759.455 1.263 1.141 1.263h3.429c.685 0 1.141-.504 1.141-1.263 0-.756-.456-1.263-1.144-1.263zm29.933-11.238l2.397-2.652c.22-.234.343-.552.343-.885 0-.33-.123-.648-.343-.882-.203-.243-.495-.381-.798-.381-.305 0-.595.138-.801.381l-2.397 2.652c-.22.234-.343.552-.343.882 0 .333.123.651.343.885.203.243.495.381.798.381.305 0 .595-.138.801-.381zm-25.704 0c.204.243.496.381.799.381.305 0 .594-.138.801-.381.219-.234.342-.552.342-.885 0-.33-.123-.648-.342-.882l-2.4-2.652c-.207-.243-.496-.381-.801-.381-.303 0-.592.138-.799.381-.219.234-.342.552-.342.882 0 .333.123.651.342.885l2.4 2.652zm32.216 19.827l-3.201-1.389c-.568-.252-1.257 0-1.484.63-.228.633 0 1.392.57 1.644l3.199 1.389c.573.252 1.256 0 1.486-.633.172-.291.209-.651.097-.975-.113-.324-.359-.57-.667-.666zm-34.045-14.019c.228-.63 0-1.389-.571-1.641l-3.313-1.515c-.571-.252-1.256 0-1.484.63-.23.633 0 1.389.571 1.641l3.198 1.392c.686.378 1.371.126 1.599-.507zm22.162-10.353l1.257-3.537c.227-.63 0-1.389-.571-1.641-.57-.252-1.256 0-1.484.63l-1.259 3.537c-.227.63 0 1.389.574 1.641.57.381 1.253 0 1.483-.63zm-13.593.756c.57-.252.798-1.008.57-1.641l-1.371-3.534c-.228-.633-.914-.885-1.484-.633-.571.252-.801 1.011-.571 1.641l1.372 3.537c.227.63.913.885 1.481.63h.003zM373.05 60.873l-3.201 1.515c-.568.255-.798 1.011-.568 1.641.225.633.914.885 1.481.633l3.201-1.515c.571-.252.799-1.011.571-1.641-.228-.507-.913-.885-1.484-.633zm32.328-12.249l3.198-1.518c.573-.252.801-1.011.573-1.641-.23-.63-.913-.882-1.484-.63l-3.201 1.515c-.57.252-.798 1.011-.57 1.641.227.633.916.885 1.484.633z"
      vector-effect="non-scaling-stroke"/>
    <path
      fill="#F5F5F5"
      stroke="#171717"
      stroke-width="1.5"
      d="M388.358 38.016c-7.085.504-13.023 6.945-13.596 14.901-.343 4.926 1.143 9.597 4.114 13.134 2.17 2.526 3.541 5.682 3.884 8.964h-.914c-.49-.006-.959.207-1.301.585-.346.384-.533.903-.528 1.437v5.808c-.008.537.182 1.053.528 1.437.34.378.811.591 1.301.585h3.083v1.515h-1.368c-.689 0-1.144.633-1.144 1.263 0 .759.455 1.263 1.144 1.263h1.484c.343 1.767 1.711 3.03 3.426 3.03h1.826c1.715 0 3.086-1.389 3.429-3.156h1.484c.688 0 1.144-.63 1.144-1.263 0-.759-.456-1.263-1.141-1.263h-1.372v-1.515h3.086c.485.006.953-.204 1.299-.585.343-.384.533-.9.528-1.437v-5.808c.005-.534-.185-1.053-.528-1.437-.343-.378-.812-.591-1.299-.585h-.916c.375-3.396 1.733-6.576 3.884-9.09 2.627-3.159 4.114-7.2 3.999-11.493-.115-9.219-7.198-16.794-15.536-16.29z"
      vector-effect="non-scaling-stroke"/>
    <path
      fill="#F5F5F5"
      stroke="#171717"
      stroke-width="1.5"
      d="M391.556 87.897c0 .759-.57 1.515-1.259 1.515h-1.826c-.7-.018-1.257-.633-1.257-1.389v-3.156h4.342v3.03zm4.798-5.682c-8.226 0-14.052.126-14.052.126v-4.674c3.428 0 10.623 0 14.052-.126v4.674zm1.714-18.06c-2.515 3.03-4.114 6.822-4.455 10.734h-3.201V61.758c1.945-.507 3.429-2.526 3.429-4.926 0-2.778-2.057-5.052-4.57-5.052-2.515 0-4.569 2.274-4.569 5.052 0 2.4 1.484 4.293 3.426 4.926v13.131h-3.083c-.359-3.993-1.972-7.734-4.57-10.608-2.585-2.997-3.873-7.035-3.544-11.112.573-6.819 5.486-12.249 11.54-12.627h.685c6.742 0 12.225 6.186 12.225 13.89.113 3.663-1.144 7.071-3.316 9.723h.003z"
      vector-effect="non-scaling-stroke"/>
    <path
      fill="#F5F5F5"
      stroke="#171717"
      stroke-width="1.5"
      d="M389.271 59.484c-1.261-.006-2.282-1.134-2.284-2.526 0-1.389 1.028-2.526 2.284-2.526 1.257 0 2.285 1.137 2.285 2.526-.005 1.392-1.026 2.52-2.285 2.526zm-6.284-45.84L385.843 12c.458-.378.686-1.137.345-1.767-.345-.63-1.028-.882-1.601-.504l-6.282 3.789c-.342.252-.573.504-.573.882s.115.759.346 1.137l4.454 4.923c.204.243.496.381.798.381.306 0 .595-.138.799-.381.219-.231.345-.549.345-.882 0-.333-.126-.651-.345-.885l-2.398-2.652c14.623 1.515 26.732 14.019 28.787 30.183.115.63.688 1.137 1.259 1.008.57-.126 1.028-.756.913-1.386-2.057-16.923-14.622-30.183-29.703-32.202zm-13.936 67.938c-.206-.24-.496-.378-.801-.378-.303 0-.595.138-.798.378-.22.234-.343.552-.343.885 0 .333.123.651.343.885l2.855 3.156c-14.392-1.389-26.504-13.764-28.674-29.802-.115-.633-.686-1.137-1.256-1.011-.686 0-1.029.633-1.029 1.389 2.285 16.797 14.623 29.802 29.588 31.95l-2.856 1.641c-.57.255-.801 1.011-.455 1.641.228.633 1.029.885 1.481.507l6.63-3.663c.34-.138.568-.489.57-.882.113-.381-.115-.759-.343-1.137l-4.912-5.559zm-25.819-43.188l-1.942 2.904c-.343.507-.343 1.263.113 1.641l2.627 3.033c.458.504 1.029.504 1.487.126l2.628-2.148a13.127 13.127 0 0 0 3.768 1.767l.458 3.537c.116.633.571 1.137 1.141 1.137h3.772c.57 0 1.029-.504 1.144-1.137l.455-3.534c1.331-.381 2.604-.978 3.769-1.77l2.515 2.145c.228.129.458.255.686.255.337.009.667-.126.913-.378l2.628-2.907c.428-.429.479-1.143.115-1.638l-1.942-2.907a18.3253 18.3253 0 0 0 1.599-4.167l3.196-.504c.573-.126 1.028-.633 1.028-1.263v-4.167c0-.633-.455-1.137-1.026-1.263l-3.198-.507c-.343-1.464-.881-2.868-1.599-4.167l1.827-2.904c.364-.54.316-1.287-.115-1.767l-2.625-2.907c-.461-.504-1.029-.504-1.487-.126l-2.628 2.148c-1.168-.789-2.437-1.386-3.771-1.767l-.455-3.537c-.116-.63-.571-1.137-1.144-1.137H353.4c-.571 0-1.029.507-1.141 1.137l-.458 3.534c-1.331.384-2.604.981-3.769 1.77l-2.515-2.148c-.458-.378-1.141-.378-1.487.126l-2.74 2.907c-.343.504-.455 1.134-.115 1.641l1.942 2.904a18.4336 18.4336 0 0 0-1.599 4.167l-3.198.507c-.571.126-1.026.63-1.026 1.263v4.167c0 .63.455 1.137 1.026 1.263l3.198.504c.458 1.515.916 2.904 1.714 4.167z"
      vector-effect="non-scaling-stroke"/>
    <path
      fill="#F5F5F5"
      stroke="#171717"
      stroke-width="1.5"
      d="M339.691 29.43l3.086-.507c.455-.126.913-.504 1.026-1.011.343-1.767.916-3.408 1.829-4.926.228-.474.228-1.038 0-1.515l-1.942-2.652 1.254-1.389 2.402 2.022c.341.378 1.026.378 1.369 0 1.372-1.011 2.858-1.641 4.457-2.022.456-.126.799-.504.914-1.137l.455-3.408h1.83l.458 3.408c.112.507.455 1.011.913 1.137 1.599.381 3.083 1.011 4.454 2.022.426.252.943.252 1.369 0l2.403-2.022 1.253 1.389-1.826 2.652c-.343.378-.343 1.011 0 1.515.913 1.518 1.484 3.159 1.826 4.926.108.495.458.885.917 1.011l3.083.507v2.019l-3.083.504c-.459.129-.917.507-.917 1.011-.342 1.77-.913 3.408-1.826 4.926-.228.474-.228 1.041 0 1.515l1.826 2.652-1.253 1.389-2.403-2.022c-.34-.378-.913-.378-1.369 0-1.371 1.011-2.855 1.641-4.454 2.022-.458.126-.801.504-.913 1.137l-.458 3.408h-1.83l-.455-3.408c-.115-.507-.458-1.011-.914-1.137-1.599-.381-3.085-1.011-4.457-2.022-.426-.252-.943-.252-1.369 0l-2.402 2.022-1.254-1.389 1.714-2.778c.341-.378.341-1.137 0-1.515-.916-1.515-1.486-3.156-1.829-4.926-.113-.504-.458-.885-1.026-1.008l-2.858-.381V29.43z"
      vector-effect="non-scaling-stroke"/>
    <path fill="#F5F5F5" stroke="#171717" stroke-width="1.5" d="M355.342 39.531c4.57 0 8.338-4.167 8.338-9.219s-3.768-9.219-8.338-9.219c-4.57 0-8.338 4.167-8.338 9.219s3.768 9.219 8.338 9.219z" vector-effect="non-scaling-stroke"/>
    <path fill="#F5F5F5" stroke="#171717" stroke-width="1.5" d="M355.342 23.745c3.313 0 6.054 3.03 6.054 6.693s-2.741 6.693-6.054 6.693-6.056-3.03-6.056-6.693 2.743-6.693 6.056-6.693z" vector-effect="non-scaling-stroke"/>
  </g>
</svg>