<?xml version="1.0" encoding="UTF-8" standalone="no"?>
<svg
   xmlns:dc="http://purl.org/dc/elements/1.1/"
   xmlns:cc="http://creativecommons.org/ns#"
   xmlns:rdf="http://www.w3.org/1999/02/22-rdf-syntax-ns#"
   xmlns:svg="http://www.w3.org/2000/svg"
   xmlns="http://www.w3.org/2000/svg"
   xmlns:xlink="http://www.w3.org/1999/xlink"
   xmlns:sodipodi="http://sodipodi.sourceforge.net/DTD/sodipodi-0.dtd"
   xmlns:inkscape="http://www.inkscape.org/namespaces/inkscape"
   version="1.1"
   id="svg917"
   width="1229.443"
   height="2158.2146"
   viewBox="0 0 1229.443 2158.2145"
   sodipodi:docname="logoCasa.svg"
   inkscape:version="1.0.1 (3bc2e813f5, 2020-09-07, custom)">
  <metadata
     id="metadata923">
    <rdf:RDF>
      <cc:Work
         rdf:about="">
        <dc:format>image/svg+xml</dc:format>
        <dc:type
           rdf:resource="http://purl.org/dc/dcmitype/StillImage" />
        <dc:title />
      </cc:Work>
    </rdf:RDF>
  </metadata>
  <defs
     id="defs921">
    <rect
       x="-87.538918"
       y="105.18089"
       width="188.422"
       height="61.255878"
       id="rect1041" />
    <rect
       x="25.72127"
       y="-34.14716"
       width="200.14819"
       height="65.457436"
       id="rect1035" />
    <rect
       x="-251.29166"
       y="-47.330284"
       width="1624.4231"
       height="806.34637"
       id="rect1547" />
    <rect
       x="-251.29166"
       y="-47.330284"
       width="1624.4231"
       height="806.34637"
       id="rect1547-3" />
    <rect
       x="-251.29166"
       y="-47.330284"
       width="1624.4231"
       height="806.34637"
       id="rect1568" />
    <rect
       x="-251.29166"
       y="-47.330284"
       width="1624.4231"
       height="806.34637"
       id="rect1547-36" />
    <rect
       x="-251.29166"
       y="-47.330284"
       width="1624.4231"
       height="806.34637"
       id="rect857" />
    <rect
       x="-251.29166"
       y="-47.330284"
       width="1624.4231"
       height="806.34637"
       id="rect1547-3-7" />
    <rect
       x="-251.29166"
       y="-47.330284"
       width="1624.4231"
       height="806.34637"
       id="rect860" />
    <rect
       x="-87.538918"
       y="105.18089"
       width="188.422"
       height="61.255878"
       id="rect1041-0" />
    <rect
       x="-87.538918"
       y="105.18089"
       width="188.422"
       height="61.255878"
       id="rect1054" />
    <rect
       x="-87.538918"
       y="105.18089"
       width="188.422"
       height="61.255878"
       id="rect1041-0-1" />
    <rect
       x="-87.538918"
       y="105.18089"
       width="188.422"
       height="61.255878"
       id="rect1083" />
    <rect
       x="-87.538918"
       y="105.18089"
       width="188.422"
       height="61.255878"
       id="rect1041-9" />
    <rect
       x="-87.538918"
       y="105.18089"
       width="188.422"
       height="61.255878"
       id="rect1113" />
  </defs>
  <sodipodi:namedview
     pagecolor="#ffffff"
     bordercolor="#666666"
     borderopacity="1"
     objecttolerance="10"
     gridtolerance="10"
     guidetolerance="10"
     inkscape:pageopacity="0"
     inkscape:pageshadow="2"
     inkscape:window-width="1920"
     inkscape:window-height="1005"
     id="namedview919"
     showgrid="false"
     inkscape:zoom="0.32137683"
     inkscape:cx="105.46857"
     inkscape:cy="1037.5767"
     inkscape:window-x="0"
     inkscape:window-y="0"
     inkscape:window-maximized="1"
     inkscape:current-layer="g2451"
     inkscape:document-rotation="0" />
  <g
     inkscape:groupmode="layer"
     inkscape:label="Image"
     id="g925"
     transform="translate(22.486898,-315.34537)">
    <g
       inkscape:groupmode="layer"
       id="layer1"
       inkscape:label="Layer 1"
       style="display:inline">
      <path
         style="fill:none;stroke:#000000;stroke-width:3.5;stroke-linecap:butt;stroke-linejoin:miter;stroke-miterlimit:4;stroke-dasharray:none;stroke-opacity:1"
         d="m 438.05297,2143.2627 c 0,-50.272 -8.3849,-105.8688 -22.1472,-154.1576 -5.0803,-17.8254 -16.2804,-33.9405 -21.0927,-52.1766 -8.1406,-30.8482 -13.2154,-66.7062 -16.8743,-98.8026 -4.0843,-35.8275 29.618,-62.9496 27.4205,-98.8027 -2.7496,-44.8603 -19.7213,-88.337 -28.4751,-132.1067 -6.6589,-33.2955 -3.8242,-69.5325 -7.3826,-103.2432 -5.2132,-49.3879 -18.9065,-93.912 -31.4887,-141.5927 -8.8931,-33.7004 -2.7859,-90.2923 -4.2187,-126.493 -1.1592,-29.2866 -6.4222,-58.3881 -7.3823,-87.7011 -2.2952,-70.0666 -1.9701,-139.7844 1.0545,-209.81675 1.966,-45.5223 12.918,-88.38449 17.9288,-133.21686 4.1104,-36.77606 8.5689,-178.428 3.1639,-194.27478 -2.119,-6.21275 -8.7066,-9.82593 -13.0599,-14.73889 -1.2554,37.93699 4.652,75.60996 2.704,113.54384 -1.4492,28.21917 -8.3285,50.38021 -12.6556,77.70991 -6.8095,43.00876 -14.541,87.31066 -17.9288,130.99675 -1.9081,24.60463 0.8902,15.55177 3.1639,39.96504 3.2342,34.72625 5.595,70.65564 7.3823,105.46344 1.5924,31.0111 -3.1639,61.2312 -3.1639,92.1418 0,52.614 7.5529,96.5146 1.0546,149.8689 -5.5394,45.4805 -13.7786,90.0996 -21.0925,135.4375 -5.0789,31.4834 -5.8427,10.3532 -8.4371,41.0751 -3.0792,36.4627 -2.6425,73.398 -4.2187,109.9039 -1.8472,42.7808 -3.45173,58.0744 -2.24199,100.9447 0.37106,13.1496 -0.87641,44.8071 0.54879,62.5188 2.19054,27.223 -18.6424,103.1041 -23.618,136.2749 -7.9424,52.9495 -8.532,107.6617 -11.601,160.9704 -1.3117,22.7837 -8.2497,45.1557 -10.5463,67.7185 -2.926,28.7476 -5.4976,57.8618 -9.4916,86.591 -5.7491,41.3531 -21.1021,81.2319 -23.2021,123.2259 -1.4917,29.8288 3.517,60.3323 6.3278,89.9215 1.5557,16.3776 0.1142,36.9163 5.0863,52.6206"
         id="path1033"
         sodipodi:nodetypes="csssssssscssscssssssssssssssssssc" />
      <path
         style="fill:none;stroke:#000000;stroke-width:3;stroke-linecap:butt;stroke-linejoin:miter;stroke-miterlimit:4;stroke-dasharray:none;stroke-opacity:1"
         d="m 728.83417,1197.3362 c -6.911,-6.3874 -24.3666,-37.3959 -25.2322,-37.6915 -24.488,-8.3651 -78.8077,-7.7226 -96.0763,-18.5101 -6.7317,-4.2052 -9.8878,-13.2959 -15.5927,-18.6338 -19.0802,-17.8528 -36.629,-37.0572 -51.6771,-58.8373 -5.3782,-7.7843 -7.0678,-18.6751 -14.4866,-27.4605 -25.0271,-29.6373 -52.7572,-53.52115 -75.4687,-86.72505 -17.7761,-25.9885 -20.5842,-56.5595 -32.6938,-84.3708 -14.3992,-33.06971 -31.4956,-68.39605 -37.4033,-104.17394 -5.8982,-35.71982 -23.9909,-61.63097 -29.8691,-97.51852 -1.7511,-10.69113 -2.66728,-15.43816 -3.37508,-26.24862 -0.7887,-12.04809 -12.36942,-28.98726 -11.46012,-41.02685 -0.8485,16.16651 19.7073,21.43004 20.6299,37.59249 0.1288,2.25607 11.8343,31.82089 12.6556,34.4144 10.9766,34.66285 13.8089,76.98778 32.6937,108.79383 13.8193,23.27455 33.326,40.47239 48.513,62.16795 8.765,12.5213 15.6795,28.44753 27.4205,38.85496 18.4832,16.38392 41.6504,27.87931 61.0406,43.18752 22.0122,17.37814 43.5649,36.19376 65.0277,54.07304"
         id="path1035"
         sodipodi:nodetypes="ccssssssssscscssssc" />
      <path
         style="fill:none;stroke:#000000;stroke-width:0.999999;stroke-linecap:butt;stroke-linejoin:miter;stroke-miterlimit:4;stroke-dasharray:none;stroke-opacity:1"
         d="m 324.89577,1021.9298 c 10.3671,10.5067 23.8967,70.7162 34.5349,80.9483 11.9179,11.4629 27.5404,20.2236 38.7405,32.3315 20.4075,22.0614 42.7972,44.9611 69.7522,59.1482"
         id="path1037"
         sodipodi:nodetypes="cssc" />
      <path
         style="fill:none;stroke:#000000;stroke-width:0.999999;stroke-linecap:butt;stroke-linejoin:miter;stroke-miterlimit:4;stroke-dasharray:none;stroke-opacity:1"
         d="m 346.28667,902.16958 c 7.5366,19.06256 14.0243,38.57393 22.6098,57.18768 7.2939,15.8136 70.4306,45.28804 89.6441,51.06644 23.4827,7.0623 39.8805,3.3053 55.1417,25.9055"
         id="path1039" />
      <path
         style="fill:none;stroke:#000000;stroke-width:0.999999;stroke-linecap:butt;stroke-linejoin:miter;stroke-miterlimit:4;stroke-dasharray:none;stroke-opacity:1"
         d="m 348.01167,717.63035 c -23.0092,19.70806 -33.4934,48.06458 -51.2887,71.683 -2.7644,3.66893 -6.328,6.66088 -9.4919,9.99132 -8.4371,11.1014 -17.5618,21.71232 -25.3112,33.3042 -43.3258,64.80858 -58.0773,148.58358 -119.6559,200.43983"
         id="path1041" />
      <path
         style="fill:none;stroke:#000000;stroke-width:3;stroke-linecap:butt;stroke-linejoin:miter;stroke-miterlimit:4;stroke-dasharray:none;stroke-opacity:1"
         d="m 335.49917,596.13922 c -7.7069,20.92116 -18.653,40.92016 -23.1206,62.76349 -7.3924,36.14291 12.9316,75.43711 4.2184,112.12431 -8.5451,35.97973 -28.7633,67.52727 -39.0213,103.24303 -9.2265,32.1243 -13.6901,63.9426 -28.4753,94.3621 -14.4269,29.6824 -38.2638,60.88205 -46.4039,93.25185 -16.6867,66.3567 -15.3925,138.6653 -44.2945,202.0457 -24.3747,53.4521 -93.862606,154.8804 -93.862606,208.7065"
         id="path1043" />
      <path
         style="fill:none;stroke:#000000;stroke-width:0.999999;stroke-linecap:butt;stroke-linejoin:miter;stroke-miterlimit:4;stroke-dasharray:none;stroke-opacity:1"
         d="m 348.01167,717.63035 c -6.2267,87.98601 8.1302,180.3099 -14.8352,266.9339 -12.1094,45.67585 -28.5135,90.11035 -37.9667,136.54735 -7.5894,37.2815 -10.2398,74.8935 -17.9288,112.1243 -4.6862,22.6908 -13.9256,43.9805 -18.9837,66.6084 -11.5019,51.4558 -11.8308,104.42 -26.3657,155.4199 -18.4606,64.7744 -35.6419,129.4184 -49.5678,195.3848 -3.9693,18.8028 -11.601,36.1733 -11.601,55.5071"
         id="path1045" />
      <path
         style="fill:none;stroke:#000000;stroke-width:3;stroke-linecap:butt;stroke-linejoin:miter;stroke-miterlimit:4;stroke-dasharray:none;stroke-opacity:1"
         d="m 347.67677,772.58501 c 4.9216,25.53328 9.6886,51.09684 14.7649,76.59984 4.7607,23.9176 12.7504,53.398 13.6145,78.8641 0.5315,15.6629 -3.5106,31.57935 -1.0548,47.73605 5.5105,36.2543 13.4754,72.2293 17.9288,108.7939 1.5711,12.8991 0.6696,26.102 3.1639,38.8549 4.8456,24.7746 14.4524,45.9735 21.0927,69.9389 5.1009,18.4094 5.7288,38.0743 11.6011,56.6172"
         id="path1047" />
      <path
         style="fill:none;stroke:#000000;stroke-width:4;stroke-linecap:butt;stroke-linejoin:miter;stroke-miterlimit:4;stroke-dasharray:none;stroke-opacity:1"
         d="m 336.59846,636.55642 c 4.9216,18.8724 20.91611,56.425 25.09271,75.47613 11.9811,54.6497 23.691,107.3528 49.5678,157.6401 8.1499,15.83785 16.7147,24.76845 27.4205,38.85495 17.5851,23.1381 34.3191,51.1995 48.5132,76.5997 18.3376,32.8148 39.3503,64.7566 56.9504,97.6925 9.9886,18.6921 17.7627,39.7474 30.5844,56.6172"
         id="path1049"
         sodipodi:nodetypes="csssssc" />
      <path
         style="fill:none;stroke:#000000;stroke-width:0.999999;stroke-linecap:butt;stroke-linejoin:miter;stroke-miterlimit:4;stroke-dasharray:none;stroke-opacity:1"
         d="m 348.01167,717.63035 c 2.4068,-0.37325 5.7335,-3.04869 7.2206,-1.11974 12.5081,16.22419 14.1645,39.40834 25.3112,56.61719 14.8157,22.87347 94.0443,106.83635 135.7872,92.19045"
         id="path1051" />
      <path
         style="fill:none;stroke:#000000;stroke-width:3;stroke-linecap:butt;stroke-linejoin:miter;stroke-miterlimit:4;stroke-dasharray:none;stroke-opacity:1"
         d="m 351.29912,699.8028 c -1.4229,8.49704 -2.08405,39.30139 -1.07885,47.8579 2.4147,20.55412 63.825,44.95353 76.9883,51.06655 18.2468,8.47374 35.9621,20.87021 55.8956,25.53316 41.8652,9.79331 86.0392,17.80954 129.2982,15.41304 22.4092,-1.24144 46.3183,-5.67237 68.5512,-4.44056 27.4895,1.52306 77.7053,19.91635 100.7248,13.38198"
         id="path1053"
         sodipodi:nodetypes="csssssc" />
      <path
         style="fill:none;stroke:#000000;stroke-width:0.999999;stroke-linecap:butt;stroke-linejoin:miter;stroke-miterlimit:4;stroke-dasharray:none;stroke-opacity:1"
         d="m 348.01167,717.63035 c -4.4123,37.79666 -30.8844,63.0733 -51.9247,92.03563 -21.6521,29.80446 -40.8302,60.00527 -65.3873,87.70127 -8.9343,10.0763 -20.3771,17.0089 -29.5296,26.6433 -20.7229,21.814 -39.4235,42.8037 -64.3327,59.9477 C 97.745066,1010.864 49.988264,1024.1171 8.171964,1046.1261"
         id="path1055" />
      <path
         style="fill:none;stroke:#000000;stroke-width:3;stroke-linecap:butt;stroke-linejoin:miter;stroke-miterlimit:4;stroke-dasharray:none;stroke-opacity:1"
         d="m 335.49917,596.13922 c -48.1067,61.44304 -38.5595,141.93705 -64.8075,211.01098 -20.3128,53.45465 -118.2205,146.35505 -166.6322,179.84295 -22.450806,15.52985 -46.556906,28.38905 -70.660506,41.07515 -12.7597,6.7156 -2.4004,0.9207 -22.1473,14.4317 -3.5009,2.3954 -14.7630004,8.2836 -10.8436,6.6609 2.5673,-1.0629 5.1759,-2.0232 7.7639,-3.0348"
         id="path1057" />
      <path
         style="fill:none;stroke:#000000;stroke-width:0.999999;stroke-linecap:butt;stroke-linejoin:miter;stroke-miterlimit:4;stroke-dasharray:none;stroke-opacity:1"
         d="m 335.49917,596.13922 c -8.2951,29.44331 -18.754,58.3612 -24.8853,88.32991 -2.2252,10.87615 0.5787,22.21798 0,33.30432 -1.1802,22.61042 -4.0799,45.10887 -5.2732,67.7186 -3.0494,57.7762 1.8297,113.0052 -10.5463,169.8516 -8.7092,40.0038 -48.6722,80.00445 -61.1688,123.22565 -8.3386,28.8402 -11.5693,58.7134 -18.9834,87.7011 -8.3402,32.6088 -25.3037,63.167 -34.8028,95.4722 -10.4408,35.5074 -21.3618,71.3134 -28.4753,107.6837 -4.5821,23.4274 -5.4267,47.0251 -9.4917,70.4724"
         id="path1059" />
      <path
         style="fill:none;stroke:#000000;stroke-width:0.999999;stroke-linecap:butt;stroke-linejoin:miter;stroke-miterlimit:4;stroke-dasharray:none;stroke-opacity:1"
         d="m 315.96297,1029.9774 c -47.9986,74.1996 -71.6314,159.2367 -122.3377,232.0196 -5.2464,7.5306 -5.1094,15.3696 -10.2854,20.8182"
         id="path1061" />
      <path
         style="fill:none;stroke:#000000;stroke-width:0.999999;stroke-linecap:butt;stroke-linejoin:miter;stroke-miterlimit:4;stroke-dasharray:none;stroke-opacity:1"
         d="m 240.65787,1415.9505 c 15.9041,73.9407 7.6404,16.402 7.6404,86.4037 0,50.5971 5.9151,101.4047 3.1639,152.0893 -1.6541,30.4728 -8.4301,65.5204 1.0548,95.4722"
         id="path1063" />
      <path
         style="fill:none;stroke:#000000;stroke-width:0.999999;stroke-linecap:butt;stroke-linejoin:miter;stroke-miterlimit:4;stroke-dasharray:none;stroke-opacity:1"
         d="m 334.26307,1221.3206 c 4.1429,7.4498 42.8139,76.5247 47.4587,86.591 8.9256,19.3434 13,41.8006 22.1473,61.0578 11.0752,23.3159 28.8431,43.6796 41.1306,66.6086 11.4397,21.3469 15.7946,42.0679 36.3785,55.0673"
         id="path1065" />
      <path
         style="fill:none;stroke:#000000;stroke-width:0.999999;stroke-linecap:butt;stroke-linejoin:miter;stroke-miterlimit:4;stroke-dasharray:none;stroke-opacity:1"
         d="m 412.32937,849.35778 c -7.8296,21.67847 -17.1984,42.86137 -23.489,65.03547 -7.6697,27.0357 2.1091,76.2592 2.1091,105.46355 0,32.693 -4.2611,64.5967 -6.3277,97.2267 -2.4488,38.6622 1.0548,78.6878 1.0548,117.545"
         id="path1067" />
      <path
         style="fill:none;stroke:#000000;stroke-width:1.37953;stroke-linecap:butt;stroke-linejoin:miter;stroke-miterlimit:4;stroke-dasharray:none;stroke-opacity:1"
         d="m 352.67187,794.73175 c 2.4851,7.00625 19.1312,54.43985 21.9499,60.25985 8.9262,18.4306 22.9296,34.0471 30.5844,53.2868 4.6113,11.5903 -0.448,4.6655 2.8116,19.296 2.0259,9.0929 6.5127,17.5285 8.4369,26.6434 2.8034,13.2795 12.4972,79.5256 14.67,93.2502"
         id="path1069"
         sodipodi:nodetypes="cssssc" />
      <path
         style="fill:none;stroke:#000000;stroke-width:0.999999;stroke-linecap:butt;stroke-linejoin:miter;stroke-miterlimit:4;stroke-dasharray:none;stroke-opacity:1"
         d="m 516.33067,865.31825 c 5.0479,-5.3445 7.8092,-16.53511 15.1436,-16.03349 15.4747,1.05835 70.92,54.43909 87.5345,67.71859 1.7337,1.3856 4.5832,-0.7876 6.6581,0 30.1211,11.4341 59.3283,26.7757 89.2314,37.7449"
         id="path1071" />
      <path
         style="fill:none;stroke:#000000;stroke-width:0.999999;stroke-linecap:butt;stroke-linejoin:miter;stroke-miterlimit:4;stroke-dasharray:none;stroke-opacity:1"
         d="m 278.89721,862.94907 c -86.56428,95.10011 -101.76494,196.54593 -129.69414,266.17483 -10.0708,25.1071 -18.1195,50.7358 -35.4775,71.7593"
         id="path1073"
         sodipodi:nodetypes="csc" />
      <path
         style="fill:none;stroke:#000000;stroke-width:1px;stroke-linecap:butt;stroke-linejoin:miter;stroke-opacity:1"
         d="m 257.4189,1894.6767 c -0.0528,1.838 -0.26911,3.6785 -0.15847,5.5139 0.26038,4.3194 0.93116,8.5987 1.13637,12.9192 0.21959,4.6233 -0.77248,9.7942 0.22732,14.3547 0.49121,2.2406 1.37129,4.1521 1.80403,6.4296 0.46282,2.4359 0.39316,5.2978 1.13642,7.6558 1.23908,3.931 4.15755,7.0592 4.61186,11.3625 0.61895,5.8629 0.9014,12.8749 3.11574,18.4051 1.28715,3.2146 3.56475,6.2658 4.54564,9.5698 0.95318,3.2106 0.61711,6.6423 1.81157,9.7949"
         id="path1257" />
      <path
         style="fill:none;stroke:#000000;stroke-width:1px;stroke-linecap:butt;stroke-linejoin:miter;stroke-opacity:1"
         d="m 276.2453,1793.3236 c -4.31281,5.3995 -8.41276,10.9513 -12.19053,16.7355 -5.96846,9.1383 -11.59936,18.4349 -17.2734,27.7522 -2.47994,4.0723 -5.47859,7.9761 -7.27302,12.4407 -5.41296,13.4679 -2.54706,29.6116 -17.80995,36.2617"
         id="path1259" />
      <path
         style="fill:none;stroke:#000000;stroke-width:1px;stroke-linecap:butt;stroke-linejoin:miter;stroke-opacity:1"
         d="m 406.10707,1734.7683 c -0.4047,12.1999 3.8265,23.4644 7.3097,34.8307 2.98282,9.7335 5.65063,19.0395 9.54581,28.4701 2.28438,5.5306 5.34149,11.5454 6.59117,17.4647 1.4019,6.6404 2.21118,13.508 5.1947,19.7882"
         id="path1261" />
      <path
         style="fill:none;stroke:#000000;stroke-width:1px;stroke-linecap:butt;stroke-linejoin:miter;stroke-opacity:1"
         d="m 380.22943,1883.5355 c -0.017,24.7253 -5.5975,49.1046 -9.5458,73.4479 -0.89021,5.4885 -0.21586,18.0019 -1.97943,22.5292"
         id="path1263" />
      <path
         style="fill:none;stroke:#000000;stroke-width:1px;stroke-linecap:butt;stroke-linejoin:miter;stroke-opacity:1"
         d="m 285.50374,1596.054 c 2.65084,9.2083 3.27357,19.1727 5.51817,28.5743 0.70023,2.9329 2.19244,5.6096 2.72737,8.6128 1.12803,6.3327 1.16796,13.4875 3.17742,19.5657 2.32815,7.0421 4.78114,13.9102 7.00638,20.953"
         id="path1265" />
      <path
         style="fill:none;stroke:#000000;stroke-width:1px;stroke-linecap:butt;stroke-linejoin:miter;stroke-opacity:1"
         d="m 366.56035,1493.879 c -5.53474,13.0992 -4.39628,28.0912 -9.84714,41.2061 -4.01663,9.6641 -9.29643,18.5858 -12.27323,28.7092 -3.40579,11.5824 -4.54559,27.8831 -4.54559,39.9538 0,2.6744 0.90911,5.192 0.90911,7.8551"
         id="path1267" />
      <path
         style="fill:none;stroke:#000000;stroke-width:1px;stroke-linecap:butt;stroke-linejoin:miter;stroke-opacity:1"
         d="m 384.51818,1628.8465 c 1.45732,3.4129 3.11378,6.7474 4.37194,10.2385 0.81058,2.2492 1.21218,4.6254 1.81827,6.9381 0.90912,2.9507 1.63719,5.9634 2.72737,8.852 3.97946,10.5445 12.64253,22.6429 20.2281,30.8625 4.06433,4.4041 8.70058,7.5388 12.72776,11.9622 2.4672,2.71 5.54533,6.057 7.27302,9.3305 0.88428,1.6755 0.62379,2.6249 1.59095,4.0671 1.45502,2.1698 3.07656,3.7345 3.86379,6.2204"
         id="path1269" />
      <path
         style="fill:none;stroke:#000000;stroke-width:1px;stroke-linecap:butt;stroke-linejoin:miter;stroke-opacity:1"
         d="m 421.55604,2021.844 c -0.24602,7.4226 0.9713,14.8352 0.68184,22.2496 -0.51455,13.1797 -2.95901,26.4226 -8.18212,38.5183 -3.96805,9.1892 -10.68224,16.1603 -10.68224,26.6904"
         id="path1271" />
      <path
         style="fill:none;stroke:#000000;stroke-width:1px;stroke-linecap:butt;stroke-linejoin:miter;stroke-opacity:1"
         d="m 236.58298,2112.842 c 0.53031,2.0385 0.78856,4.1679 1.59095,6.1154 2.66165,6.4601 6.65102,12.1106 10.00038,18.1825 3.48852,6.3243 6.08239,13.1628 9.77313,19.3788 1.81701,3.0603 4.29781,5.5512 5.79794,8.6792"
         id="path1273" />
    </g>
    <g
       inkscape:groupmode="layer"
       id="layer2"
       inkscape:label="Layer 2"
       style="display:inline">
      <g
         id="g929"
         style="display:inline">
        <g
           id="g2460"
           transform="translate(434.88478,141.70011)">
          <g
             id="g2451"
             transform="translate(30,42)">
            <a
               xlink:href="contatti"
               transform="translate(0,-60)"
               xlink:title="Contatti"
               target="_self"
               id="a1207">
              <text
                 xml:space="preserve"
                 id="text1039"
                 style="font-style:normal;font-variant:normal;font-weight:normal;font-stretch:normal;font-size:9.11365px;line-height:1.25;font-family:'Advent Pro';-inkscape-font-specification:'Advent Pro, Normal';font-variant-ligatures:normal;font-variant-caps:normal;font-variant-numeric:normal;font-variant-east-asian:normal;white-space:pre;shape-inside:url(#rect1041);fill:#000000;fill-opacity:1;stroke:none;"
                 transform="matrix(10.345477,0,0,10.345477,800.72342,913.12289)"><tspan
                   x="-87.539062"
                   y="113.66367"><tspan
                     style="font-style:normal;font-variant:normal;font-weight:normal;font-stretch:normal;font-size:5.79964px;font-family:'Advent Pro';-inkscape-font-specification:'Advent Pro, Normal';font-variant-ligatures:normal;font-variant-caps:normal;font-variant-numeric:normal;font-variant-east-asian:normal">Contatti</tspan></tspan></text>
            </a>
            <a
               xlink:href="giardini"
               transform="translate(20,-286)"
               xlink:title="Giardini"
               target="_self"
               id="a1211">
              <text
                 xml:space="preserve"
                 id="text1039-6"
                 style="font-style:normal;font-variant:normal;font-weight:normal;font-stretch:normal;font-size:9.11365px;line-height:1.25;font-family:'Advent Pro';-inkscape-font-specification:'Advent Pro, Normal';font-variant-ligatures:normal;font-variant-caps:normal;font-variant-numeric:normal;font-variant-east-asian:normal;white-space:pre;shape-inside:url(#rect1041-0);display:inline;fill:#000000;fill-opacity:1;stroke:none;"
                 transform="matrix(10.345477,0,0,10.345477,412.19501,491.69546)"><tspan
                   x="-87.539062"
                   y="113.66367"><tspan
                     style="font-style:normal;font-variant:normal;font-weight:normal;font-stretch:normal;font-size:5.79964px;font-family:'Advent Pro';-inkscape-font-specification:'Advent Pro, Normal';font-variant-ligatures:normal;font-variant-caps:normal;font-variant-numeric:normal;font-variant-east-asian:normal">Giardini</tspan></tspan></text>
            </a>
            <a
               xlink:href="incontri"
               transform="translate(-40,-38)"
               xlink:title="Incontri"
               target="_self"
               id="a1229">
              <text
                 xml:space="preserve"
                 id="text1039-6-5"
                 style="font-style:normal;font-variant:normal;font-weight:normal;font-stretch:normal;font-size:9.11365px;line-height:1.25;font-family:'Advent Pro';-inkscape-font-specification:'Advent Pro, Normal';font-variant-ligatures:normal;font-variant-caps:normal;font-variant-numeric:normal;font-variant-east-asian:normal;white-space:pre;shape-inside:url(#rect1041-0-1);display:inline;fill:#000000;fill-opacity:1;stroke:none;"
                 transform="matrix(10.345477,0,0,10.345477,877.03339,-18.39955)"><tspan
                   x="-87.539062"
                   y="113.66367"><tspan
                     style="font-style:normal;font-variant:normal;font-weight:normal;font-stretch:normal;font-size:5.79964px;font-family:'Advent Pro';-inkscape-font-specification:'Advent Pro, Normal';font-variant-ligatures:normal;font-variant-caps:normal;font-variant-numeric:normal;font-variant-east-asian:normal">Incontri</tspan></tspan></text>
            </a>
            <g
               id="g1200"
               transform="matrix(0.84275437,0,0,0.84275437,-27.038565,65.2274)">
              <path
                 d="m -337.47061,243.97248 h 11.79768 v 136.9374 h 64.25524 v 10.53364 h -76.05292 z"
                 style="font-style:normal;font-variant:normal;font-weight:normal;font-stretch:normal;font-size:48px;line-height:1.25;font-family:'Advent Pro';-inkscape-font-specification:'Advent Pro';white-space:pre;fill:#000000;fill-opacity:1;stroke:none;stroke-width:4.38902"
                 id="path896" />
              <path
                 d="m -172.30331,391.44352 q -22.75267,2.31741 -32.86497,2.31741 -22.12066,0 -35.18238,-8.21625 -13.06172,-8.21624 -13.06172,-29.70488 v -17.48585 q 0,-20.85662 14.53643,-28.0195 6.95221,-3.58144 17.69653,-3.58144 9.90162,0 20.01392,3.37077 10.1123,3.16009 17.06451,8.42692 0,-11.58701 -6.74153,-18.32855 -6.74154,-6.9522 -25.91277,-6.9522 l 0.63202,-9.05894 q 20.2246,0 29.70488,6.53086 9.69095,6.32019 11.79768,15.16845 2.3174,8.84826 2.3174,22.75268 z m -11.79768,-63.83389 q -8.63759,-4.00278 -18.53922,-6.95221 -9.69095,-2.94942 -17.90719,-2.94942 -21.27797,0 -21.27797,21.27797 v 18.32854 q 0,13.69374 9.48028,20.01393 9.48028,6.10951 26.96614,6.10951 9.05893,0 21.27796,-1.68538 z"
                 style="font-style:normal;font-variant:normal;font-weight:normal;font-stretch:normal;font-size:48px;line-height:1.25;font-family:'Advent Pro';-inkscape-font-specification:'Advent Pro';white-space:pre;fill:#000000;fill-opacity:1;stroke:none;stroke-width:4.38902"
                 id="path898" />
              <path
                 d="m -22.273548,353.94375 q 0.632018,7.16287 5.266822,13.69373 4.845478,6.53086 13.0617201,10.74432 8.4269159,4.00279 19.1712339,4.00279 16.221816,0 26.966136,-7.16288 10.954992,-7.37355 10.954992,-23.17402 0,-9.26961 -5.266823,-15.37912 -5.266823,-6.32019 -13.061722,-9.90163 -7.794898,-3.79211 -21.277967,-8.63759 -14.53642917,-5.05615 -23.3846903,-9.26961 -8.6375897,-4.42413 -14.7471047,-11.79768 -5.898841,-7.37355 -5.898841,-18.96056 0,-9.26961 5.266823,-17.48586 5.266823,-8.42691 15.8004677,-13.48306 10.7443178,-5.26683 26.3341123,-5.26683 10.322975,0 17.064509,1.47471 6.741534,1.47471 13.69374,4.84548 l -3.58144,11.16567 q -12.008357,-6.10952 -26.755463,-6.10952 -16.2218135,0 -25.9127663,6.74153 -9.6909537,6.74154 -9.6909537,18.74989 0,7.58423 4.845477,12.85105 4.8454767,5.05615 11.7976818,8.21625 7.1628792,3.16009 19.8032532,7.58422 15.379125,5.26682 24.859407,9.90163 9.480281,4.42413 16.011141,12.85105 6.741534,8.21624 6.741534,20.85661 0,19.38191 -12.429702,31.1796 -12.219029,11.58701 -37.921128,11.58701 -15.58979447,0 -26.755458,-5.68817 -10.954991,-5.89884 -16.853833,-14.95778 -5.688169,-9.26961 -6.109515,-19.17123 z"
                 style="font-style:normal;font-variant:normal;font-weight:normal;font-stretch:normal;font-size:48px;line-height:1.25;font-family:'Advent Pro';-inkscape-font-specification:'Advent Pro';white-space:pre;fill:#000000;fill-opacity:1;stroke:none;stroke-width:4.38902"
                 id="path900" />
              <path
                 d="m 151.53138,390.17949 q -13.06172,3.37076 -25.28075,3.37076 -11.37634,0 -18.96056,-2.52807 -12.429696,-4.21346 -18.117865,-12.85105 -5.477496,-8.84826 -5.477496,-24.64873 v -26.96613 q 0,-20.85662 10.954992,-31.60094 10.954989,-10.95499 28.230159,-10.95499 13.69374,0 28.23017,6.74153 l -3.37077,8.63759 q -12.00835,-4.84548 -23.17402,-4.84548 -13.06171,0 -21.06728,7.58423 -8.005567,7.37355 -8.005567,23.17402 v 30.54757 q 0,14.53643 8.637587,21.06729 8.84826,6.53086 23.38468,6.53086 9.48029,0 21.48864,-2.73875 z"
                 style="font-style:normal;font-variant:normal;font-weight:normal;font-stretch:normal;font-size:48px;line-height:1.25;font-family:'Advent Pro';-inkscape-font-specification:'Advent Pro';white-space:pre;fill:#000000;fill-opacity:1;stroke:none;stroke-width:4.38902"
                 id="path902" />
              <path
                 d="m 232.21897,380.6992 q -5.05615,6.32019 -12.85105,9.69096 -7.58422,3.37077 -15.37912,3.37077 -39.60651,0 -39.60651,-38.55315 v -69.31139 h 11.79769 v 70.7861 q 0,13.48307 7.37355,20.01393 7.58422,6.53086 20.43527,6.53086 12.64038,0 19.80326,-6.32019 7.37355,-6.53086 7.37355,-20.2246 v -70.7861 h 11.79768 v 105.54713 h -11.58701 z"
                 style="font-style:normal;font-variant:normal;font-weight:normal;font-stretch:normal;font-size:48px;line-height:1.25;font-family:'Advent Pro';-inkscape-font-specification:'Advent Pro';white-space:pre;fill:#000000;fill-opacity:1;stroke:none;stroke-width:4.38902"
                 id="path904" />
              <path
                 d="m 345.98204,352.67971 q 0,17.69652 -9.69095,29.28353 -9.69096,11.58701 -29.28354,11.58701 -19.59258,0 -29.70488,-11.58701 -9.90163,-11.79768 -9.90163,-29.28353 v -27.80883 q 0,-20.01392 10.1123,-30.54757 10.32297,-10.74432 29.49421,-10.74432 18.32854,0 28.65152,11.16567 10.32297,10.95499 10.32297,30.12622 z m -11.79768,-27.80883 q 0,-15.80047 -7.37356,-23.17402 -7.16287,-7.37355 -19.80325,-7.37355 -13.06172,0 -20.43527,7.37355 -7.37355,7.37355 -7.37355,23.17402 v 29.91556 q 0,12.64037 7.37355,20.43527 7.58422,7.7949 20.43527,7.7949 13.06172,0 20.01393,-7.58423 7.16288,-7.7949 7.16288,-20.64594 z"
                 style="font-style:normal;font-variant:normal;font-weight:normal;font-stretch:normal;font-size:48px;line-height:1.25;font-family:'Advent Pro';-inkscape-font-specification:'Advent Pro';white-space:pre;fill:#000000;fill-opacity:1;stroke:none;stroke-width:4.38902"
                 id="path906" />
              <path
                 d="m 369.3666,243.97248 h 11.79767 V 391.44352 H 369.3666 Z"
                 style="font-style:normal;font-variant:normal;font-weight:normal;font-stretch:normal;font-size:48px;line-height:1.25;font-family:'Advent Pro';-inkscape-font-specification:'Advent Pro';white-space:pre;fill:#000000;fill-opacity:1;stroke:none;stroke-width:4.38902"
                 id="path908" />
              <path
                 d="m 486.92182,391.44352 q -22.75267,2.31741 -32.86497,2.31741 -22.12066,0 -35.18238,-8.21625 -13.06172,-8.21624 -13.06172,-29.70488 v -17.48585 q 0,-20.85662 14.53643,-28.0195 6.95221,-3.58144 17.69652,-3.58144 9.90163,0 20.01393,3.37077 10.1123,3.16009 17.06451,8.42692 0,-11.58701 -6.74153,-18.32855 -6.74154,-6.9522 -25.91277,-6.9522 l 0.63202,-9.05894 q 20.2246,0 29.70488,6.53086 9.69095,6.32019 11.79768,15.16845 2.3174,8.84826 2.3174,22.75268 z m -11.79768,-63.83389 q -8.63759,-4.00278 -18.53922,-6.95221 -9.69095,-2.94942 -17.9072,-2.94942 -21.27796,0 -21.27796,21.27797 v 18.32854 q 0,13.69374 9.48028,20.01393 9.48028,6.10951 26.96613,6.10951 9.05894,0 21.27797,-1.68538 z"
                 style="font-style:normal;font-variant:normal;font-weight:normal;font-stretch:normal;font-size:48px;line-height:1.25;font-family:'Advent Pro';-inkscape-font-specification:'Advent Pro';white-space:pre;fill:#000000;fill-opacity:1;stroke:none;stroke-width:4.38902"
                 id="path910" />
              <g
                 aria-label="del Terzo Luogo"
                 transform="matrix(4.3890191,0,0,4.3890191,711.0342,611.17239)"
                 id="text1545-6"
                 style="font-style:normal;font-weight:normal;font-size:48px;line-height:1.25;font-family:sans-serif;white-space:pre;shape-inside:url(#rect1547-3);fill:#000000;fill-opacity:1;stroke:none">
                <path
                   d="m -248.62844,-19.264711 q 0,-5.04 4.08,-6.912 1.968,-0.912 4.704,-0.912 1.776,0 3.408,0.432 1.68,0.432 2.832,1.248 v -10.848 h 2.688 v 33.5999997 l -2.64,0.24 q -3.12,0.336 -4.896,0.336 -1.776,0 -3.36,-0.336 -1.536,-0.336 -3.072,-1.104 -1.728,-0.864 -2.736,-2.544 -1.008,-1.68 -1.008,-4.1279997 z m 15.024,-3.792 q -1.296,-0.72 -2.976,-1.152 -1.68,-0.48 -3.312,-0.48 -2.688,0 -4.416,1.344 -1.68,1.296 -1.68,4.224 v 8.976 q 0,5.6159997 7.728,5.6159997 1.824,0 4.656,-0.432 z"
                   style="font-style:normal;font-variant:normal;font-weight:normal;font-stretch:normal;font-family:'Advent Pro';-inkscape-font-specification:'Advent Pro'"
                   id="path913" />
                <path
                   d="m -211.57246,-4.3367113 q -1.728,1.104 -3.936,1.68 -2.208,0.576 -4.416,0.576 -3.552,0 -5.664,-1.728 -2.064,-1.776 -2.064,-5.28 v -9.8399997 q 0,-3.888 2.4,-6.048 2.448,-2.16 6.432,-2.16 3.984,0 6.192,2.16 2.256,2.112 2.256,5.904 v 6.24 l -14.592,0.816 v 2.9279997 q 0,2.304 1.488,3.456 1.488,1.152 3.888,1.152 3.36,0 6.96,-1.92 z m -1.488,-15.0719997 q 0,-2.976 -1.872,-4.176 -1.872,-1.248 -3.936,-1.248 -2.64,0 -4.368,1.44 -1.728,1.44 -1.728,4.512 v 4.224 l 11.904,-0.576 z"
                   style="font-style:normal;font-variant:normal;font-weight:normal;font-stretch:normal;font-family:'Advent Pro';-inkscape-font-specification:'Advent Pro'"
                   id="path915" />
                <path
                   d="m -204.75655,-36.256711 h 2.688 v 33.5999997 h -2.688 z"
                   style="font-style:normal;font-variant:normal;font-weight:normal;font-stretch:normal;font-family:'Advent Pro';-inkscape-font-specification:'Advent Pro'"
                   id="path917" />
                <path
                   d="m -163.20686,-33.856711 h -8.16 v -2.4 h 19.296 v 2.4 h -8.448 v 31.1999997 h -2.688 z"
                   style="font-style:normal;font-variant:normal;font-weight:normal;font-stretch:normal;font-family:'Advent Pro';-inkscape-font-specification:'Advent Pro'"
                   id="path919" />
                <path
                   d="m -138.63094,-4.3367113 q -1.728,1.104 -3.936,1.68 -2.208,0.576 -4.416,0.576 -3.552,0 -5.664,-1.728 -2.064,-1.776 -2.064,-5.28 v -9.8399997 q 0,-3.888 2.4,-6.048 2.448,-2.16 6.432,-2.16 3.984,0 6.192,2.16 2.256,2.112 2.256,5.904 v 6.24 l -14.592,0.816 v 2.9279997 q 0,2.304 1.488,3.456 1.488,1.152 3.888,1.152 3.36,0 6.96,-1.92 z m -1.488,-15.0719997 q 0,-2.976 -1.872,-4.176 -1.872,-1.248 -3.936,-1.248 -2.64,0 -4.368,1.44 -1.728,1.44 -1.728,4.512 v 4.224 l 11.904,-0.576 z"
                   style="font-style:normal;font-variant:normal;font-weight:normal;font-stretch:normal;font-family:'Advent Pro';-inkscape-font-specification:'Advent Pro'"
                   id="path921" />
                <path
                   d="m -132.63103,-26.704711 h 2.688 l -0.144,1.68 q 2.256,-2.112 5.904,-2.112 1.296,0 3.552,0.432 l -0.72,2.448 q -1.536,-0.48 -3.216,-0.48 -2.208,0 -3.792,0.816 -1.584,0.816 -1.584,2.448 v 18.8159997 h -2.688 z"
                   style="font-style:normal;font-variant:normal;font-weight:normal;font-stretch:normal;font-family:'Advent Pro';-inkscape-font-specification:'Advent Pro'"
                   id="path923" />
                <path
                   d="m -115.83111,-5.0567113 13.2,-19.1999997 h -12.768 v -2.448 h 16.175992 v 2.4 l -13.295992,19.1999997 h 14.303984 v 2.448 h -17.615984 z"
                   style="font-style:normal;font-variant:normal;font-weight:normal;font-stretch:normal;font-family:'Advent Pro';-inkscape-font-specification:'Advent Pro'"
                   id="path925" />
                <path
                   d="m -76.519339,-11.488711 q 0,4.0319997 -2.208,6.6719997 -2.208,2.64 -6.672,2.64 -4.463987,0 -6.767971,-2.64 -2.255984,-2.688 -2.255984,-6.6719997 v -6.336 q 0,-4.56 2.303984,-6.96 2.351984,-2.448 6.719971,-2.448 4.176,0 6.528,2.544 2.352,2.496 2.352,6.864 z m -2.688,-6.336 q 0,-3.6 -1.68,-5.28 -1.632,-1.68 -4.512,-1.68 -2.975999,0 -4.655987,1.68 -1.679988,1.68 -1.679988,5.28 v 6.816 q 0,2.8799997 1.679988,4.6559997 1.727988,1.776 4.655987,1.776 2.976,0 4.56,-1.728 1.632,-1.776 1.632,-4.7039997 z"
                   style="font-style:normal;font-variant:normal;font-weight:normal;font-stretch:normal;font-family:'Advent Pro';-inkscape-font-specification:'Advent Pro'"
                   id="path927" />
                <path
                   d="m -57.84738,-36.256711 h 2.688 v 31.1999997 h 14.64 v 2.4 h -17.328 z"
                   style="font-style:normal;font-variant:normal;font-weight:normal;font-stretch:normal;font-family:'Advent Pro';-inkscape-font-specification:'Advent Pro'"
                   id="path929" />
                <path
                   d="m -23.287446,-5.1047113 q -1.152,1.44 -2.928,2.208 -1.728,0.768 -3.504,0.768 -9.024,0 -9.024,-8.7839997 v -15.792 h 2.688 v 16.128 q 0,3.0719997 1.68,4.5599997 1.728,1.488 4.656,1.488 2.88,0 4.512,-1.44 1.68,-1.488 1.68,-4.6079997 v -16.128 h 2.688 v 24.0479997 h -2.64 z"
                   style="font-style:normal;font-variant:normal;font-weight:normal;font-stretch:normal;font-family:'Advent Pro';-inkscape-font-specification:'Advent Pro'"
                   id="path932" />
                <path
                   d="m 2.6324955,-11.488711 q 0,4.0319997 -2.2080015,6.6719997 -2.2080016,2.64 -6.6720052,2.64 -4.4640028,0 -6.7680028,-2.64 -2.256,-2.688 -2.256,-6.6719997 v -6.336 q 0,-4.56 2.304,-6.96 2.352,-2.448 6.7200028,-2.448 4.1760032,0 6.5280052,2.544 2.3520015,2.496 2.3520015,6.864 z m -2.6880019,-6.336 q 0,-3.6 -1.6800012,-5.28 -1.6320012,-1.68 -4.5120036,-1.68 -2.976002,0 -4.6560028,1.68 -1.68,1.68 -1.68,5.28 v 6.816 q 0,2.8799997 1.68,4.6559997 1.7280008,1.776 4.6560028,1.776 2.9760024,0 4.5600036,-1.728 1.6320012,-1.776 1.6320012,-4.7039997 z"
                   style="font-style:normal;font-variant:normal;font-weight:normal;font-stretch:normal;font-family:'Advent Pro';-inkscape-font-specification:'Advent Pro'"
                   id="path934" />
                <path
                   d="m 17.560366,5.3592887 q 3.167997,-1.2 3.167997,-4.99199999 V -5.5847113 q -2.015998,3.504 -6.479995,3.504 -4.223997,0 -6.575997,-2.304 -2.352,-2.304 -2.352,-6.7199997 v -7.152 q 0,-4.224 2.448,-6.528 2.496,-2.352 6.671997,-2.352 4.463997,0 6.479995,3.216 l -0.192,-2.784 h 2.687999 V 0.41528871 q 0,2.87999999 -1.2,4.51199999 -1.199999,1.632 -3.935997,2.496 z m 3.167997,-24.1439997 q 0,-2.976 -1.919998,-4.416 -1.919999,-1.488 -4.559997,-1.488 -2.543998,0 -4.415997,1.584 -1.824,1.536 -1.824,5.088 v 7.344 q 0,3.0239997 1.68,4.5599997 1.727999,1.536 4.559997,1.536 2.687998,0 4.559997,-1.632 1.919998,-1.68 1.919998,-4.7519997 z"
                   style="font-style:normal;font-variant:normal;font-weight:normal;font-stretch:normal;font-family:'Advent Pro';-inkscape-font-specification:'Advent Pro'"
                   id="path936" />
                <path
                   d="m 45.928324,-11.488711 q 0,4.0319997 -2.208,6.6719997 -2.208,2.64 -6.672,2.64 -4.464,0 -6.768,-2.64 -2.256,-2.688 -2.256,-6.6719997 v -6.336 q 0,-4.56 2.304,-6.96 2.352,-2.448 6.72,-2.448 4.176,0 6.528,2.544 2.352,2.496 2.352,6.864 z m -2.688,-6.336 q 0,-3.6 -1.68,-5.28 -1.632,-1.68 -4.512,-1.68 -2.976,0 -4.656,1.68 -1.68,1.68 -1.68,5.28 v 6.816 q 0,2.8799997 1.68,4.6559997 1.728,1.776 4.656,1.776 2.976,0 4.56,-1.728 1.632,-1.776 1.632,-4.7039997 z"
                   style="font-style:normal;font-variant:normal;font-weight:normal;font-stretch:normal;font-family:'Advent Pro';-inkscape-font-specification:'Advent Pro'"
                   id="path938" />
              </g>
            </g>
            <path
               style="fill:none;stroke:#000000;stroke-width:3;stroke-linecap:butt;stroke-linejoin:miter;stroke-miterlimit:4;stroke-dasharray:none;stroke-opacity:1"
               d="m -113.20801,592.8849 c -1.68437,2.15466 -5.72062,3.81179 -5.0531,6.46397 1.51407,6.01563 7.43229,9.96855 10.54017,15.33709 0.96193,1.66163 0.79393,3.78263 1.55003,5.54745 1.63026,3.80518 4.21608,7.18637 5.58007,11.09491 0.5376,1.54049 -0.26699,3.2852 0,4.89482 1.34599,8.11453 3.9276,23.63614 9.61015,31.32681 6.70882,9.07961 19.42056,8.92864 28.81358,12.22418"
               id="path1143" />
          </g>
          <path
             id="path931-0"
             style="display:inline;fill:#272727;stroke-width:0.609598"
             d="m -101.92493,459.21553 c -19.40512,-0.44768 -68.2594,2.23305 -94.52004,0.48186 -17.82374,1.82847 -10.4183,-18.20845 3.42626,-9.53402 25.58258,3.25158 51.38634,-2.12536 77.06046,0.83041 27.12468,1.26744 7.82213,-31.19556 12.87258,-47.21557 -0.40538,-32.75747 -3.49392,-65.63598 -0.91454,-98.32964 -3.86691,-20.9798 -33.26228,-1.93169 -47.80525,-14.00985 -18.07334,-5.08262 -42.36437,-26.01936 -29.3713,-45.8926 22.68414,-1.86642 48.42822,10.23408 66.19899,25.48705 18.2924,15.00794 7.60323,-19.04243 8.99354,-28.77625 7.6176,-23.43622 18.38533,-52.85428 42.8715,-63.0417 10.54938,-8.29612 33.71143,-9.10393 22.55361,10.0278 -6.03726,28.07624 -32.7018,43.87087 -55.07629,58.09046 -9.61369,20.27854 -2.96021,41.35758 -3.11917,69.46 -2.82909,13.67143 -3.85693,31.06819 6.54665,19.56312 14.83608,-14.12414 39.54577,-40.16544 61.11158,-40.59912 16.41406,14.88295 -10.30971,42.99615 -26.0344,51.08102 -12.36252,15.63806 -51.42691,-0.38824 -39.52086,29.96465 3.15167,21.1044 -9.03164,58.86824 7.48604,71.76763 23.10258,3.14644 48.20043,-0.70043 71.43975,0.67882 20.71359,1.03897 41.30062,-1.22236 17.46767,10.08447 -23.37729,-1.2677 -53.35556,-1.45161 -81.81418,-0.0652 -15.86243,-0.048 -13.6691,-3.30171 -13.76353,23.85353 -5.86845,8.96819 0.0768,-16.63851 -6.08907,-23.90688 z m 23.3471,-108.96457 c 17.59062,-5.8161 52.06199,-25.03945 45.64944,-46.49578 -19.62433,-3.00273 -40.75638,20.86532 -54.09492,33.21369 -12.30019,10.49998 -7.05231,18.4613 8.44548,13.28209 z m -28.07646,-59.82721 c -7.98686,-22.73649 -51.0691,-41.67163 -72.80854,-39.92572 0.32562,25.11293 21.50623,40.45945 42.32709,40.61764 l 25.02787,-0.69714 z m 11.07354,-50.12625 c 20.36222,-7.63264 43.26475,-29.64254 48.44754,-51.16427 -16.15576,-14.0993 -41.40505,15.06138 -46.96022,32.43215 -1.03863,4.1406 -13.76726,25.21089 -1.48732,18.73212 z"
             sodipodi:nodetypes="ccccccccccccccccccccccccccccccccccccc" />
        </g>
      </g>
    </g>
  </g>
</svg>
