<?xml version="1.0" encoding="UTF-8" standalone="no"?>
<svg
   xmlns:dc="http://purl.org/dc/elements/1.1/"
   xmlns:cc="http://creativecommons.org/ns#"
   xmlns:rdf="http://www.w3.org/1999/02/22-rdf-syntax-ns#"
   xmlns:svg="http://www.w3.org/2000/svg"
   xmlns="http://www.w3.org/2000/svg"
   xmlns:sodipodi="http://sodipodi.sourceforge.net/DTD/sodipodi-0.dtd"
   xmlns:inkscape="http://www.inkscape.org/namespaces/inkscape"
   version="1.1"
   viewBox="0 0 1541.9 2158.2"
   id="svg1035"
   sodipodi:docname="logoCasa2.svg">
  <metadata
     id="metadata1041">
    <rdf:RDF>
      <cc:Work
         rdf:about="">
        <dc:format>image/svg+xml</dc:format>
        <dc:type
           rdf:resource="http://purl.org/dc/dcmitype/StillImage" />
      </cc:Work>
    </rdf:RDF>
  </metadata>
  <defs
     id="defs1039" />
  <sodipodi:namedview
     pagecolor="#ffffff"
     bordercolor="#666666"
     borderopacity="1"
     objecttolerance="10"
     gridtolerance="10"
     guidetolerance="10"
     inkscape:pageopacity="0"
     inkscape:pageshadow="2"
     inkscape:window-width="640"
     inkscape:window-height="480"
     id="namedview1037"
     showgrid="false" />
  <path
     d="m 773.02,1827.95 c 0,-50.272 -8.3849,-105.87 -22.147,-154.16 -5.0803,-17.825 -16.28,-33.94 -21.093,-52.177 -8.1406,-30.848 -13.215,-66.706 -16.874,-98.803 -4.0843,-35.828 29.618,-62.95 27.42,-98.803 -2.7496,-44.86 -19.721,-88.337 -28.475,-132.11 -6.6589,-33.296 -3.8242,-69.532 -7.3826,-103.24 -5.2132,-49.388 -18.906,-93.912 -31.489,-141.59 -8.8931,-33.7 -2.7859,-90.292 -4.2187,-126.49 -1.1592,-29.287 -6.4222,-58.388 -7.3823,-87.701 -2.2952,-70.067 -1.9701,-139.78 1.0545,-209.82 1.966,-45.522 12.918,-88.384 17.929,-133.22 4.1104,-36.776 8.5689,-178.43 3.1639,-194.27 -2.119,-6.2128 -8.7066,-9.8259 -13.06,-14.739 -1.2554,37.937 4.652,75.61 2.704,113.54 -1.4492,28.219 -8.3285,50.38 -12.656,77.71 -6.8095,43.009 -14.541,87.311 -17.929,131 -1.9081,24.605 0.8902,15.552 3.1639,39.965 3.2342,34.726 5.595,70.656 7.3823,105.46 1.5924,31.011 -3.1639,61.231 -3.1639,92.142 0,52.614 7.5529,96.515 1.0546,149.87 -5.5394,45.48 -13.779,90.1 -21.092,135.44 -5.0789,31.483 -5.8427,10.353 -8.4371,41.075 -3.0792,36.463 -2.6425,73.398 -4.2187,109.9 -1.8472,42.781 -3.4517,58.074 -2.242,100.94 0.37106,13.15 -0.87641,44.807 0.54879,62.519 2.1905,27.223 -18.642,103.1 -23.618,136.27 -7.9424,52.95 -8.532,107.66 -11.601,160.97 -1.3117,22.784 -8.2497,45.156 -10.546,67.718 -2.926,28.748 -5.4976,57.862 -9.4916,86.591 -5.7491,41.353 -21.102,81.232 -23.202,123.23 -1.4917,29.829 3.517,60.332 6.3278,89.922 1.5557,16.378 0.1142,36.916 5.0863,52.621"
     style="fill:none;stroke:#000000;stroke-width:3.5"
     id="path833" />
  <path
     d="m 1063.8,881.95 c -6.911,-6.3874 -24.367,-37.396 -25.232,-37.692 -24.488,-8.3651 -78.808,-7.7226 -96.076,-18.51 -6.7317,-4.2052 -9.8878,-13.296 -15.593,-18.634 -19.08,-17.853 -36.629,-37.057 -51.677,-58.837 -5.3782,-7.7843 -7.0678,-18.675 -14.487,-27.46 -25.027,-29.637 -52.757,-53.521 -75.469,-86.725 -17.776,-25.988 -20.584,-56.56 -32.694,-84.371 -14.399,-33.07 -31.496,-68.396 -37.403,-104.17 -5.8982,-35.72 -23.991,-61.631 -29.869,-97.519 -1.7511,-10.691 -2.6673,-15.438 -3.3751,-26.249 -0.7887,-12.048 -12.369,-28.987 -11.46,-41.027 -0.8485,16.167 19.707,21.43 20.63,37.592 0.1288,2.2561 11.834,31.821 12.656,34.414 10.977,34.663 13.809,76.988 32.694,108.79 13.819,23.275 33.326,40.472 48.513,62.168 8.765,12.521 15.68,28.448 27.42,38.855 18.483,16.384 41.65,27.879 61.041,43.188 22.012,17.378 43.565,36.194 65.028,54.073"
     style="fill:none;stroke:#000000;stroke-width:3"
     id="path835" />
  <path
     d="m 659.87,706.55 c 10.367,10.507 23.897,70.716 34.535,80.948 11.918,11.463 27.54,20.224 38.74,32.332 20.408,22.061 42.797,44.961 69.752,59.148"
     style="fill:none;stroke:#000000"
     id="path837" />
  <path
     d="m 681.26,586.82 c 7.5366,19.063 14.024,38.574 22.61,57.188 7.2939,15.814 70.431,45.288 89.644,51.066 23.483,7.0623 39.88,3.3053 55.142,25.906"
     style="fill:none;stroke:#000000"
     id="path839" />
  <path
     d="m 682.98,402.28 c -23.009,19.708 -33.493,48.065 -51.289,71.683 -2.7644,3.6689 -6.328,6.6609 -9.4919,9.9913 -8.4371,11.101 -17.562,21.712 -25.311,33.304 -43.326,64.809 -58.077,148.58 -119.66,200.44"
     style="fill:none;stroke:#000000"
     id="path841" />
  <path
     d="m 670.47,280.79 c -7.7069,20.921 -18.653,40.92 -23.121,62.763 -7.3924,36.143 12.932,75.437 4.2184,112.12 -8.5451,35.98 -28.763,67.527 -39.021,103.24 -9.2265,32.124 -13.69,63.943 -28.475,94.362 -14.427,29.682 -38.264,60.882 -46.404,93.252 -16.687,66.357 -15.392,138.67 -44.294,202.05 -24.375,53.452 -93.863,154.88 -93.863,208.71"
     style="fill:none;stroke:#000000;stroke-width:3"
     id="path843" />
  <path
     d="m 682.98,402.28 c -6.2267,87.986 8.1302,180.31 -14.835,266.93 -12.109,45.676 -28.514,90.11 -37.967,136.55 -7.5894,37.282 -10.24,74.894 -17.929,112.12 -4.6862,22.691 -13.926,43.98 -18.984,66.608 -11.502,51.456 -11.831,104.42 -26.366,155.42 -18.461,64.774 -35.642,129.42 -49.568,195.38 -3.9693,18.803 -11.601,36.173 -11.601,55.507"
     style="fill:none;stroke:#000000"
     id="path845" />
  <path
     d="m 682.65,457.24 c 4.9216,25.533 9.6886,51.097 14.765,76.6 4.7607,23.918 12.75,53.398 13.614,78.864 0.5315,15.663 -3.5106,31.579 -1.0548,47.736 5.5105,36.254 13.475,72.229 17.929,108.79 1.5711,12.899 0.6696,26.102 3.1639,38.855 4.8456,24.775 14.452,45.974 21.093,69.939 5.1009,18.409 5.7288,38.074 11.601,56.617"
     style="fill:none;stroke:#000000;stroke-width:3"
     id="path847" />
  <path
     d="m 671.57,321.21 c 4.9216,18.872 20.916,56.425 25.093,75.476 11.981,54.65 23.691,107.35 49.568,157.64 8.1499,15.838 16.715,24.768 27.42,38.855 17.585,23.138 34.319,51.2 48.513,76.6 18.338,32.815 39.35,64.757 56.95,97.692 9.9886,18.692 17.763,39.747 30.584,56.617"
     style="fill:none;stroke:#000000;stroke-width:4"
     id="path849" />
  <path
     d="m 682.98,402.28 c 2.4068,-0.37325 1.3566,4.7836 2.8437,6.7126 4.7342,29.544 14.164,39.408 25.311,56.617 14.816,22.873 98.421,99.004 140.16,84.358"
     style="fill:none;stroke:#000000"
     id="path851" />
  <path
     d="m 686.27,384.45 c -1.4229,8.497 -2.084,39.301 -1.0788,47.858 2.4147,20.554 63.825,44.954 76.988,51.067 18.247,8.4737 35.962,20.87 55.896,25.533 41.865,9.7933 86.039,17.81 129.3,15.413 22.409,-1.2414 46.318,-5.6724 68.551,-4.4406 27.49,1.5231 77.705,19.916 100.72,13.382"
     style="fill:none;stroke:#000000;stroke-width:3"
     id="path853" />
  <path
     d="m 682.98,402.28 c -4.4123,37.797 -30.884,63.073 -51.925,92.036 -21.652,29.804 -40.83,60.005 -65.387,87.701 -8.9343,10.076 -20.377,17.009 -29.53,26.643 -20.723,21.814 -39.424,42.804 -64.333,59.948 -39.092,26.906 -86.849,40.159 -128.67,62.168"
     style="fill:none;stroke:#000000"
     id="path855" />
  <path
     d="m 670.47,280.79 c -48.107,61.443 -38.56,141.94 -64.808,211.01 -20.313,53.455 -118.22,146.36 -166.63,179.84 -22.451,15.53 -46.557,28.389 -70.661,41.075 -12.76,6.7156 -2.4004,0.9207 -22.147,14.432 -3.5009,2.3954 -14.763,8.2836 -10.844,6.6609 2.5673,-1.0629 5.1759,-2.0232 7.7639,-3.0348"
     style="fill:none;stroke:#000000;stroke-width:3"
     id="path857" />
  <path
     d="m 670.47,280.79 c -8.2951,29.443 -18.754,58.361 -24.885,88.33 -2.2252,10.876 0.5787,22.218 0,33.304 -1.1802,22.61 -4.0799,45.109 -5.2732,67.719 -3.0494,57.776 1.8297,113.01 -10.546,169.85 -8.7092,40.004 -48.672,80.004 -61.169,123.23 -8.3386,28.84 -11.569,58.713 -18.983,87.701 -8.3402,32.609 -25.304,63.167 -34.803,95.472 -10.441,35.507 -21.362,71.313 -28.475,107.68 -4.5821,23.427 -5.4267,47.025 -9.4917,70.472"
     style="fill:none;stroke:#000000"
     id="path859" />
  <path
     d="m 650.93,714.65 c -47.999,74.2 -71.631,159.24 -122.34,232.02 -5.2464,7.5306 -5.1094,15.37 -10.285,20.818"
     style="fill:none;stroke:#000000"
     id="path861" />
  <path
     d="m 575.63,1100.65 c 15.904,73.941 7.6404,16.402 7.6404,86.404 0,50.597 5.9151,101.4 3.1639,152.09 -1.6541,30.473 -8.4301,65.52 1.0548,95.472"
     style="fill:none;stroke:#000000"
     id="path863" />
  <path
     d="m 669.23,905.95 c 4.1429,7.4498 42.814,76.525 47.459,86.591 8.9256,19.343 13,41.801 22.147,61.058 11.075,23.316 28.843,43.68 41.131,66.609 11.44,21.347 15.795,42.068 36.378,55.067"
     style="fill:none;stroke:#000000"
     id="path865" />
  <path
     d="m 747.3,534.01 c -7.8296,21.678 -17.198,42.861 -23.489,65.035 -7.6697,27.036 2.1091,76.259 2.1091,105.46 0,32.693 -4.2611,64.597 -6.3277,97.227 -2.4488,38.662 1.0548,78.688 1.0548,117.54"
     style="fill:none;stroke:#000000"
     id="path867" />
  <path
     d="m 687.64,479.38 c 2.4851,7.0062 19.131,54.44 21.95,60.26 8.9262,18.431 22.93,34.047 30.584,53.287 4.6113,11.59 -0.448,4.6655 2.8116,19.296 2.0259,9.0929 6.5127,17.528 8.4369,26.643 2.8034,13.28 12.497,79.526 14.67,93.25"
     style="fill:none;stroke:#000000;stroke-width:1.3795"
     id="path869" />
  <path
     d="m 613.87,547.6 c -86.564,95.1 -101.76,196.55 -129.69,266.17 -10.071,25.107 -18.12,50.736 -35.478,71.759"
     style="fill:none;stroke:#000000"
     id="path871" />
  <path
     d="m 592.39,1579.35 c -0.0528,1.838 -0.26911,3.6785 -0.15847,5.5139 0.26038,4.3194 0.93116,8.5987 1.1364,12.919 0.21959,4.6233 -0.77248,9.7942 0.22732,14.355 0.49121,2.2406 1.3713,4.1521 1.804,6.4296 0.46282,2.4359 0.39316,5.2978 1.1364,7.6558 1.2391,3.931 4.1576,7.0592 4.6119,11.362 0.61895,5.8629 0.9014,12.875 3.1157,18.405 1.2872,3.2146 3.5648,6.2658 4.5456,9.5698 0.95318,3.2106 0.61711,6.6423 1.8116,9.7949"
     style="fill:none;stroke:#000000;stroke-width:1px"
     id="path873" />
  <path
     d="m 611.22,1477.95 c -4.3128,5.3995 -8.4128,10.951 -12.191,16.736 -5.9685,9.1383 -11.599,18.435 -17.273,27.752 -2.4799,4.0723 -5.4786,7.9761 -7.273,12.441 -5.413,13.468 -2.5471,29.612 -17.81,36.262"
     style="fill:none;stroke:#000000;stroke-width:1px"
     id="path875" />
  <path
     d="m 741.08,1419.45 c -0.4047,12.2 3.8265,23.464 7.3097,34.831 2.9828,9.7335 5.6506,19.04 9.5458,28.47 2.2844,5.5306 5.3415,11.545 6.5912,17.465 1.4019,6.6404 2.2112,13.508 5.1947,19.788"
     style="fill:none;stroke:#000000;stroke-width:1px"
     id="path877" />
  <path
     d="m 715.2,1568.15 c -0.017,24.725 -5.5975,49.105 -9.5458,73.448 -0.89021,5.4885 -0.21586,18.002 -1.9794,22.529"
     style="fill:none;stroke:#000000;stroke-width:1px"
     id="path879" />
  <path
     d="m 620.47,1280.75 c 2.6508,9.2083 3.2736,19.173 5.5182,28.574 0.70023,2.9329 2.1924,5.6096 2.7274,8.6128 1.128,6.3327 1.168,13.488 3.1774,19.566 2.3282,7.0421 4.7811,13.91 7.0064,20.953"
     style="fill:none;stroke:#000000;stroke-width:1px"
     id="path881" />
  <path
     d="m 701.53,1178.55 c -5.5347,13.099 -4.3963,28.091 -9.8471,41.206 -4.0166,9.6641 -9.2964,18.586 -12.273,28.709 -3.4058,11.582 -4.5456,27.883 -4.5456,39.954 0,2.6744 0.90911,5.192 0.90911,7.8551"
     style="fill:none;stroke:#000000;stroke-width:1px"
     id="path883" />
  <path
     d="m 719.49,1313.45 c 1.4573,3.4129 3.1138,6.7474 4.3719,10.238 0.81058,2.2492 1.2122,4.6254 1.8183,6.9381 0.90912,2.9507 1.6372,5.9634 2.7274,8.852 3.9795,10.544 12.643,22.643 20.228,30.862 4.0643,4.4041 8.7006,7.5388 12.728,11.962 2.4672,2.71 5.5453,6.057 7.273,9.3305 0.88428,1.6755 0.62379,2.6249 1.591,4.0671 1.455,2.1698 3.0766,3.7345 3.8638,6.2204"
     style="fill:none;stroke:#000000;stroke-width:1px"
     id="path885" />
  <path
     d="m 756.53,1706.45 c -0.24602,7.4226 0.9713,14.835 0.68184,22.25 -0.51455,13.18 -2.959,26.423 -8.1821,38.518 -3.968,9.1892 -10.682,16.16 -10.682,26.69"
     style="fill:none;stroke:#000000;stroke-width:1px"
     id="path887" />
  <path
     d="m 571.55,1797.45 c 0.53031,2.0385 0.78856,4.1679 1.591,6.1154 2.6616,6.4601 6.651,12.111 10,18.182 3.4885,6.3243 6.0824,13.163 9.7731,19.379 1.817,3.0603 4.2978,5.5512 5.7979,8.6792"
     style="fill:none;stroke:#000000;stroke-width:1px"
     id="path889" />
  <rect
     x="761.90997"
     y="1191.35"
     width="238.03999"
     height="88.832001"
     style="fill-opacity:0;stroke-width:0;paint-order:stroke fill markers"
     id="rect891" />
  <rect
     x="663.46997"
     y="1827.9501"
     width="245.25"
     height="103.22"
     style="fill-opacity:0;stroke-width:0;paint-order:stroke fill markers"
     id="rect893" />
  <rect
     x="266.35699"
     y="1156.25"
     width="245.25"
     height="103.22"
     style="fill-opacity:0;stroke-width:0;paint-order:stroke fill markers"
     id="rect895" />
  <path
     d="m 933.97,528.74 c 2.2419,1.5018 4.4805,3.0085 6.7257,4.5053 4.7378,3.1586 9.8553,6.1597 14.369,9.6542 6.8764,5.324 12.574,12.274 20.706,16.019 3.2211,1.4834 6.1091,1.0772 9.4772,1.609 4.4028,0.69519 8.6412,1.6892 12.998,2.4998"
     style="fill:none;stroke:#000000;stroke-width:1px"
     id="path897" />
  <path
     d="m 1004.21,518.55 c 16.881,-1.8312 2.04,0.26978 24.477,-5.1806 14.335,-3.4822 28.873,-5.3128 43.106,-9.3324 2.1241,-0.59989 10.694,-3.592 11.312,-3.8617 4.9043,-2.1405 17.42,-9.861 22.951,-8.6888 1.9364,0.41035 3.7113,1.0553 5.6049,1.5783"
     style="fill:none;stroke:#000000;stroke-width:1px"
     id="path899" />
  <path
     d="m 881.04,610.73 c 6.0362,4.4586 2.3398,1.9958 8.2913,5.4413 8.1209,4.7016 9.2201,5.3416 18.656,7.3194 3.0487,0.63905 7.5002,0.43309 10.135,1.8804 9.51,5.2236 8.2312,10.236 21.509,10.236"
     style="fill:none;stroke:#000000;stroke-width:1px"
     id="path901" />
  <path
     d="m 844.16,585.92 c 0.0197,3.1891 2.9013,5.1525 3.5019,8.1074 2.0264,9.9698 3.6,26.57 9.4772,35.077 2.8729,4.1581 6.1249,8.1933 9.04,12.254"
     style="fill:none;stroke:#000000;stroke-width:1px"
     id="path903" />
  <path
     d="m 865.9,520.13 c 3.6686,2.6817 7.2538,5.4814 11.006,8.0452 7.03,4.8035 14.624,9.0942 19.872,16.09 4.0114,5.3486 6.5558,11.589 10.394,17.056 2.616,3.7255 5.0013,5.7494 8.2543,9.0106 8.0339,8.054 15.535,15.577 26.494,19.224"
     style="fill:none;stroke:#000000;stroke-width:1px"
     id="path905" />
  <path
     d="m 770.03,686.25 c 4.1424,10.964 5.8273,16.018 10.924,26.889 4.3973,9.3794 10.34,17.593 14.98,26.71 7.7346,15.198 14.543,31.534 23.54,46.018 2.665,4.2904 5.6452,8.478 8.2543,12.872 3.5432,5.9674 5.9369,12.724 10.089,18.343 1.9017,2.5738 4.2335,4.8125 6.1144,7.4015 0.94865,1.3058 1.8346,3.2122 3.0192,4.4591"
     style="fill:none;stroke:#000000;stroke-width:1px"
     id="path907" />
  <path
     d="m 923.42,802.65 c 17.769,5.8715 5.3013,2.7089 25.523,5.0739 31.495,3.6836 -12.078,-0.9053 14.369,2.5745 13.607,1.7904 27.616,0.8655 41.272,1.609 3.063,0.1668 10.792,2.2768 13.146,2.8963 4.0574,1.0677 7.7474,3.2603 11.617,4.8271 7.0641,2.86 16.388,6.1143 24.152,6.1143"
     style="fill:none;stroke:#000000;stroke-width:1px"
     id="path909" />
  <path
     d="m 490.95,629.57 c -5.4135,9.0146 -7.9856,19.402 -12.849,28.68 -6.0805,11.601 -13.78,22.723 -20.789,33.79 -3.9734,6.2737 -8.4032,12.42 -11.311,19.308 -2.8486,6.7468 -4.4348,14.21 -6.42,21.239 -3.381,11.971 -8.1841,23.384 -14.98,33.79"
     style="fill:none;stroke:#000000;stroke-width:1px"
     id="path911" />
  <path
     d="m 531.99,778.25 c -12.367,9.9461 -23.917,21.309 -33.84,33.755 -4.8952,6.1395 -9.5854,14.469 -16.509,18.665 -6.2784,3.8051 -13.326,7.3191 -20.177,9.976 -6.0877,2.3609 -13.005,3.9463 -18.896,6.758 -6.4732,3.0899 -7.4039,4.135 -14.99,6.0151"
     style="fill:none;stroke:#000000;stroke-width:1px"
     id="path913" />
  <path
     d="m 720.59326,1895.9379 q -5.33977,1.9799 -9.95954,1.9799 -5.21978,0 -8.45962,-2.76 -3.23985,-2.7598 -3.23985,-8.8195 v -19.2593 q 0,-4.5597 1.25992,-6.8997 1.31991,-2.3398 3.95986,-3.9597 2.63983,-1.5 6.47969,-1.5 4.67977,0 8.45962,1.9799 l -0.95991,2.2799 q -3.41985,-1.2599 -6.47969,-1.2599 -3.65986,0 -6.5397,1.7999 -2.81984,1.7999 -2.81984,7.0197 v 19.6793 q 0,4.1398 2.15993,6.4197 2.15994,2.2199 6.4797,2.2199 3.77985,0 8.93963,-1.7399 z"
     style="font-variant-ligatures:normal;font-variant-caps:normal;font-variant-numeric:normal;font-variant-east-asian:normal;white-space:pre;stroke-width:10.345"
     id="path917" />
  <path
     d="m 748.19372,1886.317 q 0,5.0398 -2.75983,8.3396 -2.75984,3.2999 -8.33963,3.2999 -5.57978,0 -8.45962,-3.2999 -2.81984,-3.3598 -2.81984,-8.3396 v -7.9197 q 0,-5.6997 2.87984,-8.6995 2.93984,-3.06 8.39962,-3.06 5.21978,0 8.15962,3.18 2.93984,3.1198 2.93984,8.5795 z m -3.35984,-7.9197 q 0,-4.4998 -2.09994,-6.5997 -2.03993,-2.0998 -5.63978,-2.0998 -3.71985,0 -5.81968,2.0998 -2.09993,2.0999 -2.09993,6.5997 v 8.5196 q 0,3.5999 2.09993,5.8198 2.15993,2.2199 5.81968,2.2199 3.71986,0 5.69979,-2.1599 2.03993,-2.2199 2.03993,-5.8798 z"
     style="font-variant-ligatures:normal;font-variant-caps:normal;font-variant-numeric:normal;font-variant-east-asian:normal;white-space:pre;stroke-width:10.345"
     id="path919" />
  <path
     d="m 772.8562,1876.6962 q 0,-3.6598 -2.15993,-5.2797 -2.09993,-1.6799 -5.45978,-1.6799 -2.03993,0 -4.13986,0.6 -2.09993,0.54 -3.71986,1.4399 v 25.4983 h -3.35984 v -30.0584 h 3.35984 l -0.24,2.0399 q 1.43992,-1.2599 3.65985,-1.8599 2.21994,-0.66 4.61977,-0.66 3.29985,0 5.63978,1.08 2.39984,1.0799 3.71986,3.2399 1.37992,2.1598 1.37992,5.4597 v 20.7594 h -3.29985 z"
     style="font-variant-ligatures:normal;font-variant-caps:normal;font-variant-numeric:normal;font-variant-east-asian:normal;white-space:pre;stroke-width:10.345"
     id="path921" />
  <path
     d="m 789.17027,1898.1103 q -3.35985,-0.96 -4.85977,-3.0599 -1.49992,-2.0999 -1.49992,-5.6397 v -34.0785 h 3.35985 v 11.9391 h 7.1997 l -1.43992,3.1799 h -5.75978 v 18.9593 q 0,4.7997 3.95986,6.1197 z"
     style="font-variant-ligatures:normal;font-variant-caps:normal;font-variant-numeric:normal;font-variant-east-asian:normal;white-space:pre;stroke-width:10.345"
     id="path923" />
  <path
     d="m 820.07078,1897.2827 q -6.47969,0.66 -9.35953,0.66 -6.29969,0 -10.01955,-2.3399 -3.71985,-2.34 -3.71985,-8.4596 v -4.9798 q 0,-5.9397 4.13986,-7.9796 1.97993,-1.0201 5.03977,-1.0201 2.81984,0 5.69979,0.9601 2.87984,0.9 4.85977,2.3999 0,-3.3 -1.91993,-5.2198 -1.91993,-1.9799 -7.37971,-1.9799 l 0.18,-2.5799 q 5.75979,0 8.45963,1.8599 2.75984,1.7999 3.35985,4.3198 0.66001,2.5199 0.66001,6.4797 z m -3.35984,-18.1793 q -2.45984,-1.1399 -5.27978,-1.9799 -2.75984,-0.84 -5.09978,-0.84 -6.05968,0 -6.05968,6.0597 v 5.2198 q 0,3.8998 2.69983,5.6996 2.69984,1.74 7.67962,1.74 2.57983,0 6.05968,-0.48 z"
     style="font-variant-ligatures:normal;font-variant-caps:normal;font-variant-numeric:normal;font-variant-east-asian:normal;white-space:pre;stroke-width:10.345"
     id="path925" />
  <path
     d="m 838.90903,1870.4892 h -10.67914 v 18.9592 q 0,4.7398 3.95986,6.1197 l -0.95992,2.58 q -3.35985,-0.9601 -4.85977,-3.06 -1.49992,-2.0998 -1.49992,-5.6397 v -34.0785 h 3.35985 v 11.9392 h 10.73914 v -11.9392 h 3.35985 v 11.9392 h 7.19971 l -1.43992,3.1798 h -5.75968 v 18.9593 q 0,4.7398 3.95986,6.1197 l -0.95992,2.58 q -3.35985,-0.9601 -4.85977,-3.06 -1.49992,-2.0998 -1.49992,-5.6397 v -19.0793 z"
     style="font-variant-ligatures:normal;font-variant-caps:normal;font-variant-numeric:normal;font-variant-east-asian:normal;white-space:pre;stroke-width:10.345"
     id="path927" />
  <path
     d="m 857.63348,1858.6959 q -0.78001,0 -1.43992,-0.6001 -0.60001,-0.66 -0.60001,-1.44 0,-0.78 0.60001,-1.3799 0.60001,-0.6 1.43992,-0.6 0.84001,0 1.37992,0.6 0.60001,0.54 0.60001,1.3799 0,0.84 -0.60001,1.44 -0.60001,0.6001 -1.37992,0.6001 z m -1.73993,8.5196 h 3.35985 v 30.0584 h -3.35985 z"
     style="font-variant-ligatures:normal;font-variant-caps:normal;font-variant-numeric:normal;font-variant-east-asian:normal;white-space:pre;stroke-width:10.345"
     id="path929" />
  <text
     style="font-size:94.2802px;line-height:1.25;font-family:'Advent Pro';font-variant-ligatures:normal;font-variant-caps:normal;font-variant-numeric:normal;font-variant-east-asian:normal;white-space:pre;shape-inside:url(#rect1041-0-1-5);fill:#000000;stroke-width:10.345"
     xml:space="preserve"
     id="text937"
     x="-1159.1302"
     y="384.17746"><tspan
       x="-2064.7219"
       y="1560.0281"
       id="tspan935"
       style="stroke-width:10.345"><tspan
         style="font-size:59.9969px;font-family:'Advent Pro';font-variant-ligatures:normal;font-variant-caps:normal;font-variant-numeric:normal;font-variant-east-asian:normal;stroke-width:10.345"
         id="tspan933">Incontri</tspan></tspan></text>
  <path
     d="m 331.48153,1219.7034 q -3.11984,3.0598 -8.69962,3.0598 -3.35985,0 -6.23969,-1.26 -2.87984,-1.2599 -4.67977,-3.9598 -1.73993,-2.6999 -1.73993,-6.7197 v -18.8393 q 0,-4.1997 1.31992,-6.7197 1.37992,-2.5798 3.89986,-4.1397 2.63984,-1.4999 6.47969,-1.4999 4.67977,0 8.45963,1.9798 l -0.95991,2.2799 q -3.41985,-1.2599 -6.4797,-1.2599 -3.65985,0 -6.53969,1.7999 -2.81984,1.8 -2.81984,7.0196 v 19.4993 q 0,4.0198 2.57983,6.2997 2.63984,2.2799 6.6597,2.2799 4.07986,0 6.47969,-2.3399 2.39984,-2.3399 2.39984,-6.1797 v -3.5398 h -3.95986 l -1.13992,-3.2999 h 8.27962 v 17.9993 h -2.45983 z"
     style="font-variant-ligatures:normal;font-variant-caps:normal;font-variant-numeric:normal;font-variant-east-asian:normal;white-space:pre;stroke-width:10.345"
     id="path943" />
  <path
     d="m 345.15762,1183.4959 q -0.78001,0 -1.43992,-0.6001 -0.60001,-0.66 -0.60001,-1.44 0,-0.78 0.60001,-1.3799 0.60001,-0.6 1.43992,-0.6 0.84002,0 1.37992,0.6 0.60001,0.54 0.60001,1.3799 0,0.84 -0.60001,1.44 -0.60001,0.6001 -1.37992,0.6001 z m -1.73992,8.5196 h 3.35985 v 30.0584 h -3.35985 z"
     style="font-variant-ligatures:normal;font-variant-caps:normal;font-variant-numeric:normal;font-variant-east-asian:normal;white-space:pre;stroke-width:10.345"
     id="path945" />
  <path
     d="m 377.25816,1222.0827 q -6.47969,0.66 -9.35954,0.66 -6.29969,0 -10.01954,-2.3399 -3.71986,-2.34 -3.71986,-8.4596 v -4.9798 q 0,-5.9397 4.13987,-7.9796 1.97992,-1.0201 5.03977,-1.0201 2.81984,0 5.69978,0.9601 2.87984,0.9 4.85977,2.3999 0,-3.3 -1.91992,-5.2198 -1.91993,-1.9799 -7.37971,-1.9799 l 0.18,-2.5799 q 5.75979,0 8.45962,1.8599 2.75984,1.7999 3.35985,4.3198 0.66001,2.5199 0.66001,6.4797 z m -3.35985,-18.1793 q -2.45983,-1.1399 -5.27978,-1.9799 -2.75984,-0.84 -5.09977,-0.84 -6.05969,0 -6.05969,6.0597 v 5.2198 q 0,3.8998 2.69984,5.6996 2.69984,1.74 7.67961,1.74 2.57984,0 6.05969,-0.48 z"
     style="font-variant-ligatures:normal;font-variant-caps:normal;font-variant-numeric:normal;font-variant-east-asian:normal;white-space:pre;stroke-width:10.345"
     id="path947" />
  <path
     d="m 383.07205,1192.0822 h 3.35985 l -0.18,2.0999 q 2.81984,-2.6399 7.37971,-2.6399 1.61992,0 4.43976,0.54 l -0.89991,3.0598 q -1.91993,-0.6 -4.01986,-0.6 -2.75984,0 -4.73977,1.0201 -1.97993,1.02 -1.97993,3.0598 v 23.5194 h -3.35985 z"
     style="font-variant-ligatures:normal;font-variant-caps:normal;font-variant-numeric:normal;font-variant-east-asian:normal;white-space:pre;stroke-width:10.345"
     id="path949" />
  <path
     d="m 401.55856,1201.3927 q 0,-6.2998 5.09978,-8.6396 2.45983,-1.14 5.87968,-1.14 2.21994,0 4.25976,0.54 2.09994,0.54 3.53986,1.5599 v -13.5592 h 3.35985 v 41.9986 l -3.29985,0.3 q -3.89986,0.42 -6.11969,0.42 -2.21993,0 -4.19976,-0.42 -1.91993,-0.42 -3.83986,-1.3799 -2.15993,-1.08 -3.41985,-3.1798 -1.25991,-2.1 -1.25991,-5.1598 z m 18.77928,-4.7399 q -1.61992,-0.9 -3.71985,-1.4399 -2.09993,-0.6 -4.13986,-0.6 -3.35985,0 -5.51979,1.6799 -2.09993,1.6199 -2.09993,5.2797 v 11.2191 q 0,7.0196 9.65954,7.0196 2.27994,0 5.81969,-0.54 z"
     style="font-variant-ligatures:normal;font-variant-caps:normal;font-variant-numeric:normal;font-variant-east-asian:normal;white-space:pre;stroke-width:10.345"
     id="path951" />
  <path
     d="m 432.39701,1183.4959 q -0.78001,0 -1.43992,-0.6001 -0.60001,-0.66 -0.60001,-1.44 0,-0.78 0.60001,-1.3799 0.60001,-0.6 1.43992,-0.6 0.83991,0 1.37992,0.6 0.60001,0.54 0.60001,1.3799 0,0.84 -0.60001,1.44 -0.60001,0.6001 -1.37992,0.6001 z m -1.73993,8.5196 h 3.35985 v 30.0584 h -3.35985 z"
     style="font-variant-ligatures:normal;font-variant-caps:normal;font-variant-numeric:normal;font-variant-east-asian:normal;white-space:pre;stroke-width:10.345"
     id="path953" />
  <path
     d="m 461.84922,1201.4962 q 0,-3.6598 -2.15993,-5.2797 -2.09993,-1.6799 -5.45978,-1.6799 -2.03993,0 -4.13986,0.6 -2.09993,0.54 -3.71986,1.4399 v 25.4983 h -3.35984 v -30.0584 h 3.35984 l -0.24,2.0399 q 1.43992,-1.2599 3.65985,-1.8599 2.21994,-0.66 4.61977,-0.66 3.29985,0 5.63978,1.08 2.39994,1.0799 3.71986,3.2399 1.37992,2.1598 1.37992,5.4597 v 20.7594 h -3.29985 z"
     style="font-variant-ligatures:normal;font-variant-caps:normal;font-variant-numeric:normal;font-variant-east-asian:normal;white-space:pre;stroke-width:10.345"
     id="path955" />
  <path
     d="m 475.88739,1183.4959 q -0.78001,0 -1.43992,-0.6001 -0.60001,-0.66 -0.60001,-1.44 0,-0.78 0.60001,-1.3799 0.60001,-0.6 1.43992,-0.6 0.83991,0 1.37992,0.6 0.60001,0.54 0.60001,1.3799 0,0.84 -0.60001,1.44 -0.60001,0.6001 -1.37992,0.6001 z m -1.73993,8.5196 h 3.35985 v 30.0584 h -3.35985 z"
     style="font-variant-ligatures:normal;font-variant-caps:normal;font-variant-numeric:normal;font-variant-east-asian:normal;white-space:pre;stroke-width:10.345"
     id="path957" />
  <path
     d="m 799.46504,1206.7855 -4.01986,-0.12 v -2.9398 h 7.37971 v 41.9986 h -3.35985 z"
     style="font-variant-ligatures:normal;font-variant-caps:normal;font-variant-numeric:normal;font-variant-east-asian:normal;white-space:pre;stroke-width:10.345"
     id="path963" />
  <path
     d="m 830.00348,1225.0962 q 0,-3.6598 -2.15993,-5.2797 -2.09993,-1.6799 -5.45978,-1.6799 -2.03993,0 -4.13987,0.6 -2.09993,0.54 -3.71985,1.4399 v 25.4983 h -3.35985 v -30.0584 h 3.35985 l -0.24,2.0399 q 1.43992,-1.2599 3.65985,-1.8599 2.21993,-0.66 4.61977,-0.66 3.29984,0 5.63978,1.08 2.39994,1.0799 3.71986,3.2399 1.37991,2.1598 1.37991,5.4597 v 20.7594 h -3.29984 z"
     style="font-variant-ligatures:normal;font-variant-caps:normal;font-variant-numeric:normal;font-variant-east-asian:normal;white-space:pre;stroke-width:10.345"
     id="path965" />
  <path
     d="m 858.80396,1245.3724 q -3.71986,0.96 -7.19971,0.96 -3.23984,0 -5.39978,-0.72 -3.53985,-1.2 -5.15977,-3.6599 -1.55992,-2.5198 -1.55992,-7.0196 v -7.6797 q 0,-5.9397 3.11984,-8.9995 3.11985,-3.12 8.03962,-3.12 3.89986,0 8.03961,1.9199 l -0.95991,2.46 q -3.41985,-1.3799 -6.59969,-1.3799 -3.71986,0 -5.99969,2.1598 -2.27993,2.0999 -2.27993,6.5997 v 8.6996 q 0,4.1399 2.45993,5.9998 2.51984,1.8598 6.6597,1.8598 2.69984,0 6.11969,-0.78 z"
     style="font-variant-ligatures:normal;font-variant-caps:normal;font-variant-numeric:normal;font-variant-east-asian:normal;white-space:pre;stroke-width:10.345"
     id="path967" />
  <path
     d="m 887.3665,1234.717 q 0,5.0398 -2.75983,8.3396 -2.75984,3.2999 -8.33963,3.2999 -5.57978,0 -8.45962,-3.2999 -2.81984,-3.3598 -2.81984,-8.3396 v -7.9197 q 0,-5.6997 2.87984,-8.6995 2.93984,-3.06 8.39962,-3.06 5.21978,0 8.15962,3.18 2.93984,3.1198 2.93984,8.5795 z m -3.35984,-7.9197 q 0,-4.4998 -2.09994,-6.5997 -2.03993,-2.0998 -5.63978,-2.0998 -3.71985,0 -5.81968,2.0998 -2.09993,2.0999 -2.09993,6.5997 v 8.5196 q 0,3.5999 2.09993,5.8198 2.15993,2.2199 5.81968,2.2199 3.71986,0 5.69979,-2.1599 2.03993,-2.2199 2.03993,-5.8798 z"
     style="font-variant-ligatures:normal;font-variant-caps:normal;font-variant-numeric:normal;font-variant-east-asian:normal;white-space:pre;stroke-width:10.345"
     id="path969" />
  <path
     d="m 912.01864,1225.0962 q 0,-3.6598 -2.15993,-5.2797 -2.09993,-1.6799 -5.45978,-1.6799 -2.03993,0 -4.13987,0.6 -2.09993,0.54 -3.71985,1.4399 v 25.4983 h -3.35985 v -30.0584 h 3.35985 l -0.24,2.0399 q 1.43992,-1.2599 3.65985,-1.8599 2.21993,-0.66 4.61977,-0.66 3.29984,0 5.63978,1.08 2.39994,1.0799 3.71986,3.2399 1.37991,2.1598 1.37991,5.4597 v 20.7594 h -3.29984 z"
     style="font-variant-ligatures:normal;font-variant-caps:normal;font-variant-numeric:normal;font-variant-east-asian:normal;white-space:pre;stroke-width:10.345"
     id="path971" />
  <path
     d="m 928.34305,1246.5103 q -3.35985,-0.96 -4.85977,-3.0599 -1.49992,-2.0999 -1.49992,-5.6397 v -34.0785 h 3.35985 v 11.9391 h 7.1997 l -1.43992,3.1799 h -5.75968 v 18.9593 q 0,4.7997 3.95986,6.1197 z"
     style="font-variant-ligatures:normal;font-variant-caps:normal;font-variant-numeric:normal;font-variant-east-asian:normal;white-space:pre;stroke-width:10.345"
     id="path973" />
  <path
     d="m 937.58113,1215.6822 h 3.35985 l -0.18,2.0999 q 2.81984,-2.6399 7.37971,-2.6399 1.61992,0 4.43976,0.54 l -0.89991,3.0598 q -1.91993,-0.6 -4.01986,-0.6 -2.75984,0 -4.73977,1.0201 -1.97993,1.02 -1.97993,3.0598 v 23.5194 h -3.35985 z"
     style="font-variant-ligatures:normal;font-variant-caps:normal;font-variant-numeric:normal;font-variant-east-asian:normal;white-space:pre;stroke-width:10.345"
     id="path975" />
  <path
     d="m 959.05735,1207.0959 q -0.78001,0 -1.43992,-0.6001 -0.60001,-0.66 -0.60001,-1.44 0,-0.78 0.60001,-1.3799 0.60001,-0.6 1.43992,-0.6 0.83992,0 1.37992,0.6 0.60001,0.54 0.60001,1.3799 0,0.84 -0.60001,1.44 -0.60001,0.6001 -1.37992,0.6001 z m -1.73992,8.5196 h 3.35985 v 30.0584 h -3.35985 z"
     style="font-variant-ligatures:normal;font-variant-caps:normal;font-variant-numeric:normal;font-variant-east-asian:normal;white-space:pre;stroke-width:10.345"
     id="path977" />
  <path
     d="m 488.41716,139.18572 h 9.94276 V 254.5919 h 54.1509 v 8.87753 h -64.09366 z"
     style="white-space:pre;stroke-width:0.84275"
     id="path983" />
  <path
     d="m 627.61418,263.46606 q -19.1751,1.95299 -27.69698,1.95299 -18.64248,0 -29.64963,-6.9242 -11.008,-6.92421 -11.008,-25.03389 v -14.73633 q 0,-17.57724 12.25021,-23.61385 5.85897,-3.01823 14.91415,-3.01823 8.34457,0 16.86679,2.84074 8.52189,2.66318 14.38153,7.10177 0,-9.76494 -5.6814,-15.44676 -5.68139,-5.85897 -21.83818,-5.85897 l 0.53264,-7.63439 q 17.04462,0 25.03389,5.50392 8.16709,5.32635 9.94276,12.78283 1.95299,7.45691 1.95299,19.17509 z m -9.94277,-53.7961 q -7.27934,-3.37336 -15.62374,-5.85897 -8.16709,-2.48561 -15.09113,-2.48561 -17.93203,0 -17.93203,17.93204 v 15.44676 q 0,11.54062 7.98952,16.8668 7.98953,5.14878 22.7256,5.14878 7.63439,0 17.93203,-1.42037 z"
     style="white-space:pre;stroke-width:0.84275"
     id="path985" />
  <path
     d="m 754.04859,231.86293 q 0.53263,6.03654 4.43859,11.54062 4.08355,5.50392 11.008,9.05451 7.10177,3.37336 16.15636,3.37336 13.67109,0 22.7256,-6.03653 9.23233,-6.21411 9.23233,-19.52989 0,-7.81196 -4.4386,-12.96066 -4.4386,-5.32634 -11.008,-8.34457 -6.56915,-3.19579 -17.93203,-7.27934 -12.25022,-4.26111 -19.70771,-7.81195 -7.27934,-3.72841 -12.42804,-9.94277 -4.97121,-6.2141 -4.97121,-15.97938 0,-7.81195 4.43859,-14.73633 4.4386,-7.10177 13.31545,-11.36279 9.05451,-4.4386 22.19298,-4.4386 8.69971,0 14.38153,1.2428 5.68182,1.24281 11.54062,4.08355 l -3.01823,9.41015 q -10.11974,-5.14879 -22.54777,-5.14879 -13.67109,0 -21.83818,5.6814 -8.16709,5.6814 -8.16709,15.80157 0,6.39158 4.08354,10.83018 4.08355,4.26111 9.94277,6.9242 6.03653,2.66317 16.68898,6.39158 12.96065,4.4386 20.94992,8.34458 7.98952,3.72841 13.49327,10.83018 5.6814,6.9242 5.6814,17.57723 0,16.33418 -10.47539,26.27695 -10.29756,9.76494 -31.95792,9.76494 -13.13847,0 -22.54777,-4.79373 -9.23233,-4.97121 -14.20371,-12.60585 -4.79373,-7.81196 -5.14878,-16.15636 z"
     style="white-space:pre;stroke-width:0.84275"
     id="path987" />
  <path
     d="m 900.52191,262.4042 q -11.008,2.84074 -21.30557,2.84074 -9.58712,0 -15.97938,-2.13056 -10.47538,-3.55093 -15.26894,-10.83018 -4.61617,-7.4569 -4.61617,-20.77294 v -22.7256 q 0,-17.57724 9.23233,-26.63174 9.23233,-9.23233 23.79083,-9.23233 11.54062,0 23.79084,5.6814 l -2.84075,7.27934 q -10.11974,-4.08355 -19.52988,-4.08355 -11.00801,0 -17.75422,6.39159 -6.74672,6.2141 -6.74672,19.52988 v 25.74433 q 0,12.25022 7.27934,17.75422 7.4569,5.50391 19.70771,5.50391 7.98952,0 18.10985,-2.30812 z"
     style="white-space:pre;stroke-width:0.84275"
     id="path989" />
  <path
     d="m 968.52341,254.41492 q -4.26112,5.32635 -10.83019,8.1671 -6.39158,2.84074 -12.96065,2.84074 -33.3788,0 -33.3788,-32.49054 v -58.41185 h 9.94277 v 59.6549 q 0,11.3628 6.2141,16.8668 6.39158,5.50392 17.2216,5.50392 10.65236,0 16.68897,-5.32635 6.21411,-5.50392 6.21411,-17.04462 v -59.6549 h 9.94276 v 88.95226 h -9.76494 z"
     style="white-space:pre;stroke-width:0.84275"
     id="path991" />
  <path
     d="m 1064.3946,230.80107 q 0,14.91415 -8.167,24.67909 -8.1671,9.76495 -24.6791,9.76495 -16.512,0 -25.0339,-9.76495 -8.3446,-9.94276 -8.3446,-24.67909 v -23.43603 q 0,-16.8668 8.5219,-25.74433 8.6997,-9.05451 24.8561,-9.05451 15.4467,0 24.1464,9.41015 8.6997,9.23232 8.6997,25.38869 z m -9.9427,-23.43603 q 0,-13.31545 -6.2141,-19.52989 -6.0366,-6.2141 -16.689,-6.2141 -11.008,0 -17.2216,6.2141 -6.2136,6.2141 -6.2141,19.52989 v 25.2117 q 0,10.65236 6.2141,17.2216 6.3916,6.56915 17.2216,6.56915 11.008,0 16.8668,-6.39158 6.0365,-6.56915 6.0365,-17.39942 z"
     style="white-space:pre;stroke-width:0.84275"
     id="path993" />
  <path
     d="m 1084.1066,139.18572 h 9.9427 v 124.28034 h -9.9427 z"
     style="white-space:pre;stroke-width:0.84275"
     id="path995" />
  <path
     d="m 1183.1718,263.46606 q -19.1751,1.95299 -27.6969,1.95299 -18.6425,0 -29.6497,-6.9242 -11.008,-6.92421 -11.008,-25.03389 v -14.73633 q 0,-17.57724 12.2502,-23.61385 5.859,-3.01823 14.9142,-3.01823 8.3446,0 16.8668,2.84074 8.5219,2.66318 14.3815,7.10177 0,-9.76494 -5.6814,-15.44676 -5.6814,-5.85897 -21.8382,-5.85897 l 0.5327,-7.63439 q 17.0446,0 25.0339,5.50392 8.167,5.32635 9.9427,12.78283 1.953,7.45691 1.953,19.17509 z m -9.9427,-53.7961 q -7.2794,-3.37336 -15.6238,-5.85897 -8.1671,-2.48561 -15.0911,-2.48561 -17.932,0 -17.932,17.93204 v 15.44676 q 0,11.54062 7.9895,16.8668 7.9895,5.14878 22.7256,5.14878 7.6344,0 17.932,-1.42037 z"
     style="white-space:pre;stroke-width:0.84275"
     id="path997" />
  <path
     d="m 452.40045,377.38556 q 0,-18.6421 15.09122,-25.56631 7.2793,-3.37333 17.3993,-3.37333 6.56912,0 12.60561,1.59789 6.21403,1.5979 10.47509,4.61614 v -40.1249 h 9.94245 v 124.28068 l -9.76491,0.88772 q -11.54035,1.24281 -18.10947,1.24281 -6.56912,0 -12.42807,-1.24281 -5.6814,-1.24281 -11.3628,-4.08351 -6.39158,-3.19579 -10.12,-9.40982 -3.72842,-6.21404 -3.72842,-15.26877 z m 55.57122,-14.02596 q -4.79369,-2.66316 -11.00772,-4.26105 -6.21404,-1.77544 -12.25053,-1.77544 -9.94245,0 -16.33403,4.97123 -6.21403,4.79368 -6.21403,15.62386 v 33.20069 q 0,20.77263 28.58455,20.77263 6.74667,0 17.22176,-1.59789 z"
     id="path999"
     style="white-space:pre;stroke-width:3.69883" />
  <path
     d="m 589.47908,432.6028 q -6.39158,4.08351 -14.55859,6.21404 -8.16702,2.13052 -16.33404,2.13052 -13.13824,0 -20.95017,-6.39157 -7.63438,-6.56912 -7.63438,-19.52982 v -36.39649 q 0,-14.38105 8.87719,-22.37052 9.05473,-7.98947 23.79087,-7.98947 14.73614,0 22.90315,7.98947 8.34456,7.81193 8.34456,21.83789 v 23.0807 l -53.97332,3.01824 v 10.83018 q 0,8.5221 5.50386,12.78315 5.50386,4.26105 14.38105,4.26105 12.42807,0 25.74385,-7.10175 z m -5.50386,-55.74876 q 0,-11.00772 -6.92421,-15.44631 -6.92421,-4.61614 -14.55859,-4.61614 -9.76491,0 -16.15649,5.32631 -6.39158,5.32632 -6.39158,16.68912 v 15.62386 l 44.03087,-2.13052 z"
     id="path1001"
     style="white-space:pre;stroke-width:3.69883" />
  <path
     d="m 614.66811,314.53505 h 9.94245 v 124.28068 h -9.94245 z"
     id="path1003"
     style="white-space:pre;stroke-width:3.69883" />
  <path
     d="m 768.35449,323.41224 h -30.18245 v -8.87719 h 71.37262 v 8.87719 h -31.24772 v 115.40349 h -9.94245 z"
     id="path1005"
     style="white-space:pre;stroke-width:3.69883" />
  <path
     d="m 859.27172,432.6028 q -6.39157,4.08351 -14.55859,6.21404 -8.16702,2.13052 -16.33403,2.13052 -13.13825,0 -20.95017,-6.39157 -7.63439,-6.56912 -7.63439,-19.52982 v -36.39649 q 0,-14.38105 8.87719,-22.37052 9.05474,-7.98947 23.79088,-7.98947 14.73613,0 22.90315,7.98947 8.34456,7.81193 8.34456,21.83789 v 23.0807 l -53.97332,3.01824 v 10.83018 q 0,8.5221 5.50385,12.78315 5.50386,4.26105 14.38106,4.26105 12.42806,0 25.74385,-7.10175 z m -5.50385,-55.74876 q 0,-11.00772 -6.92421,-15.44631 -6.92421,-4.61614 -14.5586,-4.61614 -9.76491,0 -16.15649,5.32631 -6.39157,5.32632 -6.39157,16.68912 v 15.62386 l 44.03087,-2.13052 z"
     id="path1007"
     style="white-space:pre;stroke-width:3.69883" />
  <path
     d="m 881.4647,349.86627 h 9.94246 l -0.53263,6.21403 q 8.34456,-7.81192 21.83789,-7.81192 4.79368,0 13.13824,1.59789 l -2.66316,9.05474 q -5.6814,-1.77544 -11.89543,-1.77544 -8.16702,0 -14.02597,3.01824 -5.85894,3.01825 -5.85894,9.05474 v 69.59718 h -9.94246 z"
     id="path1009"
     style="white-space:pre;stroke-width:3.69883" />
  <path
     d="m 943.60504,429.93965 48.82456,-71.01753 h -47.22666 v -9.05474 h 59.83226 v 8.87719 l -49.17963,71.01753 h 52.90803 v 9.05474 h -65.15856 z"
     id="path1011"
     style="white-space:pre;stroke-width:3.69883" />
  <path
     d="m 1089.0097,406.14766 q 0,14.91369 -8.167,24.6786 -8.167,9.76491 -24.6786,9.76491 -16.5115,0 -25.0336,-9.76491 -8.3446,-9.94246 -8.3446,-24.6786 v -23.43578 q 0,-16.86667 8.5221,-25.74386 8.6996,-9.05473 24.8561,-9.05473 15.4463,0 24.146,9.40982 8.6996,9.23228 8.6996,25.38877 z m -9.9424,-23.43578 q 0,-13.31579 -6.214,-19.52982 -6.0365,-6.21404 -16.6892,-6.21404 -11.0077,0 -17.2217,6.21404 -6.2141,6.21403 -6.2141,19.52982 v 25.21122 q 0,10.65263 6.2141,17.22175 6.3916,6.56913 17.2217,6.56913 11.0078,0 16.8667,-6.39158 6.0365,-6.56912 6.0365,-17.3993 z"
     id="path1013"
     style="white-space:pre;stroke-width:3.69883" />
  <path
     d="m 1158.0743,314.53505 h 9.9424 v 115.40349 h 54.1509 v 8.87719 h -64.0933 z"
     id="path1015"
     style="white-space:pre;stroke-width:3.69883" />
  <path
     d="m 1285.9059,429.7621 q -4.2611,5.32632 -10.8302,8.16702 -6.3916,2.8407 -12.9607,2.8407 -33.3783,0 -33.3783,-32.49052 v -58.41192 h 9.9425 v 59.65473 q 0,11.3628 6.214,16.86666 6.3916,5.50386 17.2218,5.50386 10.6526,0 16.6891,-5.32632 6.214,-5.50385 6.214,-17.0442 v -59.65473 h 9.9425 v 88.94946 h -9.7649 z"
     id="path1017"
     style="white-space:pre;stroke-width:3.69883" />
  <path
     d="m 1381.7777,406.14766 q 0,14.91369 -8.167,24.6786 -8.1671,9.76491 -24.6786,9.76491 -16.5116,0 -25.0337,-9.76491 -8.3446,-9.94246 -8.3446,-24.6786 v -23.43578 q 0,-16.86667 8.5221,-25.74386 8.6997,-9.05473 24.8562,-9.05473 15.4463,0 24.1459,9.40982 8.6997,9.23228 8.6997,25.38877 z m -9.9425,-23.43578 q 0,-13.31579 -6.214,-19.52982 -6.0365,-6.21404 -16.6891,-6.21404 -11.0078,0 -17.2218,6.21404 -6.214,6.21403 -6.214,19.52982 v 25.21122 q 0,10.65263 6.214,17.22175 6.3916,6.56913 17.2218,6.56913 11.0077,0 16.8666,-6.39158 6.0365,-6.56912 6.0365,-17.3993 z"
     id="path1019"
     style="white-space:pre;stroke-width:3.69883" />
  <path
     d="m 1436.992,468.46666 q 11.7178,-4.4386 11.7178,-18.46456 v -22.01543 q -7.4568,12.96069 -23.9684,12.96069 -15.6238,0 -24.3235,-8.5221 -8.6996,-8.5221 -8.6996,-24.85614 v -26.45403 q 0,-15.62385 9.0547,-24.14596 9.2323,-8.69964 24.6786,-8.69964 16.5116,0 23.9684,11.89543 l -0.7102,-10.29754 h 9.9425 v 100.31226 q 0,10.65263 -4.4386,16.68912 -4.4386,6.03649 -14.5586,9.23228 z m 11.7178,-89.30455 q 0,-11.00772 -7.1017,-16.33403 -7.1018,-5.50386 -16.8667,-5.50386 -9.4098,0 -16.334,5.85895 -6.7467,5.6814 -6.7467,18.81964 v 27.16421 q 0,11.18526 6.2141,16.86666 6.3915,5.68141 16.8666,5.68141 9.9425,0 16.8667,-6.03649 7.1017,-6.21404 7.1017,-17.57684 z"
     id="path1021"
     style="white-space:pre;stroke-width:3.69883" />
  <path
     d="m 1541.9204,406.14766 q 0,14.91369 -8.1671,24.6786 -8.167,9.76491 -24.6786,9.76491 -16.5115,0 -25.0336,-9.76491 -8.3446,-9.94246 -8.3446,-24.6786 v -23.43578 q 0,-16.86667 8.5221,-25.74386 8.6997,-9.05473 24.8561,-9.05473 15.4464,0 24.146,9.40982 8.6997,9.23228 8.6997,25.38877 z m -9.9425,-23.43578 q 0,-13.31579 -6.214,-19.52982 -6.0365,-6.21404 -16.6892,-6.21404 -11.0077,0 -17.2217,6.21404 -6.214,6.21403 -6.214,19.52982 v 25.21122 q 0,10.65263 6.214,17.22175 6.3916,6.56913 17.2217,6.56913 11.0078,0 16.8667,-6.39158 6.0365,-6.56912 6.0365,-17.3993 z"
     id="path1023"
     style="white-space:pre;stroke-width:3.69883" />
  <path
     d="m 667.93,285.57 c -19.405,-0.44768 -68.259,2.233 -94.52,0.48186 -17.824,1.8285 -10.418,-18.208 3.4263,-9.534 25.583,3.2516 51.386,-2.1254 77.06,0.83041 27.125,1.2674 7.8221,-31.196 12.873,-47.216 -0.40538,-32.757 -3.4939,-65.636 -0.91454,-98.33 -3.8669,-20.98 -33.262,-1.9317 -47.805,-14.01 -18.073,-5.0826 -42.364,-26.019 -29.371,-45.893 22.684,-1.8664 48.428,10.234 66.199,25.487 18.292,15.008 7.6032,-19.042 8.9935,-28.776 7.6176,-23.436 18.385,-52.854 42.872,-63.042 10.549,-8.2961 33.711,-9.1039 22.554,10.028 -6.0373,28.076 -32.702,43.871 -55.076,58.09 -9.6137,20.279 -2.9602,41.358 -3.1192,69.46 -2.8291,13.671 -3.8569,31.068 6.5466,19.563 14.836,-14.124 39.546,-40.165 61.112,-40.599 16.414,14.883 -10.31,42.996 -26.034,51.081 -12.363,15.638 -51.427,-0.38824 -39.521,29.965 3.1517,21.104 -9.0316,58.868 7.486,71.768 23.103,3.1464 48.2,-0.70043 71.44,0.67882 20.714,1.039 41.301,-1.2224 17.468,10.084 -23.377,-1.2677 -53.356,-1.4516 -81.814,-0.0652 -15.862,-0.048 -13.669,-3.3017 -13.764,23.854 -5.8684,8.9682 0.0768,-16.639 -6.0891,-23.907 z m 23.347,-108.96 c 17.591,-5.8161 52.062,-25.039 45.649,-46.496 -19.624,-3.0027 -40.756,20.865 -54.095,33.214 -12.3,10.5 -7.0523,18.461 8.4455,13.282 z m -28.076,-59.827 c -7.9869,-22.736 -51.069,-41.672 -72.809,-39.926 0.32562,25.113 21.506,40.459 42.327,40.618 l 25.028,-0.69714 z m 11.074,-50.126 c 20.362,-7.6326 43.265,-29.643 48.448,-51.164 -16.156,-14.099 -41.405,15.061 -46.96,32.432 -1.0386,4.1406 -13.767,25.211 -1.4873,18.732 z"
     style="fill:#272727;stroke-width:0.6096"
     id="path1029" />
</svg>
