<svg version="1.1" viewBox="0 0 1541.9 2158.2" xmlns="http://www.w3.org/2000/svg" xmlns:xlink="http://www.w3.org/1999/xlink">
 <g transform="translate(334.97 -315.35)">
  <g>
   <path d="m438.05 2143.3c0-50.272-8.3849-105.87-22.147-154.16-5.0803-17.825-16.28-33.94-21.093-52.177-8.1406-30.848-13.215-66.706-16.874-98.803-4.0843-35.828 29.618-62.95 27.42-98.803-2.7496-44.86-19.721-88.337-28.475-132.11-6.6589-33.296-3.8242-69.532-7.3826-103.24-5.2132-49.388-18.906-93.912-31.489-141.59-8.8931-33.7-2.7859-90.292-4.2187-126.49-1.1592-29.287-6.4222-58.388-7.3823-87.701-2.2952-70.067-1.9701-139.78 1.0545-209.82 1.966-45.522 12.918-88.384 17.929-133.22 4.1104-36.776 8.5689-178.43 3.1639-194.27-2.119-6.2128-8.7066-9.8259-13.06-14.739-1.2554 37.937 4.652 75.61 2.704 113.54-1.4492 28.219-8.3285 50.38-12.656 77.71-6.8095 43.009-14.541 87.311-17.929 131-1.9081 24.605 0.8902 15.552 3.1639 39.965 3.2342 34.726 5.595 70.656 7.3823 105.46 1.5924 31.011-3.1639 61.231-3.1639 92.142 0 52.614 7.5529 96.515 1.0546 149.87-5.5394 45.48-13.779 90.1-21.092 135.44-5.0789 31.483-5.8427 10.353-8.4371 41.075-3.0792 36.463-2.6425 73.398-4.2187 109.9-1.8472 42.781-3.4517 58.074-2.242 100.94 0.37106 13.15-0.87641 44.807 0.54879 62.519 2.1905 27.223-18.642 103.1-23.618 136.27-7.9424 52.95-8.532 107.66-11.601 160.97-1.3117 22.784-8.2497 45.156-10.546 67.718-2.926 28.748-5.4976 57.862-9.4916 86.591-5.7491 41.353-21.102 81.232-23.202 123.23-1.4917 29.829 3.517 60.332 6.3278 89.922 1.5557 16.378 0.1142 36.916 5.0863 52.621" style="fill:none;stroke-width:3.5;stroke:#000"/>
   <path d="m728.83 1197.3c-6.911-6.3874-24.367-37.396-25.232-37.692-24.488-8.3651-78.808-7.7226-96.076-18.51-6.7317-4.2052-9.8878-13.296-15.593-18.634-19.08-17.853-36.629-37.057-51.677-58.837-5.3782-7.7843-7.0678-18.675-14.487-27.46-25.027-29.637-52.757-53.521-75.469-86.725-17.776-25.988-20.584-56.56-32.694-84.371-14.399-33.07-31.496-68.396-37.403-104.17-5.8982-35.72-23.991-61.631-29.869-97.519-1.7511-10.691-2.6673-15.438-3.3751-26.249-0.7887-12.048-12.369-28.987-11.46-41.027-0.8485 16.167 19.707 21.43 20.63 37.592 0.1288 2.2561 11.834 31.821 12.656 34.414 10.977 34.663 13.809 76.988 32.694 108.79 13.819 23.275 33.326 40.472 48.513 62.168 8.765 12.521 15.68 28.448 27.42 38.855 18.483 16.384 41.65 27.879 61.041 43.188 22.012 17.378 43.565 36.194 65.028 54.073" style="fill:none;stroke-width:3;stroke:#000"/>
   <path d="m324.9 1021.9c10.367 10.507 23.897 70.716 34.535 80.948 11.918 11.463 27.54 20.224 38.74 32.332 20.408 22.061 42.797 44.961 69.752 59.148" style="fill:none;stroke:#000"/>
   <path d="m346.29 902.17c7.5366 19.063 14.024 38.574 22.61 57.188 7.2939 15.814 70.431 45.288 89.644 51.066 23.483 7.0623 39.88 3.3053 55.142 25.906" style="fill:none;stroke:#000"/>
   <path d="m348.01 717.63c-23.009 19.708-33.493 48.065-51.289 71.683-2.7644 3.6689-6.328 6.6609-9.4919 9.9913-8.4371 11.101-17.562 21.712-25.311 33.304-43.326 64.809-58.077 148.58-119.66 200.44" style="fill:none;stroke:#000"/>
   <path d="m335.5 596.14c-7.7069 20.921-18.653 40.92-23.121 62.763-7.3924 36.143 12.932 75.437 4.2184 112.12-8.5451 35.98-28.763 67.527-39.021 103.24-9.2265 32.124-13.69 63.943-28.475 94.362-14.427 29.682-38.264 60.882-46.404 93.252-16.687 66.357-15.392 138.67-44.294 202.05-24.375 53.452-93.863 154.88-93.863 208.71" style="fill:none;stroke-width:3;stroke:#000"/>
   <path d="m348.01 717.63c-6.2267 87.986 8.1302 180.31-14.835 266.93-12.109 45.676-28.514 90.11-37.967 136.55-7.5894 37.282-10.24 74.894-17.929 112.12-4.6862 22.691-13.926 43.98-18.984 66.608-11.502 51.456-11.831 104.42-26.366 155.42-18.461 64.774-35.642 129.42-49.568 195.38-3.9693 18.803-11.601 36.173-11.601 55.507" style="fill:none;stroke:#000"/>
   <path d="m347.68 772.59c4.9216 25.533 9.6886 51.097 14.765 76.6 4.7607 23.918 12.75 53.398 13.614 78.864 0.5315 15.663-3.5106 31.579-1.0548 47.736 5.5105 36.254 13.475 72.229 17.929 108.79 1.5711 12.899 0.6696 26.102 3.1639 38.855 4.8456 24.775 14.452 45.974 21.093 69.939 5.1009 18.409 5.7288 38.074 11.601 56.617" style="fill:none;stroke-width:3;stroke:#000"/>
   <path d="m336.6 636.56c4.9216 18.872 20.916 56.425 25.093 75.476 11.981 54.65 23.691 107.35 49.568 157.64 8.1499 15.838 16.715 24.768 27.42 38.855 17.585 23.138 34.319 51.2 48.513 76.6 18.338 32.815 39.35 64.757 56.95 97.692 9.9886 18.692 17.763 39.747 30.584 56.617" style="fill:none;stroke-width:4;stroke:#000"/>
   <path d="m348.01 717.63c2.4068-0.37325 1.3566 4.7836 2.8437 6.7126 4.7342 29.544 14.164 39.408 25.311 56.617 14.816 22.873 98.421 99.004 140.16 84.358" style="fill:none;stroke:#000"/>
   <path d="m351.3 699.8c-1.4229 8.497-2.084 39.301-1.0788 47.858 2.4147 20.554 63.825 44.954 76.988 51.067 18.247 8.4737 35.962 20.87 55.896 25.533 41.865 9.7933 86.039 17.81 129.3 15.413 22.409-1.2414 46.318-5.6724 68.551-4.4406 27.49 1.5231 77.705 19.916 100.72 13.382" style="fill:none;stroke-width:3;stroke:#000"/>
   <path d="m348.01 717.63c-4.4123 37.797-30.884 63.073-51.925 92.036-21.652 29.804-40.83 60.005-65.387 87.701-8.9343 10.076-20.377 17.009-29.53 26.643-20.723 21.814-39.424 42.804-64.333 59.948-39.092 26.906-86.849 40.159-128.67 62.168" style="fill:none;stroke:#000"/>
   <path d="m335.5 596.14c-48.107 61.443-38.56 141.94-64.808 211.01-20.313 53.455-118.22 146.36-166.63 179.84-22.451 15.53-46.557 28.389-70.661 41.075-12.76 6.7156-2.4004 0.9207-22.147 14.432-3.5009 2.3954-14.763 8.2836-10.844 6.6609 2.5673-1.0629 5.1759-2.0232 7.7639-3.0348" style="fill:none;stroke-width:3;stroke:#000"/>
   <path d="m335.5 596.14c-8.2951 29.443-18.754 58.361-24.885 88.33-2.2252 10.876 0.5787 22.218 0 33.304-1.1802 22.61-4.0799 45.109-5.2732 67.719-3.0494 57.776 1.8297 113.01-10.546 169.85-8.7092 40.004-48.672 80.004-61.169 123.23-8.3386 28.84-11.569 58.713-18.983 87.701-8.3402 32.609-25.304 63.167-34.803 95.472-10.441 35.507-21.362 71.313-28.475 107.68-4.5821 23.427-5.4267 47.025-9.4917 70.472" style="fill:none;stroke:#000"/>
   <path d="m315.96 1030c-47.999 74.2-71.631 159.24-122.34 232.02-5.2464 7.5306-5.1094 15.37-10.285 20.818" style="fill:none;stroke:#000"/>
   <path d="m240.66 1416c15.904 73.941 7.6404 16.402 7.6404 86.404 0 50.597 5.9151 101.4 3.1639 152.09-1.6541 30.473-8.4301 65.52 1.0548 95.472" style="fill:none;stroke:#000"/>
   <path d="m334.26 1221.3c4.1429 7.4498 42.814 76.525 47.459 86.591 8.9256 19.343 13 41.801 22.147 61.058 11.075 23.316 28.843 43.68 41.131 66.609 11.44 21.347 15.795 42.068 36.378 55.067" style="fill:none;stroke:#000"/>
   <path d="m412.33 849.36c-7.8296 21.678-17.198 42.861-23.489 65.035-7.6697 27.036 2.1091 76.259 2.1091 105.46 0 32.693-4.2611 64.597-6.3277 97.227-2.4488 38.662 1.0548 78.688 1.0548 117.54" style="fill:none;stroke:#000"/>
   <path d="m352.67 794.73c2.4851 7.0062 19.131 54.44 21.95 60.26 8.9262 18.431 22.93 34.047 30.584 53.287 4.6113 11.59-0.448 4.6655 2.8116 19.296 2.0259 9.0929 6.5127 17.528 8.4369 26.643 2.8034 13.28 12.497 79.526 14.67 93.25" style="fill:none;stroke-width:1.3795;stroke:#000"/>
   <path d="m278.9 862.95c-86.564 95.1-101.76 196.55-129.69 266.17-10.071 25.107-18.12 50.736-35.478 71.759" style="fill:none;stroke:#000"/>
   <path d="m257.42 1894.7c-0.0528 1.838-0.26911 3.6785-0.15847 5.5139 0.26038 4.3194 0.93116 8.5987 1.1364 12.919 0.21959 4.6233-0.77248 9.7942 0.22732 14.355 0.49121 2.2406 1.3713 4.1521 1.804 6.4296 0.46282 2.4359 0.39316 5.2978 1.1364 7.6558 1.2391 3.931 4.1576 7.0592 4.6119 11.362 0.61895 5.8629 0.9014 12.875 3.1157 18.405 1.2872 3.2146 3.5648 6.2658 4.5456 9.5698 0.95318 3.2106 0.61711 6.6423 1.8116 9.7949" style="fill:none;stroke-width:1px;stroke:#000"/>
   <path d="m276.25 1793.3c-4.3128 5.3995-8.4128 10.951-12.191 16.736-5.9685 9.1383-11.599 18.435-17.273 27.752-2.4799 4.0723-5.4786 7.9761-7.273 12.441-5.413 13.468-2.5471 29.612-17.81 36.262" style="fill:none;stroke-width:1px;stroke:#000"/>
   <path d="m406.11 1734.8c-0.4047 12.2 3.8265 23.464 7.3097 34.831 2.9828 9.7335 5.6506 19.04 9.5458 28.47 2.2844 5.5306 5.3415 11.545 6.5912 17.465 1.4019 6.6404 2.2112 13.508 5.1947 19.788" style="fill:none;stroke-width:1px;stroke:#000"/>
   <path d="m380.23 1883.5c-0.017 24.725-5.5975 49.105-9.5458 73.448-0.89021 5.4885-0.21586 18.002-1.9794 22.529" style="fill:none;stroke-width:1px;stroke:#000"/>
   <path d="m285.5 1596.1c2.6508 9.2083 3.2736 19.173 5.5182 28.574 0.70023 2.9329 2.1924 5.6096 2.7274 8.6128 1.128 6.3327 1.168 13.488 3.1774 19.566 2.3282 7.0421 4.7811 13.91 7.0064 20.953" style="fill:none;stroke-width:1px;stroke:#000"/>
   <path d="m366.56 1493.9c-5.5347 13.099-4.3963 28.091-9.8471 41.206-4.0166 9.6641-9.2964 18.586-12.273 28.709-3.4058 11.582-4.5456 27.883-4.5456 39.954 0 2.6744 0.90911 5.192 0.90911 7.8551" style="fill:none;stroke-width:1px;stroke:#000"/>
   <path d="m384.52 1628.8c1.4573 3.4129 3.1138 6.7474 4.3719 10.238 0.81058 2.2492 1.2122 4.6254 1.8183 6.9381 0.90912 2.9507 1.6372 5.9634 2.7274 8.852 3.9795 10.544 12.643 22.643 20.228 30.862 4.0643 4.4041 8.7006 7.5388 12.728 11.962 2.4672 2.71 5.5453 6.057 7.273 9.3305 0.88428 1.6755 0.62379 2.6249 1.591 4.0671 1.455 2.1698 3.0766 3.7345 3.8638 6.2204" style="fill:none;stroke-width:1px;stroke:#000"/>
   <path d="m421.56 2021.8c-0.24602 7.4226 0.9713 14.835 0.68184 22.25-0.51455 13.18-2.959 26.423-8.1821 38.518-3.968 9.1892-10.682 16.16-10.682 26.69" style="fill:none;stroke-width:1px;stroke:#000"/>
   <path d="m236.58 2112.8c0.53031 2.0385 0.78856 4.1679 1.591 6.1154 2.6616 6.4601 6.651 12.111 10 18.182 3.4885 6.3243 6.0824 13.163 9.7731 19.379 1.817 3.0603 4.2978 5.5512 5.7979 8.6792" style="fill:none;stroke-width:1px;stroke:#000"/>
   <rect x="426.94" y="1506.7" width="238.04" height="88.832" style="fill-opacity:0;paint-order:stroke fill markers;stroke-width:0"/>
   <rect x="328.5" y="2143.3" width="245.25" height="103.22" style="fill-opacity:0;paint-order:stroke fill markers;stroke-width:0"/>
   <rect x="-68.613" y="1471.6" width="245.25" height="103.22" style="fill-opacity:0;paint-order:stroke fill markers;stroke-width:0"/>
   <path d="m599 844.09c2.2419 1.5018 4.4805 3.0085 6.7257 4.5053 4.7378 3.1586 9.8553 6.1597 14.369 9.6542 6.8764 5.324 12.574 12.274 20.706 16.019 3.2211 1.4834 6.1091 1.0772 9.4772 1.609 4.4028 0.69519 8.6412 1.6892 12.998 2.4998" style="fill:none;stroke-width:1px;stroke:#000"/>
   <path d="m669.24 833.9c16.881-1.8312 2.04 0.26978 24.477-5.1806 14.335-3.4822 28.873-5.3128 43.106-9.3324 2.1241-0.59989 10.694-3.592 11.312-3.8617 4.9043-2.1405 17.42-9.861 22.951-8.6888 1.9364 0.41035 3.7113 1.0553 5.6049 1.5783" style="fill:none;stroke-width:1px;stroke:#000"/>
   <path d="m546.07 926.08c6.0362 4.4586 2.3398 1.9958 8.2913 5.4413 8.1209 4.7016 9.2201 5.3416 18.656 7.3194 3.0487 0.63905 7.5002 0.43309 10.135 1.8804 9.51 5.2236 8.2312 10.236 21.509 10.236" style="fill:none;stroke-width:1px;stroke:#000"/>
   <path d="m509.19 901.27c0.0197 3.1891 2.9013 5.1525 3.5019 8.1074 2.0264 9.9698 3.6 26.57 9.4772 35.077 2.8729 4.1581 6.1249 8.1933 9.04 12.254" style="fill:none;stroke-width:1px;stroke:#000"/>
   <path d="m530.93 835.48c3.6686 2.6817 7.2538 5.4814 11.006 8.0452 7.03 4.8035 14.624 9.0942 19.872 16.09 4.0114 5.3486 6.5558 11.589 10.394 17.056 2.616 3.7255 5.0013 5.7494 8.2543 9.0106 8.0339 8.054 15.535 15.577 26.494 19.224" style="fill:none;stroke-width:1px;stroke:#000"/>
   <path d="m435.06 1001.6c4.1424 10.964 5.8273 16.018 10.924 26.889 4.3973 9.3794 10.34 17.593 14.98 26.71 7.7346 15.198 14.543 31.534 23.54 46.018 2.665 4.2904 5.6452 8.478 8.2543 12.872 3.5432 5.9674 5.9369 12.724 10.089 18.343 1.9017 2.5738 4.2335 4.8125 6.1144 7.4015 0.94865 1.3058 1.8346 3.2122 3.0192 4.4591" style="fill:none;stroke-width:1px;stroke:#000"/>
   <path d="m588.45 1118c17.769 5.8715 5.3013 2.7089 25.523 5.0739 31.495 3.6836-12.078-0.9053 14.369 2.5745 13.607 1.7904 27.616 0.8655 41.272 1.609 3.063 0.1668 10.792 2.2768 13.146 2.8963 4.0574 1.0677 7.7474 3.2603 11.617 4.8271 7.0641 2.86 16.388 6.1143 24.152 6.1143" style="fill:none;stroke-width:1px;stroke:#000"/>
   <path d="m155.98 944.92c-5.4135 9.0146-7.9856 19.402-12.849 28.68-6.0805 11.601-13.78 22.723-20.789 33.79-3.9734 6.2737-8.4032 12.42-11.311 19.308-2.8486 6.7468-4.4348 14.21-6.42 21.239-3.381 11.971-8.1841 23.384-14.98 33.79" style="fill:none;stroke-width:1px;stroke:#000"/>
   <path d="m197.02 1093.6c-12.367 9.9461-23.917 21.309-33.84 33.755-4.8952 6.1395-9.5854 14.469-16.509 18.665-6.2784 3.8051-13.326 7.3191-20.177 9.976-6.0877 2.3609-13.005 3.9463-18.896 6.758-6.4732 3.0899-7.4039 4.135-14.99 6.0151" style="fill:none;stroke-width:1px;stroke:#000"/>
  </g>
  <g>
   <a transform="translate(464.88 123.7)" target="_self" xlink:href="file:///home/boro/Http/S3L/01.Pages/01.PrimoLuogo/contatti" xlink:title="Contatti">
    <g transform="matrix(10.345 0 0 10.345 800.72 913.12)" style="font-variant-caps:normal;font-variant-east-asian:normal;font-variant-ligatures:normal;font-variant-numeric:normal;shape-inside:url(#rect1041);white-space:pre" aria-label="Contatti">
     <path d="m-85.063 113.53q-0.51617 0.19139-0.96274 0.19139-0.50457 0-0.81775-0.26679-0.31318-0.26678-0.31318-0.85254v-1.8617q0-0.44077 0.12179-0.66696 0.12759-0.22618 0.38278-0.38277 0.25518-0.14499 0.62636-0.14499 0.45237 0 0.81775 0.19138l-0.09279 0.22039q-0.33058-0.12179-0.62636-0.12179-0.35378 0-0.63216 0.17399-0.27258 0.17399-0.27258 0.67856v1.9023q0 0.40017 0.20879 0.62056 0.20879 0.21459 0.62636 0.21459 0.36538 0 0.86415-0.16819z" style="font-variant-caps:normal;font-variant-east-asian:normal;font-variant-ligatures:normal;font-variant-numeric:normal"/>
     <path d="m-82.395 112.6q0 0.48717-0.26678 0.80615-0.26678 0.31898-0.80615 0.31898-0.53937 0-0.81775-0.31898-0.27258-0.32478-0.27258-0.80615v-0.76556q0-0.55096 0.27838-0.84094 0.28418-0.29579 0.81195-0.29579 0.50457 0 0.78875 0.30739 0.28418 0.30158 0.28418 0.82934zm-0.32478-0.76556q0-0.43497-0.20299-0.63796-0.19719-0.20298-0.54517-0.20298-0.35958 0-0.56256 0.20298-0.20299 0.20299-0.20299 0.63796v0.82355q0 0.34798 0.20299 0.56257 0.20879 0.21459 0.56256 0.21459 0.35958 0 0.55097-0.20879 0.19719-0.21459 0.19719-0.56837z" style="font-variant-caps:normal;font-variant-east-asian:normal;font-variant-ligatures:normal;font-variant-numeric:normal"/>
     <path d="m-80.011 111.67q0-0.35377-0.20879-0.51036-0.20299-0.16239-0.52777-0.16239-0.19719 0-0.40018 0.058-0.20299 0.0522-0.35958 0.13919v2.4648h-0.32478v-2.9056h0.32478l-0.0232 0.19719q0.13919-0.12179 0.35378-0.17979 0.21459-0.0638 0.44657-0.0638 0.31898 0 0.54517 0.1044 0.23198 0.10439 0.35958 0.31318 0.13339 0.20878 0.13339 0.52777v2.0067h-0.31898z" style="font-variant-caps:normal;font-variant-east-asian:normal;font-variant-ligatures:normal;font-variant-numeric:normal"/>
     <path d="m-78.434 113.74q-0.32478-0.0928-0.46977-0.29579-0.14499-0.20298-0.14499-0.54516v-3.2942h0.32478v1.1541h0.69596l-0.13919 0.30738h-0.55677v1.8327q0 0.46397 0.38278 0.59156z" style="font-variant-caps:normal;font-variant-east-asian:normal;font-variant-ligatures:normal;font-variant-numeric:normal"/>
     <path d="m-75.447 113.66q-0.62636 0.0638-0.90474 0.0638-0.60896 0-0.96854-0.22619-0.35958-0.22619-0.35958-0.81775v-0.48137q0-0.57416 0.40018-0.77135 0.19139-0.0986 0.48717-0.0986 0.27258 0 0.55097 0.0928 0.27838 0.087 0.46977 0.23199 0-0.31899-0.18559-0.50457-0.18559-0.19139-0.71336-0.19139l0.0174-0.24939q0.55677 0 0.81775 0.17979 0.26678 0.17399 0.32478 0.41758 0.0638 0.24358 0.0638 0.62636zm-0.32478-1.7573q-0.23778-0.11019-0.51037-0.19139-0.26678-0.0812-0.49297-0.0812-0.58576 0-0.58576 0.58576v0.50457q0 0.37698 0.26098 0.55096 0.26098 0.16819 0.74235 0.16819 0.24938 0 0.58576-0.0464z" style="font-variant-caps:normal;font-variant-east-asian:normal;font-variant-ligatures:normal;font-variant-numeric:normal"/>
     <path d="m-73.626 111.07h-1.0323v1.8327q0 0.45817 0.38278 0.59156l-0.09279 0.24939q-0.32478-0.0928-0.46977-0.29579-0.14499-0.20298-0.14499-0.54516v-3.2942h0.32478v1.1541h1.0381v-1.1541h0.32478v1.1541h0.69596l-0.13919 0.30738h-0.55676v1.8327q0 0.45817 0.38278 0.59156l-0.09279 0.24939q-0.32478-0.0928-0.46977-0.29579-0.14499-0.20298-0.14499-0.54516v-1.8443z" style="font-variant-caps:normal;font-variant-east-asian:normal;font-variant-ligatures:normal;font-variant-numeric:normal"/>
     <path d="m-71.816 109.93q-0.0754 0-0.13919-0.058-0.058-0.0638-0.058-0.1392t0.058-0.13339q0.058-0.058 0.13919-0.058 0.0812 0 0.13339 0.058 0.058 0.0522 0.058 0.13339 0 0.0812-0.058 0.1392t-0.13339 0.058zm-0.16819 0.82355h0.32478v2.9056h-0.32478z" style="font-variant-caps:normal;font-variant-east-asian:normal;font-variant-ligatures:normal;font-variant-numeric:normal"/>
    </g>
    <a transform="translate(-1448.8 239.51)" target="_self" xlink:href="file:///home/boro/Http/S3L/01.Pages/01.PrimoLuogo/incontri" xlink:title="Incontri">
     <text transform="matrix(10.345 0 0 10.345 877.03 -18.4)" style="fill:#000000;font-family:'Advent Pro';font-size:9.1136px;font-variant-caps:normal;font-variant-east-asian:normal;font-variant-ligatures:normal;font-variant-numeric:normal;line-height:1.25;shape-inside:url(#rect1041-0-1-5);white-space:pre" xml:space="preserve"><tspan x="-87.539062" y="113.66367"><tspan style="font-family:'Advent Pro';font-size:5.7996px;font-variant-caps:normal;font-variant-east-asian:normal;font-variant-ligatures:normal;font-variant-numeric:normal">Incontri</tspan></tspan></text>
    </a>
   </a>
   <a transform="translate(464.64 -130.08)" target="_self" xlink:href="file:///home/boro/Http/S3L/01.Pages/01.PrimoLuogo/giardini" xlink:title="Giardini">
    <g transform="matrix(10.345 0 0 10.345 412.2 491.7)" style="font-variant-caps:normal;font-variant-east-asian:normal;font-variant-ligatures:normal;font-variant-numeric:normal;shape-inside:url(#rect1041-0);white-space:pre" aria-label="Giardini">
     <path d="m-85.097 113.43q-0.30158 0.29578-0.84095 0.29578-0.32478 0-0.60316-0.1218-0.27838-0.12179-0.45237-0.38277-0.16819-0.26099-0.16819-0.64956v-1.8211q0-0.40597 0.12759-0.64956 0.13339-0.24938 0.37698-0.40017 0.25518-0.14499 0.62636-0.14499 0.45237 0 0.81775 0.19138l-0.09279 0.22039q-0.33058-0.12179-0.62636-0.12179-0.35378 0-0.63216 0.17399-0.27258 0.17399-0.27258 0.67855v1.8849q0 0.38857 0.24938 0.60896 0.25518 0.22039 0.64376 0.22039 0.39438 0 0.62636-0.22619 0.23198-0.22619 0.23198-0.59736v-0.34218h-0.38278l-0.11019-0.31898h0.80035v1.7399h-0.23778z" style="font-variant-caps:normal;font-variant-east-asian:normal;font-variant-ligatures:normal;font-variant-numeric:normal"/>
     <path d="m-83.775 109.93q-0.0754 0-0.13919-0.058-0.058-0.0638-0.058-0.1392t0.058-0.13339q0.058-0.058 0.13919-0.058 0.0812 0 0.13339 0.058 0.058 0.0522 0.058 0.13339 0 0.0812-0.058 0.1392t-0.13339 0.058zm-0.16819 0.82355h0.32478v2.9056h-0.32478z" style="font-variant-caps:normal;font-variant-east-asian:normal;font-variant-ligatures:normal;font-variant-numeric:normal"/>
     <path d="m-80.672 113.66q-0.62636 0.0638-0.90474 0.0638-0.60896 0-0.96854-0.22619-0.35958-0.22619-0.35958-0.81775v-0.48137q0-0.57416 0.40018-0.77135 0.19139-0.0986 0.48717-0.0986 0.27258 0 0.55097 0.0928 0.27838 0.087 0.46977 0.23199 0-0.31899-0.18559-0.50457-0.18559-0.19139-0.71336-0.19139l0.0174-0.24939q0.55677 0 0.81775 0.17979 0.26678 0.17399 0.32478 0.41758 0.0638 0.24358 0.0638 0.62636zm-0.32478-1.7573q-0.23778-0.11019-0.51037-0.19139-0.26678-0.0812-0.49297-0.0812-0.58576 0-0.58576 0.58576v0.50457q0 0.37698 0.26098 0.55096 0.26098 0.16819 0.74235 0.16819 0.24938 0 0.58576-0.0464z" style="font-variant-caps:normal;font-variant-east-asian:normal;font-variant-ligatures:normal;font-variant-numeric:normal"/>
     <path d="m-80.11 110.76h0.32478l-0.0174 0.20299q0.27258-0.25519 0.71336-0.25519 0.15659 0 0.42917 0.0522l-0.08699 0.29578q-0.18559-0.058-0.38858-0.058-0.26678 0-0.45817 0.0986t-0.19139 0.29578v2.2735h-0.32478z" style="font-variant-caps:normal;font-variant-east-asian:normal;font-variant-ligatures:normal;font-variant-numeric:normal"/>
     <path d="m-78.323 111.66q0-0.60897 0.49297-0.83515 0.23778-0.1102 0.56836-0.1102 0.21459 0 0.41177 0.0522 0.20299 0.0522 0.34218 0.15079v-1.3107h0.32478v4.0598l-0.31898 0.029q-0.37698 0.0406-0.59156 0.0406-0.21459 0-0.40597-0.0406-0.18559-0.0406-0.37118-0.13339-0.20879-0.1044-0.33058-0.30738-0.12179-0.20299-0.12179-0.49877zm1.8153-0.45818q-0.15659-0.087-0.35958-0.13919-0.20299-0.058-0.40018-0.058-0.32478 0-0.53357 0.16239-0.20299 0.15659-0.20299 0.51036v1.0845q0 0.67855 0.93374 0.67855 0.22039 0 0.56256-0.0522z" style="font-variant-caps:normal;font-variant-east-asian:normal;font-variant-ligatures:normal;font-variant-numeric:normal"/>
     <path d="m-75.342 109.93q-0.0754 0-0.13919-0.058-0.058-0.0638-0.058-0.1392t0.058-0.13339q0.058-0.058 0.13919-0.058 0.08119 0 0.13339 0.058 0.058 0.0522 0.058 0.13339 0 0.0812-0.058 0.1392t-0.13339 0.058zm-0.16819 0.82355h0.32478v2.9056h-0.32478z" style="font-variant-caps:normal;font-variant-east-asian:normal;font-variant-ligatures:normal;font-variant-numeric:normal"/>
     <path d="m-72.495 111.67q0-0.35377-0.20879-0.51036-0.20299-0.16239-0.52777-0.16239-0.19719 0-0.40018 0.058-0.20299 0.0522-0.35958 0.13919v2.4648h-0.32478v-2.9056h0.32478l-0.0232 0.19719q0.13919-0.12179 0.35378-0.17979 0.21459-0.0638 0.44657-0.0638 0.31898 0 0.54517 0.1044 0.23199 0.10439 0.35958 0.31318 0.13339 0.20878 0.13339 0.52777v2.0067h-0.31898z" style="font-variant-caps:normal;font-variant-east-asian:normal;font-variant-ligatures:normal;font-variant-numeric:normal"/>
     <path d="m-71.138 109.93q-0.0754 0-0.13919-0.058-0.058-0.0638-0.058-0.1392t0.058-0.13339q0.058-0.058 0.13919-0.058 0.08119 0 0.13339 0.058 0.058 0.0522 0.058 0.13339 0 0.0812-0.058 0.1392t-0.13339 0.058zm-0.16819 0.82355h0.32478v2.9056h-0.32478z" style="font-variant-caps:normal;font-variant-east-asian:normal;font-variant-ligatures:normal;font-variant-numeric:normal"/>
    </g>
   </a>
   <a transform="translate(485.08 403.62)" target="_self" xlink:href="file:///home/boro/Http/S3L/01.Pages/01.PrimoLuogo/incontri" xlink:title="Incontri">
    <g transform="matrix(10.345 0 0 10.345 877.03 -18.4)" style="font-variant-caps:normal;font-variant-east-asian:normal;font-variant-ligatures:normal;font-variant-numeric:normal;shape-inside:url(#rect1041-0-1);white-space:pre" aria-label="Incontri">
     <path d="m-86.768 109.9-0.38858-0.0116v-0.28418h0.71336v4.0598h-0.32478z" style="font-variant-caps:normal;font-variant-east-asian:normal;font-variant-ligatures:normal;font-variant-numeric:normal"/>
     <path d="m-83.816 111.67q0-0.35377-0.20879-0.51036-0.20299-0.16239-0.52777-0.16239-0.19719 0-0.40018 0.058-0.20299 0.0522-0.35958 0.13919v2.4648h-0.32478v-2.9056h0.32478l-0.0232 0.19719q0.13919-0.12179 0.35378-0.17979 0.21459-0.0638 0.44657-0.0638 0.31898 0 0.54517 0.1044 0.23199 0.10439 0.35958 0.31318 0.13339 0.20878 0.13339 0.52777v2.0067h-0.31898z" style="font-variant-caps:normal;font-variant-east-asian:normal;font-variant-ligatures:normal;font-variant-numeric:normal"/>
     <path d="m-81.032 113.63q-0.35958 0.0928-0.69596 0.0928-0.31318 0-0.52197-0.0696-0.34218-0.11599-0.49877-0.35378-0.15079-0.24358-0.15079-0.67855v-0.74236q0-0.57416 0.30158-0.86994 0.30158-0.30159 0.77715-0.30159 0.37698 0 0.77715 0.18559l-0.09279 0.23779q-0.33058-0.13339-0.63796-0.13339-0.35958 0-0.57996 0.20878-0.22039 0.20299-0.22039 0.63796v0.84095q0 0.40018 0.23779 0.57997 0.24358 0.17978 0.64376 0.17978 0.26098 0 0.59156-0.0754z" style="font-variant-caps:normal;font-variant-east-asian:normal;font-variant-ligatures:normal;font-variant-numeric:normal"/>
     <path d="m-78.271 112.6q0 0.48717-0.26678 0.80615-0.26678 0.31898-0.80615 0.31898-0.53937 0-0.81775-0.31898-0.27258-0.32478-0.27258-0.80615v-0.76556q0-0.55096 0.27838-0.84094 0.28418-0.29579 0.81195-0.29579 0.50457 0 0.78875 0.30739 0.28418 0.30158 0.28418 0.82934zm-0.32478-0.76556q0-0.43497-0.20299-0.63796-0.19719-0.20298-0.54517-0.20298-0.35958 0-0.56256 0.20298-0.20299 0.20299-0.20299 0.63796v0.82355q0 0.34798 0.20299 0.56257 0.20879 0.21459 0.56256 0.21459 0.35958 0 0.55097-0.20879 0.19719-0.21459 0.19719-0.56837z" style="font-variant-caps:normal;font-variant-east-asian:normal;font-variant-ligatures:normal;font-variant-numeric:normal"/>
     <path d="m-75.888 111.67q0-0.35377-0.20879-0.51036-0.20299-0.16239-0.52777-0.16239-0.19719 0-0.40018 0.058-0.20299 0.0522-0.35958 0.13919v2.4648h-0.32478v-2.9056h0.32478l-0.0232 0.19719q0.13919-0.12179 0.35378-0.17979 0.21459-0.0638 0.44657-0.0638 0.31898 0 0.54517 0.1044 0.23199 0.10439 0.35958 0.31318 0.13339 0.20878 0.13339 0.52777v2.0067h-0.31898z" style="font-variant-caps:normal;font-variant-east-asian:normal;font-variant-ligatures:normal;font-variant-numeric:normal"/>
     <path d="m-74.31 113.74q-0.32478-0.0928-0.46977-0.29579-0.14499-0.20298-0.14499-0.54516v-3.2942h0.32478v1.1541h0.69596l-0.13919 0.30738h-0.55676v1.8327q0 0.46397 0.38278 0.59156z" style="font-variant-caps:normal;font-variant-east-asian:normal;font-variant-ligatures:normal;font-variant-numeric:normal"/>
     <path d="m-73.417 110.76h0.32478l-0.0174 0.20299q0.27258-0.25519 0.71336-0.25519 0.15659 0 0.42917 0.0522l-0.08699 0.29578q-0.18559-0.058-0.38858-0.058-0.26678 0-0.45817 0.0986t-0.19139 0.29578v2.2735h-0.32478z" style="font-variant-caps:normal;font-variant-east-asian:normal;font-variant-ligatures:normal;font-variant-numeric:normal"/>
     <path d="m-71.341 109.93q-0.0754 0-0.13919-0.058-0.058-0.0638-0.058-0.1392t0.058-0.13339q0.058-0.058 0.13919-0.058 0.08119 0 0.13339 0.058 0.058 0.0522 0.058 0.13339 0 0.0812-0.058 0.1392t-0.13339 0.058zm-0.16819 0.82355h0.32478v2.9056h-0.32478z" style="font-variant-caps:normal;font-variant-east-asian:normal;font-variant-ligatures:normal;font-variant-numeric:normal"/>
    </g>
   </a>
   <g transform="matrix(.84275 0 0 .84275 437.85 248.93)">
    <path d="m-337.47 243.97h11.798v136.94h64.255v10.534h-76.053z" style="white-space:pre"/>
    <path d="m-172.3 391.44q-22.753 2.3174-32.865 2.3174-22.121 0-35.182-8.2162-13.062-8.2162-13.062-29.705v-17.486q0-20.857 14.536-28.02 6.9522-3.5814 17.697-3.5814 9.9016 0 20.014 3.3708 10.112 3.1601 17.065 8.4269 0-11.587-6.7415-18.329-6.7415-6.9522-25.913-6.9522l0.63202-9.0589q20.225 0 29.705 6.5309 9.691 6.3202 11.798 15.168 2.3174 8.8483 2.3174 22.753zm-11.798-63.834q-8.6376-4.0028-18.539-6.9522-9.691-2.9494-17.907-2.9494-21.278 0-21.278 21.278v18.329q0 13.694 9.4803 20.014 9.4803 6.1095 26.966 6.1095 9.0589 0 21.278-1.6854z" style="white-space:pre"/>
    <path d="m-22.274 353.94q0.63202 7.1629 5.2668 13.694 4.8455 6.5309 13.062 10.744 8.4269 4.0028 19.171 4.0028 16.222 0 26.966-7.1629 10.955-7.3736 10.955-23.174 0-9.2696-5.2668-15.379-5.2668-6.3202-13.062-9.9016-7.7949-3.7921-21.278-8.6376-14.536-5.0562-23.385-9.2696-8.6376-4.4241-14.747-11.798-5.8988-7.3736-5.8988-18.961 0-9.2696 5.2668-17.486 5.2668-8.4269 15.8-13.483 10.744-5.2668 26.334-5.2668 10.323 0 17.065 1.4747t13.694 4.8455l-3.5814 11.166q-12.008-6.1095-26.755-6.1095-16.222 0-25.913 6.7415-9.691 6.7415-9.691 18.75 0 7.5842 4.8455 12.851 4.8455 5.0562 11.798 8.2162 7.1629 3.1601 19.803 7.5842 15.379 5.2668 24.859 9.9016 9.4803 4.4241 16.011 12.851 6.7415 8.2162 6.7415 20.857 0 19.382-12.43 31.18-12.219 11.587-37.921 11.587-15.59 0-26.755-5.6882-10.955-5.8988-16.854-14.958-5.6882-9.2696-6.1095-19.171z" style="white-space:pre"/>
    <path d="m151.53 390.18q-13.062 3.3708-25.281 3.3708-11.376 0-18.961-2.5281-12.43-4.2135-18.118-12.851-5.4775-8.8483-5.4775-24.649v-26.966q0-20.857 10.955-31.601 10.955-10.955 28.23-10.955 13.694 0 28.23 6.7415l-3.3708 8.6376q-12.008-4.8455-23.174-4.8455-13.062 0-21.067 7.5842-8.0056 7.3736-8.0056 23.174v30.548q0 14.536 8.6376 21.067 8.8483 6.5309 23.385 6.5309 9.4803 0 21.489-2.7388z" style="white-space:pre"/>
    <path d="m232.22 380.7q-5.0562 6.3202-12.851 9.691-7.5842 3.3708-15.379 3.3708-39.607 0-39.607-38.553v-69.311h11.798v70.786q0 13.483 7.3736 20.014 7.5842 6.5309 20.435 6.5309 12.64 0 19.803-6.3202 7.3736-6.5309 7.3736-20.225v-70.786h11.798v105.55h-11.587z" style="white-space:pre"/>
    <path d="m345.98 352.68q0 17.697-9.691 29.284-9.691 11.587-29.284 11.587t-29.705-11.587q-9.9016-11.798-9.9016-29.284v-27.809q0-20.014 10.112-30.548 10.323-10.744 29.494-10.744 18.329 0 28.652 11.166 10.323 10.955 10.323 30.126zm-11.798-27.809q0-15.8-7.3736-23.174-7.1629-7.3736-19.803-7.3736-13.062 0-20.435 7.3736t-7.3736 23.174v29.916q0 12.64 7.3736 20.435 7.5842 7.7949 20.435 7.7949 13.062 0 20.014-7.5842 7.1629-7.7949 7.1629-20.646z" style="white-space:pre"/>
    <path d="m369.37 243.97h11.798v147.47h-11.798z" style="white-space:pre"/>
    <path d="m486.92 391.44q-22.753 2.3174-32.865 2.3174-22.121 0-35.182-8.2162-13.062-8.2162-13.062-29.705v-17.486q0-20.857 14.536-28.02 6.9522-3.5814 17.697-3.5814 9.9016 0 20.014 3.3708 10.112 3.1601 17.065 8.4269 0-11.587-6.7415-18.329-6.7415-6.9522-25.913-6.9522l0.63202-9.0589q20.225 0 29.705 6.5309 9.691 6.3202 11.798 15.168 2.3174 8.8483 2.3174 22.753zm-11.798-63.834q-8.6376-4.0028-18.539-6.9522-9.691-2.9494-17.907-2.9494-21.278 0-21.278 21.278v18.329q0 13.694 9.4803 20.014 9.4803 6.1095 26.966 6.1095 9.0589 0 21.278-1.6854z" style="white-space:pre"/>
    <g transform="matrix(4.389 0 0 4.389 711.03 611.17)" style="shape-inside:url(#rect1547-3);white-space:pre" aria-label="del Terzo Luogo">
     <path d="m-248.63-19.265q0-5.04 4.08-6.912 1.968-0.912 4.704-0.912 1.776 0 3.408 0.432 1.68 0.432 2.832 1.248v-10.848h2.688v33.6l-2.64 0.24q-3.12 0.336-4.896 0.336t-3.36-0.336q-1.536-0.336-3.072-1.104-1.728-0.864-2.736-2.544t-1.008-4.128zm15.024-3.792q-1.296-0.72-2.976-1.152-1.68-0.48-3.312-0.48-2.688 0-4.416 1.344-1.68 1.296-1.68 4.224v8.976q0 5.616 7.728 5.616 1.824 0 4.656-0.432z"/>
     <path d="m-211.57-4.3367q-1.728 1.104-3.936 1.68t-4.416 0.576q-3.552 0-5.664-1.728-2.064-1.776-2.064-5.28v-9.84q0-3.888 2.4-6.048 2.448-2.16 6.432-2.16t6.192 2.16q2.256 2.112 2.256 5.904v6.24l-14.592 0.816v2.928q0 2.304 1.488 3.456t3.888 1.152q3.36 0 6.96-1.92zm-1.488-15.072q0-2.976-1.872-4.176-1.872-1.248-3.936-1.248-2.64 0-4.368 1.44t-1.728 4.512v4.224l11.904-0.576z"/>
     <path d="m-204.76-36.257h2.688v33.6h-2.688z"/>
     <path d="m-163.21-33.857h-8.16v-2.4h19.296v2.4h-8.448v31.2h-2.688z"/>
     <path d="m-138.63-4.3367q-1.728 1.104-3.936 1.68t-4.416 0.576q-3.552 0-5.664-1.728-2.064-1.776-2.064-5.28v-9.84q0-3.888 2.4-6.048 2.448-2.16 6.432-2.16t6.192 2.16q2.256 2.112 2.256 5.904v6.24l-14.592 0.816v2.928q0 2.304 1.488 3.456t3.888 1.152q3.36 0 6.96-1.92zm-1.488-15.072q0-2.976-1.872-4.176-1.872-1.248-3.936-1.248-2.64 0-4.368 1.44t-1.728 4.512v4.224l11.904-0.576z"/>
     <path d="m-132.63-26.705h2.688l-0.144 1.68q2.256-2.112 5.904-2.112 1.296 0 3.552 0.432l-0.72 2.448q-1.536-0.48-3.216-0.48-2.208 0-3.792 0.816t-1.584 2.448v18.816h-2.688z"/>
     <path d="m-115.83-5.0567 13.2-19.2h-12.768v-2.448h16.176v2.4l-13.296 19.2h14.304v2.448h-17.616z"/>
     <path d="m-76.519-11.489q0 4.032-2.208 6.672t-6.672 2.64q-4.464 0-6.768-2.64-2.256-2.688-2.256-6.672v-6.336q0-4.56 2.304-6.96 2.352-2.448 6.72-2.448 4.176 0 6.528 2.544 2.352 2.496 2.352 6.864zm-2.688-6.336q0-3.6-1.68-5.28-1.632-1.68-4.512-1.68-2.976 0-4.656 1.68t-1.68 5.28v6.816q0 2.88 1.68 4.656 1.728 1.776 4.656 1.776 2.976 0 4.56-1.728 1.632-1.776 1.632-4.704z"/>
     <path d="m-57.847-36.257h2.688v31.2h14.64v2.4h-17.328z"/>
     <path d="m-23.287-5.1047q-1.152 1.44-2.928 2.208-1.728 0.768-3.504 0.768-9.024 0-9.024-8.784v-15.792h2.688v16.128q0 3.072 1.68 4.56 1.728 1.488 4.656 1.488 2.88 0 4.512-1.44 1.68-1.488 1.68-4.608v-16.128h2.688v24.048h-2.64z"/>
     <path d="m2.6325-11.489q0 4.032-2.208 6.672-2.208 2.64-6.672 2.64-4.464 0-6.768-2.64-2.256-2.688-2.256-6.672v-6.336q0-4.56 2.304-6.96 2.352-2.448 6.72-2.448 4.176 0 6.528 2.544 2.352 2.496 2.352 6.864zm-2.688-6.336q0-3.6-1.68-5.28-1.632-1.68-4.512-1.68-2.976 0-4.656 1.68-1.68 1.68-1.68 5.28v6.816q0 2.88 1.68 4.656 1.728 1.776 4.656 1.776 2.976 0 4.56-1.728 1.632-1.776 1.632-4.704z"/>
     <path d="m17.56 5.3593q3.168-1.2 3.168-4.992v-5.952q-2.016 3.504-6.48 3.504-4.224 0-6.576-2.304t-2.352-6.72v-7.152q0-4.224 2.448-6.528 2.496-2.352 6.672-2.352 4.464 0 6.48 3.216l-0.192-2.784h2.688v27.12q0 2.88-1.2 4.512-1.2 1.632-3.936 2.496zm3.168-24.144q0-2.976-1.92-4.416-1.92-1.488-4.56-1.488-2.544 0-4.416 1.584-1.824 1.536-1.824 5.088v7.344q0 3.024 1.68 4.56 1.728 1.536 4.56 1.536 2.688 0 4.56-1.632 1.92-1.68 1.92-4.752z"/>
     <path d="m45.928-11.489q0 4.032-2.208 6.672t-6.672 2.64-6.768-2.64q-2.256-2.688-2.256-6.672v-6.336q0-4.56 2.304-6.96 2.352-2.448 6.72-2.448 4.176 0 6.528 2.544 2.352 2.496 2.352 6.864zm-2.688-6.336q0-3.6-1.68-5.28-1.632-1.68-4.512-1.68-2.976 0-4.656 1.68t-1.68 5.28v6.816q0 2.88 1.68 4.656 1.728 1.776 4.656 1.776 2.976 0 4.56-1.728 1.632-1.776 1.632-4.704z"/>
    </g>
   </g>
   <path d="m332.96 600.92c-19.405-0.44768-68.259 2.233-94.52 0.48186-17.824 1.8285-10.418-18.208 3.4263-9.534 25.583 3.2516 51.386-2.1254 77.06 0.83041 27.125 1.2674 7.8221-31.196 12.873-47.216-0.40538-32.757-3.4939-65.636-0.91454-98.33-3.8669-20.98-33.262-1.9317-47.805-14.01-18.073-5.0826-42.364-26.019-29.371-45.893 22.684-1.8664 48.428 10.234 66.199 25.487 18.292 15.008 7.6032-19.042 8.9935-28.776 7.6176-23.436 18.385-52.854 42.872-63.042 10.549-8.2961 33.711-9.1039 22.554 10.028-6.0373 28.076-32.702 43.871-55.076 58.09-9.6137 20.279-2.9602 41.358-3.1192 69.46-2.8291 13.671-3.8569 31.068 6.5466 19.563 14.836-14.124 39.546-40.165 61.112-40.599 16.414 14.883-10.31 42.996-26.034 51.081-12.363 15.638-51.427-0.38824-39.521 29.965 3.1517 21.104-9.0316 58.868 7.486 71.768 23.103 3.1464 48.2-0.70043 71.44 0.67882 20.714 1.039 41.301-1.2224 17.468 10.084-23.377-1.2677-53.356-1.4516-81.814-0.0652-15.862-0.048-13.669-3.3017-13.764 23.854-5.8684 8.9682 0.0768-16.639-6.0891-23.907zm23.347-108.96c17.591-5.8161 52.062-25.039 45.649-46.496-19.624-3.0027-40.756 20.865-54.095 33.214-12.3 10.5-7.0523 18.461 8.4455 13.282zm-28.076-59.827c-7.9869-22.736-51.069-41.672-72.809-39.926 0.32562 25.113 21.506 40.459 42.327 40.618l25.028-0.69714zm11.074-50.126c20.362-7.6326 43.265-29.643 48.448-51.164-16.156-14.099-41.405 15.061-46.96 32.432-1.0386 4.1406-13.767 25.211-1.4873 18.732z" style="fill:#272727;stroke-width:.6096"/>
  </g>
 </g>
</svg>
