<?xml version="1.0" encoding="UTF-8" standalone="no"?>
<svg
   xmlns:dc="http://purl.org/dc/elements/1.1/"
   xmlns:cc="http://creativecommons.org/ns#"
   xmlns:rdf="http://www.w3.org/1999/02/22-rdf-syntax-ns#"
   xmlns:svg="http://www.w3.org/2000/svg"
   xmlns="http://www.w3.org/2000/svg"
   xmlns:sodipodi="http://sodipodi.sourceforge.net/DTD/sodipodi-0.dtd"
   xmlns:inkscape="http://www.inkscape.org/namespaces/inkscape"
   version="1.1"
   id="svg917"
   width="1501.8081"
   height="3018.4746"
   viewBox="0 0 1501.8081 3018.4745"
   sodipodi:docname="logoCasa.svg"
   inkscape:version="1.0.1 (3bc2e813f5, 2020-09-07)">
  <metadata
     id="metadata923">
    <rdf:RDF>
      <cc:Work
         rdf:about="">
        <dc:format>image/svg+xml</dc:format>
        <dc:type
           rdf:resource="http://purl.org/dc/dcmitype/StillImage" />
        <dc:title></dc:title>
      </cc:Work>
    </rdf:RDF>
  </metadata>
  <defs
     id="defs921">
    <rect
       x="-251.29166"
       y="-47.330284"
       width="1624.4231"
       height="806.34637"
       id="rect1547" />
    <rect
       x="-251.29166"
       y="-47.330284"
       width="1624.4231"
       height="806.34637"
       id="rect1547-3" />
    <rect
       x="-251.29166"
       y="-47.330284"
       width="1624.4231"
       height="806.34637"
       id="rect1568" />
  </defs>
  <sodipodi:namedview
     pagecolor="#ffffff"
     bordercolor="#666666"
     borderopacity="1"
     objecttolerance="10"
     gridtolerance="10"
     guidetolerance="10"
     inkscape:pageopacity="0"
     inkscape:pageshadow="2"
     inkscape:window-width="1920"
     inkscape:window-height="1024"
     id="namedview919"
     showgrid="false"
     inkscape:zoom="0.24961048"
     inkscape:cx="959.3706"
     inkscape:cy="1393.6952"
     inkscape:window-x="0"
     inkscape:window-y="0"
     inkscape:window-maximized="1"
     inkscape:current-layer="g2451"
     inkscape:document-rotation="0" />
  <g
     inkscape:groupmode="layer"
     inkscape:label="Image"
     id="g925"
     transform="translate(174.89169,85.240582)">
    <g
       id="g929">
      <g
         id="g2460"
         transform="translate(434.88478,141.70011)">
        <path
           id="path931"
           style="fill:#272727;stroke-width:1.45452"
           d="m -163.24551,1127.5235 c -8.33004,-31.2787 12.07035,-118.7493 -47.45895,-81.5817 -37.49622,-10.4998 42.65083,-38.4307 -4.01262,-48.0407 -29.81986,-3.6972 -43.31657,-74.70156 -9.81266,-28.15387 33.50819,48.87007 103.69367,32.11097 125.654025,-16.74474 6.08401,-55.37421 -10.009375,-111.32206 -0.89101,-167.21934 5.09615,-28.41935 -0.347575,-82.69458 -33.729995,-45.36458 -49.20389,7.49112 -79.31974,39.74231 -84.95706,87.50294 -19.58845,3.7801 2.76612,-52.95534 -36.08964,-29.23654 -51.55692,15.13496 -14.30622,-27.47146 14.81353,-28.73361 31.21641,-9.15735 60.36572,-35.48866 24.74503,-59.54715 1.21844,-44.24818 44.96542,43.25219 74.63422,7.84649 53.765803,-22.98383 32.77871,-86.19724 41.261615,-131.80025 -0.77062,-41.04525 28.348707,-130.93859 -35.066845,-131.19811 -62.50447,0.54915 -128.09887,4.5149 -190.7576,0.33649 -42.52801,4.3628 -24.85839,-43.44593 8.17517,-22.74848 61.04087,7.75838 122.60947,-5.07117 183.86873,1.98139 64.720351,3.02416 18.66386,-74.43361 30.71439,-112.65785 -0.96724,-78.16039 -8.33661,-156.60956 -2.18211,-234.617695 -9.22659,-50.05846 -79.36487,-4.609064 -114.06488,-33.427945 -43.12355,-12.127301 -101.08273,-62.0830262 -70.08084,-109.501192 54.12508,-4.453346 115.55127,24.418828 157.95289,60.8128938 43.646275,35.8094432 15.5902,-54.9429598 18.90752,-78.1681428 18.175825,-55.919569 46.419356,-116.604899 104.8441458,-140.912409 25.1711532,-19.7948 80.4365482,-21.72228 53.8136282,23.92664 -14.405096,66.99082 -78.027542,104.677329 -131.413804,138.605714 -22.93857,48.3852238 4.606196,111.05094 -7.442435,165.733756 -6.75028,32.62049 8.328314,48.73363 33.151591,21.28216 C -23.270104,102.19701 18.156935,65.457735 69.613639,64.422942 108.77812,99.934145 45.014356,167.01316 7.4947275,186.30392 c -29.4973555,37.3129 -123.7587775,8.98704 -95.3505645,81.41002 7.519974,50.35576 -16.664023,129.73124 22.747689,160.50961 55.1235128,7.5075 111.174543,-0.85442 166.624298,2.43651 26.35705,-9.25368 111.05177,1.13792 54.18559,28.11636 -55.778964,-3.02476 -111.512396,-6.51585 -167.709832,-6.85337 -39.608117,-4.36579 -87.981563,-0.66731 -68.177217,51.0138 4.707947,60.1312 -13.578256,118.79894 -6.927613,179.04721 5.31108,47.6965 -14.916708,111.19839 31.478584,143.95825 25.726549,52.94664 64.2441521,-27.29506 89.64443,-4.28089 -24.0972123,20.48803 -32.0355697,46.22631 5.735118,43.8836 31.564386,12.30904 26.09295,46.74005 -7.647004,27.51685 -33.2269992,1.72904 20.38529,107.35553 -15.002343,55.50127 1.289721,-57.49486 -51.657764,-84.90282 -90.402706,-113.75616 -34.627947,31.43186 11.51607,94.24508 -4.773716,134.58288 -26.623791,43.13334 -104.427191,52.04854 -74.586581,118.65394 0.23077,12.1156 6.30109,35.7846 -10.57837,39.4797 z M -43.678688,194.44614 C -1.7069092,180.56874 68.630205,144.69317 53.329655,93.497685 6.5053753,86.333062 -32.003687,133.29103 -63.829869,162.75465 c -29.348646,25.0533 -16.827035,44.04925 20.151181,31.69149 z M -130.58648,45.390077 c -19.05691,-54.2499782 -91.52301,-81.01132 -143.39401,-76.845523 0.77693,59.920261 74.77126,78.838292 124.4505,79.215742 l 9.57976,-0.656672 z m 51.409358,-124.778428 c 48.584908,-18.21172 98.160003,-59.246029 110.526298,-110.597559 -38.5481442,-33.64138 -98.793773,35.93694 -112.048571,77.38414 -2.4782,9.8796 -27.778065,48.671962 1.522273,33.213419 z" />
        <g
           id="g2451">
          <text
             xml:space="preserve"
             id="text1545"
             style="font-style:normal;font-weight:normal;font-size:48px;line-height:1.25;font-family:sans-serif;white-space:pre;shape-inside:url(#rect1547);fill:#000000;fill-opacity:1;stroke:none;"
             transform="matrix(4.3890191,0,0,4.3890191,784.61554,412.59656)"><tspan
               x="-251.29102"
               y="-2.6567113"><tspan
                 style="font-style:normal;font-variant:normal;font-weight:normal;font-stretch:normal;font-family:'Advent Pro';-inkscape-font-specification:'Advent Pro'">La Scuola </tspan></tspan></text>
          <text
             xml:space="preserve"
             id="text1545-6"
             style="font-style:normal;font-weight:normal;font-size:48px;line-height:1.25;font-family:sans-serif;white-space:pre;shape-inside:url(#rect1547-3);fill:#000000;fill-opacity:1;stroke:none;"
             transform="matrix(4.3890191,0,0,4.3890191,745.0342,649.17239)"><tspan
               x="-251.29102"
               y="-2.6567113"><tspan
                 style="font-style:normal;font-variant:normal;font-weight:normal;font-stretch:normal;font-family:'Advent Pro';-inkscape-font-specification:'Advent Pro'">del Terzo Luogo</tspan></tspan></text>
          <path
             style="fill:#000000;stroke-width:2.97597"
             d="m -281.71703,2790.2513 c -3.57384,-5.7826 13.91295,-19.3617 44.81215,-34.7977 17.11629,-8.5506 31.91579,-16.8336 32.88804,-18.4067 0.97224,-1.5731 14.75069,-12.0762 30.61856,-23.3402 33.86296,-24.0381 47.32357,-36.075 59.00068,-52.7601 4.69578,-6.7093 16.721387,-22.9063 26.723918,-35.9935 26.755158,-35.006 32.893393,-46.098 81.202607,-146.734 5.107359,-10.6391 15.283688,-30.0573 22.614096,-43.1516 7.330706,-13.0943 13.345141,-25.6142 13.365973,-27.822 0.02976,-2.2076 2.241203,-8.6577 4.934455,-14.3335 4.556805,-9.6029 4.546091,-11.5807 -0.151774,-28.4815 -7.665205,-27.57 -21.961169,-55.1477 -40.132142,-77.4175 -9.015105,-11.0483 -17.194558,-20.0878 -18.177223,-20.0878 -4.597278,0 -54.626602,-51.7509 -71.157221,-73.6058 -10.193009,-13.4764 -19.780389,-25.2732 -21.304679,-26.2153 -4.71781,-2.9159 -3.05602,-7.3138 2.76348,-7.3138 3.04442,0 7.69497,3.0132 10.33495,6.6959 2.63969,3.6828 11.076572,15.4007 18.748622,26.0398 7.67205,10.6391 31.478914,36.8532 52.904408,58.2537 21.425792,21.4005 42.9733,44.7999 47.88365,51.9985 9.23622,13.541 21.130278,39.3382 25.31836,54.9141 12.091067,44.9657 15.572357,56.0417 22.915859,72.9113 4.631502,10.639 14.818248,30.9753 22.637308,45.1918 14.958123,27.1959 23.812223,54.5189 27.306613,84.2628 3.86042,32.8625 13.29663,44.7205 41.69244,52.3929 13.12998,3.5476 22.31977,10.3477 22.31977,16.5157 0,4.4741 -13.56179,5.5672 -16.19582,1.3053 -0.9169,-1.4835 -7.66074,-4.7396 -14.98609,-7.2358 -31.39291,-10.6965 -39.62772,-24.0976 -46.01415,-74.8819 -3.104533,-24.686 -9.601673,-42.8784 -27.101859,-75.8873 -13.885577,-26.1915 -23.668779,-47.6399 -23.668779,-51.8922 0,-1.9323 -1.843911,-6.0353 -4.097613,-9.1175 -3.797337,-5.1931 -4.751433,-4.3074 -13.009749,12.0791 -4.901422,9.7255 -13.711483,25.5404 -19.577714,35.1439 -5.865934,9.6034 -14.827472,27.6824 -19.913999,40.1755 -18.072171,44.3857 -39.442907,83.0204 -67.711048,122.4097 -12.333609,17.1862 -23.558967,31.6941 -24.94459,32.2396 -1.385909,0.5458 -2.519749,2.7662 -2.519749,4.9344 0,7.1534 -30.73284,36.0381 -62.71916,58.9483 -17.30943,12.3976 -33.30259,24.7476 -35.54052,27.4438 -2.23763,2.6966 -13.52012,9.6228 -25.07165,15.3921 -11.55182,5.7692 -25.67756,14.026 -31.39082,18.3486 -15.5057,11.7316 -23.41999,15.4042 -25.5987,11.8789 z m 80.84132,-504.4938 c -1.27014,-3.3096 1.02582,-7.6569 6.85604,-12.9818 9.16123,-8.3676 9.0038,-7.6926 13.87397,-59.4179 2.51916,-26.7543 7.14411,-34.8227 36.18154,-63.1221 13.92189,-13.5681 27.78514,-27.1891 30.80694,-30.2692 16.857988,-17.1827 29.37194,-66.4811 29.552284,-116.4205 0.08928,-24.9669 10.400419,-76.4313 18.982223,-94.7519 16.958266,-36.2027 17.71684,-38.9826 18.808724,-68.9205 0.596979,-16.3679 -0.409196,-48.958 -2.235846,-72.4223 -3.808349,-48.9143 -2.399227,-62.9843 6.307865,-62.9843 6.478983,0 7.477719,3.1009 2.577487,8.0011 -2.335838,2.3359 -2.17335,22.0618 0.581207,70.6877 3.966968,70.0207 2.822707,87.0152 -7.371477,109.4752 -23.074181,50.8382 -25.958491,64.1294 -31.495282,145.1446 -4.195225,61.3844 -8.474372,70.3712 -56.574085,118.8158 -13.97188,14.0722 -26.98907,27.6099 -28.92702,30.0841 -1.93766,2.4745 -5.0773,21.8776 -6.97657,43.1183 -2.20221,24.6297 -4.96838,40.3214 -7.63634,43.3179 -2.30072,2.584 -4.18332,6.2194 -4.18332,8.0791 0,3.4414 -9.18443,9.5422 -14.36589,9.5422 -1.56923,0 -3.71223,-2.2391 -4.76245,-4.9755 z m 370.29278,-429.8372 c -5.72874,-3.4378 -14.02307,-10.1287 -18.43197,-14.8685 -7.58098,-8.1503 -9.35823,-8.6238 -32.73566,-8.7226 -26.217703,-0.1101 -55.603024,-5.2026 -67.794976,-11.7471 -16.937137,-9.0912 -33.125519,-28.3059 -45.010054,-53.4243 -28.12827,-59.4503 -30.082589,-61.704 -70.423644,-81.2213 -32.224395,-15.5902 -45.831726,-26.4981 -58.918856,-47.2296 -7.07209,-11.2027 -7.98214,-15.5735 -7.94762,-38.173 0.0298,-14.0368 2.19418,-33.5032 4.82821,-43.2587 7.17715,-26.5793 5.89599,-61.2699 -2.2534,-61.0246 -1.85522,0.056 -14.08646,10.2974 -27.18072,22.7587 -38.55012,36.6868 -73.04488,63.5569 -98.84475,76.9958 -1.98736,1.035 -16.71841,9.1228 -32.73537,17.9724 -16.01667,8.8497 -32.18809,16.0902 -35.93632,16.0902 -3.74824,0 -12.06488,-2.6784 -18.48167,-5.9519 -21.14962,-10.7897 -35.93692,-6.5835 -58.03141,16.5077 -16.01667,16.7389 -41.37193,33.26 -54.43167,35.4664 -6.89027,1.1642 -12.52765,3.606 -12.52765,5.4261 0,2.2834 -1.10706,2.2025 -3.57116,-0.2619 -5.52548,-5.5255 -12.73715,-4.4101 -46.20877,7.1474 -34.20907,11.8122 -42.79921,11.9443 -72.4241,1.1163 -17.75046,-6.4882 -22.21799,-9.8541 -19.31493,-14.5516 2.82152,-4.5649 9.34841,-4.0232 20.3961,1.6924 5.23801,2.7102 15.85508,6.5986 23.59319,8.641 14.90723,3.9346 33.78649,0.5949 77.93351,-13.7862 9.68172,-3.1539 20.80351,-5.7344 24.71483,-5.7344 12.04911,0 32.40385,-11.15 50.50489,-27.6664 29.44126,-26.8634 32.90886,-28.8782 49.68083,-28.8657 9.95879,0 18.59148,2.0654 24.96631,5.952 5.35912,3.2673 11.39112,5.9406 13.40436,5.9406 12.82137,0 92.17322,-47.3736 121.18625,-72.3488 52.34343,-45.0592 101.40051,-97.0142 104.828835,-111.0221 0.848151,-3.4652 0.391638,-13.5091 -1.01452,-22.3198 -7.309575,-45.8005 -5.176105,-159.4346 3.737235,-199.0412 5.38591,-23.9324 2.890857,-163.5473 -3.050964,-170.7063 -3.017046,-3.6355 -2.698916,-6.0287 1.691243,-12.7268 1.565553,-59.79269 -26.887909,-456.45792 19.288453,6.1314 1.446321,5.3187 1.132059,10.1814 -0.809166,12.5202 -1.875754,2.2603 -2.821517,14.5257 -2.312626,29.9916 0.473477,14.3917 0.565137,40.663 0.202366,58.3799 -0.719887,35.2625 2.535824,52.6737 11.392309,60.9249 3.170599,2.9539 15.508076,7.8714 27.416419,10.928 12.429732,3.1906 29.670715,10.5897 40.48033005,17.3725 17.27044495,10.8376 35.92292995,16.7738 67.47416095,21.474 21.593632,3.2171 33.583525,7.9929 67.436365,26.8617 l 36.01846,20.0762 26.75248,-0.4851 c 14.71349,-0.2678 27.81579,-1.1424 29.11569,-1.9459 5.15022,-3.1831 80.37202,-1.8398 90.8635,1.6228 8.558,2.8242 11.40124,2.8215 13.15319,0 3.34321,-5.4095 13.4255,-2.3088 13.4255,4.1288 0,3.0745 -3.73098,8.3756 -8.29106,11.7801 -6.7742,5.0577 -9.22461,5.5317 -13.39186,2.5912 -18.13913,-12.7997 -19.88156,-13.0687 -61.0422,-9.4181 -21.60911,1.9165 -52.01191,3.5492 -67.56135,3.6277 l -28.27172,0.1429 -32.23332,-19.6007 c -32.51187,-19.7702 -48.458903,-25.2308 -89.781433,-30.7426 -18.539993,-2.473 -30.341796,-7.2233 -47.817286,-19.2465 -8.480025,-5.8344 -24.008337,-12.0798 -40.952318,-16.4705 -15.011387,-3.8899 -30.204902,-7.9 -33.763567,-8.9115 -5.805522,-1.6502 -6.72212,-0.3572 -8.919576,12.5847 -3.285173,19.3483 -3.144112,159.9394 0.190462,190.7204 2.61052,24.0884 2.506064,24.7461 -5.904027,37.1996 -4.708591,6.9727 -11.528325,15.5641 -15.154245,19.0918 -6.21442,6.0454 -6.49624,8.1818 -4.90708,37.1996 1.3874,25.338 0.55562,35.4991 -4.70143,57.4246 -8.24612,34.3921 -5.35347,52.2167 12.19433,75.1403 12.794599,16.7139 20.871976,22.3766 50.311756,35.2726 32.337185,14.1654 42.584043,24.5122 59.813717,60.3985 19.44707,40.5051 28.679123,53.8948 44.276478,64.2167 17.832308,11.8009 26.506962,13.9332 66.086759,16.2446 l 35.04324,2.0466 12.46128,12.8386 c 12.10594,12.4723 12.86779,12.7848 26.70813,10.9489 15.36642,-2.0385 16.76304,-0.6502 9.61417,9.5568 -5.79868,8.2785 -14.69623,8.3865 -28.10298,0.341 z"
             id="path1014"
             sodipodi:nodetypes="cssssssscscssssssssscsssssscsssssscsssssssccssssscsscsscssssssssscscssssccssssssssscsssssssscsscssscccsscsscssccsscssssscsssssscscssssssscssscc" />
        </g>
      </g>
    </g>
  </g>
</svg>
