<?xml version="1.0" encoding="UTF-8" standalone="no"?>
<svg
   xmlns:dc="http://purl.org/dc/elements/1.1/"
   xmlns:cc="http://creativecommons.org/ns#"
   xmlns:rdf="http://www.w3.org/1999/02/22-rdf-syntax-ns#"
   xmlns:svg="http://www.w3.org/2000/svg"
   xmlns="http://www.w3.org/2000/svg"
   xmlns:sodipodi="http://sodipodi.sourceforge.net/DTD/sodipodi-0.dtd"
   xmlns:inkscape="http://www.inkscape.org/namespaces/inkscape"
   version="1.1"
   id="svg917"
   width="1663.8081"
   height="2803.1702"
   viewBox="0 0 1663.8081 2803.1701"
   sodipodi:docname="logoCasa.svg"
   inkscape:version="1.0.1 (3bc2e813f5, 2020-09-07)">
  <metadata
     id="metadata923">
    <rdf:RDF>
      <cc:Work
         rdf:about="">
        <dc:format>image/svg+xml</dc:format>
        <dc:type
           rdf:resource="http://purl.org/dc/dcmitype/StillImage" />
        <dc:title />
      </cc:Work>
    </rdf:RDF>
  </metadata>
  <defs
     id="defs921">
    <rect
       x="-251.29166"
       y="-47.330284"
       width="1624.4231"
       height="806.34637"
       id="rect1547" />
    <rect
       x="-251.29166"
       y="-47.330284"
       width="1624.4231"
       height="806.34637"
       id="rect1547-3" />
    <rect
       x="-251.29166"
       y="-47.330284"
       width="1624.4231"
       height="806.34637"
       id="rect1568" />
    <rect
       x="-251.29166"
       y="-47.330284"
       width="1624.4231"
       height="806.34637"
       id="rect1547-36" />
    <rect
       x="-251.29166"
       y="-47.330284"
       width="1624.4231"
       height="806.34637"
       id="rect857" />
    <rect
       x="-251.29166"
       y="-47.330284"
       width="1624.4231"
       height="806.34637"
       id="rect1547-3-7" />
    <rect
       x="-251.29166"
       y="-47.330284"
       width="1624.4231"
       height="806.34637"
       id="rect860" />
  </defs>
  <sodipodi:namedview
     pagecolor="#ffffff"
     bordercolor="#666666"
     borderopacity="1"
     objecttolerance="10"
     gridtolerance="10"
     guidetolerance="10"
     inkscape:pageopacity="0"
     inkscape:pageshadow="2"
     inkscape:window-width="1920"
     inkscape:window-height="1024"
     id="namedview919"
     showgrid="false"
     inkscape:zoom="0.24961048"
     inkscape:cx="1085.3144"
     inkscape:cy="1636.955"
     inkscape:window-x="0"
     inkscape:window-y="0"
     inkscape:window-maximized="1"
     inkscape:current-layer="g2451"
     inkscape:document-rotation="0" />
  <g
     inkscape:groupmode="layer"
     inkscape:label="Image"
     id="g925"
     transform="translate(336.89169,85.240582)">
    <g
       id="g929">
      <g
         id="g2460"
         transform="translate(434.88478,141.70011)">
        <path
           id="path931"
           style="fill:#272727;stroke-width:1.45452"
           d="m -163.24551,1127.5235 c -8.33004,-31.2787 12.07035,-118.7493 -47.45895,-81.5817 -37.49622,-10.4998 42.65083,-38.4307 -4.01262,-48.0407 -29.81986,-3.6972 -43.31657,-74.70156 -9.81266,-28.15387 33.50819,48.87007 103.69367,32.11097 125.654025,-16.74474 6.08401,-55.37421 -10.009375,-111.32206 -0.89101,-167.21934 5.09615,-28.41935 -0.347575,-82.69458 -33.729995,-45.36458 -49.20389,7.49112 -79.31974,39.74231 -84.95706,87.50294 -19.58845,3.7801 2.76612,-52.95534 -36.08964,-29.23654 -51.55692,15.13496 -14.30622,-27.47146 14.81353,-28.73361 31.21641,-9.15735 60.36572,-35.48866 24.74503,-59.54715 1.21844,-44.24818 44.96542,43.25219 74.63422,7.84649 53.765803,-22.98383 32.77871,-86.19724 41.261615,-131.80025 -0.77062,-41.04525 28.348707,-130.93859 -35.066845,-131.19811 -62.50447,0.54915 -128.09887,4.5149 -190.7576,0.33649 -42.52801,4.3628 -24.85839,-43.44593 8.17517,-22.74848 61.04087,7.75838 122.60947,-5.07117 183.86873,1.98139 64.720351,3.02416 18.66386,-74.43361 30.71439,-112.65785 -0.96724,-78.16039 -8.33661,-156.60956 -2.18211,-234.617695 -9.22659,-50.05846 -79.36487,-4.609064 -114.06488,-33.427945 -43.12355,-12.127301 -101.08273,-62.0830262 -70.08084,-109.501192 54.12508,-4.453346 115.55127,24.418828 157.95289,60.8128938 43.646275,35.8094432 15.5902,-54.9429598 18.90752,-78.1681428 18.175825,-55.919569 46.419356,-116.604899 104.8441458,-140.912409 25.1711532,-19.7948 80.4365482,-21.72228 53.8136282,23.92664 -14.405096,66.99082 -78.027542,104.677329 -131.413804,138.605714 -22.93857,48.3852238 4.606196,111.05094 -7.442435,165.733756 -6.75028,32.62049 8.328314,48.73363 33.151591,21.28216 C -23.270104,102.19701 18.156935,65.457735 69.613639,64.422942 108.77812,99.934145 45.014356,167.01316 7.4947275,186.30392 c -29.4973555,37.3129 -123.7587775,8.98704 -95.3505645,81.41002 7.519974,50.35576 -16.664023,129.73124 22.747689,160.50961 55.1235128,7.5075 111.174543,-0.85442 166.624298,2.43651 26.35705,-9.25368 111.05177,1.13792 54.18559,28.11636 -55.778964,-3.02476 -111.512396,-6.51585 -167.709832,-6.85337 -39.608117,-4.36579 -87.981563,-0.66731 -68.177217,51.0138 4.707947,60.1312 -13.578256,118.79894 -6.927613,179.04721 5.31108,47.6965 -14.916708,111.19839 31.478584,143.95825 25.726549,52.94664 64.2441521,-27.29506 89.64443,-4.28089 -24.0972123,20.48803 -32.0355697,46.22631 5.735118,43.8836 31.564386,12.30904 26.09295,46.74005 -7.647004,27.51685 -33.2269992,1.72904 20.38529,107.35553 -15.002343,55.50127 1.289721,-57.49486 -51.657764,-84.90282 -90.402706,-113.75616 -34.627947,31.43186 11.51607,94.24508 -4.773716,134.58288 -26.623791,43.13334 -104.427191,52.04854 -74.586581,118.65394 0.23077,12.1156 6.30109,35.7846 -10.57837,39.4797 z M -43.678688,194.44614 C -1.7069092,180.56874 68.630205,144.69317 53.329655,93.497685 6.5053753,86.333062 -32.003687,133.29103 -63.829869,162.75465 c -29.348646,25.0533 -16.827035,44.04925 20.151181,31.69149 z M -130.58648,45.390077 c -19.05691,-54.2499782 -91.52301,-81.01132 -143.39401,-76.845523 0.77693,59.920261 74.77126,78.838292 124.4505,79.215742 l 9.57976,-0.656672 z m 51.409358,-124.778428 c 48.584908,-18.21172 98.160003,-59.246029 110.526298,-110.597559 -38.5481442,-33.64138 -98.793773,35.93694 -112.048571,77.38414 -2.4782,9.8796 -27.778065,48.671962 1.522273,33.213419 z" />
        <g
           id="g2451">
          <g
             aria-label="La Scuola "
             transform="matrix(4.3890191,0,0,4.3890191,784.61554,412.59656)"
             id="text1545"
             style="font-style:normal;font-weight:normal;font-size:48px;line-height:1.25;font-family:sans-serif;white-space:pre;shape-inside:url(#rect1547);fill:#000000;fill-opacity:1;stroke:none">
            <path
               d="m -247.54702,-36.256711 h 2.688 v 31.1999997 h 14.64 v 2.4 h -17.328 z"
               style="font-style:normal;font-variant:normal;font-weight:normal;font-stretch:normal;font-family:'Advent Pro';-inkscape-font-specification:'Advent Pro'"
               id="path896" />
            <path
               d="m -209.91508,-2.6567113 q -5.184,0.528 -7.488,0.528 -5.04,0 -8.016,-1.872 -2.976,-1.872 -2.976,-6.7679997 v -3.984 q 0,-4.752 3.312,-6.384 1.584,-0.816 4.032,-0.816 2.256,0 4.56,0.768 2.304,0.72 3.888,1.92 0,-2.64 -1.536,-4.176 -1.536,-1.584 -5.904,-1.584 l 0.144,-2.064 q 4.608,0 6.768,1.488 2.208,1.44 2.688,3.456 0.528,2.016 0.528,5.184 z m -2.688,-14.5439997 q -1.968,-0.912 -4.224,-1.584 -2.208,-0.672 -4.08,-0.672 -4.848,0 -4.848,4.848 v 4.176 q 0,3.1199997 2.16,4.5599997 2.16,1.392 6.144,1.392 2.064,0 4.848,-0.384 z"
               style="font-style:normal;font-variant:normal;font-weight:normal;font-stretch:normal;font-family:'Advent Pro';-inkscape-font-specification:'Advent Pro'"
               id="path898" />
            <path
               d="m -190.33117,-11.200711 q 0.144,1.6319997 1.2,3.1199997 1.104,1.488 2.976,2.448 1.92,0.912 4.368,0.912 3.696,0 6.144,-1.632 2.496,-1.68 2.496,-5.2799997 0,-2.112 -1.2,-3.504 -1.2,-1.44 -2.976,-2.256 -1.776,-0.864 -4.848,-1.968 -3.312,-1.152 -5.328,-2.112 -1.968,-1.008 -3.36,-2.688 -1.344,-1.68 -1.344,-4.32 0,-2.112 1.2,-3.984 1.2,-1.92 3.6,-3.072 2.448,-1.2 6,-1.2 2.352,0 3.888,0.336 1.536,0.336 3.12,1.104 l -0.816,2.544 q -2.736,-1.392 -6.096,-1.392 -3.696,0 -5.904,1.536 -2.208,1.536 -2.208,4.272 0,1.728 1.104,2.928 1.104,1.152 2.688,1.872 1.632,0.72 4.512,1.728 3.504,1.2 5.664,2.256 2.16,1.008 3.648,2.928 1.536,1.872 1.536,4.752 0,4.4159997 -2.832,7.1039997 -2.784,2.64 -8.64,2.64 -3.552,0 -6.096,-1.296 -2.496,-1.344 -3.84,-3.408 -1.296,-2.112 -1.392,-4.3679997 z"
               style="font-style:normal;font-variant:normal;font-weight:normal;font-stretch:normal;font-family:'Advent Pro';-inkscape-font-specification:'Advent Pro'"
               id="path900" />
            <path
               d="m -150.73122,-2.9447113 q -2.976,0.768 -5.76,0.768 -2.592,0 -4.32,-0.576 -2.832,-0.96 -4.128,-2.928 -1.248,-2.016 -1.248,-5.6159997 v -6.144 q 0,-4.752 2.496,-7.2 2.496,-2.496 6.432,-2.496 3.12,0 6.432,1.536 l -0.768,1.968 q -2.736,-1.104 -5.28,-1.104 -2.976,0 -4.8,1.728 -1.824,1.68 -1.824,5.28 v 6.96 q 0,3.3119997 1.968,4.7999997 2.016,1.488 5.328,1.488 2.16,0 4.896,-0.624 z"
               style="font-style:normal;font-variant:normal;font-weight:normal;font-stretch:normal;font-family:'Advent Pro';-inkscape-font-specification:'Advent Pro'"
               id="path902" />
            <path
               d="m -132.34725,-5.1047113 q -1.152,1.44 -2.928,2.208 -1.728,0.768 -3.504,0.768 -9.024,0 -9.024,-8.7839997 v -15.792 h 2.688 v 16.128 q 0,3.0719997 1.68,4.5599997 1.728,1.488 4.656,1.488 2.88,0 4.512,-1.44 1.68,-1.488 1.68,-4.6079997 v -16.128 h 2.688 v 24.0479997 h -2.64 z"
               style="font-style:normal;font-variant:normal;font-weight:normal;font-stretch:normal;font-family:'Advent Pro';-inkscape-font-specification:'Advent Pro'"
               id="path904" />
            <path
               d="m -106.42732,-11.488711 q 0,4.0319997 -2.208,6.6719997 -2.208,2.64 -6.672,2.64 -4.464,0 -6.768,-2.64 -2.256,-2.688 -2.256,-6.6719997 v -6.336 q 0,-4.56 2.304,-6.96 2.352,-2.448 6.72,-2.448 4.176,0 6.528,2.544 2.352,2.496 2.352,6.864 z m -2.688,-6.336 q 0,-3.6 -1.68,-5.28 -1.632,-1.68 -4.512,-1.68 -2.976,0 -4.656,1.68 -1.68,1.68 -1.68,5.28 v 6.816 q 0,2.8799997 1.68,4.6559997 1.728,1.776 4.656,1.776 2.976,0 4.56,-1.728 1.632,-1.776 1.632,-4.7039997 z"
               style="font-style:normal;font-variant:normal;font-weight:normal;font-stretch:normal;font-family:'Advent Pro';-inkscape-font-specification:'Advent Pro'"
               id="path906" />
            <path
               d="m -101.09935,-36.256711 h 2.687997 v 33.5999997 h -2.687997 z"
               style="font-style:normal;font-variant:normal;font-weight:normal;font-stretch:normal;font-family:'Advent Pro';-inkscape-font-specification:'Advent Pro'"
               id="path908" />
            <path
               d="m -74.315411,-2.6567113 q -5.184,0.528 -7.488,0.528 -5.04,0 -8.016,-1.872 -2.976,-1.872 -2.976,-6.7679997 v -3.984 q 0,-4.752 3.312,-6.384 1.584,-0.816 4.032,-0.816 2.256,0 4.56,0.768 2.304,0.72 3.888,1.92 0,-2.64 -1.536,-4.176 -1.536,-1.584 -5.904,-1.584 l 0.144,-2.064 q 4.608,0 6.768,1.488 2.208,1.44 2.688,3.456 0.528,2.016 0.528,5.184 z m -2.688,-14.5439997 q -1.968,-0.912 -4.224,-1.584 -2.208,-0.672 -4.08,-0.672 -4.848,0 -4.848,4.848 v 4.176 q 0,3.1199997 2.16,4.5599997 2.16,1.392 6.144,1.392 2.064,0 4.848,-0.384 z"
               style="font-style:normal;font-variant:normal;font-weight:normal;font-stretch:normal;font-family:'Advent Pro';-inkscape-font-specification:'Advent Pro'"
               id="path910" />
          </g>
          <g
             aria-label="del Terzo Luogo"
             transform="matrix(4.3890191,0,0,4.3890191,745.0342,649.17239)"
             id="text1545-6"
             style="font-style:normal;font-weight:normal;font-size:48px;line-height:1.25;font-family:sans-serif;white-space:pre;shape-inside:url(#rect1547-3);fill:#000000;fill-opacity:1;stroke:none">
            <path
               d="m -247.54702,-19.264711 q 0,-5.04 4.08,-6.912 1.968,-0.912 4.704,-0.912 1.776,0 3.408,0.432 1.68,0.432 2.832,1.248 v -10.848 h 2.688 v 33.5999997 l -2.64,0.24 q -3.12,0.336 -4.896,0.336 -1.776,0 -3.36,-0.336 -1.536,-0.336 -3.072,-1.104 -1.728,-0.864 -2.736,-2.544 -1.008,-1.68 -1.008,-4.1279997 z m 15.024,-3.792 q -1.296,-0.72 -2.976,-1.152 -1.68,-0.48 -3.312,-0.48 -2.688,0 -4.416,1.344 -1.68,1.296 -1.68,4.224 v 8.976 q 0,5.6159997 7.728,5.6159997 1.824,0 4.656,-0.432 z"
               style="font-style:normal;font-variant:normal;font-weight:normal;font-stretch:normal;font-family:'Advent Pro';-inkscape-font-specification:'Advent Pro'"
               id="path913" />
            <path
               d="m -210.49104,-4.3367113 q -1.728,1.104 -3.936,1.68 -2.208,0.576 -4.416,0.576 -3.552,0 -5.664,-1.728 -2.064,-1.776 -2.064,-5.28 v -9.8399997 q 0,-3.888 2.4,-6.048 2.448,-2.16 6.432,-2.16 3.984,0 6.192,2.16 2.256,2.112 2.256,5.904 v 6.24 l -14.592,0.816 v 2.9279997 q 0,2.304 1.488,3.456 1.488,1.152 3.888,1.152 3.36,0 6.96,-1.92 z m -1.488,-15.0719997 q 0,-2.976 -1.872,-4.176 -1.872,-1.248 -3.936,-1.248 -2.64,0 -4.368,1.44 -1.728,1.44 -1.728,4.512 v 4.224 l 11.904,-0.576 z"
               style="font-style:normal;font-variant:normal;font-weight:normal;font-stretch:normal;font-family:'Advent Pro';-inkscape-font-specification:'Advent Pro'"
               id="path915" />
            <path
               d="m -203.67513,-36.256711 h 2.688 v 33.5999997 h -2.688 z"
               style="font-style:normal;font-variant:normal;font-weight:normal;font-stretch:normal;font-family:'Advent Pro';-inkscape-font-specification:'Advent Pro'"
               id="path917" />
            <path
               d="m -175.64319,-33.856711 h -8.16 v -2.4 h 19.296 v 2.4 h -8.448 v 31.1999997 h -2.688 z"
               style="font-style:normal;font-variant:normal;font-weight:normal;font-stretch:normal;font-family:'Advent Pro';-inkscape-font-specification:'Advent Pro'"
               id="path919" />
            <path
               d="m -151.06727,-4.3367113 q -1.728,1.104 -3.936,1.68 -2.208,0.576 -4.416,0.576 -3.552,0 -5.664,-1.728 -2.064,-1.776 -2.064,-5.28 v -9.8399997 q 0,-3.888 2.4,-6.048 2.448,-2.16 6.432,-2.16 3.984,0 6.192,2.16 2.256,2.112 2.256,5.904 v 6.24 l -14.592,0.816 v 2.9279997 q 0,2.304 1.488,3.456 1.488,1.152 3.888,1.152 3.36,0 6.96,-1.92 z m -1.488,-15.0719997 q 0,-2.976 -1.872,-4.176 -1.872,-1.248 -3.936,-1.248 -2.64,0 -4.368,1.44 -1.728,1.44 -1.728,4.512 v 4.224 l 11.904,-0.576 z"
               style="font-style:normal;font-variant:normal;font-weight:normal;font-stretch:normal;font-family:'Advent Pro';-inkscape-font-specification:'Advent Pro'"
               id="path921" />
            <path
               d="m -145.06736,-26.704711 h 2.688 l -0.144,1.68 q 2.256,-2.112 5.904,-2.112 1.296,0 3.552,0.432 l -0.72,2.448 q -1.536,-0.48 -3.216,-0.48 -2.208,0 -3.792,0.816 -1.584,0.816 -1.584,2.448 v 18.8159997 h -2.688 z"
               style="font-style:normal;font-variant:normal;font-weight:normal;font-stretch:normal;font-family:'Advent Pro';-inkscape-font-specification:'Advent Pro'"
               id="path923" />
            <path
               d="m -128.26744,-5.0567113 13.2,-19.1999997 h -12.768 v -2.448 h 16.176 v 2.4 l -13.296,19.1999997 h 14.304 v 2.448 h -17.616 z"
               style="font-style:normal;font-variant:normal;font-weight:normal;font-stretch:normal;font-family:'Advent Pro';-inkscape-font-specification:'Advent Pro'"
               id="path925" />
            <path
               d="m -88.955577,-11.488711 q 0,4.0319997 -2.208,6.6719997 -2.208,2.64 -6.672,2.64 -4.464003,0 -6.768003,-2.64 -2.256,-2.688 -2.256,-6.6719997 v -6.336 q 0,-4.56 2.304,-6.96 2.352,-2.448 6.720003,-2.448 4.176,0 6.528,2.544 2.352,2.496 2.352,6.864 z m -2.688,-6.336 q 0,-3.6 -1.68,-5.28 -1.632,-1.68 -4.512,-1.68 -2.976003,0 -4.656003,1.68 -1.68,1.68 -1.68,5.28 v 6.816 q 0,2.8799997 1.68,4.6559997 1.728,1.776 4.656003,1.776 2.976,0 4.56,-1.728 1.632,-1.776 1.632,-4.7039997 z"
               style="font-style:normal;font-variant:normal;font-weight:normal;font-stretch:normal;font-family:'Advent Pro';-inkscape-font-specification:'Advent Pro'"
               id="path927" />
            <path
               d="m -70.283618,-36.256711 h 2.688 v 31.1999997 h 14.64 v 2.4 h -17.328 z"
               style="font-style:normal;font-variant:normal;font-weight:normal;font-stretch:normal;font-family:'Advent Pro';-inkscape-font-specification:'Advent Pro'"
               id="path929" />
            <path
               d="m -35.723684,-5.1047113 q -1.152,1.44 -2.928,2.208 -1.728,0.768 -3.504,0.768 -9.024,0 -9.024,-8.7839997 v -15.792 h 2.688 v 16.128 q 0,3.0719997 1.68,4.5599997 1.728,1.488 4.656,1.488 2.88,0 4.512,-1.44 1.68,-1.488 1.68,-4.6079997 v -16.128 h 2.688 v 24.0479997 h -2.64 z"
               style="font-style:normal;font-variant:normal;font-weight:normal;font-stretch:normal;font-family:'Advent Pro';-inkscape-font-specification:'Advent Pro'"
               id="path932" />
            <path
               d="m -9.8037517,-11.488711 q 0,4.0319997 -2.2080003,6.6719997 -2.208,2.64 -6.672,2.64 -4.464,0 -6.768,-2.64 -2.256,-2.688 -2.256,-6.6719997 v -6.336 q 0,-4.56 2.304,-6.96 2.352,-2.448 6.72,-2.448 4.176,0 6.528,2.544 2.3520003,2.496 2.3520003,6.864 z m -2.6880003,-6.336 q 0,-3.6 -1.68,-5.28 -1.632,-1.68 -4.512,-1.68 -2.976,0 -4.656,1.68 -1.68,1.68 -1.68,5.28 v 6.816 q 0,2.8799997 1.68,4.6559997 1.728,1.776 4.656,1.776 2.976,0 4.56,-1.728 1.632,-1.776 1.632,-4.7039997 z"
               style="font-style:normal;font-variant:normal;font-weight:normal;font-stretch:normal;font-family:'Advent Pro';-inkscape-font-specification:'Advent Pro'"
               id="path934" />
            <path
               d="m 5.1241238,5.3592887 q 3.168,-1.2 3.168,-4.99199999 V -5.5847113 q -2.016,3.504 -6.48,3.504 -4.224,0 -6.576,-2.304 -2.352,-2.304 -2.352,-6.7199997 v -7.152 q 0,-4.224 2.448,-6.528 2.496,-2.352 6.672,-2.352 4.464,0 6.48,3.216 l -0.192,-2.784 H 10.980124 V 0.41528871 q 0,2.87999999 -1.2000002,4.51199999 -1.2,1.632 -3.936,2.496 z m 3.168,-24.1439997 q 0,-2.976 -1.92,-4.416 -1.92,-1.488 -4.56,-1.488 -2.54400002,0 -4.416,1.584 -1.824,1.536 -1.824,5.088 v 7.344 q 0,3.0239997 1.68,4.5599997 1.728,1.536 4.56,1.536 2.688,0 4.56,-1.632 1.92,-1.68 1.92,-4.7519997 z"
               style="font-style:normal;font-variant:normal;font-weight:normal;font-stretch:normal;font-family:'Advent Pro';-inkscape-font-specification:'Advent Pro'"
               id="path936" />
            <path
               d="m 33.492086,-11.488711 q 0,4.0319997 -2.208,6.6719997 -2.208,2.64 -6.672,2.64 -4.464,0 -6.768,-2.64 -2.256,-2.688 -2.256,-6.6719997 v -6.336 q 0,-4.56 2.304,-6.96 2.352,-2.448 6.72,-2.448 4.176,0 6.528,2.544 2.352,2.496 2.352,6.864 z m -2.688,-6.336 q 0,-3.6 -1.68,-5.28 -1.632,-1.68 -4.512,-1.68 -2.976,0 -4.656,1.68 -1.68,1.68 -1.68,5.28 v 6.816 q 0,2.8799997 1.68,4.6559997 1.728,1.776 4.656,1.776 2.976,0 4.56,-1.728 1.632,-1.776 1.632,-4.7039997 z"
               style="font-style:normal;font-variant:normal;font-weight:normal;font-stretch:normal;font-family:'Advent Pro';-inkscape-font-specification:'Advent Pro'"
               id="path938" />
          </g>
          <path
             style="fill:#000000;stroke-width:3.26816"
             d="m -332.68641,2575.0739 c -4.78339,-5.2104 18.62174,-17.4458 59.97868,-31.3544 22.90924,-7.7045 42.71758,-15.1679 44.01888,-16.5854 1.3013,-1.4174 19.74301,-10.8812 40.98131,-21.0307 45.32377,-21.6595 63.34008,-32.5053 78.96927,-47.5394 6.28505,-6.0454 22.380681,-20.6397 35.768535,-32.4319 35.810355,-31.5422 44.026055,-41.5366 108.685355,-132.2146 6.83593,-9.5864 20.4564,-27.0831 30.26777,-38.8817 9.81175,-11.7986 17.86175,-23.0797 17.88964,-25.069 0.0398,-1.9892 2.99973,-7.801 6.6045,-12.9152 6.09904,-8.6527 6.0847,-10.4348 -0.20314,-25.6632 -10.25947,-24.842 -29.39385,-49.6908 -53.71473,-69.757 -12.06624,-9.9551 -23.014,-18.1001 -24.32924,-18.1001 -6.15322,0 -73.1148,-46.6302 -95.24015,-66.3225 -13.642799,-12.1429 -26.475,-22.7724 -28.51518,-23.6213 -6.31453,-2.6273 -4.09032,-6.5901 3.69877,-6.5901 4.0748,0 10.299311,2.7151 13.832784,6.0334 3.533084,3.3184 14.825401,13.8768 25.09403,23.4631 10.268626,9.5864 42.132846,33.2066 70.809726,52.4895 28.67728,19.2829 57.51747,40.3669 64.08971,46.8532 12.36219,12.2011 28.28175,35.4456 33.88728,49.4803 16.18325,40.5163 20.84277,50.4963 30.67165,65.6967 6.19902,9.5862 19.83344,27.9103 30.29883,40.72 20.02065,24.5049 31.87139,49.1242 36.54845,75.925 5.16696,29.6107 17.79683,40.2953 55.80311,47.2086 17.57377,3.1965 29.87382,9.3237 29.87382,14.8814 0,4.0314 -18.15174,5.0163 -21.67724,1.1762 -1.22723,-1.3368 -10.2535,-4.2707 -20.05809,-6.5199 -42.01773,-9.638 -53.03959,-21.7131 -61.58748,-67.4722 -4.15525,-22.2433 -12.85133,-38.6356 -36.27439,-68.3782 -18.58511,-23.5999 -31.6794,-42.9259 -31.6794,-46.7575 0,-1.7411 -2.46798,-5.4381 -5.48444,-8.2153 -5.08253,-4.6792 -6.35954,-3.8812 -17.41285,10.8839 -6.5603,8.7631 -18.35209,23.0131 -26.20373,31.6664 -7.85124,8.6531 -19.84578,24.9432 -26.65383,36.2001 -24.18863,39.9937 -52.79222,74.8054 -90.62762,110.2971 -16.50788,15.4857 -31.532423,28.558 -33.387006,29.0495 -1.854965,0.4918 -3.372549,2.4925 -3.372549,4.4462 0,6.4455 -41.134265,32.4721 -83.946255,53.1153 -23.16774,11.1708 -44.57374,22.2988 -47.56909,24.7282 -2.99494,2.4298 -18.09596,8.6706 -33.55706,13.869 -15.4615,5.1984 -34.36805,12.6382 -42.01494,16.533 -20.75355,10.5708 -31.34641,13.88 -34.2625,10.7035 z m 108.2018,-454.5738 c -1.70002,-2.9821 1.373,-6.8992 9.17644,-11.6972 12.26182,-7.5397 12.05111,-6.9315 18.56957,-53.5385 3.37176,-24.107 9.56201,-31.377 48.42706,-56.8761 18.63371,-12.2256 37.18893,-24.4988 41.23345,-27.2741 22.563517,-15.4824 39.312774,-59.9027 39.554155,-104.9006 0.119496,-22.4964 13.920405,-68.8684 25.406695,-85.3761 22.69773,-32.6205 23.71304,-35.1253 25.17447,-62.1008 0.79903,-14.7483 -0.54769,-44.1136 -2.99256,-65.2561 -5.09727,-44.0742 -3.21124,-56.7519 8.44274,-56.7519 8.67178,0 10.00853,2.794 3.44983,7.2094 -3.12639,2.1047 -2.90891,19.8787 0.77792,63.6931 5.30957,63.0921 3.77804,78.4049 -9.86633,98.6425 -30.88356,45.8077 -34.74406,57.7838 -42.15476,130.7825 -5.615083,55.3103 -11.342493,63.4079 -75.72139,107.0589 -18.70062,12.6797 -36.12343,24.8778 -38.71728,27.1072 -2.59345,2.2297 -6.79569,19.7128 -9.33776,38.8517 -2.94755,22.1926 -6.64992,36.3316 -10.22084,39.0316 -3.07939,2.3283 -5.59915,5.604 -5.59915,7.2797 0,3.1008 -12.29287,8.598 -19.22798,8.598 -2.10033,0 -4.96862,-2.0176 -6.37428,-4.4832 z m 495.61713,-387.3045 c -7.66761,-3.0977 -18.76913,-9.1265 -24.6702,-13.3973 -10.14674,-7.3438 -12.5255,-7.7705 -43.81494,-7.8595 -35.091,-0.099 -74.42168,-4.6878 -90.73996,-10.5847 -22.66945,-8.1916 -44.33674,-25.505 -60.24356,-48.1379 -37.64818,-53.5677 -40.26394,-55.5984 -94.25829,-73.1844 -43.130631,-14.0476 -61.34332,-23.8761 -78.85974,-42.5562 -9.46562,-10.0942 -10.68367,-14.0325 -10.63747,-34.3958 0.0399,-12.6478 2.93679,-30.188 6.4623,-38.9782 9.60624,-23.9493 7.89147,-55.2072 -3.01605,-54.9862 -2.48312,0.051 -18.85398,9.2785 -36.37995,20.5067 -51.59728,33.0566 -97.76667,57.2679 -132.29842,69.377 -2.65998,0.9326 -22.3767,8.2201 -43.81455,16.1941 -21.43746,7.974 -43.08204,14.498 -48.09885,14.498 -5.01682,0 -16.1482,-2.4133 -24.73673,-5.3629 -28.30763,-9.7221 -48.09965,-5.9321 -77.67194,14.8742 -21.43746,15.0826 -55.37413,29.9689 -72.85389,31.957 -9.22226,1.049 -16.76759,3.2492 -16.76759,4.8892 0,2.0574 -1.48174,1.9845 -4.77981,-0.236 -7.39556,-4.9788 -17.048,-3.9737 -61.84797,6.4402 -45.78702,10.6433 -57.28446,10.7624 -96.9358,1.0058 -23.75804,-5.8462 -29.73759,-8.879 -25.852,-13.1117 3.77645,-4.1132 12.51235,-3.6251 27.29909,1.5249 7.0108,2.442 21.22118,5.9457 31.57823,7.786 19.95253,3.5453 45.22141,0.536 104.30984,-12.4221 12.95847,-2.8418 27.84439,-5.1669 33.07948,-5.1669 16.1271,0 43.37083,-10.0467 67.59811,-24.9288 39.40555,-24.2053 44.04675,-26.0207 66.49514,-26.0094 13.32931,0 24.8837,1.861 33.41607,5.363 7.1729,2.944 15.24641,5.3528 17.94102,5.3528 17.16072,0 123.36894,-42.686 162.20134,-65.1899 70.05888,-40.6005 135.719169,-87.4145 140.307799,-100.0364 1.135205,-3.1223 0.524187,-12.1723 -1.35788,-20.1112 -9.783477,-41.2685 -6.927941,-143.6584 5.002089,-179.3459 7.208754,-21.5643 3.869258,-147.3642 -4.083552,-153.8148 -4.038156,-3.27581 -3.612355,-5.4322 2.263638,-11.46752 2.095409,-53.87616 -35.988034,-411.29111 25.816566,5.5247 1.93582,4.79242 1.5152,9.17392 -1.08303,11.28132 -2.510592,2.0366 -3.776446,13.0884 -3.095322,27.0239 0.633723,12.9676 0.756405,36.6394 0.270856,52.6032 -0.963531,31.7732 3.394066,47.4616 15.247996,54.8963 4.24368,2.6616 20.75673,7.0925 36.69542,9.8467 16.63653,2.8749 39.71267,9.5418 54.18076,15.6535 23.11557,9.7652 48.08092,15.114 90.31056,19.3491 28.90193,2.8988 44.94976,7.202 90.25998,24.2037 l 48.20879,18.0897 35.80677,-0.4371 c 19.69322,-0.2413 37.22995,-1.0294 38.9698,-1.7534 6.89329,-2.8681 107.57366,-1.6577 121.61594,1.4622 11.45443,2.5448 15.25996,2.5423 17.60485,0 4.47471,-4.8742 17.96931,-2.0803 17.96931,3.7203 0,2.7703 -4.99371,7.5468 -11.09714,10.6144 -9.0669,4.5573 -12.34665,4.9844 -17.92429,2.3348 -24.27826,-11.5331 -26.61041,-11.7755 -81.70173,-8.4861 -28.92264,1.7268 -69.61516,3.198 -90.42726,3.2687 l -37.84019,0.1288 -43.14258,-17.6612 c -43.5154,-17.814 -64.85966,-22.7342 -120.16766,-27.7006 -24.81479,-2.2283 -40.61088,-6.5086 -64.00089,-17.3421 -11.35006,-5.2571 -32.13388,-10.8845 -54.81249,-14.8407 -20.09194,-3.505 -40.42765,-7.1183 -45.190734,-8.0297 -7.770381,-1.4869 -8.997199,-0.3219 -11.938376,11.3394 -4.397029,17.4338 -4.208227,144.1133 0.254923,171.8485 3.494042,21.7049 3.354233,22.2975 -7.902225,33.5187 -6.302198,6.2827 -15.430048,14.024 -20.283148,17.2026 -8.31767,5.4472 -8.69487,7.3722 -6.56787,33.5187 1.85696,22.8308 0.74367,31.9865 -6.29261,51.7424 -11.03699,30.989 -7.16533,47.0498 16.321461,67.7051 17.124889,15.0601 27.936027,20.1625 67.339599,31.7824 43.2816,12.7637 56.99647,22.0867 80.05747,54.422 26.02887,36.4971 38.38548,48.5619 59.26171,57.8624 23.86759,10.6332 35.47815,12.5545 88.4536,14.6372 l 46.90351,1.8441 16.67876,11.5682 c 16.20315,11.2382 17.22285,11.5198 35.7474,9.8655 20.56714,-1.8368 22.43644,-0.5858 12.86806,8.6112 -7.76123,7.4593 -19.67012,7.5566 -37.61434,0.3072 z"
             id="path1014"
             sodipodi:nodetypes="cssssssscscssssssssscsssssscsssssscsssssssccssssscsscsscssssssssscscssssccssssssssscsssssssscsscssscccsscsscssccsscssssscsssssscscssssssscssscc" />
        </g>
      </g>
    </g>
  </g>
</svg>
