<?xml version="1.0" encoding="UTF-8" standalone="no"?>
<svg
   xmlns:dc="http://purl.org/dc/elements/1.1/"
   xmlns:cc="http://creativecommons.org/ns#"
   xmlns:rdf="http://www.w3.org/1999/02/22-rdf-syntax-ns#"
   xmlns:svg="http://www.w3.org/2000/svg"
   xmlns="http://www.w3.org/2000/svg"
   xmlns:sodipodi="http://sodipodi.sourceforge.net/DTD/sodipodi-0.dtd"
   xmlns:inkscape="http://www.inkscape.org/namespaces/inkscape"
   version="1.1"
   id="svg917"
   width="1663.8081"
   height="2803.1702"
   viewBox="0 0 1663.8081 2803.1701"
   sodipodi:docname="logoCasa.svg"
   inkscape:version="1.0.1 (3bc2e813f5, 2020-09-07, custom)">
  <metadata
     id="metadata923">
    <rdf:RDF>
      <cc:Work
         rdf:about="">
        <dc:format>image/svg+xml</dc:format>
        <dc:type
           rdf:resource="http://purl.org/dc/dcmitype/StillImage" />
        <dc:title />
      </cc:Work>
    </rdf:RDF>
  </metadata>
  <defs
     id="defs921">
    <rect
       x="-251.29166"
       y="-47.330284"
       width="1624.4231"
       height="806.34637"
       id="rect1547" />
    <rect
       x="-251.29166"
       y="-47.330284"
       width="1624.4231"
       height="806.34637"
       id="rect1547-3" />
    <rect
       x="-251.29166"
       y="-47.330284"
       width="1624.4231"
       height="806.34637"
       id="rect1568" />
    <rect
       x="-251.29166"
       y="-47.330284"
       width="1624.4231"
       height="806.34637"
       id="rect1547-36" />
    <rect
       x="-251.29166"
       y="-47.330284"
       width="1624.4231"
       height="806.34637"
       id="rect857" />
    <rect
       x="-251.29166"
       y="-47.330284"
       width="1624.4231"
       height="806.34637"
       id="rect1547-3-7" />
    <rect
       x="-251.29166"
       y="-47.330284"
       width="1624.4231"
       height="806.34637"
       id="rect860" />
  </defs>
  <sodipodi:namedview
     pagecolor="#ffffff"
     bordercolor="#666666"
     borderopacity="1"
     objecttolerance="10"
     gridtolerance="10"
     guidetolerance="10"
     inkscape:pageopacity="0"
     inkscape:pageshadow="2"
     inkscape:window-width="1920"
     inkscape:window-height="1011"
     id="namedview919"
     showgrid="false"
     inkscape:zoom="0.20466955"
     inkscape:cx="428.42146"
     inkscape:cy="1405.1027"
     inkscape:window-x="0"
     inkscape:window-y="0"
     inkscape:window-maximized="1"
     inkscape:current-layer="layer1"
     inkscape:document-rotation="0" />
  <g
     inkscape:groupmode="layer"
     inkscape:label="Image"
     id="g925"
     transform="translate(336.89169,85.240582)">
    <g
       inkscape:groupmode="layer"
       id="layer1"
       inkscape:label="Layer 1"
       style="display:inline">
      <path
         style="fill:none;stroke:#000000;stroke-width:3.5;stroke-linecap:butt;stroke-linejoin:miter;stroke-miterlimit:4;stroke-dasharray:none;stroke-opacity:1"
         d="m 438.05297,2143.2627 c 0,-50.272 -8.3849,-105.8688 -22.1472,-154.1576 -5.0803,-17.8254 -16.2804,-33.9405 -21.0927,-52.1766 -8.1406,-30.8482 -13.2154,-66.7062 -16.8743,-98.8026 -4.0843,-35.8275 29.618,-62.9496 27.4205,-98.8027 -2.7496,-44.8603 -19.7213,-88.337 -28.4751,-132.1067 -6.6589,-33.2955 -3.8242,-69.5325 -7.3826,-103.2432 -5.2132,-49.3879 -18.9065,-93.912 -31.4887,-141.5927 -8.8931,-33.7004 -2.7859,-90.2923 -4.2187,-126.493 -1.1592,-29.2866 -6.4222,-58.3881 -7.3823,-87.7011 -2.2952,-70.0666 -1.9701,-139.7844 1.0545,-209.81675 1.966,-45.5223 12.918,-88.38449 17.9288,-133.21686 4.1104,-36.77606 8.5689,-178.428 3.1639,-194.27478 -2.119,-6.21275 -8.7066,-9.82593 -13.0599,-14.73889 -1.2554,37.93699 4.652,75.60996 2.704,113.54384 -1.4492,28.21917 -8.3285,50.38021 -12.6556,77.70991 -6.8095,43.00876 -14.541,87.31066 -17.9288,130.99675 -1.9081,24.60463 0.8902,15.55177 3.1639,39.96504 3.2342,34.72625 5.595,70.65564 7.3823,105.46344 1.5924,31.0111 -3.1639,61.2312 -3.1639,92.1418 0,52.614 7.5529,96.5146 1.0546,149.8689 -5.5394,45.4805 -13.7786,90.0996 -21.0925,135.4375 -5.0789,31.4834 -5.8427,10.3532 -8.4371,41.0751 -3.0792,36.4627 -2.6425,73.398 -4.2187,109.9039 -1.8472,42.7808 -3.45173,58.0744 -2.24199,100.9447 0.37106,13.1496 -0.87641,44.8071 0.54879,62.5188 2.19054,27.223 -18.6424,103.1041 -23.618,136.2749 -7.9424,52.9495 -8.532,107.6617 -11.601,160.9704 -1.3117,22.7837 -8.2497,45.1557 -10.5463,67.7185 -2.926,28.7476 -5.4976,57.8618 -9.4916,86.591 -5.7491,41.3531 -21.1021,81.2319 -23.2021,123.2259 -1.4917,29.8288 3.517,60.3323 6.3278,89.9215 1.5557,16.3776 0.1142,36.9163 5.0863,52.6206"
         id="path1033"
         sodipodi:nodetypes="csssssssscssscssssssssssssssssssc" />
      <path
         style="fill:none;stroke:#000000;stroke-width:3;stroke-linecap:butt;stroke-linejoin:miter;stroke-opacity:1;stroke-miterlimit:4;stroke-dasharray:none"
         d="m 728.83417,1197.3362 c -6.911,-6.3874 -24.3666,-37.3959 -25.2322,-37.6915 -24.488,-8.3651 -78.8077,-7.7226 -96.0763,-18.5101 -6.7317,-4.2052 -9.8878,-13.2959 -15.5927,-18.6338 -19.0802,-17.8528 -36.629,-37.0572 -51.6771,-58.8373 -5.3782,-7.7843 -7.0678,-18.6751 -14.4866,-27.4605 -25.0271,-29.6373 -52.7572,-53.52115 -75.4687,-86.72505 -17.7761,-25.9885 -20.5842,-56.5595 -32.6938,-84.3708 -14.3992,-33.06971 -31.4956,-68.39605 -37.4033,-104.17394 -5.8982,-35.71982 -8.8868,-72.61079 -14.765,-108.49834 -1.7511,-10.69113 -8.7839,-20.27345 -9.4917,-31.08391 -0.7887,-12.04809 1.8185,-24.07919 2.7278,-36.11878 -0.8485,16.16651 -3.4681,32.33708 -2.5455,48.49953 0.1288,2.25607 11.8343,31.82089 12.6556,34.4144 10.9766,34.66285 13.8089,76.98778 32.6937,108.79383 13.8193,23.27455 33.326,40.47239 48.513,62.16795 8.765,12.5213 15.6795,28.44753 27.4205,38.85496 18.4832,16.38392 41.6504,27.87931 61.0406,43.18752 22.0122,17.37814 43.5649,36.19376 65.0277,54.07304"
         id="path1035" />
      <path
         style="fill:none;stroke:#000000;stroke-width:0.999999;stroke-linecap:butt;stroke-linejoin:miter;stroke-miterlimit:4;stroke-dasharray:none;stroke-opacity:1"
         d="m 328.32937,1071.3578 c 10.3671,10.5067 20.4631,21.2882 31.1013,31.5203 11.9179,11.4629 27.5404,20.2236 38.7405,32.3315 20.4075,22.0614 42.7972,44.9611 69.7522,59.1482"
         id="path1037" />
      <path
         style="fill:none;stroke:#000000;stroke-width:0.999999;stroke-linecap:butt;stroke-linejoin:miter;stroke-miterlimit:4;stroke-dasharray:none;stroke-opacity:1"
         d="m 346.28667,902.16958 c 7.5366,19.06256 14.0243,38.57393 22.6098,57.18768 7.2939,15.8136 70.4306,45.28804 89.6441,51.06644 23.4827,7.0623 39.8805,3.3053 55.1417,25.9055"
         id="path1039" />
      <path
         style="fill:none;stroke:#000000;stroke-width:0.99999905;stroke-linecap:butt;stroke-linejoin:miter;stroke-opacity:1;stroke-miterlimit:4;stroke-dasharray:none"
         d="m 348.01167,717.63035 c -23.0092,19.70806 -33.4934,48.06458 -51.2887,71.683 -2.7644,3.66893 -6.328,6.66088 -9.4919,9.99132 -8.4371,11.1014 -17.5618,21.71232 -25.3112,33.3042 -43.3258,64.80858 -58.0773,148.58358 -119.6559,200.43983"
         id="path1041" />
      <path
         style="fill:none;stroke:#000000;stroke-width:3;stroke-linecap:butt;stroke-linejoin:miter;stroke-opacity:1;stroke-miterlimit:4;stroke-dasharray:none"
         d="m 335.49917,596.13922 c -7.7069,20.92116 -18.653,40.92016 -23.1206,62.76349 -7.3924,36.14291 12.9316,75.43711 4.2184,112.12431 -8.5451,35.97973 -28.7633,67.52727 -39.0213,103.24303 -9.2265,32.1243 -13.6901,63.9426 -28.4753,94.3621 -14.4269,29.6824 -38.2638,60.88205 -46.4039,93.25185 -16.6867,66.3567 -15.3925,138.6653 -44.2945,202.0457 -24.3747,53.4521 -93.862606,154.8804 -93.862606,208.7065"
         id="path1043" />
      <path
         style="fill:none;stroke:#000000;stroke-width:0.99999905;stroke-linecap:butt;stroke-linejoin:miter;stroke-opacity:1;stroke-miterlimit:4;stroke-dasharray:none"
         d="m 348.01167,717.63035 c -6.2267,87.98601 8.1302,180.3099 -14.8352,266.9339 -12.1094,45.67585 -28.5135,90.11035 -37.9667,136.54735 -7.5894,37.2815 -10.2398,74.8935 -17.9288,112.1243 -4.6862,22.6908 -13.9256,43.9805 -18.9837,66.6084 -11.5019,51.4558 -11.8308,104.42 -26.3657,155.4199 -18.4606,64.7744 -35.6419,129.4184 -49.5678,195.3848 -3.9693,18.8028 -11.601,36.1733 -11.601,55.5071"
         id="path1045" />
      <path
         style="fill:none;stroke:#000000;stroke-width:3;stroke-linecap:butt;stroke-linejoin:miter;stroke-miterlimit:4;stroke-dasharray:none;stroke-opacity:1"
         d="m 347.67677,772.58501 c 4.9216,25.53328 9.6886,51.09684 14.7649,76.59984 4.7607,23.9176 12.7504,53.398 13.6145,78.8641 0.5315,15.6629 -3.5106,31.57935 -1.0548,47.73605 5.5105,36.2543 13.4754,72.2293 17.9288,108.7939 1.5711,12.8991 0.6696,26.102 3.1639,38.8549 4.8456,24.7746 14.4524,45.9735 21.0927,69.9389 5.1009,18.4094 5.7288,38.0743 11.6011,56.6172"
         id="path1047" />
      <path
         style="fill:none;stroke:#000000;stroke-width:4;stroke-linecap:butt;stroke-linejoin:miter;stroke-miterlimit:4;stroke-dasharray:none;stroke-opacity:1"
         d="m 346.92627,655.41535 c 4.9216,18.8724 10.5883,37.56607 14.7649,56.6172 11.9811,54.6497 23.691,107.3528 49.5678,157.6401 8.1499,15.83785 16.7147,24.76845 27.4205,38.85495 17.5851,23.1381 34.3191,51.1995 48.5132,76.5997 18.3376,32.8148 39.3503,64.7566 56.9504,97.6925 9.9886,18.6921 17.7627,39.7474 30.5844,56.6172"
         id="path1049" />
      <path
         style="fill:none;stroke:#000000;stroke-width:0.99999905;stroke-linecap:butt;stroke-linejoin:miter;stroke-opacity:1;stroke-miterlimit:4;stroke-dasharray:none"
         d="m 348.01167,717.63035 c 2.4068,-0.37325 5.7335,-3.04869 7.2206,-1.11974 12.5081,16.22419 14.1645,39.40834 25.3112,56.61719 14.8157,22.87347 94.0443,106.83635 135.7872,92.19045"
         id="path1051" />
      <path
         style="fill:none;stroke:#000000;stroke-width:3;stroke-linecap:butt;stroke-linejoin:miter;stroke-miterlimit:4;stroke-dasharray:none;stroke-opacity:1"
         d="m 354.48897,722.16958 c -1.4229,8.49704 -5.2739,16.93461 -4.2687,25.49112 2.4147,20.55412 63.825,44.95353 76.9883,51.06655 18.2468,8.47374 35.9621,20.87021 55.8956,25.53316 41.8652,9.79331 86.0392,17.80954 129.2982,15.41304 22.4092,-1.24144 46.3183,-5.67237 68.5512,-4.44056 27.4895,1.52306 77.7053,19.91635 100.7248,13.38198"
         id="path1053" />
      <path
         style="fill:none;stroke:#000000;stroke-width:0.99999905;stroke-linecap:butt;stroke-linejoin:miter;stroke-opacity:1;stroke-miterlimit:4;stroke-dasharray:none"
         d="m 348.01167,717.63035 c -4.4123,37.79666 -30.8844,63.0733 -51.9247,92.03563 -21.6521,29.80446 -40.8302,60.00527 -65.3873,87.70127 -8.9343,10.0763 -20.3771,17.0089 -29.5296,26.6433 -20.7229,21.814 -39.4235,42.8037 -64.3327,59.9477 C 97.745066,1010.864 49.988264,1024.1171 8.171964,1046.1261"
         id="path1055" />
      <path
         style="fill:none;stroke:#000000;stroke-width:3;stroke-linecap:butt;stroke-linejoin:miter;stroke-opacity:1;stroke-miterlimit:4;stroke-dasharray:none"
         d="m 335.49917,596.13922 c -48.1067,61.44304 -38.5595,141.93705 -64.8075,211.01098 -20.3128,53.45465 -118.2205,146.35505 -166.6322,179.84295 -22.450806,15.52985 -46.556906,28.38905 -70.660506,41.07515 -12.7597,6.7156 -2.4004,0.9207 -22.1473,14.4317 -3.5009,2.3954 -14.7630004,8.2836 -10.8436,6.6609 2.5673,-1.0629 5.1759,-2.0232 7.7639,-3.0348"
         id="path1057" />
      <path
         style="fill:none;stroke:#000000;stroke-width:0.99999905;stroke-linecap:butt;stroke-linejoin:miter;stroke-opacity:1;stroke-miterlimit:4;stroke-dasharray:none"
         d="m 335.49917,596.13922 c -8.2951,29.44331 -18.754,58.3612 -24.8853,88.32991 -2.2252,10.87615 0.5787,22.21798 0,33.30432 -1.1802,22.61042 -4.0799,45.10887 -5.2732,67.7186 -3.0494,57.7762 1.8297,113.0052 -10.5463,169.8516 -8.7092,40.0038 -48.6722,80.00445 -61.1688,123.22565 -8.3386,28.8402 -11.5693,58.7134 -18.9834,87.7011 -8.3402,32.6088 -25.3037,63.167 -34.8028,95.4722 -10.4408,35.5074 -21.3618,71.3134 -28.4753,107.6837 -4.5821,23.4274 -5.4267,47.0251 -9.4917,70.4724"
         id="path1059" />
      <path
         style="fill:none;stroke:#000000;stroke-width:0.99999905;stroke-linecap:butt;stroke-linejoin:miter;stroke-opacity:1;stroke-miterlimit:4;stroke-dasharray:none"
         d="m 315.96297,1029.9774 c -47.9986,74.1996 -71.6314,159.2367 -122.3377,232.0196 -5.2464,7.5306 -5.1094,15.3696 -10.2854,20.8182"
         id="path1061" />
      <path
         style="fill:none;stroke:#000000;stroke-width:0.999999;stroke-linecap:butt;stroke-linejoin:miter;stroke-miterlimit:4;stroke-dasharray:none;stroke-opacity:1"
         d="m 240.65787,1415.9505 c 15.9041,73.9407 7.6404,16.402 7.6404,86.4037 0,50.5971 5.9151,101.4047 3.1639,152.0893 -1.6541,30.4728 -8.4301,65.5204 1.0548,95.4722"
         id="path1063" />
      <path
         style="fill:none;stroke:#000000;stroke-width:0.999999;stroke-linecap:butt;stroke-linejoin:miter;stroke-miterlimit:4;stroke-dasharray:none;stroke-opacity:1"
         d="m 334.26307,1221.3206 c 4.1429,7.4498 42.8139,76.5247 47.4587,86.591 8.9256,19.3434 13,41.8006 22.1473,61.0578 11.0752,23.3159 28.8431,43.6796 41.1306,66.6086 11.4397,21.3469 15.7946,42.0679 36.3785,55.0673"
         id="path1065" />
      <path
         style="fill:none;stroke:#000000;stroke-width:0.99999905;stroke-linecap:butt;stroke-linejoin:miter;stroke-opacity:1;stroke-miterlimit:4;stroke-dasharray:none"
         d="m 412.32937,849.35778 c -7.8296,21.67847 -17.1984,42.86137 -23.489,65.03547 -7.6697,27.0357 2.1091,76.2592 2.1091,105.46355 0,32.693 -4.2611,64.5967 -6.3277,97.2267 -2.4488,38.6622 1.0548,78.6878 1.0548,117.545"
         id="path1067" />
      <path
         style="fill:none;stroke:#000000;stroke-width:1.37953;stroke-linecap:butt;stroke-linejoin:miter;stroke-miterlimit:4;stroke-dasharray:none;stroke-opacity:1"
         d="m 352.67187,794.73175 c 2.4851,7.00625 19.1312,54.43985 21.9499,60.25985 8.9262,18.4306 22.9296,34.0471 30.5844,53.2868 4.6113,11.5903 -0.448,4.6655 2.8116,19.296 2.0259,9.0929 6.5127,17.5285 8.4369,26.6434 2.8034,13.2795 0.9911,28.4608 3.1639,42.1854"
         id="path1069" />
      <path
         style="fill:none;stroke:#000000;stroke-width:0.99999905;stroke-linecap:butt;stroke-linejoin:miter;stroke-opacity:1;stroke-miterlimit:4;stroke-dasharray:none"
         d="m 516.33067,865.31825 c 5.0479,-5.3445 7.8092,-16.53511 15.1436,-16.03349 15.4747,1.05835 70.92,54.43909 87.5345,67.71859 1.7337,1.3856 4.5832,-0.7876 6.6581,0 30.1211,11.4341 59.3283,26.7757 89.2314,37.7449"
         id="path1071" />
      <path
         style="fill:none;stroke:#000000;stroke-width:0.99999905;stroke-linecap:butt;stroke-linejoin:miter;stroke-opacity:1;stroke-miterlimit:4;stroke-dasharray:none"
         d="m 229.52597,919.10185 c -31.9307,67.9509 -52.3937,140.39315 -80.3229,210.02205 -10.0708,25.1071 -18.1195,50.7358 -35.4775,71.7593"
         id="path1073" />
      <path
         style="fill:none;stroke:#000000;stroke-width:1px;stroke-linecap:butt;stroke-linejoin:miter;stroke-opacity:1"
         d="m 257.4189,1894.6767 c -0.0528,1.838 -0.26911,3.6785 -0.15847,5.5139 0.26038,4.3194 0.93116,8.5987 1.13637,12.9192 0.21959,4.6233 -0.77248,9.7942 0.22732,14.3547 0.49121,2.2406 1.37129,4.1521 1.80403,6.4296 0.46282,2.4359 0.39316,5.2978 1.13642,7.6558 1.23908,3.931 4.15755,7.0592 4.61186,11.3625 0.61895,5.8629 0.9014,12.8749 3.11574,18.4051 1.28715,3.2146 3.56475,6.2658 4.54564,9.5698 0.95318,3.2106 0.61711,6.6423 1.81157,9.7949"
         id="path1257" />
      <path
         style="fill:none;stroke:#000000;stroke-width:1px;stroke-linecap:butt;stroke-linejoin:miter;stroke-opacity:1"
         d="m 276.2453,1793.3236 c -4.31281,5.3995 -8.41276,10.9513 -12.19053,16.7355 -5.96846,9.1383 -11.59936,18.4349 -17.2734,27.7522 -2.47994,4.0723 -5.47859,7.9761 -7.27302,12.4407 -5.41296,13.4679 -2.54706,29.6116 -17.80995,36.2617"
         id="path1259" />
      <path
         style="fill:none;stroke:#000000;stroke-width:1px;stroke-linecap:butt;stroke-linejoin:miter;stroke-opacity:1"
         d="m 406.10707,1734.7683 c -0.4047,12.1999 3.8265,23.4644 7.3097,34.8307 2.98282,9.7335 5.65063,19.0395 9.54581,28.4701 2.28438,5.5306 5.34149,11.5454 6.59117,17.4647 1.4019,6.6404 2.21118,13.508 5.1947,19.7882"
         id="path1261" />
      <path
         style="fill:none;stroke:#000000;stroke-width:1px;stroke-linecap:butt;stroke-linejoin:miter;stroke-opacity:1"
         d="m 380.22943,1883.5355 c -0.017,24.7253 -5.5975,49.1046 -9.5458,73.4479 -0.89021,5.4885 -0.21586,18.0019 -1.97943,22.5292"
         id="path1263" />
      <path
         style="fill:none;stroke:#000000;stroke-width:1px;stroke-linecap:butt;stroke-linejoin:miter;stroke-opacity:1"
         d="m 285.50374,1596.054 c 2.65084,9.2083 3.27357,19.1727 5.51817,28.5743 0.70023,2.9329 2.19244,5.6096 2.72737,8.6128 1.12803,6.3327 1.16796,13.4875 3.17742,19.5657 2.32815,7.0421 4.78114,13.9102 7.00638,20.953"
         id="path1265" />
      <path
         style="fill:none;stroke:#000000;stroke-width:1px;stroke-linecap:butt;stroke-linejoin:miter;stroke-opacity:1"
         d="m 366.56035,1493.879 c -5.53474,13.0992 -4.39628,28.0912 -9.84714,41.2061 -4.01663,9.6641 -9.29643,18.5858 -12.27323,28.7092 -3.40579,11.5824 -4.54559,27.8831 -4.54559,39.9538 0,2.6744 0.90911,5.192 0.90911,7.8551"
         id="path1267" />
      <path
         style="fill:none;stroke:#000000;stroke-width:1px;stroke-linecap:butt;stroke-linejoin:miter;stroke-opacity:1"
         d="m 384.51818,1628.8465 c 1.45732,3.4129 3.11378,6.7474 4.37194,10.2385 0.81058,2.2492 1.21218,4.6254 1.81827,6.9381 0.90912,2.9507 1.63719,5.9634 2.72737,8.852 3.97946,10.5445 12.64253,22.6429 20.2281,30.8625 4.06433,4.4041 8.70058,7.5388 12.72776,11.9622 2.4672,2.71 5.54533,6.057 7.27302,9.3305 0.88428,1.6755 0.62379,2.6249 1.59095,4.0671 1.45502,2.1698 3.07656,3.7345 3.86379,6.2204"
         id="path1269" />
      <path
         style="fill:none;stroke:#000000;stroke-width:1px;stroke-linecap:butt;stroke-linejoin:miter;stroke-opacity:1"
         d="m 421.55604,2021.844 c -0.24602,7.4226 0.9713,14.8352 0.68184,22.2496 -0.51455,13.1797 -2.95901,26.4226 -8.18212,38.5183 -3.96805,9.1892 -10.68224,16.1603 -10.68224,26.6904"
         id="path1271" />
      <path
         style="fill:none;stroke:#000000;stroke-width:1px;stroke-linecap:butt;stroke-linejoin:miter;stroke-opacity:1"
         d="m 236.58298,2112.842 c 0.53031,2.0385 0.78856,4.1679 1.59095,6.1154 2.66165,6.4601 6.65102,12.1106 10.00038,18.1825 3.48852,6.3243 6.08239,13.1628 9.77313,19.3788 1.81701,3.0603 4.29781,5.5512 5.79794,8.6792"
         id="path1273" />
    </g>
    <g
       inkscape:groupmode="layer"
       id="layer2"
       inkscape:label="Layer 2"
       style="display:inline"
       sodipodi:insensitive="true">
      <g
         id="g929"
         style="display:inline">
        <g
           id="g2460"
           transform="translate(434.88478,141.70011)">
          <path
             id="path931"
             style="fill:#272727;stroke-width:1.45452"
             d="m -99.385614,454.43911 c -46.301246,-1.06818 -162.869126,5.32813 -225.527856,1.14972 -42.52801,4.3628 -24.85839,-43.44593 8.17517,-22.74848 61.04087,7.75838 122.60947,-5.07117 183.86873,1.98139 64.720351,3.02416 18.66386,-74.43361 30.71439,-112.65785 -0.96724,-78.16039 -8.33661,-156.60956 -2.18211,-234.617695 -9.22659,-50.05846 -79.36487,-4.609064 -114.06488,-33.427945 -43.12355,-12.127301 -101.08273,-62.0830262 -70.08084,-109.501192 54.12508,-4.453346 115.55127,24.418828 157.95289,60.8128938 43.646275,35.8094432 18.14157,-45.4358468 21.45889,-68.6610298 18.175826,-55.919572 43.867986,-126.112012 102.2927758,-150.419522 25.1711532,-19.7948 80.4365482,-21.72228 53.8136282,23.92664 -14.405096,66.99082 -78.027542,104.677329 -131.413804,138.605714 -22.93857,48.3852238 -7.063146,98.680491 -7.442435,165.733756 -6.75028,32.62049 -9.202755,74.12971 15.620518,46.67824 C -40.801177,127.59309 18.156935,65.457735 69.613639,64.422942 108.77812,99.934145 45.014356,167.01316 7.4947275,186.30392 c -29.4973555,37.3129 -122.7062475,-0.92637 -94.2980325,71.49661 7.519974,50.35576 -21.549785,140.46149 17.861924,171.23986 55.123513,7.5075 115.007776,-1.67126 170.457531,1.61967 49.42329,2.47903 98.54461,-2.91657 41.67843,24.06187 -55.778964,-3.02476 -127.308085,-3.46359 -195.21125,-0.15553 -37.84827,-0.11445 -32.614919,-7.87799 -32.840241,56.91528 -14.002292,21.39839 0.183356,-39.70001 -14.528703,-57.04257 z M -43.678688,194.44614 C -1.7069092,180.56874 80.542881,134.70121 65.242331,83.505723 18.418051,76.3411 -32.003687,133.29103 -63.829869,162.75465 c -29.348646,25.0533 -16.827035,44.04925 20.151181,31.69149 z M -110.67001,51.696495 c -19.05691,-54.2499786 -121.85252,-99.429839 -173.72352,-95.264042 0.77693,59.920261 51.31455,96.537541 100.99379,96.914991 l 59.71731,-1.6634 z m 26.421824,-119.602821 c 48.584908,-18.21172 103.231067,-70.728054 115.597362,-122.079584 -38.5481442,-33.64138 -98.793773,35.93694 -112.048571,77.38414 -2.4782,9.8796 -32.849125,60.153987 -3.548791,44.695444 z"
             sodipodi:nodetypes="ccccccccccccccccccccccccccccccccccccc" />
          <g
             id="g2451">
            <g
               aria-label="La Scuola "
               transform="matrix(4.3890191,0,0,4.3890191,784.61554,412.59656)"
               id="text1545"
               style="font-style:normal;font-weight:normal;font-size:48px;line-height:1.25;font-family:sans-serif;white-space:pre;shape-inside:url(#rect1547);fill:#000000;fill-opacity:1;stroke:none">
              <path
                 d="m -247.54702,-36.256711 h 2.688 v 31.1999997 h 14.64 v 2.4 h -17.328 z"
                 style="font-style:normal;font-variant:normal;font-weight:normal;font-stretch:normal;font-family:'Advent Pro';-inkscape-font-specification:'Advent Pro'"
                 id="path896" />
              <path
                 d="m -209.91508,-2.6567113 q -5.184,0.528 -7.488,0.528 -5.04,0 -8.016,-1.872 -2.976,-1.872 -2.976,-6.7679997 v -3.984 q 0,-4.752 3.312,-6.384 1.584,-0.816 4.032,-0.816 2.256,0 4.56,0.768 2.304,0.72 3.888,1.92 0,-2.64 -1.536,-4.176 -1.536,-1.584 -5.904,-1.584 l 0.144,-2.064 q 4.608,0 6.768,1.488 2.208,1.44 2.688,3.456 0.528,2.016 0.528,5.184 z m -2.688,-14.5439997 q -1.968,-0.912 -4.224,-1.584 -2.208,-0.672 -4.08,-0.672 -4.848,0 -4.848,4.848 v 4.176 q 0,3.1199997 2.16,4.5599997 2.16,1.392 6.144,1.392 2.064,0 4.848,-0.384 z"
                 style="font-style:normal;font-variant:normal;font-weight:normal;font-stretch:normal;font-family:'Advent Pro';-inkscape-font-specification:'Advent Pro'"
                 id="path898" />
              <path
                 d="m -190.33117,-11.200711 q 0.144,1.6319997 1.2,3.1199997 1.104,1.488 2.976,2.448 1.92,0.912 4.368,0.912 3.696,0 6.144,-1.632 2.496,-1.68 2.496,-5.2799997 0,-2.112 -1.2,-3.504 -1.2,-1.44 -2.976,-2.256 -1.776,-0.864 -4.848,-1.968 -3.312,-1.152 -5.328,-2.112 -1.968,-1.008 -3.36,-2.688 -1.344,-1.68 -1.344,-4.32 0,-2.112 1.2,-3.984 1.2,-1.92 3.6,-3.072 2.448,-1.2 6,-1.2 2.352,0 3.888,0.336 1.536,0.336 3.12,1.104 l -0.816,2.544 q -2.736,-1.392 -6.096,-1.392 -3.696,0 -5.904,1.536 -2.208,1.536 -2.208,4.272 0,1.728 1.104,2.928 1.104,1.152 2.688,1.872 1.632,0.72 4.512,1.728 3.504,1.2 5.664,2.256 2.16,1.008 3.648,2.928 1.536,1.872 1.536,4.752 0,4.4159997 -2.832,7.1039997 -2.784,2.64 -8.64,2.64 -3.552,0 -6.096,-1.296 -2.496,-1.344 -3.84,-3.408 -1.296,-2.112 -1.392,-4.3679997 z"
                 style="font-style:normal;font-variant:normal;font-weight:normal;font-stretch:normal;font-family:'Advent Pro';-inkscape-font-specification:'Advent Pro'"
                 id="path900" />
              <path
                 d="m -150.73122,-2.9447113 q -2.976,0.768 -5.76,0.768 -2.592,0 -4.32,-0.576 -2.832,-0.96 -4.128,-2.928 -1.248,-2.016 -1.248,-5.6159997 v -6.144 q 0,-4.752 2.496,-7.2 2.496,-2.496 6.432,-2.496 3.12,0 6.432,1.536 l -0.768,1.968 q -2.736,-1.104 -5.28,-1.104 -2.976,0 -4.8,1.728 -1.824,1.68 -1.824,5.28 v 6.96 q 0,3.3119997 1.968,4.7999997 2.016,1.488 5.328,1.488 2.16,0 4.896,-0.624 z"
                 style="font-style:normal;font-variant:normal;font-weight:normal;font-stretch:normal;font-family:'Advent Pro';-inkscape-font-specification:'Advent Pro'"
                 id="path902" />
              <path
                 d="m -132.34725,-5.1047113 q -1.152,1.44 -2.928,2.208 -1.728,0.768 -3.504,0.768 -9.024,0 -9.024,-8.7839997 v -15.792 h 2.688 v 16.128 q 0,3.0719997 1.68,4.5599997 1.728,1.488 4.656,1.488 2.88,0 4.512,-1.44 1.68,-1.488 1.68,-4.6079997 v -16.128 h 2.688 v 24.0479997 h -2.64 z"
                 style="font-style:normal;font-variant:normal;font-weight:normal;font-stretch:normal;font-family:'Advent Pro';-inkscape-font-specification:'Advent Pro'"
                 id="path904" />
              <path
                 d="m -106.42732,-11.488711 q 0,4.0319997 -2.208,6.6719997 -2.208,2.64 -6.672,2.64 -4.464,0 -6.768,-2.64 -2.256,-2.688 -2.256,-6.6719997 v -6.336 q 0,-4.56 2.304,-6.96 2.352,-2.448 6.72,-2.448 4.176,0 6.528,2.544 2.352,2.496 2.352,6.864 z m -2.688,-6.336 q 0,-3.6 -1.68,-5.28 -1.632,-1.68 -4.512,-1.68 -2.976,0 -4.656,1.68 -1.68,1.68 -1.68,5.28 v 6.816 q 0,2.8799997 1.68,4.6559997 1.728,1.776 4.656,1.776 2.976,0 4.56,-1.728 1.632,-1.776 1.632,-4.7039997 z"
                 style="font-style:normal;font-variant:normal;font-weight:normal;font-stretch:normal;font-family:'Advent Pro';-inkscape-font-specification:'Advent Pro'"
                 id="path906" />
              <path
                 d="m -101.09935,-36.256711 h 2.687997 v 33.5999997 h -2.687997 z"
                 style="font-style:normal;font-variant:normal;font-weight:normal;font-stretch:normal;font-family:'Advent Pro';-inkscape-font-specification:'Advent Pro'"
                 id="path908" />
              <path
                 d="m -74.315411,-2.6567113 q -5.184,0.528 -7.488,0.528 -5.04,0 -8.016,-1.872 -2.976,-1.872 -2.976,-6.7679997 v -3.984 q 0,-4.752 3.312,-6.384 1.584,-0.816 4.032,-0.816 2.256,0 4.56,0.768 2.304,0.72 3.888,1.92 0,-2.64 -1.536,-4.176 -1.536,-1.584 -5.904,-1.584 l 0.144,-2.064 q 4.608,0 6.768,1.488 2.208,1.44 2.688,3.456 0.528,2.016 0.528,5.184 z m -2.688,-14.5439997 q -1.968,-0.912 -4.224,-1.584 -2.208,-0.672 -4.08,-0.672 -4.848,0 -4.848,4.848 v 4.176 q 0,3.1199997 2.16,4.5599997 2.16,1.392 6.144,1.392 2.064,0 4.848,-0.384 z"
                 style="font-style:normal;font-variant:normal;font-weight:normal;font-stretch:normal;font-family:'Advent Pro';-inkscape-font-specification:'Advent Pro'"
                 id="path910" />
            </g>
            <g
               aria-label="del Terzo Luogo"
               transform="matrix(4.3890191,0,0,4.3890191,745.0342,649.17239)"
               id="text1545-6"
               style="font-style:normal;font-weight:normal;font-size:48px;line-height:1.25;font-family:sans-serif;white-space:pre;shape-inside:url(#rect1547-3);fill:#000000;fill-opacity:1;stroke:none">
              <path
                 d="m -247.54702,-19.264711 q 0,-5.04 4.08,-6.912 1.968,-0.912 4.704,-0.912 1.776,0 3.408,0.432 1.68,0.432 2.832,1.248 v -10.848 h 2.688 v 33.5999997 l -2.64,0.24 q -3.12,0.336 -4.896,0.336 -1.776,0 -3.36,-0.336 -1.536,-0.336 -3.072,-1.104 -1.728,-0.864 -2.736,-2.544 -1.008,-1.68 -1.008,-4.1279997 z m 15.024,-3.792 q -1.296,-0.72 -2.976,-1.152 -1.68,-0.48 -3.312,-0.48 -2.688,0 -4.416,1.344 -1.68,1.296 -1.68,4.224 v 8.976 q 0,5.6159997 7.728,5.6159997 1.824,0 4.656,-0.432 z"
                 style="font-style:normal;font-variant:normal;font-weight:normal;font-stretch:normal;font-family:'Advent Pro';-inkscape-font-specification:'Advent Pro'"
                 id="path913" />
              <path
                 d="m -210.49104,-4.3367113 q -1.728,1.104 -3.936,1.68 -2.208,0.576 -4.416,0.576 -3.552,0 -5.664,-1.728 -2.064,-1.776 -2.064,-5.28 v -9.8399997 q 0,-3.888 2.4,-6.048 2.448,-2.16 6.432,-2.16 3.984,0 6.192,2.16 2.256,2.112 2.256,5.904 v 6.24 l -14.592,0.816 v 2.9279997 q 0,2.304 1.488,3.456 1.488,1.152 3.888,1.152 3.36,0 6.96,-1.92 z m -1.488,-15.0719997 q 0,-2.976 -1.872,-4.176 -1.872,-1.248 -3.936,-1.248 -2.64,0 -4.368,1.44 -1.728,1.44 -1.728,4.512 v 4.224 l 11.904,-0.576 z"
                 style="font-style:normal;font-variant:normal;font-weight:normal;font-stretch:normal;font-family:'Advent Pro';-inkscape-font-specification:'Advent Pro'"
                 id="path915" />
              <path
                 d="m -203.67513,-36.256711 h 2.688 v 33.5999997 h -2.688 z"
                 style="font-style:normal;font-variant:normal;font-weight:normal;font-stretch:normal;font-family:'Advent Pro';-inkscape-font-specification:'Advent Pro'"
                 id="path917" />
              <path
                 d="m -175.64319,-33.856711 h -8.16 v -2.4 h 19.296 v 2.4 h -8.448 v 31.1999997 h -2.688 z"
                 style="font-style:normal;font-variant:normal;font-weight:normal;font-stretch:normal;font-family:'Advent Pro';-inkscape-font-specification:'Advent Pro'"
                 id="path919" />
              <path
                 d="m -151.06727,-4.3367113 q -1.728,1.104 -3.936,1.68 -2.208,0.576 -4.416,0.576 -3.552,0 -5.664,-1.728 -2.064,-1.776 -2.064,-5.28 v -9.8399997 q 0,-3.888 2.4,-6.048 2.448,-2.16 6.432,-2.16 3.984,0 6.192,2.16 2.256,2.112 2.256,5.904 v 6.24 l -14.592,0.816 v 2.9279997 q 0,2.304 1.488,3.456 1.488,1.152 3.888,1.152 3.36,0 6.96,-1.92 z m -1.488,-15.0719997 q 0,-2.976 -1.872,-4.176 -1.872,-1.248 -3.936,-1.248 -2.64,0 -4.368,1.44 -1.728,1.44 -1.728,4.512 v 4.224 l 11.904,-0.576 z"
                 style="font-style:normal;font-variant:normal;font-weight:normal;font-stretch:normal;font-family:'Advent Pro';-inkscape-font-specification:'Advent Pro'"
                 id="path921" />
              <path
                 d="m -145.06736,-26.704711 h 2.688 l -0.144,1.68 q 2.256,-2.112 5.904,-2.112 1.296,0 3.552,0.432 l -0.72,2.448 q -1.536,-0.48 -3.216,-0.48 -2.208,0 -3.792,0.816 -1.584,0.816 -1.584,2.448 v 18.8159997 h -2.688 z"
                 style="font-style:normal;font-variant:normal;font-weight:normal;font-stretch:normal;font-family:'Advent Pro';-inkscape-font-specification:'Advent Pro'"
                 id="path923" />
              <path
                 d="m -128.26744,-5.0567113 13.2,-19.1999997 h -12.768 v -2.448 h 16.176 v 2.4 l -13.296,19.1999997 h 14.304 v 2.448 h -17.616 z"
                 style="font-style:normal;font-variant:normal;font-weight:normal;font-stretch:normal;font-family:'Advent Pro';-inkscape-font-specification:'Advent Pro'"
                 id="path925" />
              <path
                 d="m -88.955577,-11.488711 q 0,4.0319997 -2.208,6.6719997 -2.208,2.64 -6.672,2.64 -4.464003,0 -6.768003,-2.64 -2.256,-2.688 -2.256,-6.6719997 v -6.336 q 0,-4.56 2.304,-6.96 2.352,-2.448 6.720003,-2.448 4.176,0 6.528,2.544 2.352,2.496 2.352,6.864 z m -2.688,-6.336 q 0,-3.6 -1.68,-5.28 -1.632,-1.68 -4.512,-1.68 -2.976003,0 -4.656003,1.68 -1.68,1.68 -1.68,5.28 v 6.816 q 0,2.8799997 1.68,4.6559997 1.728,1.776 4.656003,1.776 2.976,0 4.56,-1.728 1.632,-1.776 1.632,-4.7039997 z"
                 style="font-style:normal;font-variant:normal;font-weight:normal;font-stretch:normal;font-family:'Advent Pro';-inkscape-font-specification:'Advent Pro'"
                 id="path927" />
              <path
                 d="m -70.283618,-36.256711 h 2.688 v 31.1999997 h 14.64 v 2.4 h -17.328 z"
                 style="font-style:normal;font-variant:normal;font-weight:normal;font-stretch:normal;font-family:'Advent Pro';-inkscape-font-specification:'Advent Pro'"
                 id="path929" />
              <path
                 d="m -35.723684,-5.1047113 q -1.152,1.44 -2.928,2.208 -1.728,0.768 -3.504,0.768 -9.024,0 -9.024,-8.7839997 v -15.792 h 2.688 v 16.128 q 0,3.0719997 1.68,4.5599997 1.728,1.488 4.656,1.488 2.88,0 4.512,-1.44 1.68,-1.488 1.68,-4.6079997 v -16.128 h 2.688 v 24.0479997 h -2.64 z"
                 style="font-style:normal;font-variant:normal;font-weight:normal;font-stretch:normal;font-family:'Advent Pro';-inkscape-font-specification:'Advent Pro'"
                 id="path932" />
              <path
                 d="m -9.8037517,-11.488711 q 0,4.0319997 -2.2080003,6.6719997 -2.208,2.64 -6.672,2.64 -4.464,0 -6.768,-2.64 -2.256,-2.688 -2.256,-6.6719997 v -6.336 q 0,-4.56 2.304,-6.96 2.352,-2.448 6.72,-2.448 4.176,0 6.528,2.544 2.3520003,2.496 2.3520003,6.864 z m -2.6880003,-6.336 q 0,-3.6 -1.68,-5.28 -1.632,-1.68 -4.512,-1.68 -2.976,0 -4.656,1.68 -1.68,1.68 -1.68,5.28 v 6.816 q 0,2.8799997 1.68,4.6559997 1.728,1.776 4.656,1.776 2.976,0 4.56,-1.728 1.632,-1.776 1.632,-4.7039997 z"
                 style="font-style:normal;font-variant:normal;font-weight:normal;font-stretch:normal;font-family:'Advent Pro';-inkscape-font-specification:'Advent Pro'"
                 id="path934" />
              <path
                 d="m 5.1241238,5.3592887 q 3.168,-1.2 3.168,-4.99199999 V -5.5847113 q -2.016,3.504 -6.48,3.504 -4.224,0 -6.576,-2.304 -2.352,-2.304 -2.352,-6.7199997 v -7.152 q 0,-4.224 2.448,-6.528 2.496,-2.352 6.672,-2.352 4.464,0 6.48,3.216 l -0.192,-2.784 H 10.980124 V 0.41528871 q 0,2.87999999 -1.2000002,4.51199999 -1.2,1.632 -3.936,2.496 z m 3.168,-24.1439997 q 0,-2.976 -1.92,-4.416 -1.92,-1.488 -4.56,-1.488 -2.54400002,0 -4.416,1.584 -1.824,1.536 -1.824,5.088 v 7.344 q 0,3.0239997 1.68,4.5599997 1.728,1.536 4.56,1.536 2.688,0 4.56,-1.632 1.92,-1.68 1.92,-4.7519997 z"
                 style="font-style:normal;font-variant:normal;font-weight:normal;font-stretch:normal;font-family:'Advent Pro';-inkscape-font-specification:'Advent Pro'"
                 id="path936" />
              <path
                 d="m 33.492086,-11.488711 q 0,4.0319997 -2.208,6.6719997 -2.208,2.64 -6.672,2.64 -4.464,0 -6.768,-2.64 -2.256,-2.688 -2.256,-6.6719997 v -6.336 q 0,-4.56 2.304,-6.96 2.352,-2.448 6.72,-2.448 4.176,0 6.528,2.544 2.352,2.496 2.352,6.864 z m -2.688,-6.336 q 0,-3.6 -1.68,-5.28 -1.632,-1.68 -4.512,-1.68 -2.976,0 -4.656,1.68 -1.68,1.68 -1.68,5.28 v 6.816 q 0,2.8799997 1.68,4.6559997 1.728,1.776 4.656,1.776 2.976,0 4.56,-1.728 1.632,-1.776 1.632,-4.7039997 z"
                 style="font-style:normal;font-variant:normal;font-weight:normal;font-stretch:normal;font-family:'Advent Pro';-inkscape-font-specification:'Advent Pro'"
                 id="path938" />
            </g>
          </g>
        </g>
      </g>
    </g>
  </g>
</svg>
