<?xml version="1.0" encoding="UTF-8" standalone="no"?>
<svg
   xmlns:dc="http://purl.org/dc/elements/1.1/"
   xmlns:cc="http://creativecommons.org/ns#"
   xmlns:rdf="http://www.w3.org/1999/02/22-rdf-syntax-ns#"
   xmlns:svg="http://www.w3.org/2000/svg"
   xmlns="http://www.w3.org/2000/svg"
   xmlns:sodipodi="http://sodipodi.sourceforge.net/DTD/sodipodi-0.dtd"
   xmlns:inkscape="http://www.inkscape.org/namespaces/inkscape"
   version="1.1"
   id="svg917"
   width="1462.6749"
   height="1354.4642"
   viewBox="0 0 1462.6749 1354.4642"
   sodipodi:docname="logo.svg"
   inkscape:version="1.0.1 (3bc2e813f5, 2020-09-07)">
  <metadata
     id="metadata923">
    <rdf:RDF>
      <cc:Work
         rdf:about="">
        <dc:format>image/svg+xml</dc:format>
        <dc:type
           rdf:resource="http://purl.org/dc/dcmitype/StillImage" />
        <dc:title />
      </cc:Work>
    </rdf:RDF>
  </metadata>
  <defs
     id="defs921">
    <rect
       x="-251.29166"
       y="-47.330284"
       width="1624.4231"
       height="806.34637"
       id="rect1547" />
    <rect
       x="-251.29166"
       y="-47.330284"
       width="1624.4231"
       height="806.34637"
       id="rect1547-3" />
    <rect
       x="-251.29166"
       y="-47.330284"
       width="1624.4231"
       height="806.34637"
       id="rect1568" />
  </defs>
  <sodipodi:namedview
     pagecolor="#ffffff"
     bordercolor="#666666"
     borderopacity="1"
     objecttolerance="10"
     gridtolerance="10"
     guidetolerance="10"
     inkscape:pageopacity="0"
     inkscape:pageshadow="2"
     inkscape:window-width="1920"
     inkscape:window-height="1024"
     id="namedview919"
     showgrid="false"
     inkscape:zoom="0.22561404"
     inkscape:cx="320.74163"
     inkscape:cy="1433.5531"
     inkscape:window-x="0"
     inkscape:window-y="0"
     inkscape:window-maximized="1"
     inkscape:current-layer="g2451"
     inkscape:document-rotation="0" />
  <g
     inkscape:groupmode="layer"
     inkscape:label="Image"
     id="g925"
     transform="translate(-28.712985,85.240582)">
    <g
       id="g929">
      <g
         id="g2460"
         transform="translate(434.88478,141.70011)">
        <path
           id="path931"
           style="fill:#272727;stroke-width:1.45452"
           d="m -163.24551,1127.5235 c -8.33004,-31.2787 12.07035,-118.7493 -47.45895,-81.5817 -37.49622,-10.4998 42.65083,-38.4307 -4.01262,-48.0407 -29.81986,-3.6972 -43.31657,-74.70156 -9.81266,-28.15387 33.50819,48.87007 103.69367,32.11097 125.654025,-16.74474 6.08401,-55.37421 -10.009375,-111.32206 -0.89101,-167.21934 5.09615,-28.41935 -0.347575,-82.69458 -33.729995,-45.36458 -49.20389,7.49112 -79.31974,39.74231 -84.95706,87.50294 -19.58845,3.7801 2.76612,-52.95534 -36.08964,-29.23654 -51.55692,15.13496 -14.30622,-27.47146 14.81353,-28.73361 31.21641,-9.15735 60.36572,-35.48866 24.74503,-59.54715 1.21844,-44.24818 44.96542,43.25219 74.63422,7.84649 53.765803,-22.98383 32.77871,-86.19724 41.261615,-131.80025 -0.77062,-41.04525 28.348707,-130.93859 -35.066845,-131.19811 -62.50447,0.54915 -128.09887,4.5149 -190.7576,0.33649 -42.52801,4.3628 -24.85839,-43.44593 8.17517,-22.74848 61.04087,7.75838 122.60947,-5.07117 183.86873,1.98139 64.720351,3.02416 18.66386,-74.43361 30.71439,-112.65785 -0.96724,-78.16039 -8.33661,-156.60956 -2.18211,-234.617695 -9.22659,-50.05846 -79.36487,-4.609064 -114.06488,-33.427945 -43.12355,-12.127301 -101.08273,-62.0830262 -70.08084,-109.501192 54.12508,-4.453346 115.55127,24.418828 157.95289,60.8128938 43.646275,35.8094432 15.5902,-54.9429598 18.90752,-78.1681428 18.175825,-55.919569 46.419356,-116.604899 104.8441458,-140.912409 25.1711532,-19.7948 80.4365482,-21.72228 53.8136282,23.92664 -14.405096,66.99082 -78.027542,104.677329 -131.413804,138.605714 -22.93857,48.3852238 4.606196,111.05094 -7.442435,165.733756 -6.75028,32.62049 8.328314,48.73363 33.151591,21.28216 C -23.270104,102.19701 18.156935,65.457735 69.613639,64.422942 108.77812,99.934145 45.014356,167.01316 7.4947275,186.30392 c -29.4973555,37.3129 -123.7587775,8.98704 -95.3505645,81.41002 7.519974,50.35576 -16.664023,129.73124 22.747689,160.50961 55.1235128,7.5075 111.174543,-0.85442 166.624298,2.43651 26.35705,-9.25368 111.05177,1.13792 54.18559,28.11636 -55.778964,-3.02476 -111.512396,-6.51585 -167.709832,-6.85337 -39.608117,-4.36579 -87.981563,-0.66731 -68.177217,51.0138 4.707947,60.1312 -13.578256,118.79894 -6.927613,179.04721 5.31108,47.6965 -14.916708,111.19839 31.478584,143.95825 25.726549,52.94664 64.2441521,-27.29506 89.64443,-4.28089 -24.0972123,20.48803 -32.0355697,46.22631 5.735118,43.8836 31.564386,12.30904 26.09295,46.74005 -7.647004,27.51685 -33.2269992,1.72904 20.38529,107.35553 -15.002343,55.50127 1.289721,-57.49486 -51.657764,-84.90282 -90.402706,-113.75616 -34.627947,31.43186 11.51607,94.24508 -4.773716,134.58288 -26.623791,43.13334 -104.427191,52.04854 -74.586581,118.65394 0.23077,12.1156 6.30109,35.7846 -10.57837,39.4797 z M -43.678688,194.44614 C -1.7069092,180.56874 68.630205,144.69317 53.329655,93.497685 6.5053753,86.333062 -32.003687,133.29103 -63.829869,162.75465 c -29.348646,25.0533 -16.827035,44.04925 20.151181,31.69149 z M -130.58648,45.390077 c -19.05691,-54.2499782 -91.52301,-81.01132 -143.39401,-76.845523 0.77693,59.920261 74.77126,78.838292 124.4505,79.215742 l 9.57976,-0.656672 z m 51.409358,-124.778428 c 48.584908,-18.21172 98.160003,-59.246029 110.526298,-110.597559 -38.5481442,-33.64138 -98.793773,35.93694 -112.048571,77.38414 -2.4782,9.8796 -27.778065,48.671962 1.522273,33.213419 z" />
        <g
           id="g2451">
          <text
             xml:space="preserve"
             id="text1545"
             style="font-style:normal;font-weight:normal;font-size:48px;line-height:1.25;font-family:sans-serif;white-space:pre;shape-inside:url(#rect1547);fill:#000000;fill-opacity:1;stroke:none;"
             transform="matrix(4.3890191,0,0,4.3890191,784.61554,412.59656)"><tspan
               x="-251.29102"
               y="-2.6567113"><tspan
                 style="font-style:normal;font-variant:normal;font-weight:normal;font-stretch:normal;font-family:'Advent Pro';-inkscape-font-specification:'Advent Pro'">La Scuola </tspan></tspan></text>
          <text
             xml:space="preserve"
             id="text1545-6"
             style="font-style:normal;font-weight:normal;font-size:48px;line-height:1.25;font-family:sans-serif;white-space:pre;shape-inside:url(#rect1547-3);fill:#000000;fill-opacity:1;stroke:none;"
             transform="matrix(4.3890191,0,0,4.3890191,745.0342,649.17239)"><tspan
               x="-251.29102"
               y="-2.6567113"><tspan
                 style="font-style:normal;font-variant:normal;font-weight:normal;font-stretch:normal;font-family:'Advent Pro';-inkscape-font-specification:'Advent Pro'">del Terzo Luogo</tspan></tspan></text>
        </g>
      </g>
    </g>
  </g>
</svg>
