<?xml version="1.0" encoding="UTF-8" standalone="no"?>
<svg
   xmlns:dc="http://purl.org/dc/elements/1.1/"
   xmlns:cc="http://creativecommons.org/ns#"
   xmlns:rdf="http://www.w3.org/1999/02/22-rdf-syntax-ns#"
   xmlns:svg="http://www.w3.org/2000/svg"
   xmlns="http://www.w3.org/2000/svg"
   xmlns:xlink="http://www.w3.org/1999/xlink"
   xmlns:sodipodi="http://sodipodi.sourceforge.net/DTD/sodipodi-0.dtd"
   xmlns:inkscape="http://www.inkscape.org/namespaces/inkscape"
   version="1.1"
   viewBox="0 0 1676.7 1881.2"
   id="svg322"
   sodipodi:docname="radice-giardini.svg"
   inkscape:version="1.0.2 (e86c870879, 2021-01-15)">
  <metadata
     id="metadata328">
    <rdf:RDF>
      <cc:Work
         rdf:about="">
        <dc:format>image/svg+xml</dc:format>
        <dc:type
           rdf:resource="http://purl.org/dc/dcmitype/StillImage" />
        <dc:title></dc:title>
      </cc:Work>
    </rdf:RDF>
  </metadata>
  <defs
     id="defs326">
    <rect
       x="435.83632"
       y="-282.6352"
       width="385.52838"
       height="193.8905"
       id="rect1602" />
    <rect
       x="3105.1837"
       y="-2092.8805"
       width="656.57201"
       height="304.26304"
       id="rect1305" />
    <rect
       x="2034.3771"
       y="-1149.6123"
       width="102.29704"
       height="483.78391"
       id="rect1299" />
    <rect
       x="-98.891148"
       y="-394.86172"
       width="1036.6198"
       height="206.42554"
       id="rect1293" />
    <rect
       x="-98.891151"
       y="-394.86172"
       width="1036.6198"
       height="206.42554"
       id="rect1293-0" />
    <rect
       x="-98.891151"
       y="-394.86172"
       width="1036.6198"
       height="206.42554"
       id="rect1318" />
    <rect
       x="-98.891151"
       y="-394.86172"
       width="1036.6198"
       height="206.42554"
       id="rect1293-0-0" />
    <rect
       x="-98.891151"
       y="-394.86172"
       width="1036.6198"
       height="206.42554"
       id="rect1354" />
    <rect
       x="-98.891151"
       y="-394.86172"
       width="1036.6198"
       height="206.42554"
       id="rect1293-0-1" />
    <rect
       x="-98.891151"
       y="-394.86172"
       width="1036.6198"
       height="206.42554"
       id="rect1390" />
    <rect
       x="-98.891151"
       y="-394.86172"
       width="1036.6198"
       height="206.42554"
       id="rect1293-0-1-9" />
    <rect
       x="-98.891151"
       y="-394.86172"
       width="1036.6198"
       height="206.42554"
       id="rect1426" />
    <rect
       x="-98.891151"
       y="-394.86172"
       width="1036.6198"
       height="206.42554"
       id="rect1293-0-1-9-6" />
    <rect
       x="-98.891151"
       y="-394.86172"
       width="1036.6198"
       height="206.42554"
       id="rect1463" />
    <rect
       x="-98.891151"
       y="-394.86172"
       width="1036.6198"
       height="206.42554"
       id="rect1293-0-1-9-6-1" />
    <rect
       x="-98.891151"
       y="-394.86172"
       width="1036.6198"
       height="206.42554"
       id="rect1499" />
    <rect
       x="-98.891151"
       y="-394.86172"
       width="1036.6198"
       height="206.42554"
       id="rect1293-0-1-9-6-1-5" />
    <rect
       x="-98.891151"
       y="-394.86172"
       width="1036.6198"
       height="206.42554"
       id="rect1536" />
    <rect
       x="-98.891151"
       y="-394.86172"
       width="1036.6198"
       height="206.42554"
       id="rect1293-0-1-9-9" />
    <rect
       x="-98.891151"
       y="-394.86172"
       width="1036.6198"
       height="206.42554"
       id="rect1573" />
    <rect
       x="-98.891151"
       y="-394.86172"
       width="1036.6198"
       height="206.42554"
       id="rect1293-0-1-9-9-8" />
    <rect
       x="-98.891151"
       y="-394.86172"
       width="1036.6198"
       height="206.42554"
       id="rect1615" />
    <rect
       x="-98.891151"
       y="-394.86172"
       width="1036.6198"
       height="206.42554"
       id="rect1293-0-1-9-9-8-7" />
    <rect
       x="-98.891151"
       y="-394.86172"
       width="1036.6198"
       height="206.42554"
       id="rect1652" />
    <rect
       x="-98.891151"
       y="-394.86172"
       width="1036.6198"
       height="206.42554"
       id="rect1293-0-1-9-9-8-7-5" />
    <rect
       x="-98.891151"
       y="-394.86172"
       width="1036.6198"
       height="206.42554"
       id="rect1689" />
    <filter
       inkscape:collect="always"
       style="color-interpolation-filters:sRGB"
       id="filter11436"
       x="-6.0559289e-05"
       width="1.0001211"
       y="-0.00041279476"
       height="1.0008256">
      <feGaussianBlur
         inkscape:collect="always"
         stdDeviation="0.011779401"
         id="feGaussianBlur11438" />
    </filter>
  </defs>
  <sodipodi:namedview
     pagecolor="#ffffff"
     bordercolor="#666666"
     borderopacity="1"
     objecttolerance="10"
     gridtolerance="10"
     guidetolerance="10"
     inkscape:pageopacity="0"
     inkscape:pageshadow="2"
     inkscape:window-width="1920"
     inkscape:window-height="1008"
     id="namedview324"
     showgrid="false"
     inkscape:zoom="0.46345721"
     inkscape:cx="796.27692"
     inkscape:cy="799.89551"
     inkscape:window-x="0"
     inkscape:window-y="0"
     inkscape:window-maximized="1"
     inkscape:current-layer="svg322"
     inkscape:snap-text-baseline="true"
     inkscape:document-rotation="0" />
  <path
     d="m 934.33,1550.9 c 0,-50.272 -8.3849,-105.87 -22.147,-154.16 -5.0803,-17.825 -16.28,-33.94 -21.093,-52.177 -8.1406,-30.848 -13.215,-66.706 -16.874,-98.803 -4.0843,-35.828 29.618,-62.95 27.42,-98.803 -2.7496,-44.86 -19.721,-88.337 -28.475,-132.11 -6.6589,-33.296 -3.8242,-69.532 -7.3826,-103.24 -5.2132,-49.388 -18.906,-93.912 -31.489,-141.59 -8.8931,-33.7 -2.7859,-90.292 -4.2187,-126.49 -1.1592,-29.287 -6.4222,-58.388 -7.3823,-87.701 -2.2952,-70.067 -1.9701,-139.78 1.0545,-209.82 1.966,-45.522 12.918,-88.384 17.929,-133.22 4.1104,-36.776 18.427,-161.06 13.022,-176.9 -2.119,-6.2128 -18.21509,-25.757152 -22.56909,-30.6701521 m 0,0 C 830.86941,43.152848 836.4273,79.391 834.4793,117.317 c -1.4492,28.219 -8.3285,50.38 -12.656,77.71 -6.8095,43.009 -14.541,87.311 -17.929,131 -1.9081,24.605 0.8902,15.552 3.1639,39.965 3.2342,34.726 5.595,70.656 7.3823,105.46 1.5924,31.011 -3.1639,61.231 -3.1639,92.142 0,52.614 7.5529,96.515 1.0546,149.87 -5.5394,45.48 -13.779,90.1 -21.092,135.44 -5.0789,31.483 -5.8427,10.353 -8.4371,41.075 -3.0792,36.463 -2.6425,73.398 -4.2187,109.9 -1.8472,42.781 -3.4517,58.074 -2.242,100.94 0.37106,13.15 -0.87641,44.807 0.54879,62.519 2.1905,27.223 -18.642,103.1 -23.618,136.27 -7.9424,52.95 -8.532,107.66 -11.601,160.97 -1.3117,22.784 -8.2497,45.156 -10.546,67.718 -2.926,28.748 -5.4976,57.862 -9.4916,86.591 -5.7491,41.353 -21.102,81.232 -23.202,123.23 -1.4917,29.829 3.517,60.332 6.3278,89.922 1.5557,16.378 0.1142,36.916 5.0863,52.621"
     style="fill:none;stroke:#000000;stroke-width:3.5"
     id="path2"
     sodipodi:nodetypes="cccscsccsccccccccssssccsssscsssssc" />
  <path
     d="m1225.1 604.82c-6.911-6.3874-60.555-23.048-61.42-23.344-24.488-8.3651-42.62-22.07-59.888-32.858-6.7317-4.2052-9.8878-13.296-15.593-18.634-19.08-17.853-36.629-37.057-51.677-58.837-5.3782-7.7843-7.0678-18.675-14.487-27.46-25.027-29.637-24.186-63.889-46.898-97.093-17.776-25.988-49.155-46.192-61.265-74.003-14.399-33.07-31.496-68.396-37.403-104.17-5.8982-35.72-23.991-61.631-29.869-97.519-1.7511-10.691-2.6673-15.438-3.3751-26.249-0.7887-12.048-12.369-28.987-11.46-41.027-0.8485 16.167 10.611 16.85 20.63 37.592 10.068 20.844 11.834 31.821 12.656 34.414 10.977 34.663 13.809 76.988 32.694 108.79 13.819 23.275 33.326 40.472 48.513 62.168 8.765 12.521 15.68 28.448 27.42 38.855 18.483 16.384 41.65 27.879 61.041 43.188 22.012 17.378 43.565 36.194 65.028 54.073"
     style="fill:none;stroke-width:3;stroke:#000"
     id="path4" />
  <path
     d="m821.18 429.42c10.367 10.507 23.897 70.716 34.535 80.948 11.918 11.463 27.54 20.224 38.74 32.332 20.408 22.061 42.797 44.961 69.752 59.148"
     style="fill:none;stroke:#000"
     id="path6" />
  <path
     d="m842.57 309.69c7.5366 19.063 14.024 38.574 22.61 57.188 7.2939 15.814 70.431 45.288 89.644 51.066 23.483 7.0623 39.88 3.3053 55.142 25.906"
     style="fill:none;stroke:#000"
     id="path8" />
  <path
     d="m 834.35998,104.19069 c -23.009,19.708 -23.56298,69.02431 -41.35898,92.64231 -2.7644,3.6689 -6.328,6.6609 -9.4919,9.9913 -8.4371,11.101 -17.562,21.712 -25.311,33.304 -43.326,64.809 -58.077,148.58 -119.66,200.44"
     style="fill:none;stroke:#000000"
     id="path10"
     sodipodi:nodetypes="csccc" />
  <path
     d="m831.78 3.6612c-7.7069 20.921-18.653 40.92-23.121 62.763-7.3924 36.143 12.932 75.437 4.2184 112.12-8.5451 35.98-28.763 67.527-39.021 103.24-9.2265 32.124-13.69 63.943-28.475 94.362-14.427 29.682-38.264 60.882-46.404 93.252-16.687 66.357-15.392 138.67-44.294 202.05-24.375 53.452-93.863 154.88-93.863 208.71"
     style="fill:none;stroke-width:3;stroke:#000"
     id="path12" />
  <path
     d="m841.72 216.77c-6.2267 87.986 10.702 88.686-12.263 175.31-12.109 45.676-28.514 90.11-37.967 136.55-7.5894 37.282-10.24 74.894-17.929 112.12-4.6862 22.691-13.926 43.98-18.984 66.608-11.502 51.456-11.831 104.42-26.366 155.42-18.461 64.774-35.642 129.42-49.568 195.38-3.9693 18.803-11.601 36.173-11.601 55.507"
     style="fill:none;stroke:#000;stroke-width:2;stroke-miterlimit:4;stroke-dasharray:none"
     id="path14" />
  <path
     d="m 846.7734,170.84411 c 4.9216,25.533 6.8752,60.36289 11.9516,85.86589 4.7607,23.918 12.75,53.398 13.614,78.864 0.5315,15.663 -3.5106,31.579 -1.0548,47.736 5.5105,36.254 13.475,72.229 17.929,108.79 1.5711,12.899 0.6696,26.102 3.1639,38.855 4.8456,24.775 14.452,45.974 21.093,69.939 5.1009,18.409 5.7288,38.074 11.601,56.617"
     style="fill:none;stroke:#000000;stroke-width:3"
     id="path16"
     sodipodi:nodetypes="ccsscscc" />
  <path
     d="m 833.64801,63.868534 c 19.593,93.014996 18.69544,74.830536 22.87244,93.881536 11.981,54.65 25.13955,69.15793 51.01655,119.44993 8.1499,15.838 16.715,24.768 27.42,38.855 17.585,23.138 21.574,70.055 35.768,95.455 18.338,32.815 31.284,61.713 48.884,94.648 9.1022,17.033 10.504,16.533 22.025,38.266 16.108,30.385 18.21,57.324 19.348,58.821"
     style="fill:none;stroke:#000000;stroke-width:4"
     id="path18"
     sodipodi:nodetypes="cccccscc" />
  <path
     d="m 834.33979,100.92949 c 2.4068,-0.37325 13.61973,20.93112 18.82941,32.23051 8.17596,17.73302 8.1285,38.11 19.276,55.319 14.816,22.873 98.421,99.004 140.16,84.358"
     style="fill:none;stroke:#000000"
     id="path20"
     sodipodi:nodetypes="cacc" />
  <path
     d="m 832.87285,42.420374 c -1.4229,8.497 38.45615,84.149976 39.46135,92.706976 2.4147,20.554 37.992,65.00465 51.155,71.11765 18.247,8.4737 35.962,20.87 55.896,25.533 41.865,9.7933 86.039,17.81 129.3,15.413 22.409,-1.2414 46.318,-5.6724 68.551,-4.4406 27.49,1.5231 77.705,19.916 100.72,13.382"
     style="fill:none;stroke:#000000;stroke-width:3"
     id="path22"
     sodipodi:nodetypes="cccscsc" />
  <path
     d="m835.13 5.7512c-4.4123 37.797-21.727 182.47-42.768 211.43-21.652 29.804-40.83 60.005-65.387 87.701-8.9343 10.076-20.377 17.009-29.53 26.643-20.723 21.814-39.424 42.804-64.333 59.948-39.092 26.906-51.308 76.157-93.129 98.166"
     style="fill:none;stroke:#000"
     id="path24" />
  <path
     d="m831.78 3.6612c-48.107 61.443-18.512 150.47-64.808 211.01-20.313 53.455-118.22 146.36-166.63 179.84-22.451 15.53-20.169 14.351-44.273 27.037-12.76 6.7156-19.764 8.752-39.511 22.263-3.5009 2.3954-25.772 18.523-21.853 16.9 2.5673-1.0629-17.187 10.995-14.599 9.9829"
     style="fill:none;stroke-width:3;stroke:#000"
     id="path26" />
  <path
     d="m831.78 3.6612c-8.2951 29.443-10.048 52.111-16.179 82.08-2.2252 10.876-7.9135 53.144-8.4922 64.23-1.1802 22.61-4.2938 20.433-5.4871 43.043-3.0494 57.776 1.8297 113.01-10.546 169.85-8.7092 40.004-48.672 80.004-61.169 123.23-8.3386 28.84-11.569 58.713-18.983 87.701-8.3402 32.609-25.304 63.167-34.803 95.472-10.441 35.507-21.362 71.313-28.475 107.68-4.5821 23.427-5.4267 47.025-9.4917 70.472"
     style="fill:none;stroke:#000"
     id="path28" />
  <path
     d="m812.24 437.52c-47.999 74.2-71.631 159.24-122.34 232.02-5.2464 7.5306-5.1094 15.37-10.285 20.818"
     style="fill:none;stroke:#000;stroke-width:1.6;stroke-miterlimit:4;stroke-dasharray:none"
     id="path30" />
  <path
     d="m736.94 823.47c15.904 73.941 7.6404 16.402 7.6404 86.404 0 50.597 5.9151 101.4 3.1639 152.09-1.6541 30.473-8.4301 65.52 1.0548 95.472"
     style="fill:none;stroke:#000"
     id="path32" />
  <path
     d="m830.54 628.82c4.1429 7.4498 42.814 76.525 47.459 86.591 8.9256 19.343 13 41.801 22.147 61.058 11.075 23.316 28.843 43.68 41.131 66.609 11.44 21.347 15.795 42.068 36.378 55.067"
     style="fill:none;stroke:#000"
     id="path34" />
  <path
     d="m908.61 256.88c-7.8296 21.678-17.198 42.861-23.489 65.035-7.6697 27.036 2.1091 76.259 2.1091 105.46 0 32.693-4.2611 64.597-6.3277 97.227-2.4488 38.662 1.0548 78.688 1.0548 117.54"
     style="fill:none;stroke:#000"
     id="path36" />
  <path
     d="m 851.00659,202.69887 c 2.4851,7.0062 17.07441,53.99113 19.89341,59.81113 8.9262,18.431 7.3298,17.245 14.984,36.485 4.6113,11.59 15.152,21.468 18.412,36.098 2.0259,9.0929 6.5127,17.528 8.4369,26.643 2.8034,13.28 12.497,79.526 14.67,93.25"
     style="fill:none;stroke:#000000;stroke-width:1.3795"
     id="path38"
     sodipodi:nodetypes="ccccsc" />
  <path
     d="m775.18 270.47c-86.564 95.1-101.76 196.55-129.69 266.17-10.071 25.107-18.12 50.736-35.478 71.759"
     style="fill:none;stroke:#000"
     id="path40" />
  <path
     d="m753.7 1302.3c-0.0528 1.838-0.26911 3.6785-0.15847 5.5139 0.26038 4.3194 0.93116 8.5987 1.1364 12.919 0.21959 4.6233-0.77248 9.7942 0.22732 14.355 0.49121 2.2406 1.3713 4.1521 1.804 6.4296 0.46282 2.4359 0.39316 5.2978 1.1364 7.6558 1.2391 3.931 4.1576 7.0592 4.6119 11.362 0.61895 5.8629 0.9014 12.875 3.1157 18.405 1.2872 3.2146 3.5648 6.2658 4.5456 9.5698 0.95318 3.2106 0.61711 6.6423 1.8116 9.7949"
     style="fill:none;stroke-width:1px;stroke:#000"
     id="path42" />
  <path
     d="m772.53 1200.9c-4.3128 5.3995-8.4128 10.951-12.191 16.736-5.9685 9.1383-11.599 18.435-17.273 27.752-2.4799 4.0723-5.4786 7.9761-7.273 12.441-5.413 13.468-2.5471 29.612-17.81 36.262"
     style="fill:none;stroke-width:1px;stroke:#000"
     id="path44" />
  <path
     d="m902.39 1142.3c-0.4047 12.2 3.8265 23.464 7.3097 34.831 2.9828 9.7335 5.6506 19.04 9.5458 28.47 2.2844 5.5306 5.3415 11.545 6.5912 17.465 1.4019 6.6404 2.2112 13.508 5.1947 19.788"
     style="fill:none;stroke-width:1px;stroke:#000"
     id="path46" />
  <path
     d="m876.51 1291.1c-0.017 24.725-5.5975 49.105-9.5458 73.448-0.8902 5.4885-0.2159 18.002-1.9794 22.529"
     style="fill:none;stroke-width:1px;stroke:#000"
     id="path48" />
  <path
     d="m781.78 1003.7c2.6508 9.2083 3.2736 19.173 5.5182 28.574 0.70023 2.9329 2.1924 5.6096 2.7274 8.6128 1.128 6.3327 1.168 13.488 3.1774 19.566 2.3282 7.0421 4.7811 13.91 7.0064 20.953"
     style="fill:none;stroke-width:1px;stroke:#000"
     id="path50" />
  <path
     d="m862.84 901.47c-5.5347 13.099-4.3963 28.091-9.8471 41.206-4.0166 9.6641-9.2964 18.586-12.273 28.709-3.4058 11.582-4.5456 27.883-4.5456 39.954 0 2.6744 0.9091 5.192 0.9091 7.8551"
     style="fill:none;stroke-width:1px;stroke:#000"
     id="path52" />
  <path
     d="m880.8 1036.3c1.4573 3.4129 3.1138 6.7474 4.3719 10.238 0.8106 2.2492 1.2122 4.6254 1.8183 6.9381 0.9091 2.9507 1.6372 5.9634 2.7274 8.852 3.9795 10.544 12.643 22.643 20.228 30.862 4.0643 4.4041 8.7006 7.5388 12.728 11.962 2.4672 2.71 5.5453 6.057 7.273 9.3305 0.8843 1.6755 0.6238 2.6249 1.591 4.0671 1.455 2.1698 3.0766 3.7345 3.8638 6.2204"
     style="fill:none;stroke-width:1px;stroke:#000"
     id="path54" />
  <path
     d="m917.84 1429.3c-0.246 7.4226 0.9713 14.835 0.6818 22.25-0.5145 13.18-2.959 26.423-8.1821 38.518-3.968 9.1892-10.682 16.16-10.682 26.69"
     style="fill:none;stroke-width:1px;stroke:#000"
     id="path56" />
  <path
     d="m732.86 1520.3c0.53031 2.0385 0.78856 4.1679 1.591 6.1154 2.6616 6.4601 6.651 12.111 10 18.182 3.4885 6.3243 6.0824 13.163 9.7731 19.379 1.817 3.0603 4.2978 5.5512 5.7979 8.6792"
     style="fill:none;stroke-width:1px;stroke:#000"
     id="path58" />
  <path
     d="m1095.3 251.61c2.2419 1.5018 4.4805 3.0085 6.7257 4.5053 4.7378 3.1586 9.8553 6.1597 14.369 9.6542 6.8764 5.324 12.574 12.274 20.706 16.019 3.2211 1.4834 6.1091 1.0772 9.4772 1.609 4.4028 0.69519 8.6412 1.6892 12.998 2.4998"
     style="fill:none;stroke-width:1px;stroke:#000"
     id="path62" />
  <path
     d="m1165.5 241.42c16.881-1.8312 2.04 0.26978 24.477-5.1806 14.335-3.4822 28.873-5.3128 43.106-9.3324 2.1241-0.59989 10.694-3.592 11.312-3.8617 4.9043-2.1405 17.42-9.861 22.951-8.6888 1.9364 0.41035 3.7113 1.0553 5.6049 1.5783"
     style="fill:none;stroke-width:1px;stroke:#000"
     id="path64" />
  <path
     d="m1042.3 333.6c6.0362 4.4586 2.3398 1.9958 8.2913 5.4413 8.1209 4.7016 9.2201 5.3416 18.656 7.3194 3.0487 0.63905 7.5002 0.43309 10.135 1.8804 9.51 5.2236 8.2312 10.236 21.509 10.236"
     style="fill:none;stroke-width:1px;stroke:#000"
     id="path66" />
  <path
     d="m1005.5 308.79c0.02 3.1891 2.9013 5.1525 3.5019 8.1074 2.0264 9.9698 3.6 26.57 9.4772 35.077 2.8729 4.1581 6.1249 8.1933 9.04 12.254"
     style="fill:none;stroke-width:1px;stroke:#000"
     id="path68" />
  <path
     d="m1027.2 243c3.6686 2.6817 7.2538 5.4814 11.006 8.0452 7.03 4.8035 14.624 9.0942 19.872 16.09 4.0114 5.3486 6.5558 11.589 10.394 17.056 2.616 3.7255 5.0013 5.7494 8.2543 9.0106 8.0339 8.054 15.535 15.577 26.494 19.224"
     style="fill:none;stroke-width:1px;stroke:#000"
     id="path70" />
  <path
     d="m931.34 409.12c4.1424 10.964 5.8273 16.018 10.924 26.889 4.3973 9.3794 10.34 17.593 14.98 26.71 7.7346 15.198 14.543 31.534 23.54 46.018 2.665 4.2904 5.6452 8.478 8.2543 12.872 3.5432 5.9674 5.9369 12.724 10.089 18.343 1.9018 2.5738 4.2336 4.8125 6.1144 7.4015 0.9487 1.3058 1.8346 3.2122 3.0192 4.4591"
     style="fill:none;stroke-width:1px;stroke:#000"
     id="path72" />
  <path
     d="m1084.7 525.52c17.769 5.8715 5.3013 2.7089 25.523 5.0739 31.495 3.6836 5.7071 0.13856 32.154 3.6184 13.607 1.7904 9.8309-0.17836 23.487 0.56514 3.063 0.1668 10.792 2.2768 13.146 2.8963 4.0574 1.0677 7.7474 3.2603 11.617 4.8271 7.0641 2.86 16.388 6.1143 24.152 6.1143"
     style="fill:none;stroke-width:1px;stroke:#000"
     id="path74" />
  <path
     d="m652.26 352.44c-5.4135 9.0146-7.9856 19.402-12.849 28.68-6.0805 11.601-13.78 22.723-20.789 33.79-3.9734 6.2737-8.4032 12.42-11.311 19.308-2.8486 6.7468-4.4348 14.21-6.42 21.239-3.381 11.971-8.1841 23.384-14.98 33.79"
     style="fill:none;stroke-width:1px;stroke:#000"
     id="path76" />
  <path
     d="m693.3 501.12c-12.367 9.9461-23.917 21.309-33.84 33.755-4.8952 6.1395-9.5854 14.469-16.509 18.665-6.2784 3.8051-13.326 7.3191-20.177 9.976-6.0877 2.3609-13.005 3.9463-18.896 6.758-6.4732 3.0899-7.4039 4.135-14.99 6.0151"
     style="fill:none;stroke-width:1px;stroke:#000"
     id="path78" />
  <text
     x="161.30817"
     y="-277.12881"
     style="fill:#000000;font-family:sans-serif;font-size:40px;line-height:1.25;shape-inside:url(#rect2179);white-space:pre;"
     xml:space="preserve"
     id="text82" />
  <text
     x="161.30817"
     y="-277.12881"
     style="fill:#000000;font-family:sans-serif;font-size:40px;line-height:1.25;shape-inside:url(#rect2415);white-space:pre;"
     xml:space="preserve"
     id="text84" />
  <path
     d="m613.99 748.57-0.78498 46.792"
     style="fill:none;stroke-width:1px;stroke:#000"
     id="path248" />
  <path
     d="m719.94 620.51-1.7454 30.962"
     style="fill:none;stroke-width:1px;stroke:#000"
     id="path250" />
  <path
     d="m768.29 662.92 4.1764 27.374"
     style="fill:none;stroke-width:1px;stroke:#000"
     id="path252" />
  <path
     d="m913.75 368.36-9.9202 40.052"
     style="fill:none;stroke-width:1px;stroke:#000"
     id="path254" />
  <path
     d="m705.57 1691.6 4.4318 59"
     style="fill:none;stroke-width:1px;stroke:#000"
     id="path256" />
  <path
     d="m723.46 1611.4c-5.371 7.535-10.609 15.134-15.334 23.091-1.0317 1.7376-2.4358 3.3392-3.3616 5.1113-2.4706 4.7285-4.6321 9.872-7.8438 14.154-3.5175 4.69-7.5785 8.3793-11.76 12.487-4.389 4.312-8.8137 8.7638-13.394 12.717-3.038 2.6222-4.9202 6.1621-7.657 9.043-2.5958 2.7324-6.0065 4.5534-8.5909 7.2737-1.3958 1.4692-2.2804 3.5113-3.7598 4.8571"
     style="fill:none;stroke-width:1px;stroke:#000"
     id="path258" />
  <path
     d="m703.11 1806.8c3.572 8.146 4.963 17.106 8.0141 25.403 1.0497 2.8545 2.7199 5.4001 3.7352 8.2301 0.4873 1.3584 2.0622 2.2421 2.8359 3.3474 0.90952 1.2993 1.089 2.1222 1.9964 3.281"
     style="fill:none;stroke-width:1px;stroke:#000"
     id="path260" />
  <path
     d="m746.52 1381.2c-1.8953 9.123-6.5958 17.347-9.5 26.081-0.10338 0.3109 0.12575 0.6804 0 0.983-0.32327 0.7778-1.0323 1.3663-1.3073 2.1624-0.23624 0.6839-0.0196 1.4586-0.18676 2.1625-0.36544 1.5387-1.2369 3.0027-1.6808 4.5215-2.3876 8.1679 0.91995-1.7276-1.6808 6.0942-4.01 12.06-16 26.649-27.35 31.578"
     style="fill:none;stroke-width:1px;stroke:#000"
     id="path262" />
  <path
     d="m873.88 1235.8c2.3996 6.3256 4.7909 12.685 6.5128 19.238 0.7217 2.7466 0.9651 5.9581 1.8676 8.6498 2.5861 7.7131 9.1402 19.451 14.754 25.36 4.8732 5.1296 11.57 6.7785 16.995 11.009 3.5323 2.7542 3.7171 7.7664 5.7895 11.402"
     style="fill:none;stroke-width:1px;stroke:#000"
     id="path264" />
  <path
     d="m899.41 775.47c4.2607 5.8873 4.4008 13.526 6.3297 20.125 0.3831 1.3105 1.3884 2.4015 1.6808 3.7352 0.2696 1.2297 0.3175 2.4998 0.5603 3.7351 0.4775 2.4293 1.2804 3.0721 1.8676 5.8976 0.16 0.7699-0.1625 1.5896 0 2.359 0.3407 1.6141 1.083 3.1205 1.4941 4.7181 0.3994 1.5527 0.5138 3.1709 0.9338 4.7181 0.2056 0.7578 0.6225 1.4417 0.9338 2.1625 0.3735 1.0484 0.829 2.0712 1.1206 3.1454 0.9202 3.3902-1.5834 8.416-0.9299 11.085 0.8629 3.5233 3.7223 7.898 3.7223 11.323"
     style="fill:none;stroke-width:1px;stroke:#000"
     id="path266" />
  <path
     d="m915.76 602.61c4.2683 10.853 8.7496 21.5 13.984 31.909 1.6351 3.2512 3.431 7.1502 5.9762 9.8294 4.2372 4.4602 9.4195 7.1628 14.437 10.511"
     style="fill:none;stroke-width:1px;stroke:#000"
     id="path268" />
  <path
     d="m971.97 495.8c0.5109 8.5776 2.1148 16.989 2.4278 25.556 0.1336 3.6559 0.6869 7.859-0.1594 11.497"
     style="fill:none;stroke-width:1px;stroke:#000"
     id="path270" />
  <path
     d="m743.92 454.62c0.24246 1.6976 0.58005 3.3844 0.72738 5.0929 0.21695 2.5158-0.33956 5.1649 0 7.6669 0.56626 4.1724 0.71244 8.4071 1.3073 12.582 0.68922 4.8366 3.5241 10.018 4.1087 14.941 0.48979 4.1246 1.0852 6.2065 2.5054 10.442"
     style="fill:none;stroke-width:1px;stroke:#000"
     id="path272" />
  <path
     d="m741.81 384.88c-1.3015 4.537-1.5638 9.2369-2.7969 13.78-0.16709 0.61558-1.225 3.788-1.3073 4.9147-0.21882 2.9943 3e-3 6.0446-0.18676 9.043-0.2037 3.2163-1.592 6.7059-2.2411 9.8293-0.81662 3.9296-1.3944 8.0556-2.0543 11.992-0.47194 2.8151 0.24518 10.459-0.74304 12.539"
     style="fill:none;stroke-width:1px;stroke:#000"
     id="path274" />
  <path
     d="m846.08 162.56c-3.9888 5.0868-6.7831 10.995-9.8018 16.681-0.3537 0.66622-0.8857 1.2491-1.1206 1.9659-0.3953 1.2066-0.4251 2.5069-0.747 3.7351-0.7156 2.7304-1.866 5.4015-2.8014 8.0601-0.6512 1.8508-0.6555 3.8651-1.1205 5.701-0.4316 1.7034-1.0517 2.2188-1.4941 3.7234-0.7299 2.4824-0.8265 4.9575-1.2961 7.4291-0.5489 2.8891-2.1156 5.6443-3.0812 8.4056-1.6986 4.8571-2.5551 10.038-4.4476 14.819-0.7703 1.9459-2.4297 3.616-3.2218 5.5336-0.8074 1.9548-1.3431 3.2647-2.0289 4.9429-1.7175 4.2033-0.891 9.3143-2.5907 13.489-0.6709 1.6479-2.5049 3.3769-3.5484 4.9147-2.1802 3.2129-4.4124 6.2173-7.0968 9.043-2.1535 2.2668-4.0123 3.7288-5.416 6.684-1.7542 3.6931-2.606 8.2278-4.6689 11.795-1.5262 2.6392-3.4402 5.8584-5.0425 8.4532-0.79911 1.2941-4.9076 5.546-5.309 6.5586-0.63492 1.6015-0.70454 3.1481-1.4939 4.7177-1.3003 2.5854-4.2964 5.0494-6.3926 6.8802"
     style="fill:none;stroke-width:1px;stroke:#000"
     id="path276" />
  <path
     d="m763.91 322.36c2.317 5.9658 3.892 12.136 5.5092 18.307 0.9143 3.4888 2.63 6.2033 4.1087 9.4362 1.3358 2.9203 3.2076 7.9929 4.1052 10.922 1.3986 4.5638 0.80389 9.5387 1.6808 14.154 0.53315 2.8061 1.3899 4.7067 1.6808 7.6669 0.29896 3.0421 0.0534 6.5656 1.1206 9.4362 1.1432 3.0753 2.7165 5.9978 3.9219 9.043 0.60064 1.5174 0.75194 3.1835 1.3073 4.7181 0.79968 2.2097 2.6146 4.189 2.6146 6.6826"
     style="fill:none;stroke-width:1px;stroke:#000"
     id="path278" />
  <path
     d="m915.6 290.64c5.2904 9.5771 7.5416 20.223 11.019 30.471 1.4836 4.3728 3.2085 8.0048 4.2954 12.582 1.5054 6.3383 1.8194 12.978 3.5484 19.266 1.6097 5.8534 2.9029 11.897 4.6689 17.693 1.7036 5.5907 3.8483 11.213 5.2292 16.906 1.9312 7.9621 1.8753 16.45 2.8014 24.573 0.2899 2.5433 0.2417 5.1516 0.5603 7.6669 0.2099 1.6575 1.7617 3.6681 2.2335 5.2517 0.2766 0.92825 1.8281 9.6158 1.4977 10.536"
     style="fill:none;stroke-width:1px;stroke:#000"
     id="path280" />
  <path
     d="m822.12 537.25c2.0169 4.007 6.6435 6.0221 8.9232 9.793 2.3725 3.9245 4.6737 8.7152 5.9762 13.171 0.4467 1.5283 0.2384 3.2092 0.747 4.7181 1.0284 3.0506 3.9125 6.3508 5.416 8.8464 2.4683 4.0971 3.5614 9.3339 5.2292 13.761 1.5811 4.1969 3.5318 8.2248 5.6027 12.188 3.2065 6.1368 11.044 8.1237 13.954 13.462"
     style="fill:none;stroke-width:1px;stroke:#000"
     id="path282" />
  <path
     d="m811.19 585.51c-0.4158 1.6114-0.9513 3.1967-1.2474 4.8343-0.2459 1.3597-0.181 2.7601-0.3735 4.1283-0.4704 3.3421-1.5983 6.666-2.0543 10.026-0.2664 1.9628-0.3676 3.9605-0.9338 5.8976-1.0834 3.7066-2.8149 7.1223-3.9219 10.812-1.4409 4.8032-2.3627 9.7317-3.7352 14.547-1.436 5.0385-3.3796 9.7075-4.2954 14.941-0.75008 4.2862-0.92894 8.7009-1.6808 12.975-0.55605 3.1607-1.6343 6.3336-2.4278 9.4362-0.56282 2.2005-0.25701 7.0954-2.0092 8.4235"
     style="fill:none;stroke-width:1px;stroke:#000"
     id="path284" />
  <path
     d="m1009.7 484.03c-0.2654 6.2595 2.1145 12.296 1.0504 18.697-0.4163 2.5039-1.5779 4.5177-1.4941 7.0771 0.1823 5.5647 2.0316 10.651 2.8013 16.12 0.9308 6.6141-0.462 14.827-0.747 21.428-0.034 0.78808 0.1245 1.5727 0.1868 2.3591 0 1.7038 0.079 3.4093 0 5.1112-0.3928 8.4745-3.9219 16.426-3.9219 24.862"
     style="fill:none;stroke-width:1px;stroke:#000"
     id="path286" />
  <path
     d="m1043.6 545.04c7.3584 12.103-1.9146-2.9413 6.91 10.616 6.353 9.7599 9.9258 13.974 20.17 19.855 5.7914 3.3252 11.332 5.0996 15.874 10.222 1.4889 1.6792 3.4088 3.4972 4.1003 5.6739"
     style="fill:none;stroke-width:1px;stroke:#000"
     id="path288" />
  <path
     d="m999.85 399.51c1.1504 1.1396 2.301 2.2793 3.4514 3.419 1.6186 1.245 3.3804 2.3233 4.8557 3.7352 1.0074 0.96401 5.2728 6.6965 6.3498 7.8635 3.8858 4.2106 8.8244 8.805 13.82 11.599 9.6053 5.3714 19.244 6.9776 29.694 9.6328 3.5054 0.89065 7.2452 2.4952 10.651 3.671"
     style="fill:none;stroke-width:1px;stroke:#000"
     id="path290" />
  <path
     d="m992.46 235.03c6.871-0.42512 14.178-2.249 20.496-5.1308 4.3276-1.974 8.3872-4.9088 12.886-6.4874 3.1625-1.1096 5.7888-0.97393 8.9644-2.1625 8.0584-3.016 16.197-6.684 24.963-6.684"
     style="fill:none;stroke-width:1px;stroke:#000"
     id="path292" />
  <path
     d="m1127.6 244.32c8.5957-3.1814 12.694-7.9059 19.196-13.817 0.9756-0.88689 2.1637-1.513 3.1749-2.359 5.3599-4.4847 10.186-9.6274 15.314-14.351 1.8716-1.7238 3.995-3.2003 6.163-4.5215 0.6839-0.41677 1.4453-0.55313 2.0018-1.1389"
     style="fill:none;stroke-width:1px;stroke:#000"
     id="path294" />
  <path
     d="m1247.8 257.23 27.029 26.603"
     style="fill:none;stroke-width:1px;stroke:#000"
     id="path296" />
  <path
     d="m823.66 355.14c2.3806 2.8296 4.01 6.4008 4.9054 9.9821 1.2072 4.8286 1.3052 9.6268 2.9881 14.351 2.5026 7.0248 5.9789 14.316 9.8982 20.642 1.884 3.0409 4.1906 5.8474 6.163 8.8464 3.8741 5.8904 6.0416 12.21 8.4041 18.676 0.5833 1.5964 1.6896 3.0065 2.4279 4.4813"
     style="fill:none;stroke-width:1px;stroke:#000"
     id="path298" />
  <path
     d="m524.97 438.69c-0.83188 2.9167-1.6802 5.8288-2.4956 8.7502-1.4213 5.0917-2.1432 8.4117-3.9219 13.368-0.64359 1.7933-1.432 2.4362-1.5325 4.1114-0.21366 3.5627 4e-3 7.04-0.37351 10.616-0.38457 3.6433-1.5037 7.1898-2.0543 10.812-0.28721 1.8896-0.39558 8.2778-1.6218 9.2396"
     style="fill:none;stroke-width:1px;stroke:#000"
     id="path300" />
  <path
     d="m584.36 444.79c1.6574 8.1326-0.18351 16.039-1.0349 24.106-0.34228 3.2426-0.0156 6.564-0.37352 9.8293-0.52035 4.747-2.5599 9.4524-3.3616 14.154-0.80408 4.7157-1.0815 9.7708-1.494 14.547-0.16127 1.8673 0.11886 3.8393-0.49103 5.593"
     style="fill:none;stroke-width:1px;stroke:#000"
     id="path302" />
  <path
     d="m613 422.75c3.773 9.8672 0.70497 20.306 1.8676 30.341 0.15352 1.3252 0.58972 2.607 0.74703 3.9317 0.35116 2.9571-0.0302 6.4012 1.2927 9.1864"
     style="fill:none;stroke-width:1px;stroke:#000"
     id="path304" />
  <path
     d="m680.97 389.9c-3.2227 0.53867-6.0872 2.0194-8.5341 4.1659-5.3082 4.6562-8.3854 11.848-14.194 15.924-4.4167 3.0994-10.455 4.0671-15.314 6.2908-2.1148 0.96788-4.0302 2.4253-6.1298 3.342"
     style="fill:none;stroke-width:1px;stroke:#000"
     id="path306" />
  <path
     d="m678.18 439.45c-0.51655 7.1645-1.9078 14.219-2.7522 21.329-0.41215 3.4707-1.2206 4.2092-0.18676 8.0601 0.41384 1.5414 1.4669 2.8409 2.0543 4.3249 0.40928 1.034 1.3795 5.4766 1.4941 6.2908 0.0822 0.58401-0.15161 1.1994 0 1.7693 0.29187 1.0973 0.97878 2.0585 1.3073 3.1454 0.66523 2.2008 0.56027 4.9126 0.56027 7.237"
     style="fill:none;stroke-width:1px;stroke:#000"
     id="path308" />
  <path
     d="m665.04 529.71c-2.6548 10.269-3.4366 21.56-7.9171 31.307-1.7595 3.8278-3.3803 6.743-4.6689 10.812-2.26 7.137-3.2618 13.158-6.5326 20.044"
     style="fill:none;stroke-width:1px;stroke:#000"
     id="path310" />
  <path
     d="m656.65 505.93c-12.134 2.6905-20.116 13.489-30.848 19.137-2.7986 1.4729-6.698 1.2203-9.7114 1.5727-5.1235 0.59924-9.9878 2.4784-15.127 2.9488-2.0468 0.18734-4.11 0.0984-6.163 0.19659"
     style="fill:none;stroke-width:1px;stroke:#000"
     id="path312" />
  <path
     d="m719.68 533.18c1.996 10.865 2.4933 21.985 4.1253 32.865 0.16758 1.1171-0.23475 1.6454 0 2.8319 0.2816 1.4233 1.3696 2.5689 1.8676 3.9317 0.85617 2.3432 0.66229 5.255 1.1206 7.6669 0.38781 2.0411 1.0137 4.0716 1.4941 6.0942"
     style="fill:none;stroke-width:1px;stroke:#000"
     id="path314" />
  <path
     d="m705.82 592.36c-1.6379 2.1416-3.3858 4.2033-4.9136 6.4248-0.98656 1.4345-1.645 3.0755-2.6146 4.5215-0.9987 1.4893-5.8832 6.2034-6.163 6.4874-4.2459 4.3098-8.3362 8.7812-12.7 12.975-2.4464 2.3512-5.2485 4.2894-7.6571 6.6839-3.1372 3.1188-5.7103 6.8975-9.5246 9.2396-2.3946 1.4704-5.2939 1.5294-7.8438 2.5556-1.4608 0.58793-2.8308 1.3877-4.2954 1.9659-4.0428 1.5958-8.5071 2.2387-12.7 3.342"
     style="fill:none;stroke-width:1px;stroke:#000"
     id="path316" />
  <path
     style="fill:none;stroke:#000000;stroke-width:2;stroke-linecap:butt;stroke-linejoin:miter;stroke-miterlimit:4;stroke-dasharray:none;stroke-opacity:1"
     d="m 853.82679,32.62319 c 19.75163,4.295322 37.96758,24.54357 56.22075,31.622349 11.08043,4.29711 22.77922,8.562273 34.14114,11.979396 22.89761,6.886502 45.38239,-4.889311 68.28222,-1.996614 16.4117,2.073127 33.9197,4.237243 49.947,7.986264 2.417,0.565373 4.5313,2.124981 6.9547,2.662023 4.8579,1.076509 10.8045,0.226812 15.8061,0.665603 19.8291,1.739615 39.3051,-5.82637 58.7986,-7.986264 15.7101,-1.740696 31.3658,-2.934041 47.224,-3.993132 7.2208,-0.482243 14.327,0.533484 21.541,-0.665506 11.608,-1.929281 -1.512,-0.533582 7.5869,-2.662024 9.1728,-2.1457 19.1248,-2.489175 28.4463,-3.306838 10.6608,-0.935131 21.4547,-3.58931 31.8829,-5.227165 22.9824,-3.609631 46.1536,0.62308 68.9922,2.626442 10.2045,0.895127 22.4913,0.472572 32.1438,-1.996518 4.2626,-1.09034 7.8178,-2.922388 11.6141,-3.595114"
     id="path1157"
     sodipodi:nodetypes="cssssssssssssssc" />
  <path
     style="fill:none;stroke:#000000;stroke-width:1.5;stroke-linecap:butt;stroke-linejoin:miter;stroke-miterlimit:4;stroke-dasharray:none;stroke-opacity:1"
     d="m 830.79423,21.398968 c -18.73909,8.271945 -40.15518,19.317245 -60.32995,23.362322 -9.91021,1.987015 -19.91701,2.314541 -29.71542,4.658638 -9.26745,2.217074 -22.22737,9.678467 -30.97982,10.648287 -20.62566,2.285441 -42.27391,1.308262 -62.59202,6.655156 -16.64245,4.379611 -32.92125,14.503194 -49.94717,17.30354 -12.21641,2.0093 -24.42344,0.707423 -36.67007,1.996518 -18.3427,1.930774 -36.76607,3.429846 -55.00508,5.989649 -25.12856,3.526735 -35.91507,-7.720546 -58.16631,-10.648287 -7.6478,-1.006272 -17.6193,-0.435488 -25.28971,0.665506 -21.97577,3.154355 -40.3029,17.712801 -61.36819,23.232763 -23.46769,6.14948 -46.34444,-1.51942 -70.17891,2.66202"
     id="path1159"
     sodipodi:nodetypes="cssssssssssc" />
  <path
     style="fill:none;stroke:#000000;stroke-width:2;stroke-linecap:butt;stroke-linejoin:miter;stroke-opacity:1;stroke-miterlimit:4;stroke-dasharray:none"
     d="m 791.91817,38.97807 c -18.63548,7.298077 -33.16188,20.822084 -50.34108,30.559319 -15.92514,9.026428 -33.46789,14.860127 -49.31492,23.958695 -14.09628,8.093366 -27.14756,17.562976 -41.01617,25.904936 -11.40109,6.85775 -23.48787,12.06547 -35.40553,17.96895 -7.65473,3.79181 -14.30606,9.37653 -21.87724,13.36126"
     id="path1161" />
  <path
     style="fill:none;stroke:#000000;stroke-width:2;stroke-linecap:butt;stroke-linejoin:miter;stroke-miterlimit:4;stroke-dasharray:none;stroke-opacity:1"
     d="m 806.9151,32.983978 c -6.67904,2.840672 -28.82115,10.763923 -35.03405,14.516106 -24.6835,14.907224 -46.094,52.608706 -60.69524,77.200136 -5.37259,9.04854 -10.79309,22.47635 -18.3351,29.94835 -18.54603,18.37384 -41.20015,30.81413 -63.09017,43.92425"
     id="path1163"
     sodipodi:nodetypes="csssc" />
  <path
     style="fill:none;stroke:#000000;stroke-width:1px;stroke-linecap:butt;stroke-linejoin:miter;stroke-opacity:1"
     d="M 805.31067,65.60986 C 790.65619,81.094689 789.50372,83.146 774.2827,96.340655 c -15.39891,13.348865 -35.30673,23.597915 -47.41809,40.596635 -3.21137,4.50727 -2.35775,11.46234 -5.69021,15.97243 -2.51537,3.40427 -7.69433,7.27794 -10.11592,11.31389 -8.66079,14.43455 -17.47602,27.27356 -30.97982,37.93452 -4.09614,3.23381 -9.56347,4.58064 -13.73738,7.85157"
     id="path1165" />
  <path
     style="fill:none;stroke:#000000;stroke-width:3;stroke-linecap:butt;stroke-linejoin:miter;stroke-miterlimit:4;stroke-dasharray:none;stroke-opacity:1"
     d="m 830.33515,5.2087341 c -11.60144,6.1511579 -15.11862,8.5231499 -20.58407,9.7866129 -7.01135,1.620833 -14.34286,1.212195 -21.49624,1.996566 -12.54012,1.375031 -24.97878,4.9073 -37.30227,7.32071 -15.47143,3.029897 -2.8385,-0.555698 -26.55419,3.327578 -13.9286,2.280709 -27.54869,6.913508 -41.09574,10.648288 -13.09061,3.608942 -26.76609,4.035617 -39.8313,6.655204 -13.44289,2.695313 -25.59125,10.522784 -39.19905,12.644853 -15.91559,2.481958 -32.12234,2.263448 -48.05039,4.658638 -8.26053,1.242182 -16.26114,4.587641 -24.65746,5.324144 -47.1014,4.131607 -94.54088,-3.327626 -141.28807,-3.327626"
     id="path1171"
     sodipodi:nodetypes="csssssssssc" />
  <path
     style="fill:none;stroke:#000000;stroke-width:1px;stroke-linecap:butt;stroke-linejoin:miter;stroke-opacity:1"
     d="m 651.59476,44.651355 c -4.73014,0.443671 -9.49728,0.592457 -14.19042,1.331012 -2.38253,0.374937 -4.63643,1.331044 -6.95465,1.996566 -5.47944,0.887357 -10.92126,2.050764 -16.43832,2.662072 -18.5702,2.057638 -38.15347,-0.01457 -56.90182,1.331012 -17.37598,1.247086 -33.59814,6.965566 -51.21161,5.989698 -7.85897,-0.435423 -15.6893,-2.946921 -23.57441,-3.944498 -10.58423,-1.339053 -21.64623,1.239523 -32.24435,0 -4.96155,-0.580287 -8.48321,-1.331012 -13.2771,-1.331012"
     id="path1173" />
  <path
     style="fill:none;stroke:#000000;stroke-width:1px;stroke-linecap:butt;stroke-linejoin:miter;stroke-opacity:1"
     d="m 644.75575,69.929944 c -18.50333,1.05539 -34.44203,13.711136 -50.10255,22.076563 -15.99269,8.542863 -32.18187,16.085433 -47.41819,25.955213 -6.6209,4.28889 -6.34171,6.56248 -13.90934,11.9793 -6.20069,4.43837 -25.76645,15.45118 -33.50885,17.30344 -16.75301,4.00794 -33.62234,7.82987 -50.57936,10.64829 -12.02926,1.99938 -23.37472,-0.22797 -35.19016,3.91752"
     id="path1175" />
  <path
     style="fill:none;stroke:#000000;stroke-width:1.7;stroke-linecap:butt;stroke-linejoin:miter;stroke-miterlimit:4;stroke-dasharray:none;stroke-opacity:1"
     d="m 833.83249,52.297694 c -10.21851,6.23119 -18.59551,20.561054 -27.72801,28.296877 -3.49256,2.958422 -10.75358,17.977714 -14.54154,23.958699 -10.86582,17.1565 -18.00526,35.39942 -27.18645,53.24143 -4.14246,8.05014 -10.86407,14.68856 -15.17378,22.62759 -5.01937,9.2463 -8.22615,16.39654 -15.17389,24.6242 -12.86926,15.24006 -43.35879,33.71667 -61.95973,41.92765 -11.78396,5.20177 -24.4217,9.77305 -35.40558,16.63794 -6.74393,4.21493 -13.68066,8.13605 -20.23174,12.6449 -6.95605,4.78756 -14.3731,12.16276 -22.12848,15.97243 -14.44486,7.09574 -30.86251,10.58078 -44.88921,18.63445 -11.83122,6.7931 -27.1676,19.61018 -40.46354,23.29319 -8.20306,2.27228 -14.61824,1.21731 -22.76073,1.99652 -11.30562,1.08191 -22.24943,2.7233 -33.50885,3.99313 -4.01111,0.45238 -8.28579,-0.59238 -12.28087,0 -9.11009,1.35084 -17.76665,5.73341 -26.86964,7.10283 -3.22963,0.48585 -6.68796,-0.49643 -9.91616,0 -6.1144,0.94026 -12.3803,3.26568 -18.33506,4.65863 -2.55607,0.59792 -5.22035,-0.10883 -7.85641,0.55074"
     id="path1177"
     sodipodi:nodetypes="csssssssssssssssssc" />
  <path
     style="fill:none;stroke:#000000;stroke-width:1px;stroke-linecap:butt;stroke-linejoin:miter;stroke-opacity:1"
     d="m 849.68668,26.573905 c -10e-4,-0.512239 7.37879,7.762864 7.84532,7.975355 14.07392,6.416335 28.94096,17.457927 44.25696,21.296575 1.83983,0.461117 3.80389,-0.198559 5.69021,0 10.93505,1.15106 21.8724,4.878636 32.87664,5.324144 4.00091,0.161978 8.0336,-0.448747 12.01256,0 1.99744,0.225271 3.70411,1.686801 5.69021,1.996518 13.27893,2.070752 30.2635,2.618921 43.62472,0.665506 15.0229,-2.196367 29.8819,-7.943593 44.8892,-9.317228 15.9459,-1.459548 32.0806,-2.94246 48.0504,-3.993083 7.9387,-0.52227 16.9134,0.06636 24.6575,-1.331061 22.5065,-4.061312 44.2965,-23.450448 68.1475,-27.880906 16.994,-3.15674 43.8484,-5.408532 61.3275,-3.993132 7.2358,0.585924 13.4104,3.327626 20.9294,3.327626"
     id="path1179"
     sodipodi:nodetypes="ccsssssssssssc" />
  <path
     style="fill:none;stroke:#000000;stroke-width:3;stroke-linecap:butt;stroke-linejoin:miter;stroke-miterlimit:4;stroke-dasharray:none;stroke-opacity:1"
     d="m 833.83249,52.297694 c 8.80978,9.273529 38.96305,47.535778 38.96529,47.537867 15.51352,14.490019 36.20232,23.980899 54.37288,34.606989 21.31117,12.46269 41.39763,23.99589 65.12093,31.27935 7.625,2.34099 16.06851,5.89372 24.02521,6.65516 17.5396,1.67847 35.5196,-1.15714 53.1083,0 25.2036,1.65811 52.0059,3.59813 77.1337,1.33101 34.9157,-3.15024 -0.5971,-0.24135 19.5995,-3.99313 11.1714,-2.07524 23.4417,-0.66836 34.7733,-1.33101 9.5432,-0.55807 18.9501,-2.03698 28.4509,-2.66203 7.1363,-0.46948 14.3523,0.35814 21.4962,0 16.5771,-0.83104 32.5612,-4.04454 48.6827,-6.65525 5.2724,-0.8538 9.9876,-3.62207 15.2665,-4.61242"
     id="path1181"
     sodipodi:nodetypes="ccssssssssssc" />
  <path
     style="fill:none;stroke:#000000;stroke-width:1px;stroke-linecap:butt;stroke-linejoin:miter;stroke-opacity:1"
     d="m 805.31067,65.60986 c -6.4809,3.99602 -12.76361,8.33288 -19.44267,11.98805 -5.74664,3.1449 -16.31678,4.75063 -21.67048,6.52168 -10.37364,3.43168 -19.51611,8.69982 -28.72887,14.43206 -13.30045,8.27564 -26.42676,19.60556 -38.23261,29.97123 -2.42546,2.12959 -3.82802,5.27191 -6.28141,7.36925 -4.14616,3.54445 -47.79089,16.71322 -55.56522,18.30978 -20.09143,4.12605 -35.61414,-6.38109 -53.67777,-3.74782 -14.68839,2.14124 -27.06171,13.83334 -41.95226,15.42147"
     id="path1183" />
  <path
     style="fill:none;stroke:#000000;stroke-width:2;stroke-linecap:butt;stroke-linejoin:miter;stroke-miterlimit:4;stroke-dasharray:none;stroke-opacity:1"
     d="m 858.59588,54.518911 c 1.17825,2.470468 4.30256,10.153914 6.57357,11.681665 21.25513,14.298767 49.97448,21.188934 73.34014,31.279357 38.54235,16.644457 78.30641,33.928407 120.12601,39.931127 12.7621,1.83186 33.7368,2.81126 46.3426,-0.53633 7.8589,-2.08702 17.7154,2.85687 25.3887,3.26072 12.8756,0.67764 25.2332,-2.66212 37.8505,-2.66212"
     id="path1185"
     sodipodi:nodetypes="csssssc" />
  <path
     style="fill:none;stroke:#000000;stroke-width:1px;stroke-linecap:butt;stroke-linejoin:miter;stroke-opacity:1"
     d="m 839.22274,14.594509 c 31.12046,7.848037 71.75372,24.740997 103.45335,30.629435 7.5386,1.40035 15.28108,1.640438 22.76073,3.327577 9.65511,2.177848 19.45126,5.620477 29.08317,7.986216 14.21241,3.490768 27.92631,4.649007 42.36021,5.98965 7.8474,0.72888 15.5117,3.53225 23.393,3.993132 16.3281,0.954835 32.6332,-0.861631 48.3852,-3.970507 6.5083,-1.284509 14.0848,0.436255 20.7159,0 7.3412,-0.482967 14.2169,-2.962754 21.4963,-3.327626 8.6483,-0.433496 17.2635,-0.231508 25.9219,-0.665506 6.8687,-0.34429 13.5582,-2.715895 20.2318,-3.993132 9.6396,-1.844908 19.1988,-1.998115 28.8402,-3.312833 13.5999,-1.854508 27.3789,-6.611211 41.1646,-6.611211"
     id="path1187"
     sodipodi:nodetypes="csssssssssssc" />
  <path
     style="fill:none;stroke:#000000;stroke-width:3;stroke-linecap:butt;stroke-linejoin:miter;stroke-miterlimit:4;stroke-dasharray:none;stroke-opacity:1"
     d="m 832.12481,5.2158479 c 18.7121,14.8376761 45.6244,16.3017461 68.26231,20.7697741 10.29606,2.032126 20.33307,4.220196 30.34767,7.320709 10.09993,3.126933 18.78108,8.017906 29.5203,9.273767 6.38858,0.747089 13.06077,-0.454026 19.47333,0 12.28141,0.869555 25.01648,1.557376 37.30228,0.665505 10.8383,-0.786795 19.4204,-3.141324 30.3477,-2.662071 8.0145,0.351509 16.0798,1.399176 24.0252,1.996566 12.3481,0.92842 25.0049,-0.611882 37.3022,-1.331061 14.7513,-0.862687 29.5187,-0.469143 44.257,-1.331011 16.0995,-0.941471 32.0059,-3.532733 48.0504,-4.658638 11.0982,-0.778803 22.5374,1.948703 33.5089,0.665506 22.0168,-2.575017 43.7039,-5.302374 65.7532,-7.320662 11.125,-1.018322 19.53,-5.324144 31.901,-5.324144"
     id="path1191"
     sodipodi:nodetypes="cssssssssssssc" />
  <path
     style="fill:none;stroke:#000000;stroke-width:1px;stroke-linecap:butt;stroke-linejoin:miter;stroke-opacity:1"
     d="m 833.54261,10.083561 c 2.66315,7.117648 21.34689,22.369204 25.36231,28.821316 5.11093,8.212426 13.06223,14.300733 18.96725,21.962081 8.97209,11.64065 16.01263,27.404862 22.76073,40.596632 5.94823,11.62811 11.17709,35.26732 22.02754,43.1524 9.61293,6.98575 21.80385,10.34257 33.14216,12.44881 4.89642,0.90958 11.07908,0.44268 15.69706,2.85473 5.0218,2.62297 9.62051,7.32897 14.37562,10.53787 7.60431,5.13161 15.46382,9.98023 23.06742,15.11964 11.9132,8.05233 24.0062,10.92294 36.6281,16.43624 8.5738,3.74513 18.4153,11.12121 27.602,12.87937 6.0339,1.1548 12.8989,0.66551 19.1276,0.66551"
     id="path1193"
     sodipodi:nodetypes="cssssssssssc" />
  <path
     style="fill:none;stroke:#000000;stroke-width:1px;stroke-linecap:butt;stroke-linejoin:miter;stroke-opacity:1"
     d="m 1128.3655,169.56961 c 21.853,1.88736 41.3843,-7.04321 61.5877,-14.13217 3.3049,-1.1596 6.8206,-4.05473 10.116,-5.32414 5.3072,-2.04438 12.1787,-4.09385 17.506,-6.58612 5.0274,-2.35199 10.2695,-7.02248 15.9775,-8.42552 5.0513,-1.24162 7.9478,-3.19998 13.0579,-5.21711 8.8023,-3.4746 17.9713,-5.31068 26.769,-8.87241 3.9969,-1.61814 6.9711,-4.66725 10.7482,-6.65516"
     id="path1195" />
  <path
     style="fill:none;stroke:#000000;stroke-width:1px;stroke-linecap:butt;stroke-linejoin:miter;stroke-opacity:1"
     d="m 1185.6233,38.706037 c 15.3805,5.815958 12.6891,5.267424 32.0722,9.801443 26.2821,6.147842 54.2182,5.990531 80.2948,12.644854 20.668,5.27413 40.3164,13.844359 60.6952,19.300009 4.2382,1.134609 10.1767,0.999515 14.7245,1.957262 5.6505,1.189978 10.9471,-1.847714 16.511,-1.847714"
     id="path1199" />
  <path
     style="fill:none;stroke:#000000;stroke-width:1px;stroke-linecap:butt;stroke-linejoin:miter;stroke-opacity:1"
     d="m 703.18418,33.454458 c -2.78047,3.14864 -5.10611,6.766772 -8.3414,9.44592 -10.09151,8.356791 -21.91253,14.014489 -32.24441,21.962129 -13.28816,10.221729 -24.36665,22.051698 -36.67002,33.275875 -6.0301,5.501178 -14.11728,8.275848 -20.14207,13.912968 -11.36535,10.63404 -17.03447,24.80467 -30.27244,33.86229 -12.03122,8.23194 -24.52799,15.50774 -37.30232,21.96208 -6.99628,3.53494 -14.82657,5.47422 -21.75478,9.12061"
     id="path1201" />
  <path
     style="fill:none;stroke:#000000;stroke-width:1px;stroke-linecap:butt;stroke-linejoin:miter;stroke-opacity:1"
     d="m 464.99896,88.013855 c -4.70563,2.3143 -9.85322,3.89001 -14.11688,6.9429 -2.85387,2.043441 -21.44448,21.966245 -23.39297,23.958695 -26.11997,26.70921 -53.69237,61.09227 -90.51093,73.67207"
     id="path1203" />
  <path
     style="fill:none;stroke:#000000;stroke-width:1px;stroke-linecap:butt;stroke-linejoin:miter;stroke-opacity:1"
     d="m 554.00716,311.0468 c -25.7438,26.30786 -34.32738,63.5737 -58.16007,91.16947 -10.93755,12.66454 -24.83549,23.60025 -37.93456,33.94138"
     id="path1205" />
  <path
     style="fill:none;stroke:#000000;stroke-width:1px;stroke-linecap:butt;stroke-linejoin:miter;stroke-opacity:1"
     d="m 695.35938,237.26556 c -10.71194,3.89609 -21.14848,8.65452 -32.13582,11.68827 -17.13543,4.73132 -35.73329,4.77223 -53.10839,8.65177 -9.30543,2.07773 -18.59807,4.22863 -27.81869,6.65516 -11.60854,3.05493 -23.34255,10.96348 -35.40558,11.9793 -12.62633,1.06324 -25.80246,0 -38.45286,0"
     id="path1207" />
  <path
     style="fill:none;stroke:#000000;stroke-width:3;stroke-linecap:butt;stroke-linejoin:miter;stroke-opacity:1;stroke-miterlimit:4;stroke-dasharray:none"
     d="m 805.31067,65.60986 c -2.73212,9.018525 -4.92417,18.218666 -8.19637,27.055575 -2.98904,8.072175 -24.21369,34.401845 -30.34757,41.262135 -7.76599,8.68568 -17.36004,15.61165 -25.05379,24.44649 -7.19946,8.26723 -13.14371,17.55995 -20.22044,25.94023 -6.01428,7.12213 -13.1193,11.49045 -20.15923,17.25771 -2.98552,2.4458 -5.42011,5.99703 -8.19056,8.6217 -5.70216,5.40208 -14.63696,9.89026 -21.49624,13.31041 -6.76648,3.37387 -15.53521,2.94729 -22.76073,5.32414 -19.08876,6.2793 -38.18046,14.0273 -58.4191,15.21082 -14.58325,0.8528 -27.98338,-5.67484 -42.36022,-3.99314 -13.99384,1.63691 -22.9994,11.84241 -35.18185,17.91674 -7.71914,3.84887 -22.70348,4.61194 -31.74781,4.61194"
     id="path1209" />
  <path
     style="fill:none;stroke:#000000;stroke-width:1px;stroke-linecap:butt;stroke-linejoin:miter;stroke-opacity:1"
     d="m 633.71012,237.99691 c -5.39157,-0.22183 -10.78548,-0.39266 -16.1747,-0.6655 -7.91194,-0.40056 -27.73893,-1.24791 -36.16715,-4.63688 -5.90233,-2.37332 -11.98607,-8.9352 -18.29692,-9.54276 -9.55987,-0.92035 -19.06666,1.14471 -28.47442,-1.33101"
     id="path1211" />
  <path
     style="fill:none;stroke:#000000;stroke-width:1px;stroke-linecap:butt;stroke-linejoin:miter;stroke-opacity:1"
     d="m 678.50216,100.22864 c -1.46403,1.84024 -13.75007,17.68022 -17.77093,21.71117 -11.50267,11.53152 -36.492,28.76249 -44.70144,41.72567 -2.97316,4.69477 -3.70928,7.64062 -5.69011,12.6448 -3.19206,8.06409 -12.83952,15.67011 -20.31819,19.60584"
     id="path1213" />
  <path
     style="fill:none;stroke:#000000;stroke-width:1px;stroke-linecap:butt;stroke-linejoin:miter;stroke-opacity:1"
     d="m 523.31562,134.66424 c -6.17411,12.88811 -18.63669,20.83889 -25.58267,33.19732 -8.63984,15.37216 -8.79607,22.54497 -26.64016,31.93659"
     id="path1215" />
  <path
     style="fill:none;stroke:#000000;stroke-width:1px;stroke-linecap:butt;stroke-linejoin:miter;stroke-opacity:1"
     d="m 637.57881,264.61831 c -2.51767,8.57852 -5.31858,16.87965 -7.26893,25.47177 -2.1462,9.45495 6.78671,18.01856 1.26913,27.13162 -3.75934,6.2091 -9.93467,10.17485 -14.62981,15.11684"
     id="path1217" />
  <path
     style="fill:none;stroke:#000000;stroke-width:1px;stroke-linecap:butt;stroke-linejoin:miter;stroke-opacity:1"
     d="m 1007.1013,122.05197 c 4.7518,6.85293 9.7622,13.53354 14.2553,20.5588 8.1173,12.69194 7.4989,17.26802 24.0321,22.17963"
     id="path1219" />
  <path
     style="fill:none;stroke:#000000;stroke-width:1px;stroke-linecap:butt;stroke-linejoin:miter;stroke-opacity:1"
     d="m 1106.1128,136.4962 c 4.8266,-2.84138 28.0284,-20.81087 37.5065,-20.81087"
     id="path1221" />
  <path
     style="fill:none;stroke:#000000;stroke-width:1px;stroke-linecap:butt;stroke-linejoin:miter;stroke-opacity:1"
     d="m 1138.5525,78.446881 c 2.3936,1.936056 4.6894,3.999755 7.1808,5.808166 2.6418,1.917491 5.9708,2.957529 8.2191,5.324144 3.8698,4.073523 13.8011,20.753949 17.9579,22.927899 7.1716,3.75062 16.9395,1.31994 24.8811,1.31994"
     id="path1223" />
  <path
     style="fill:none;stroke:#000000;stroke-width:1px;stroke-linecap:butt;stroke-linejoin:miter;stroke-opacity:1"
     d="m 1265.404,64.767124 c 3.1479,5.305789 6.3228,10.59561 9.4436,15.917367 3.2909,5.611728 6.386,10.059941 10.4922,14.994719 2.2514,2.705747 6.7811,5.71165 8.5458,8.68856 2.746,4.63242 2.0449,5.50276 6.0919,8.66859"
     id="path1225" />
  <path
     style="fill:none;stroke:#000000;stroke-width:1px;stroke-linecap:butt;stroke-linejoin:miter;stroke-opacity:1"
     d="m 1271.1794,163.08356 c 1.659,9.40738 12.1444,11.18515 16.6255,18.03682 7.8666,12.02819 11.4775,18.86859 26.1666,24.81555 5.5736,2.2565 2.584,1.99652 6.3225,1.99652"
     id="path1227" />
  <path
     style="fill:none;stroke:#000000;stroke-width:1px;stroke-linecap:butt;stroke-linejoin:miter;stroke-opacity:1"
     d="m 1018.7014,192.80004 c 7.715,12.77028 12.6681,29.07361 23.1411,40.09753"
     id="path1229" />
  <path
     style="fill:none;stroke:#000000;stroke-width:1px;stroke-linecap:butt;stroke-linejoin:miter;stroke-opacity:1"
     d="m 985.90448,292.51667 c 5.60348,-0.32059 11.20291,-0.72207 16.81042,-0.96176 10.2479,-0.43803 19.9399,3.60292 29.5503,6.60468 3.951,1.23409 7.4049,3.7695 11.5867,3.7695"
     id="path1231" />
  <path
     style="fill:none;stroke:#000000;stroke-width:1px;stroke-linecap:butt;stroke-linejoin:miter;stroke-opacity:1"
     d="m 983.73586,362.23574 c 21.53374,14.13928 44.33074,28.23801 68.76044,34.59045 5.5133,1.43362 9.9195,5.13357 15.9742,5.13357"
     id="path1233" />
  <path
     style="fill:none;stroke:#000000;stroke-width:1px;stroke-linecap:butt;stroke-linejoin:miter;stroke-opacity:1"
     d="m 454.10818,339.92712 c -0.17632,8.87517 -8.09482,15.16415 -8.72815,23.83078 -0.14552,1.99124 0.46135,4.04713 0,5.98965 -0.63375,2.66837 -9.97802,14.87025 -12.01261,21.29658 -0.71499,2.25832 -13.75627,13.81477 -16.21256,16.40037"
     id="path1235" />
  <path
     style="fill:none;stroke:#000000;stroke-width:1px;stroke-linecap:butt;stroke-linejoin:miter;stroke-opacity:1"
     d="m 531.65973,242.51468 c -14.36043,0.68129 -13.97523,1.39032 -29.43677,-1.37994 -15.08296,-2.70243 -29.24857,-9.01717 -44.25696,-11.9793 -17.51029,-3.45591 -37.10447,-5.83629 -55.00508,-4.65864 -5.15521,0.33916 -10.31609,1.33102 -15.4684,1.33102"
     id="path1237" />
  <path
     style="fill:none;stroke:#000000;stroke-width:1px;stroke-linecap:butt;stroke-linejoin:miter;stroke-opacity:1"
     d="m 584.51934,400.20641 c -15.32335,-2.99556 -30.85597,-4.30063 -46.0339,-8.10461 -21.60303,-5.41428 -34.04828,-11.08509 -54.19179,-1.66111"
     id="path1239" />
  <path
     style="fill:none;stroke:#000000;stroke-width:1px;stroke-linecap:butt;stroke-linejoin:miter;stroke-opacity:1"
     d="m 783.5091,206.8243 c -9.26268,1.17441 -18.86687,0.7684 -27.78805,3.52323 -3.9488,1.21938 -6.38553,5.25096 -9.48368,7.98617 -3.82716,3.37881 -29.05403,26.48301 -31.58257,32.49792 -0.4109,0.97746 0.33435,2.17472 0,3.18095 -0.8198,2.46719 -7.92219,10.72954 -9.03901,12.14028 -8.69774,10.98681 -23.38053,16.80496 -34.54249,24.63774"
     id="path1241" />
  <path
     style="fill:none;stroke:#000000;stroke-width:1px;stroke-linecap:butt;stroke-linejoin:miter;stroke-opacity:1"
     d="m 690.8832,320.20048 c -17.96441,0.59755 -37.89353,-3.44951 -55.79314,0.13932 -3.0209,0.60569 -5.82533,2.08288 -8.85143,2.66203 -12.71435,2.43331 -26.18761,0.0345 -38.90198,0.0345"
     id="path1243" />
  <path
     style="fill:none;stroke:#000000;stroke-width:1px;stroke-linecap:butt;stroke-linejoin:miter;stroke-opacity:1"
     d="m 384.40575,158.11687 c -1.19868,2.72229 -2.97723,5.25745 -3.59604,8.16688 -1.91445,15.61783 -1.6044,17.57424 -4.42571,29.94834 -2.26444,9.9317 -8.21914,18.65187 -8.21914,29.10368"
     id="path1245" />
  <path
     style="fill:none;stroke:#000000;stroke-width:1px;stroke-linecap:butt;stroke-linejoin:miter;stroke-opacity:1"
     d="m 367.43148,100.30642 c -8.17402,11.69314 -15.71831,22.86129 -25.11383,33.52737"
     id="path1247" />
  <path
     style="fill:none;stroke:#000000;stroke-width:1px;stroke-linecap:butt;stroke-linejoin:miter;stroke-opacity:1"
     d="m 459.45142,66.956197 c -7.75471,-10.897261 -16.94985,-9.928969 -27.26167,-12.109732 -7.19807,-1.522265 -13.17153,-5.086911 -20.25379,-7.053947 -2.48483,-0.69014 -2.3155,0.14397 -4.24819,-1.159438"
     id="path1249" />
  <path
     style="fill:none;stroke:#000000;stroke-width:1px;stroke-linecap:butt;stroke-linejoin:miter;stroke-opacity:1"
     d="M 544.83429,62.889533 C 532.81558,56.383316 520.99777,46.465544 507.70219,43.109273"
     id="path1251" />
  <path
     style="fill:none;stroke:#000000;stroke-width:1px;stroke-linecap:butt;stroke-linejoin:miter;stroke-opacity:1"
     d="M 630.44969,47.978933 C 619.62415,41.078781 609.41936,30.095301 596.91962,25.709528"
     id="path1253" />
  <path
     style="fill:none;stroke:#000000;stroke-width:1px;stroke-linecap:butt;stroke-linejoin:miter;stroke-opacity:1"
     d="m 1045.3658,37.155011 c 13.194,-2.941343 24.2382,-22.727756 38.5986,-22.727756"
     id="path1255" />
  <path
     style="fill:none;stroke:#000000;stroke-width:1px;stroke-linecap:butt;stroke-linejoin:miter;stroke-opacity:1"
     d="m 1099.9176,84.097203 c 8.5805,5.513627 20.0177,18.848817 31.4034,18.848817"
     id="path1257" />
  <path
     style="fill:none;stroke:#000000;stroke-width:1px;stroke-linecap:butt;stroke-linejoin:miter;stroke-opacity:1"
     d="m 746.89491,153.33509 c -27.8125,-0.61509 -54.26684,21.89484 -81.83968,21.89484"
     id="path1259"
     sodipodi:nodetypes="cc" />
  <path
     style="fill:none;stroke:#000000;stroke-width:1px;stroke-linecap:butt;stroke-linejoin:miter;stroke-opacity:1"
     d="m 738.82901,81.0959 c 5.25108,24.704 -5.19187,40.39292 7.87421,58.59236"
     id="path1261" />
  <path
     style="fill:none;stroke:#000000;stroke-width:1px;stroke-linecap:butt;stroke-linejoin:miter;stroke-opacity:1"
     d="m 644.75575,69.929944 c 0.96822,8.815785 2.81475,17.579017 2.90466,26.447356 0.0412,4.06368 -2.9969,8.58712 -2.52898,13.01415 0.78739,7.4496 5.40982,38.30911 2.60769,44.20795"
     id="path1263" />
  <path
     style="fill:none;stroke:#000000;stroke-width:1px;stroke-linecap:butt;stroke-linejoin:miter;stroke-opacity:1"
     d="m 931.52144,206.01289 c 9.47822,-4.16136 35.47516,8.40773 46.82636,3.59865 5.89164,-2.49607 11.18931,-6.353 16.84215,-9.3078"
     id="path1265" />
  <path
     style="fill:none;stroke:#000000;stroke-width:1px;stroke-linecap:butt;stroke-linejoin:miter;stroke-opacity:1"
     d="m 1045.3887,164.7904 c 8.0075,5.12996 15.8847,10.4691 24.0224,15.38988 9.4648,5.72326 47.7609,12.47289 59.5633,12.47289"
     id="path1267" />
  <path
     style="fill:none;stroke:#000000;stroke-width:1px;stroke-linecap:butt;stroke-linejoin:miter;stroke-opacity:1"
     d="m 982.62598,116.3644 c 22.97122,-3.59144 49.71532,-7.02855 66.22692,-24.3802"
     id="path1269" />
  <path
     style="fill:none;stroke:#000000;stroke-width:1px;stroke-linecap:butt;stroke-linejoin:miter;stroke-opacity:1"
     d="m 1083.8223,140.60497 c 6.7553,12.2845 19.4652,15.79067 31.434,20.80298 1.5107,0.63265 3.9925,0.20452 5.1838,1.20406 2.693,2.25951 5.2836,4.6384 7.9254,6.9576"
     id="path1271" />
  <path
     style="fill:none;stroke:#000000;stroke-width:1px;stroke-linecap:butt;stroke-linejoin:miter;stroke-opacity:1"
     d="m 482.26392,148.25688 c -12.96995,9.9924 -27.34697,17.2744 -39.90212,27.1863"
     id="path1275" />
  <path
     style="fill:none;stroke:#000000;stroke-width:1px;stroke-linecap:butt;stroke-linejoin:miter;stroke-opacity:1"
     d="m 524.93283,356.45401 c 6.77186,12.30382 6.46043,25.25867 6.46043,38.83638"
     id="path1277" />
  <path
     style="fill:none;stroke:#000000;stroke-width:1px;stroke-linecap:butt;stroke-linejoin:miter;stroke-opacity:1"
     d="m 442.57345,100.75511 c 0.73529,10.068 -0.33321,21.40927 1.7315,31.58938"
     id="path1279" />
  <path
     style="fill:none;stroke:#000000;stroke-width:1px;stroke-linecap:butt;stroke-linejoin:miter;stroke-opacity:1"
     d="m 410.01612,84.400225 c -11.492,16.039675 -11.13153,15.762575 -13.9091,30.093815"
     id="path1281" />
  <path
     style="fill:none;stroke:#000000;stroke-width:1px;stroke-linecap:butt;stroke-linejoin:miter;stroke-opacity:1"
     d="m 679.615,690.358 c -2.70341,7.80757 -6.2703,15.36781 -8.11024,23.4227 -0.67076,2.93646 4.08268,25.0906 4.98093,31.44481 0.53857,3.80977 2.47447,6.95132 2.47447,10.80621"
     id="path1283" />
  <path
     style="fill:none;stroke:#000000;stroke-width:1px;stroke-linecap:butt;stroke-linejoin:miter;stroke-opacity:1"
     d="m 712.96827,903.24917 c 1.61905,18.8911 -14.79942,30.09076 -26.05508,42.72863 -8.38505,9.41474 -10.722,18.5646 -21.52943,26.7253"
     id="path1285" />
  <path
     style="fill:none;stroke:#000000;stroke-width:1px;stroke-linecap:butt;stroke-linejoin:miter;stroke-opacity:1"
     d="m 756.21216,737.30554 c 0.23798,22.64251 12.21456,42.11511 16.37073,63.74911"
     id="path1287" />
  <path
     style="fill:none;stroke:#000000;stroke-width:1px;stroke-linecap:butt;stroke-linejoin:miter;stroke-opacity:1"
     d="m 691.07403,1029.8035 c -12.62374,24.9003 -1.13605,47.4409 12.04094,68.7802 9.10341,14.7425 2.59362,1.5026 6.26618,9.2344"
     id="path1289" />
  <text
     xml:space="preserve"
     id="text1297"
     style="fill:black;fill-opacity:1;line-height:1.25;stroke:none;font-family:sans-serif;font-style:normal;font-weight:normal;font-size:40px;white-space:pre;shape-inside:url(#rect1299);" />
  <text
     xml:space="preserve"
     id="text1303"
     style="fill:black;fill-opacity:1;line-height:1.25;stroke:none;font-family:sans-serif;font-style:normal;font-weight:normal;font-size:40px;white-space:pre;shape-inside:url(#rect1305);" />
  <text
     xml:space="preserve"
     id="text1600"
     style="fill:black;fill-opacity:1;line-height:1.25;stroke:none;font-family:sans-serif;font-style:normal;font-weight:normal;font-size:40px;white-space:pre;shape-inside:url(#rect1602);" />
  <a
     xlink:href="incontri/approdi"
     style="fill:none;stroke:#000000;stroke-opacity:0"
     id="a1744">
    <rect
       style="fill:none;fill-opacity:0;stroke:#000000;stroke-width:1.6;stroke-miterlimit:4;stroke-dasharray:none;paint-order:stroke fill markers;stroke-opacity:0"
       id="rect1742"
       width="155.29356"
       height="72.825287"
       x="574.26599"
       y="1116.5785" />
  </a>
  <a
     xlink:href="al-terzo-luogo"
     style="stroke:#000000;stroke-opacity:0;fill:none"
     id="a1761">
    <rect
       style="fill:none;fill-opacity:0;stroke:#000000;stroke-width:1.6;stroke-miterlimit:4;stroke-dasharray:none;paint-order:stroke fill markers;stroke-opacity:0"
       id="rect1759"
       width="246.23782"
       height="64.492371"
       x="1084.2841"
       y="384.73419" />
  </a>
  <rect
     style="fill:none;fill-opacity:0;stroke:#000000;stroke-width:1.6;stroke-miterlimit:4;stroke-dasharray:none;paint-order:stroke fill markers;stroke-opacity:0"
     id="rect1764"
     width="481.53995"
     height="69.214066"
     x="884.3266"
     y="673.69519" />
  <a
     xlink:href="prima-la-pratica"
     transform="translate(6.113696,2.785228)"
     id="a1766">
    <text
       xml:space="preserve"
       id="text1291-5-7"
       style="font-style:normal;font-weight:normal;font-size:40px;line-height:1.25;font-family:sans-serif;white-space:pre;shape-inside:url(#rect1293-0-1);fill:#000000;fill-opacity:1;stroke:none;"
       transform="translate(994.65663,1073.7333)"
       inkscape:transform-center-x="287.79494"
       inkscape:transform-center-y="-4.5062806"><tspan
         x="-98.890625"
         y="-357.63352"><tspan
           style="font-style:normal;font-variant:normal;font-weight:normal;font-stretch:normal;font-family:'Advent Pro';-inkscape-font-specification:'Advent Pro'">Place du Vallon - Losanna</tspan></tspan></text>
  </a>
  <a
     id="a11441"
     xlink:href="file:///home/boro/losanna"
     transform="translate(-60,-60)">
    <rect
       style="mix-blend-mode:multiply;fill:#ffffff;fill-opacity:1;stroke:none;stroke-width:1.84449;stroke-opacity:1;paint-order:stroke fill markers"
       id="rect3039-6-5-6"
       width="424.68515"
       height="52.158974"
       x="954.18817"
       y="741.78351" />
  </a>
  <text
     xml:space="preserve"
     id="text1291-5-7-3"
     style="font-style:normal;font-weight:normal;font-size:40px;line-height:1.25;font-family:sans-serif;white-space:pre;shape-inside:url(#rect1293-0-1-9);fill:#000000;fill-opacity:1;stroke:none;"
     transform="translate(994.3486,1306.3552)"
     inkscape:transform-center-x="287.79494"
     inkscape:transform-center-y="-4.5062806"><tspan
       x="-98.890625"
       y="-357.63352"><tspan
         style="font-style:normal;font-variant:normal;font-weight:normal;font-stretch:normal;font-family:'Advent Pro';-inkscape-font-specification:'Advent Pro'">Asfalto Mon Amour - Lecce</tspan></tspan></text>
  <a
     id="a1777"
     style="fill:none;stroke:#000000;stroke-opacity:0"
     transform="translate(-31.98102,-218.10058)">
    <rect
       style="fill:none;fill-opacity:0;stroke:#000000;stroke-width:1.6;stroke-miterlimit:4;stroke-dasharray:none;stroke-opacity:0;paint-order:stroke fill markers"
       id="rect1775"
       width="429.72284"
       height="62.377632"
       x="910.151"
       y="1123.4042" />
  </a>
  <a
     xlink:href="file:///home/boro/lecce"
     style="mix-blend-mode:multiply"
     id="a3151-3-3-3-0-2"
     transform="matrix(2.1071328,0,0,0.83848378,-563.44485,-638.14986)"
     inkscape:transform-center-x="-120.47542"
     inkscape:transform-center-y="-211.28655">
    <rect
       style="opacity:1;mix-blend-mode:multiply;fill:#ffffff;fill-opacity:1;stroke:none;stroke-width:1.6;stroke-opacity:1;paint-order:stroke fill markers"
       id="rect3039-6-5-6-6-6"
       width="204.0694"
       height="81.678093"
       x="689.63275"
       y="1838.382" />
  </a>
  <a
     id="a16798"
     xlink:href="file:///home/boro/matera">
    <g
       id="g11476"
       transform="translate(77.36416,-323.00823)">
      <text
         xml:space="preserve"
         id="text1291-5-7-3-1-8"
         style="font-style:normal;font-weight:normal;font-size:40px;line-height:1.25;font-family:sans-serif;white-space:pre;shape-inside:url(#rect1293-0-1-9-9-8);fill:#000000;fill-opacity:1;stroke:none;"
         transform="translate(309.66293,1616.2162)"
         inkscape:transform-center-x="287.79494"
         inkscape:transform-center-y="-4.5062806"><tspan
           x="-98.890625"
           y="-357.63352"><tspan
             style="font-style:normal;font-variant:normal;font-weight:normal;font-stretch:normal;font-family:'Advent Pro';-inkscape-font-specification:'Advent Pro'">Giardini Venerd - Matera</tspan></tspan></text>
      <a
         xlink:href="matera"
         id="a16790">
        <rect
           style="mix-blend-mode:multiply;fill:#ffffff;fill-opacity:1;stroke:none;stroke-width:2.04565;stroke-opacity:1;paint-order:stroke fill markers"
           id="rect3039-6-5-6-6-8-9-0-3"
           width="397.8374"
           height="68.485756"
           x="205.90762"
           y="1210.3998" />
      </a>
    </g>
  </a>
  <text
     xml:space="preserve"
     id="text1291-5-7-3-1"
     style="font-style:normal;font-weight:normal;font-size:40px;line-height:1.25;font-family:sans-serif;white-space:pre;shape-inside:url(#rect1293-0-1-9-9);fill:#000000;fill-opacity:1;stroke:none;"
     transform="translate(219.25948,897.27978)"
     inkscape:transform-center-x="287.79494"
     inkscape:transform-center-y="-4.5062806"><tspan
       x="-98.890625"
       y="-357.63352"><tspan
         style="font-style:normal;font-variant:normal;font-weight:normal;font-stretch:normal;font-family:'Advent Pro';-inkscape-font-specification:'Advent Pro'">Diventare Giardino - Palermo</tspan></tspan></text>
  <a
     id="a11444"
     xlink:href="file:///home/boro/palermo"
     transform="translate(6.5455018,-65.40465)">
    <rect
       style="mix-blend-mode:multiply;fill:#ffffff;fill-opacity:1;stroke:none;stroke-width:2.21592;stroke-opacity:1;paint-order:stroke fill markers;filter:url(#filter11436)"
       id="rect3039-6-5-6-6-8-9-0-3-8"
       width="466.82452"
       height="68.485756"
       x="104.2349"
       y="560.42395" />
  </a>
</svg>
